<svg xmlns="http://www.w3.org/2000/svg" viewBox="0 0 600 350" width="600" height="350">
<defs><style>.health-title { font-family: system-ui, Arial; font-size: 18px; font-weight: bold; fill: #333; }.health-label { font-family: system-ui, Arial; font-size: 12px; fill: #666; }.health-value { font-family: system-ui, Arial; font-size: 14px; font-weight: bold; fill: #333; }.health-state { font-family: system-ui, Arial; font-size: 24px; font-weight: bold; }.gauge-bg { fill: #e0e0e0; }.gauge-fill { transition: width 0.3s; }.legend-item { font-family: system-ui, Arial; font-size: 10px; fill: #666; }.card { fill: #fff; stroke: #e0e0e0; stroke-width: 1; rx: 8; }</style></defs>
<rect width="600" height="350" fill="#fafafa"/>
<text x="20" y="35" class="health-title">System Health Dashboard</text>
<rect x="20" y="50" width="200" height="100" class="card"/><rect x="20" y="50" width="200" height="30" fill="#f44336" rx="8"/><rect x="20" y="72" width="200" height="8" fill="#f44336"/><text x="120" y="70" text-anchor="middle" class="health-state" fill="#fff">SLA Crisis</text><text x="120" y="105" text-anchor="middle" class="health-value">Matches: sla</text><text x="120" y="125" text-anchor="middle" class="health-label">Queue: 26</text>
<text x="240" y="60" class="health-label">SLA Compliance</text><rect x="240" y="65" width="150" height="20" class="gauge-bg" rx="4"/><rect x="240" y="65" width="36" height="20" fill="#f44336" class="gauge-fill" rx="4"/><text x="400" y="80" class="health-value">24%</text>
<text x="240" y="110" class="health-label">Inventory Health</text><rect x="240" y="115" width="150" height="20" class="gauge-bg" rx="4"/><rect x="240" y="115" width="150" height="20" fill="#4caf50" class="gauge-fill" rx="4"/><text x="400" y="130" class="health-value">100%</text>
<rect x="420" y="50" width="160" height="100" class="card"/><text x="500" y="75" text-anchor="middle" class="health-label">Customer Disposition</text><text x="440" y="100" class="health-value" fill="#4caf50">😊 13 happy</text><text x="440" y="120" class="health-value" fill="#ff9800">😕 41 unhappy</text>
<text x="20" y="170" class="health-label">Health States:</text><rect x="20" y="180" width="12" height="12" fill="#4caf50" rx="2"/><text x="38" y="190" class="legend-item">Healthy</text><rect x="200" y="180" width="12" height="12" fill="#ffeb3b" rx="2"/><text x="218" y="190" class="legend-item">Busy</text><rect x="380" y="180" width="12" height="12" fill="#ff9800" rx="2"/><text x="398" y="190" class="legend-item">Stressed</text><rect x="20" y="205" width="12" height="12" fill="#f44336" rx="2"/><text x="38" y="215" class="legend-item">SLA Crisis</text><rect x="200" y="205" width="12" height="12" fill="#9c27b0" rx="2"/><text x="218" y="215" class="legend-item">Inventory Crisis</text><rect x="380" y="205" width="12" height="12" fill="#d32f2f" rx="2"/><text x="398" y="215" class="legend-item">Critical</text>
</svg>
