<svg xmlns="http://www.w3.org/2000/svg" viewBox="-120.0 -85.0 2400.0 250.0" width="2400" height="250">
<defs><style>.task { stroke-width: 2; }.task-manual { fill: #e3f2fd; stroke: #1976d2; }.task-automatic { fill: #f3e5f5; stroke: #7b1fa2; }.task-decision { fill: #fff3e0; stroke: #f57c00; }.task-subflow { fill: #e8f5e9; stroke: #388e3c; }.task-default { fill: #fafafa; stroke: #666; }.task-start { fill: #c8e6c9; stroke: #2e7d32; }.task-end { fill: #ffcdd2; stroke: #c62828; }.dependency { stroke: #666; stroke-width: 1.5; fill: none; }.dependency-fs { stroke: #666; }.dependency-ss { stroke: #2196f3; stroke-dasharray: 5,3; }.dependency-ff { stroke: #4caf50; stroke-dasharray: 5,3; }.dependency-sf { stroke: #ff9800; stroke-dasharray: 5,3; }.arrowhead { fill: #666; }.task-label { font-family: system-ui, Arial; font-size: 12px; fill: #333; text-anchor: middle; dominant-baseline: middle; }.task-type { font-family: system-ui, Arial; font-size: 9px; fill: #666; text-anchor: middle; }.join-split { font-family: system-ui, Arial; font-size: 8px; fill: #999; text-anchor: middle; }.workflow-title { font-family: system-ui, Arial; font-size: 14px; font-weight: bold; fill: #333; }</style><marker id="arrowhead" markerWidth="10" markerHeight="7" refX="9" refY="3.5" orient="auto"><polygon points="0 0, 10 3.5, 0 7" class="arrowhead"/></marker></defs>
<text x="-110.0" y="-65.0" class="workflow-title">Coffee Order</text>
<line x1="60.0" y1="0.0" x2="110.0" y2="0.0" class="dependency dependency-fs" marker-end="url(#arrowhead)"/>
<line x1="240.0" y1="0.0" x2="290.0" y2="0.0" class="dependency dependency-fs" marker-end="url(#arrowhead)"/>
<line x1="420.0" y1="0.0" x2="470.0" y2="0.0" class="dependency dependency-fs" marker-end="url(#arrowhead)"/>
<path d="M 600.0 0.0 C 627.0 0.0 627.0 72.0 654.0 72.0" class="dependency dependency-fs" marker-end="url(#arrowhead)"/>
<line x1="600.0" y1="0.0" x2="650.0" y2="0.0" class="dependency dependency-fs" marker-end="url(#arrowhead)"/>
<path d="M 780.0 80.0 C 807.0 80.0 807.0 8.0 834.0 8.0" class="dependency dependency-fs" marker-end="url(#arrowhead)"/>
<line x1="960.0" y1="0.0" x2="1010.0" y2="0.0" class="dependency dependency-fs" marker-end="url(#arrowhead)"/>
<line x1="1140.0" y1="0.0" x2="1190.0" y2="0.0" class="dependency dependency-fs" marker-end="url(#arrowhead)"/>
<line x1="1320.0" y1="0.0" x2="1370.0" y2="0.0" class="dependency dependency-fs" marker-end="url(#arrowhead)"/>
<line x1="1500.0" y1="0.0" x2="1550.0" y2="0.0" class="dependency dependency-fs" marker-end="url(#arrowhead)"/>
<line x1="1680.0" y1="0.0" x2="1730.0" y2="0.0" class="dependency dependency-fs" marker-end="url(#arrowhead)"/>
<line x1="1860.0" y1="0.0" x2="1910.0" y2="0.0" class="dependency dependency-fs" marker-end="url(#arrowhead)"/>
<line x1="2040.0" y1="0.0" x2="2090.0" y2="0.0" class="dependency dependency-fs" marker-end="url(#arrowhead)"/>
<rect x="660.0" y="55.0" width="120.0" height="50.0" rx="5.0" class="task task-manual"/>
<text x="720.0" y="80.0" class="task-label">Take Order</text>
<text x="720.0" y="115.0" class="task-type">manual</text>
<rect x="1200.0" y="-25.0" width="120.0" height="50.0" rx="5.0" class="task task-manual"/>
<text x="1260.0" y="0.0" class="task-label">Queue Order</text>
<text x="1260.0" y="35.0" class="task-type">manual</text>
<rect x="2100.0" y="-25.0" width="120.0" height="50.0" rx="5.0" class="task task-end"/>
<text x="2160.0" y="0.0" class="task-label">Complete Order</text>
<text x="2160.0" y="35.0" class="task-type">manual</text>
<rect x="660.0" y="-25.0" width="120.0" height="50.0" rx="5.0" class="task task-manual"/>
<text x="720.0" y="0.0" class="task-label">Customer Exits</text>
<text x="720.0" y="35.0" class="task-type">manual</text>
<rect x="300.0" y="-25.0" width="120.0" height="50.0" rx="5.0" class="task task-manual"/>
<text x="360.0" y="0.0" class="task-label">Show Menu</text>
<text x="360.0" y="35.0" class="task-type">manual</text>
<rect x="840.0" y="-25.0" width="120.0" height="50.0" rx="5.0" class="task task-manual"/>
<text x="900.0" y="0.0" class="task-label">Process Payment</text>
<text x="900.0" y="35.0" class="task-type">manual</text>
<rect x="1020.0" y="-25.0" width="120.0" height="50.0" rx="5.0" class="task task-manual"/>
<text x="1080.0" y="0.0" class="task-label">Confirm Order</text>
<text x="1080.0" y="35.0" class="task-type">manual</text>
<rect x="1380.0" y="-25.0" width="120.0" height="50.0" rx="5.0" class="task task-manual"/>
<text x="1440.0" y="0.0" class="task-label">Prepare Drink</text>
<text x="1440.0" y="35.0" class="task-type">manual</text>
<rect x="1560.0" y="-25.0" width="120.0" height="50.0" rx="5.0" class="task task-manual"/>
<text x="1620.0" y="0.0" class="task-label">Quality Check</text>
<text x="1620.0" y="35.0" class="task-type">manual</text>
<rect x="1740.0" y="-25.0" width="120.0" height="50.0" rx="5.0" class="task task-manual"/>
<text x="1800.0" y="0.0" class="task-label">Call Customer</text>
<text x="1800.0" y="35.0" class="task-type">manual</text>
<rect x="1920.0" y="-25.0" width="120.0" height="50.0" rx="5.0" class="task task-manual"/>
<text x="1980.0" y="0.0" class="task-label">Serve Drink</text>
<text x="1980.0" y="35.0" class="task-type">manual</text>
<rect x="-60.0" y="-25.0" width="120.0" height="50.0" rx="5.0" class="task task-start"/>
<text x="0.0" y="0.0" class="task-label">Detect Customer</text>
<text x="0.0" y="35.0" class="task-type">manual</text>
<rect x="120.0" y="-25.0" width="120.0" height="50.0" rx="5.0" class="task task-manual"/>
<text x="180.0" y="0.0" class="task-label">Greet Customer</text>
<text x="180.0" y="35.0" class="task-type">manual</text>
<rect x="480.0" y="-25.0" width="120.0" height="50.0" rx="5.0" class="task task-manual"/>
<text x="540.0" y="0.0" class="task-label">Await Selection</text>
<text x="540.0" y="35.0" class="task-type">manual</text>
</svg>
