<svg xmlns="http://www.w3.org/2000/svg" viewBox="-110.0 -80.0 220.0 710.0" width="220" height="710">
<defs><style>.state { stroke-width: 2; rx: 8; }.state-initial { stroke-width: 3; }.state-composite { stroke-dasharray: 5,3; }.transition { stroke: #666; stroke-width: 1.5; fill: none; }.transition-self { stroke: #999; }.arrowhead { fill: #666; }.initial-marker { fill: #333; }.state-label { font-family: system-ui, Arial; font-size: 11px; fill: #333; text-anchor: middle; dominant-baseline: middle; }.event-label { font-family: system-ui, Arial; font-size: 9px; fill: #666; text-anchor: middle; }.region-label { font-family: system-ui, Arial; font-size: 10px; fill: #999; font-style: italic; }.region-box { fill: none; stroke: #ddd; stroke-width: 1; stroke-dasharray: 3,3; }.chart-title { font-family: system-ui, Arial; font-size: 14px; font-weight: bold; fill: #333; }</style><marker id="sm-arrowhead" markerWidth="10" markerHeight="7" refX="9" refY="3.5" orient="auto"><polygon points="0 0, 10 3.5, 0 7" class="arrowhead"/></marker></defs>
<text x="-100.0" y="-60.0" class="chart-title">barista_1</text>
<rect x="-60.0" y="-30.0" width="120.0" height="200.0" class="region-box"/>
<text x="-55.0" y="-35.0" class="region-label">break_status</text>
<rect x="-60.0" y="310.0" width="120.0" height="270.0" class="region-box"/>
<text x="-55.0" y="305.0" class="region-label">work</text>
<path d="M 50.0 340.0 C 2.9 340.0 2.9 471.9 -44.2 471.9" class="transition" marker-end="url(#sm-arrowhead)"/>
<text x="2.9" y="395.9" class="event-label">order_assigned</text>
<path d="M 50.0 480.0 C 2.9 480.0 2.9 348.1 -44.2 348.1" class="transition" marker-end="url(#sm-arrowhead)"/>
<text x="2.9" y="404.1" class="event-label">drink_complete</text>
<path d="M 50.0 340.0 C 4.1 340.0 4.1 404.3 -41.8 404.3" class="transition" marker-end="url(#sm-arrowhead)"/>
<text x="4.1" y="362.1" class="event-label">cleaning_needed</text>
<path d="M 50.0 410.0 C 4.1 410.0 4.1 345.7 -41.8 345.7" class="transition" marker-end="url(#sm-arrowhead)"/>
<text x="4.1" y="367.9" class="event-label">cleaning_done</text>
<path d="M 50.0 340.0 C 2.1 340.0 2.1 541.0 -45.7 541.0" class="transition" marker-end="url(#sm-arrowhead)"/>
<text x="2.1" y="430.5" class="event-label">restock_needed</text>
<path d="M 50.0 550.0 C 2.1 550.0 2.1 349.0 -45.7 349.0" class="transition" marker-end="url(#sm-arrowhead)"/>
<text x="2.1" y="439.5" class="event-label">restock_done</text>
<path d="M 50.0 0.0 C 4.1 0.0 4.1 64.3 -41.8 64.3" class="transition" marker-end="url(#sm-arrowhead)"/>
<text x="4.1" y="22.1" class="event-label">take_break</text>
<path d="M 50.0 70.0 C 4.1 70.0 4.1 5.7 -41.8 5.7" class="transition" marker-end="url(#sm-arrowhead)"/>
<text x="4.1" y="27.9" class="event-label">return_from_break</text>
<path d="M 50.0 0.0 C 2.9 0.0 2.9 131.9 -44.2 131.9" class="transition" marker-end="url(#sm-arrowhead)"/>
<text x="2.9" y="55.9" class="event-label">end_shift</text>
<path d="M 50.0 70.0 C 4.1 70.0 4.1 134.3 -41.8 134.3" class="transition" marker-end="url(#sm-arrowhead)"/>
<text x="4.1" y="92.1" class="event-label">end_shift</text>
<rect x="-50.0" y="320.0" width="100.0" height="40.0" rx="8" fill="#e3f2fd" stroke="#1976d2" class="state state-initial"/>
<text x="0.0" y="340.0" class="state-label">available</text>
<rect x="-50.0" y="460.0" width="100.0" height="40.0" rx="8" fill="#e3f2fd" stroke="#1976d2" class="state"/>
<text x="0.0" y="480.0" class="state-label">making_drink</text>
<rect x="-50.0" y="390.0" width="100.0" height="40.0" rx="8" fill="#e3f2fd" stroke="#1976d2" class="state"/>
<text x="0.0" y="410.0" class="state-label">cleaning</text>
<rect x="-50.0" y="530.0" width="100.0" height="40.0" rx="8" fill="#e3f2fd" stroke="#1976d2" class="state"/>
<text x="0.0" y="550.0" class="state-label">restocking</text>
<rect x="-50.0" y="50.0" width="100.0" height="40.0" rx="8" fill="#f3e5f5" stroke="#7b1fa2" class="state"/>
<text x="0.0" y="70.0" class="state-label">on_break</text>
<rect x="-50.0" y="120.0" width="100.0" height="40.0" rx="8" fill="#f3e5f5" stroke="#7b1fa2" class="state"/>
<text x="0.0" y="140.0" class="state-label">shift_ended</text>
<rect x="-50.0" y="-20.0" width="100.0" height="40.0" rx="8" fill="#f3e5f5" stroke="#7b1fa2" class="state state-initial"/>
<text x="0.0" y="0.0" class="state-label">on_duty</text>
<circle cx="-70.0" cy="340.0" r="6" class="initial-marker"/>
<line x1="-62.0" y1="340.0" x2="-52.0" y2="340.0" stroke="#333" stroke-width="1.5" marker-end="url(#sm-arrowhead)"/>
<circle cx="-70.0" cy="0.0" r="6" class="initial-marker"/>
<line x1="-62.0" y1="0.0" x2="-52.0" y2="0.0" stroke="#333" stroke-width="1.5" marker-end="url(#sm-arrowhead)"/>
</svg>
