<svg xmlns="http://www.w3.org/2000/svg" viewBox="50.0 50.0 700.0 600.0" width="700" height="600">
<defs><style>.place { fill: #fff; stroke: #333; stroke-width: 2; }.place-cap-full { fill: #ffebee; }.transition { fill: #ffffff; stroke: #000; stroke-width: 1; }.transition-active { fill: #62fa75; stroke: #000; }.arc { stroke: #cfcfcf; stroke-width: 1; fill: none; }.arc-active { stroke: #2a6fb8; }.arrowhead { fill: #cfcfcf; }.arrowhead-active { fill: #2a6fb8; }.inhibitor { fill: #fff; stroke: #cfcfcf; stroke-width: 1.3; }.inhibitor-active { stroke: #2a6fb8; }.token-dot { fill: #333; }.token-text { font-family: system-ui, Arial; font-size: 12px; fill: #333; text-anchor: middle; dominant-baseline: middle; }.weight-badge { font-family: system-ui, Arial; font-size: 10px; fill: #666; text-anchor: middle; dominant-baseline: middle; }.weight-bg { fill: #fafafa; stroke: #ddd; stroke-width: 1; }.weight-bg-active { fill: #e8f0fb; stroke: #2a6fb8; }.label-text { font-family: system-ui, Arial; font-size: 11px; fill: #333; text-anchor: middle; dominant-baseline: hanging; }</style></defs>
<line x1="116.1" y1="108.0" x2="178.4" y2="139.2" stroke="#000000" stroke-width="1" fill="none"/>
<path d="M 178.4 139.2 L 169.6 138.8 L 172.8 132.4 Z" fill="#000000"/>
<circle cx="147.2" cy="123.6" r="10" fill="#d8d8d8" stroke="#000000" stroke-width="1"/>
<text x="147.2" y="123.6" font-family="system-ui, Arial" font-size="10px" fill="#000000" text-anchor="middle" dominant-baseline="middle">18</text>
<line x1="110.0" y1="285.0" x2="186.6" y2="170.1" stroke="#000000" stroke-width="1" fill="none"/>
<path d="M 186.6 170.1 L 185.1 178.8 L 179.1 174.8 Z" fill="#000000"/>
<circle cx="148.3" cy="227.6" r="10" fill="#d8d8d8" stroke="#000000" stroke-width="1"/>
<text x="148.3" y="227.6" font-family="system-ui, Arial" font-size="10px" fill="#000000" text-anchor="middle" dominant-baseline="middle">30</text>
<line x1="106.7" y1="383.3" x2="191.0" y2="172.5" stroke="#000000" stroke-width="1" fill="none"/>
<path d="M 191.0 172.5 L 191.4 181.2 L 184.7 178.6 Z" fill="#000000"/>
<circle cx="148.8" cy="277.9" r="10" fill="#d8d8d8" stroke="#000000" stroke-width="1"/>
<text x="148.8" y="277.9" font-family="system-ui, Arial" font-size="10px" fill="#000000" text-anchor="middle" dominant-baseline="middle">1</text>
<line x1="215.2" y1="142.4" x2="277.5" y2="111.3" stroke="#000000" stroke-width="1" fill="none"/>
<path d="M 277.5 111.3 L 271.9 118.1 L 268.7 111.6 Z" fill="#000000"/>
<circle cx="246.3" cy="126.8" r="10" fill="#d8d8d8" stroke="#000000" stroke-width="1"/>
<text x="246.3" y="126.8" font-family="system-ui, Arial" font-size="10px" fill="#000000" text-anchor="middle" dominant-baseline="middle">18</text>
<line x1="209.4" y1="164.1" x2="286.0" y2="279.0" stroke="#000000" stroke-width="1" fill="none"/>
<path d="M 286.0 279.0 L 278.6 274.4 L 284.6 270.4 Z" fill="#000000"/>
<circle cx="247.7" cy="221.6" r="10" fill="#d8d8d8" stroke="#000000" stroke-width="1"/>
<text x="247.7" y="221.6" font-family="system-ui, Arial" font-size="10px" fill="#000000" text-anchor="middle" dominant-baseline="middle">30</text>
<line x1="206.3" y1="165.8" x2="290.6" y2="376.6" stroke="#000000" stroke-width="1" fill="none"/>
<path d="M 290.6 376.6 L 284.3 370.5 L 291.0 367.8 Z" fill="#000000"/>
<circle cx="248.5" cy="271.2" r="10" fill="#d8d8d8" stroke="#000000" stroke-width="1"/>
<text x="248.5" y="271.2" font-family="system-ui, Arial" font-size="10px" fill="#000000" text-anchor="middle" dominant-baseline="middle">1</text>
<line x1="110.0" y1="115.0" x2="186.6" y2="229.9" stroke="#000000" stroke-width="1" fill="none"/>
<path d="M 186.6 229.9 L 179.1 225.2 L 185.1 221.2 Z" fill="#000000"/>
<circle cx="148.3" cy="172.4" r="10" fill="#d8d8d8" stroke="#000000" stroke-width="1"/>
<text x="148.3" y="172.4" font-family="system-ui, Arial" font-size="10px" fill="#000000" text-anchor="middle" dominant-baseline="middle">18</text>
<line x1="116.1" y1="292.0" x2="178.4" y2="260.8" stroke="#000000" stroke-width="1" fill="none"/>
<path d="M 178.4 260.8 L 172.8 267.6 L 169.6 261.2 Z" fill="#000000"/>
<circle cx="147.2" cy="276.4" r="10" fill="#d8d8d8" stroke="#000000" stroke-width="1"/>
<text x="147.2" y="276.4" font-family="system-ui, Arial" font-size="10px" fill="#000000" text-anchor="middle" dominant-baseline="middle">200</text>
<line x1="110.0" y1="385.0" x2="186.6" y2="270.1" stroke="#000000" stroke-width="1" fill="none"/>
<path d="M 186.6 270.1 L 185.1 278.8 L 179.1 274.8 Z" fill="#000000"/>
<circle cx="148.3" cy="327.6" r="10" fill="#d8d8d8" stroke="#000000" stroke-width="1"/>
<text x="148.3" y="327.6" font-family="system-ui, Arial" font-size="10px" fill="#000000" text-anchor="middle" dominant-baseline="middle">1</text>
<line x1="209.4" y1="235.9" x2="286.0" y2="121.0" stroke="#000000" stroke-width="1" fill="none"/>
<path d="M 286.0 121.0 L 284.6 129.6 L 278.6 125.6 Z" fill="#000000"/>
<circle cx="247.7" cy="178.4" r="10" fill="#d8d8d8" stroke="#000000" stroke-width="1"/>
<text x="247.7" y="178.4" font-family="system-ui, Arial" font-size="10px" fill="#000000" text-anchor="middle" dominant-baseline="middle">18</text>
<line x1="215.2" y1="257.6" x2="277.5" y2="288.7" stroke="#000000" stroke-width="1" fill="none"/>
<path d="M 277.5 288.7 L 268.7 288.4 L 271.9 281.9 Z" fill="#000000"/>
<circle cx="246.3" cy="273.2" r="10" fill="#d8d8d8" stroke="#000000" stroke-width="1"/>
<text x="246.3" y="273.2" font-family="system-ui, Arial" font-size="10px" fill="#000000" text-anchor="middle" dominant-baseline="middle">200</text>
<line x1="209.4" y1="264.1" x2="286.0" y2="379.0" stroke="#000000" stroke-width="1" fill="none"/>
<path d="M 286.0 379.0 L 278.6 374.4 L 284.6 370.4 Z" fill="#000000"/>
<circle cx="247.7" cy="321.6" r="10" fill="#d8d8d8" stroke="#000000" stroke-width="1"/>
<text x="247.7" y="321.6" font-family="system-ui, Arial" font-size="10px" fill="#000000" text-anchor="middle" dominant-baseline="middle">1</text>
<line x1="106.7" y1="116.7" x2="191.0" y2="327.5" stroke="#000000" stroke-width="1" fill="none"/>
<path d="M 191.0 327.5 L 184.7 321.4 L 191.4 318.8 Z" fill="#000000"/>
<circle cx="148.8" cy="222.1" r="10" fill="#d8d8d8" stroke="#000000" stroke-width="1"/>
<text x="148.8" y="222.1" font-family="system-ui, Arial" font-size="10px" fill="#000000" text-anchor="middle" dominant-baseline="middle">18</text>
<line x1="116.1" y1="308.0" x2="178.4" y2="339.2" stroke="#000000" stroke-width="1" fill="none"/>
<path d="M 178.4 339.2 L 169.6 338.8 L 172.8 332.4 Z" fill="#000000"/>
<circle cx="147.2" cy="323.6" r="10" fill="#d8d8d8" stroke="#000000" stroke-width="1"/>
<text x="147.2" y="323.6" font-family="system-ui, Arial" font-size="10px" fill="#000000" text-anchor="middle" dominant-baseline="middle">30</text>
<line x1="110.0" y1="215.0" x2="186.6" y2="329.9" stroke="#000000" stroke-width="1" fill="none"/>
<path d="M 186.6 329.9 L 179.1 325.2 L 185.1 321.2 Z" fill="#000000"/>
<circle cx="148.3" cy="272.4" r="10" fill="#d8d8d8" stroke="#000000" stroke-width="1"/>
<text x="148.3" y="272.4" font-family="system-ui, Arial" font-size="10px" fill="#000000" text-anchor="middle" dominant-baseline="middle">180</text>
<line x1="116.1" y1="392.0" x2="178.4" y2="360.8" stroke="#000000" stroke-width="1" fill="none"/>
<path d="M 178.4 360.8 L 172.8 367.6 L 169.6 361.2 Z" fill="#000000"/>
<circle cx="147.2" cy="376.4" r="10" fill="#d8d8d8" stroke="#000000" stroke-width="1"/>
<text x="147.2" y="376.4" font-family="system-ui, Arial" font-size="10px" fill="#000000" text-anchor="middle" dominant-baseline="middle">1</text>
<line x1="206.3" y1="334.2" x2="290.6" y2="123.4" stroke="#000000" stroke-width="1" fill="none"/>
<path d="M 290.6 123.4 L 291.0 132.2 L 284.3 129.5 Z" fill="#000000"/>
<circle cx="248.5" cy="228.8" r="10" fill="#d8d8d8" stroke="#000000" stroke-width="1"/>
<text x="248.5" y="228.8" font-family="system-ui, Arial" font-size="10px" fill="#000000" text-anchor="middle" dominant-baseline="middle">18</text>
<line x1="215.2" y1="342.4" x2="277.5" y2="311.3" stroke="#000000" stroke-width="1" fill="none"/>
<path d="M 277.5 311.3 L 271.9 318.1 L 268.7 311.6 Z" fill="#000000"/>
<circle cx="246.3" cy="326.8" r="10" fill="#d8d8d8" stroke="#000000" stroke-width="1"/>
<text x="246.3" y="326.8" font-family="system-ui, Arial" font-size="10px" fill="#000000" text-anchor="middle" dominant-baseline="middle">30</text>
<line x1="209.4" y1="335.9" x2="286.0" y2="221.0" stroke="#000000" stroke-width="1" fill="none"/>
<path d="M 286.0 221.0 L 284.6 229.6 L 278.6 225.6 Z" fill="#000000"/>
<circle cx="247.7" cy="278.4" r="10" fill="#d8d8d8" stroke="#000000" stroke-width="1"/>
<text x="247.7" y="278.4" font-family="system-ui, Arial" font-size="10px" fill="#000000" text-anchor="middle" dominant-baseline="middle">180</text>
<line x1="215.2" y1="357.6" x2="277.5" y2="388.7" stroke="#000000" stroke-width="1" fill="none"/>
<path d="M 277.5 388.7 L 268.7 388.4 L 271.9 381.9 Z" fill="#000000"/>
<circle cx="246.3" cy="373.2" r="10" fill="#d8d8d8" stroke="#000000" stroke-width="1"/>
<text x="246.3" y="373.2" font-family="system-ui, Arial" font-size="10px" fill="#000000" text-anchor="middle" dominant-baseline="middle">1</text>
<line x1="104.9" y1="117.3" x2="193.4" y2="426.7" stroke="#000000" stroke-width="1" fill="none"/>
<path d="M 193.4 426.7 L 187.7 420.0 L 194.6 418.0 Z" fill="#000000"/>
<circle cx="149.1" cy="272.0" r="10" fill="#d8d8d8" stroke="#000000" stroke-width="1"/>
<text x="149.1" y="272.0" font-family="system-ui, Arial" font-size="10px" fill="#000000" text-anchor="middle" dominant-baseline="middle">18</text>
<line x1="110.0" y1="315.0" x2="186.6" y2="429.9" stroke="#000000" stroke-width="1" fill="none"/>
<path d="M 186.6 429.9 L 179.1 425.2 L 185.1 421.2 Z" fill="#000000"/>
<circle cx="148.3" cy="372.4" r="10" fill="#d8d8d8" stroke="#000000" stroke-width="1"/>
<text x="148.3" y="372.4" font-family="system-ui, Arial" font-size="10px" fill="#000000" text-anchor="middle" dominant-baseline="middle">30</text>
<line x1="106.7" y1="216.7" x2="191.0" y2="427.5" stroke="#000000" stroke-width="1" fill="none"/>
<path d="M 191.0 427.5 L 184.7 421.4 L 191.4 418.8 Z" fill="#000000"/>
<circle cx="148.8" cy="322.1" r="10" fill="#d8d8d8" stroke="#000000" stroke-width="1"/>
<text x="148.8" y="322.1" font-family="system-ui, Arial" font-size="10px" fill="#000000" text-anchor="middle" dominant-baseline="middle">120</text>
<line x1="116.1" y1="408.0" x2="178.4" y2="439.2" stroke="#000000" stroke-width="1" fill="none"/>
<path d="M 178.4 439.2 L 169.6 438.8 L 172.8 432.4 Z" fill="#000000"/>
<circle cx="147.2" cy="423.6" r="10" fill="#d8d8d8" stroke="#000000" stroke-width="1"/>
<text x="147.2" y="423.6" font-family="system-ui, Arial" font-size="10px" fill="#000000" text-anchor="middle" dominant-baseline="middle">1</text>
<line x1="204.7" y1="433.7" x2="293.1" y2="124.2" stroke="#000000" stroke-width="1" fill="none"/>
<path d="M 293.1 124.2 L 294.3 132.9 L 287.4 130.9 Z" fill="#000000"/>
<circle cx="248.9" cy="278.9" r="10" fill="#d8d8d8" stroke="#000000" stroke-width="1"/>
<text x="248.9" y="278.9" font-family="system-ui, Arial" font-size="10px" fill="#000000" text-anchor="middle" dominant-baseline="middle">18</text>
<line x1="209.4" y1="435.9" x2="286.0" y2="321.0" stroke="#000000" stroke-width="1" fill="none"/>
<path d="M 286.0 321.0 L 284.6 329.6 L 278.6 325.6 Z" fill="#000000"/>
<circle cx="247.7" cy="378.4" r="10" fill="#d8d8d8" stroke="#000000" stroke-width="1"/>
<text x="247.7" y="378.4" font-family="system-ui, Arial" font-size="10px" fill="#000000" text-anchor="middle" dominant-baseline="middle">30</text>
<line x1="206.3" y1="434.2" x2="290.6" y2="223.4" stroke="#000000" stroke-width="1" fill="none"/>
<path d="M 290.6 223.4 L 291.0 232.2 L 284.3 229.5 Z" fill="#000000"/>
<circle cx="248.5" cy="328.8" r="10" fill="#d8d8d8" stroke="#000000" stroke-width="1"/>
<text x="248.5" y="328.8" font-family="system-ui, Arial" font-size="10px" fill="#000000" text-anchor="middle" dominant-baseline="middle">120</text>
<line x1="215.2" y1="442.4" x2="277.5" y2="411.3" stroke="#000000" stroke-width="1" fill="none"/>
<path d="M 277.5 411.3 L 271.9 418.1 L 268.7 411.6 Z" fill="#000000"/>
<circle cx="246.3" cy="426.8" r="10" fill="#d8d8d8" stroke="#000000" stroke-width="1"/>
<text x="246.3" y="426.8" font-family="system-ui, Arial" font-size="10px" fill="#000000" text-anchor="middle" dominant-baseline="middle">1</text>
<line x1="103.9" y1="117.6" x2="194.8" y2="526.4" stroke="#000000" stroke-width="1" fill="none"/>
<path d="M 194.8 526.4 L 189.5 519.3 L 196.5 517.8 Z" fill="#000000"/>
<circle cx="149.3" cy="322.0" r="10" fill="#d8d8d8" stroke="#000000" stroke-width="1"/>
<text x="149.3" y="322.0" font-family="system-ui, Arial" font-size="10px" fill="#000000" text-anchor="middle" dominant-baseline="middle">18</text>
<line x1="106.7" y1="316.7" x2="191.0" y2="527.5" stroke="#000000" stroke-width="1" fill="none"/>
<path d="M 191.0 527.5 L 184.7 521.4 L 191.4 518.8 Z" fill="#000000"/>
<circle cx="148.8" cy="422.1" r="10" fill="#d8d8d8" stroke="#000000" stroke-width="1"/>
<text x="148.8" y="422.1" font-family="system-ui, Arial" font-size="10px" fill="#000000" text-anchor="middle" dominant-baseline="middle">30</text>
<line x1="104.9" y1="217.3" x2="193.4" y2="526.7" stroke="#000000" stroke-width="1" fill="none"/>
<path d="M 193.4 526.7 L 187.7 520.0 L 194.6 518.0 Z" fill="#000000"/>
<circle cx="149.1" cy="372.0" r="10" fill="#d8d8d8" stroke="#000000" stroke-width="1"/>
<text x="149.1" y="372.0" font-family="system-ui, Arial" font-size="10px" fill="#000000" text-anchor="middle" dominant-baseline="middle">150</text>
<line x1="116.1" y1="592.0" x2="178.4" y2="560.8" stroke="#000000" stroke-width="1" fill="none"/>
<path d="M 178.4 560.8 L 172.8 567.6 L 169.6 561.2 Z" fill="#000000"/>
<circle cx="147.2" cy="576.4" r="10" fill="#d8d8d8" stroke="#000000" stroke-width="1"/>
<text x="147.2" y="576.4" font-family="system-ui, Arial" font-size="10px" fill="#000000" text-anchor="middle" dominant-baseline="middle">2</text>
<line x1="110.0" y1="415.0" x2="186.6" y2="529.9" stroke="#000000" stroke-width="1" fill="none"/>
<path d="M 186.6 529.9 L 179.1 525.2 L 185.1 521.2 Z" fill="#000000"/>
<circle cx="148.3" cy="472.4" r="10" fill="#d8d8d8" stroke="#000000" stroke-width="1"/>
<text x="148.3" y="472.4" font-family="system-ui, Arial" font-size="10px" fill="#000000" text-anchor="middle" dominant-baseline="middle">1</text>
<line x1="203.7" y1="533.4" x2="294.5" y2="124.6" stroke="#000000" stroke-width="1" fill="none"/>
<path d="M 294.5 124.6 L 296.3 133.2 L 289.3 131.6 Z" fill="#000000"/>
<circle cx="249.1" cy="329.0" r="10" fill="#d8d8d8" stroke="#000000" stroke-width="1"/>
<text x="249.1" y="329.0" font-family="system-ui, Arial" font-size="10px" fill="#000000" text-anchor="middle" dominant-baseline="middle">18</text>
<line x1="206.3" y1="534.2" x2="290.6" y2="323.4" stroke="#000000" stroke-width="1" fill="none"/>
<path d="M 290.6 323.4 L 291.0 332.2 L 284.3 329.5 Z" fill="#000000"/>
<circle cx="248.5" cy="428.8" r="10" fill="#d8d8d8" stroke="#000000" stroke-width="1"/>
<text x="248.5" y="428.8" font-family="system-ui, Arial" font-size="10px" fill="#000000" text-anchor="middle" dominant-baseline="middle">30</text>
<line x1="204.7" y1="533.7" x2="293.1" y2="224.2" stroke="#000000" stroke-width="1" fill="none"/>
<path d="M 293.1 224.2 L 294.3 232.9 L 287.4 230.9 Z" fill="#000000"/>
<circle cx="248.9" cy="378.9" r="10" fill="#d8d8d8" stroke="#000000" stroke-width="1"/>
<text x="248.9" y="378.9" font-family="system-ui, Arial" font-size="10px" fill="#000000" text-anchor="middle" dominant-baseline="middle">150</text>
<line x1="215.2" y1="557.6" x2="277.5" y2="588.7" stroke="#000000" stroke-width="1" fill="none"/>
<path d="M 277.5 588.7 L 268.7 588.4 L 271.9 581.9 Z" fill="#000000"/>
<circle cx="246.3" cy="573.2" r="10" fill="#d8d8d8" stroke="#000000" stroke-width="1"/>
<text x="246.3" y="573.2" font-family="system-ui, Arial" font-size="10px" fill="#000000" text-anchor="middle" dominant-baseline="middle">2</text>
<line x1="209.4" y1="535.9" x2="286.0" y2="421.0" stroke="#000000" stroke-width="1" fill="none"/>
<path d="M 286.0 421.0 L 284.6 429.6 L 278.6 425.6 Z" fill="#000000"/>
<circle cx="247.7" cy="478.4" r="10" fill="#d8d8d8" stroke="#000000" stroke-width="1"/>
<text x="247.7" y="478.4" font-family="system-ui, Arial" font-size="10px" fill="#000000" text-anchor="middle" dominant-baseline="middle">1</text>
<line x1="482.0" y1="100.0" x2="424.2" y2="100.0" stroke="#999999" stroke-width="1" fill="none"/>
<path d="M 424.2 100.0 L 432.2 96.4 L 432.2 103.6 Z" fill="#999999"/>
<circle cx="453.1" cy="100.0" r="10" fill="#fafafa" stroke="#999999" stroke-width="1"/>
<text x="453.1" y="100.0" font-family="system-ui, Arial" font-size="10px" fill="#666" text-anchor="middle" dominant-baseline="middle">500</text>
<line x1="383.0" y1="100.0" x2="125.2" y2="100.0" stroke="#999999" stroke-width="1" fill="none"/>
<path d="M 125.2 100.0 L 133.2 96.4 L 133.2 103.6 Z" fill="#999999"/>
<circle cx="254.1" cy="100.0" r="10" fill="#fafafa" stroke="#999999" stroke-width="1"/>
<text x="254.1" y="100.0" font-family="system-ui, Arial" font-size="10px" fill="#666" text-anchor="middle" dominant-baseline="middle">500</text>
<line x1="482.0" y1="200.0" x2="424.2" y2="200.0" stroke="#999999" stroke-width="1" fill="none"/>
<path d="M 424.2 200.0 L 432.2 196.4 L 432.2 203.6 Z" fill="#999999"/>
<circle cx="453.1" cy="200.0" r="10" fill="#fafafa" stroke="#999999" stroke-width="1"/>
<text x="453.1" y="200.0" font-family="system-ui, Arial" font-size="10px" fill="#666" text-anchor="middle" dominant-baseline="middle">1000</text>
<line x1="383.0" y1="200.0" x2="125.2" y2="200.0" stroke="#999999" stroke-width="1" fill="none"/>
<path d="M 125.2 200.0 L 133.2 196.4 L 133.2 203.6 Z" fill="#999999"/>
<circle cx="254.1" cy="200.0" r="10" fill="#fafafa" stroke="#999999" stroke-width="1"/>
<text x="254.1" y="200.0" font-family="system-ui, Arial" font-size="10px" fill="#666" text-anchor="middle" dominant-baseline="middle">1000</text>
<line x1="482.0" y1="300.0" x2="424.2" y2="300.0" stroke="#999999" stroke-width="1" fill="none"/>
<path d="M 424.2 300.0 L 432.2 296.4 L 432.2 303.6 Z" fill="#999999"/>
<circle cx="453.1" cy="300.0" r="10" fill="#fafafa" stroke="#999999" stroke-width="1"/>
<text x="453.1" y="300.0" font-family="system-ui, Arial" font-size="10px" fill="#666" text-anchor="middle" dominant-baseline="middle">2000</text>
<line x1="383.0" y1="300.0" x2="125.2" y2="300.0" stroke="#999999" stroke-width="1" fill="none"/>
<path d="M 125.2 300.0 L 133.2 296.4 L 133.2 303.6 Z" fill="#999999"/>
<circle cx="254.1" cy="300.0" r="10" fill="#fafafa" stroke="#999999" stroke-width="1"/>
<text x="254.1" y="300.0" font-family="system-ui, Arial" font-size="10px" fill="#666" text-anchor="middle" dominant-baseline="middle">2000</text>
<line x1="482.0" y1="400.0" x2="424.2" y2="400.0" stroke="#999999" stroke-width="1" fill="none"/>
<path d="M 424.2 400.0 L 432.2 396.4 L 432.2 403.6 Z" fill="#999999"/>
<circle cx="453.1" cy="400.0" r="10" fill="#fafafa" stroke="#999999" stroke-width="1"/>
<text x="453.1" y="400.0" font-family="system-ui, Arial" font-size="10px" fill="#666" text-anchor="middle" dominant-baseline="middle">50</text>
<line x1="383.0" y1="400.0" x2="125.2" y2="400.0" stroke="#999999" stroke-width="1" fill="none"/>
<path d="M 125.2 400.0 L 133.2 396.4 L 133.2 403.6 Z" fill="#999999"/>
<circle cx="254.1" cy="400.0" r="10" fill="#fafafa" stroke="#999999" stroke-width="1"/>
<text x="254.1" y="400.0" font-family="system-ui, Arial" font-size="10px" fill="#666" text-anchor="middle" dominant-baseline="middle">50</text>
<line x1="482.0" y1="500.0" x2="424.2" y2="500.0" stroke="#999999" stroke-width="1" fill="none"/>
<path d="M 424.2 500.0 L 432.2 496.4 L 432.2 503.6 Z" fill="#999999"/>
<circle cx="453.1" cy="500.0" r="10" fill="#fafafa" stroke="#999999" stroke-width="1"/>
<text x="453.1" y="500.0" font-family="system-ui, Arial" font-size="10px" fill="#666" text-anchor="middle" dominant-baseline="middle">100</text>
<line x1="383.0" y1="500.0" x2="125.2" y2="500.0" stroke="#999999" stroke-width="1" fill="none"/>
<path d="M 125.2 500.0 L 133.2 496.4 L 133.2 503.6 Z" fill="#999999"/>
<circle cx="254.1" cy="500.0" r="10" fill="#fafafa" stroke="#999999" stroke-width="1"/>
<text x="254.1" y="500.0" font-family="system-ui, Arial" font-size="10px" fill="#666" text-anchor="middle" dominant-baseline="middle">100</text>
<line x1="482.0" y1="600.0" x2="424.2" y2="600.0" stroke="#999999" stroke-width="1" fill="none"/>
<path d="M 424.2 600.0 L 432.2 596.4 L 432.2 603.6 Z" fill="#999999"/>
<circle cx="453.1" cy="600.0" r="10" fill="#fafafa" stroke="#999999" stroke-width="1"/>
<text x="453.1" y="600.0" font-family="system-ui, Arial" font-size="10px" fill="#666" text-anchor="middle" dominant-baseline="middle">100</text>
<line x1="383.0" y1="600.0" x2="125.2" y2="600.0" stroke="#999999" stroke-width="1" fill="none"/>
<path d="M 125.2 600.0 L 133.2 596.4 L 133.2 603.6 Z" fill="#999999"/>
<circle cx="254.1" cy="600.0" r="10" fill="#fafafa" stroke="#999999" stroke-width="1"/>
<text x="254.1" y="600.0" font-family="system-ui, Arial" font-size="10px" fill="#666" text-anchor="middle" dominant-baseline="middle">100</text>
<circle cx="100.0" cy="400.0" r="16.0" class="place"/>
<text x="100.0" y="400.0" class="token-text">100</text>
<text x="100.0" y="422.0" class="label-text">cups</text>
<circle cx="500.0" cy="200.0" r="16.0" class="place"/>
<text x="500.0" y="222.0" class="label-text">milk_supply</text>
<circle cx="300.0" cy="500.0" r="16.0" class="place"/>
<text x="300.0" y="522.0" class="label-text">sugar_used</text>
<circle cx="300.0" cy="100.0" r="16.0" class="place"/>
<text x="300.0" y="122.0" class="label-text">beans_used</text>
<circle cx="500.0" cy="400.0" r="16.0" class="place"/>
<text x="500.0" y="422.0" class="label-text">cups_supply</text>
<circle cx="100.0" cy="200.0" r="16.0" class="place"/>
<text x="100.0" y="200.0" class="token-text">5000</text>
<text x="100.0" y="222.0" class="label-text">milk</text>
<circle cx="300.0" cy="200.0" r="16.0" class="place"/>
<text x="300.0" y="222.0" class="label-text">milk_used</text>
<circle cx="500.0" cy="500.0" r="16.0" class="place"/>
<text x="500.0" y="522.0" class="label-text">sugar_supply</text>
<circle cx="100.0" cy="300.0" r="16.0" class="place"/>
<text x="100.0" y="300.0" class="token-text">10000</text>
<text x="100.0" y="322.0" class="label-text">water</text>
<circle cx="500.0" cy="100.0" r="16.0" class="place"/>
<text x="500.0" y="122.0" class="label-text">beans_supply</text>
<circle cx="100.0" cy="100.0" r="16.0" class="place"/>
<text x="100.0" y="100.0" class="token-text">1000</text>
<text x="100.0" y="122.0" class="label-text">coffee_beans</text>
<circle cx="300.0" cy="400.0" r="16.0" class="place"/>
<text x="300.0" y="422.0" class="label-text">cups_used</text>
<circle cx="700.0" cy="400.0" r="16.0" class="place"/>
<text x="700.0" y="422.0" class="label-text">low_cups_alert</text>
<circle cx="700.0" cy="200.0" r="16.0" class="place"/>
<text x="700.0" y="222.0" class="label-text">low_milk_alert</text>
<circle cx="100.0" cy="500.0" r="16.0" class="place"/>
<text x="100.0" y="500.0" class="token-text">200</text>
<text x="100.0" y="522.0" class="label-text">sugar_packets</text>
<circle cx="300.0" cy="300.0" r="16.0" class="place"/>
<text x="300.0" y="322.0" class="label-text">water_used</text>
<circle cx="700.0" cy="100.0" r="16.0" class="place"/>
<text x="700.0" y="122.0" class="label-text">low_beans_alert</text>
<circle cx="100.0" cy="600.0" r="16.0" class="place"/>
<text x="100.0" y="600.0" class="token-text">500</text>
<text x="100.0" y="622.0" class="label-text">syrup</text>
<circle cx="500.0" cy="600.0" r="16.0" class="place"/>
<text x="500.0" y="622.0" class="label-text">syrup_supply</text>
<circle cx="300.0" cy="600.0" r="16.0" class="place"/>
<text x="300.0" y="622.0" class="label-text">syrup_used</text>
<circle cx="500.0" cy="300.0" r="16.0" class="place"/>
<text x="500.0" y="322.0" class="label-text">water_supply</text>
<rect x="185.0" y="335.0" width="30.0" height="30.0" rx="4.0" ry="4.0" class="transition transition-active"/>
<text x="200.0" y="371.0" class="label-text">make_latte</text>
<rect x="385.0" y="85.0" width="30.0" height="30.0" rx="4.0" ry="4.0" class="transition"/>
<text x="400.0" y="121.0" class="label-text">refill_beans</text>
<rect x="385.0" y="485.0" width="30.0" height="30.0" rx="4.0" ry="4.0" class="transition"/>
<text x="400.0" y="521.0" class="label-text">refill_sugar</text>
<rect x="385.0" y="585.0" width="30.0" height="30.0" rx="4.0" ry="4.0" class="transition"/>
<text x="400.0" y="621.0" class="label-text">refill_syrup</text>
<rect x="385.0" y="285.0" width="30.0" height="30.0" rx="4.0" ry="4.0" class="transition"/>
<text x="400.0" y="321.0" class="label-text">refill_water</text>
<rect x="185.0" y="235.0" width="30.0" height="30.0" rx="4.0" ry="4.0" class="transition transition-active"/>
<text x="200.0" y="271.0" class="label-text">make_americano</text>
<rect x="185.0" y="535.0" width="30.0" height="30.0" rx="4.0" ry="4.0" class="transition transition-active"/>
<text x="200.0" y="571.0" class="label-text">make_mocha</text>
<rect x="385.0" y="385.0" width="30.0" height="30.0" rx="4.0" ry="4.0" class="transition"/>
<text x="400.0" y="421.0" class="label-text">refill_cups</text>
<rect x="385.0" y="185.0" width="30.0" height="30.0" rx="4.0" ry="4.0" class="transition"/>
<text x="400.0" y="221.0" class="label-text">refill_milk</text>
<rect x="185.0" y="435.0" width="30.0" height="30.0" rx="4.0" ry="4.0" class="transition transition-active"/>
<text x="200.0" y="471.0" class="label-text">make_cappuccino</text>
<rect x="185.0" y="135.0" width="30.0" height="30.0" rx="4.0" ry="4.0" class="transition transition-active"/>
<text x="200.0" y="171.0" class="label-text">make_espresso</text>
</svg>
