<svg xmlns="http://www.w3.org/2000/svg" viewBox="0.0 50.0 600.0 450.0" width="600" height="450">
<rect x="0.0" y="50.0" width="600.0" height="450.0" fill="#f8f9fa" rx="8"/>
<defs><style>.place { fill: #fff; stroke: #333; stroke-width: 2; }.place-cap-full { fill: #ffebee; }.transition { fill: #ffffff; stroke: #000; stroke-width: 1; }.transition-active { fill: #62fa75; stroke: #000; }.arc { stroke: #cfcfcf; stroke-width: 1; fill: none; }.arc-active { stroke: #2a6fb8; }.arrowhead { fill: #cfcfcf; }.arrowhead-active { fill: #2a6fb8; }.inhibitor { fill: #fff; stroke: #cfcfcf; stroke-width: 1.3; }.inhibitor-active { stroke: #2a6fb8; }.token-dot { fill: #333; }.token-text { font-family: system-ui, Arial; font-size: 12px; fill: #333; text-anchor: middle; dominant-baseline: middle; }.weight-badge { font-family: system-ui, Arial; font-size: 10px; fill: #666; text-anchor: middle; dominant-baseline: middle; }.weight-bg { fill: #fafafa; stroke: #ddd; stroke-width: 1; }.weight-bg-active { fill: #e8f0fb; stroke: #2a6fb8; }.label-text { font-family: system-ui, Arial; font-size: 11px; fill: #333; text-anchor: middle; dominant-baseline: hanging; }</style></defs>
<line x1="112.7" y1="137.3" x2="132.9" y2="117.1" stroke="#000000" stroke-width="1" fill="none"/>
<path d="M 132.9 117.1 L 129.8 125.3 L 124.7 120.2 Z" fill="#000000"/>
<circle cx="122.8" cy="127.2" r="10" fill="#d8d8d8" stroke="#000000" stroke-width="1"/>
<text x="122.8" y="127.2" font-family="system-ui, Arial" font-size="10px" fill="#000000" text-anchor="middle" dominant-baseline="middle">5</text>
<line x1="145.9" y1="116.5" x2="106.1" y2="275.6" stroke="#000000" stroke-width="1" fill="none"/>
<path d="M 106.1 275.6 L 104.6 266.9 L 111.5 268.7 Z" fill="#000000"/>
<circle cx="126.0" cy="196.0" r="10" fill="#d8d8d8" stroke="#000000" stroke-width="1"/>
<text x="126.0" y="196.0" font-family="system-ui, Arial" font-size="10px" fill="#000000" text-anchor="middle" dominant-baseline="middle">1</text>
<line x1="118.0" y1="150.0" x2="125.8" y2="150.0" stroke="#000000" stroke-width="1" fill="none"/>
<path d="M 125.8 150.0 L 117.8 153.6 L 117.8 146.4 Z" fill="#000000"/>
<circle cx="121.9" cy="150.0" r="10" fill="#d8d8d8" stroke="#000000" stroke-width="1"/>
<text x="121.9" y="150.0" font-family="system-ui, Arial" font-size="10px" fill="#000000" text-anchor="middle" dominant-baseline="middle">8</text>
<line x1="145.9" y1="166.5" x2="106.1" y2="325.6" stroke="#000000" stroke-width="1" fill="none"/>
<path d="M 106.1 325.6 L 104.6 316.9 L 111.5 318.7 Z" fill="#000000"/>
<circle cx="126.0" cy="246.0" r="10" fill="#d8d8d8" stroke="#000000" stroke-width="1"/>
<text x="126.0" y="246.0" font-family="system-ui, Arial" font-size="10px" fill="#000000" text-anchor="middle" dominant-baseline="middle">1</text>
<line x1="112.7" y1="162.7" x2="132.9" y2="182.9" stroke="#000000" stroke-width="1" fill="none"/>
<path d="M 132.9 182.9 L 124.7 179.8 L 129.8 174.7 Z" fill="#000000"/>
<circle cx="122.8" cy="172.8" r="10" fill="#d8d8d8" stroke="#000000" stroke-width="1"/>
<text x="122.8" y="172.8" font-family="system-ui, Arial" font-size="10px" fill="#000000" text-anchor="middle" dominant-baseline="middle">15</text>
<line x1="108.0" y1="166.1" x2="139.2" y2="228.4" stroke="#000000" stroke-width="1" fill="none"/>
<path d="M 139.2 228.4 L 132.4 222.8 L 138.8 219.6 Z" fill="#000000"/>
<circle cx="123.6" cy="197.2" r="10" fill="#d8d8d8" stroke="#000000" stroke-width="1"/>
<text x="123.6" y="197.2" font-family="system-ui, Arial" font-size="10px" fill="#000000" text-anchor="middle" dominant-baseline="middle">3</text>
<line x1="138.0" y1="238.0" x2="117.8" y2="217.8" stroke="#000000" stroke-width="1" fill="none"/>
<path d="M 117.8 217.8 L 126.0 220.9 L 120.9 226.0 Z" fill="#000000"/>
<circle cx="127.9" cy="227.9" r="10" fill="#d8d8d8" stroke="#000000" stroke-width="1"/>
<text x="127.9" y="227.9" font-family="system-ui, Arial" font-size="10px" fill="#000000" text-anchor="middle" dominant-baseline="middle">1</text>
<line x1="146.7" y1="383.3" x2="104.9" y2="174.7" stroke="#000000" stroke-width="1" fill="none"/>
<path d="M 104.9 174.7 L 110.0 181.8 L 103.0 183.3 Z" fill="#000000"/>
<circle cx="125.8" cy="279.0" r="10" fill="#d8d8d8" stroke="#000000" stroke-width="1"/>
<text x="125.8" y="279.0" font-family="system-ui, Arial" font-size="10px" fill="#000000" text-anchor="middle" dominant-baseline="middle">2</text>
<line x1="387.3" y1="137.3" x2="367.1" y2="117.1" stroke="#000000" stroke-width="1" fill="none"/>
<path d="M 367.1 117.1 L 375.3 120.2 L 370.2 125.3 Z" fill="#000000"/>
<circle cx="377.2" cy="127.2" r="10" fill="#d8d8d8" stroke="#000000" stroke-width="1"/>
<text x="377.2" y="127.2" font-family="system-ui, Arial" font-size="10px" fill="#000000" text-anchor="middle" dominant-baseline="middle">5</text>
<line x1="354.1" y1="116.5" x2="393.9" y2="275.6" stroke="#000000" stroke-width="1" fill="none"/>
<path d="M 393.9 275.6 L 388.5 268.7 L 395.4 266.9 Z" fill="#000000"/>
<circle cx="374.0" cy="196.0" r="10" fill="#d8d8d8" stroke="#000000" stroke-width="1"/>
<text x="374.0" y="196.0" font-family="system-ui, Arial" font-size="10px" fill="#000000" text-anchor="middle" dominant-baseline="middle">1</text>
<line x1="382.0" y1="150.0" x2="374.2" y2="150.0" stroke="#000000" stroke-width="1" fill="none"/>
<path d="M 374.2 150.0 L 382.2 146.4 L 382.2 153.6 Z" fill="#000000"/>
<circle cx="378.1" cy="150.0" r="10" fill="#d8d8d8" stroke="#000000" stroke-width="1"/>
<text x="378.1" y="150.0" font-family="system-ui, Arial" font-size="10px" fill="#000000" text-anchor="middle" dominant-baseline="middle">8</text>
<line x1="354.1" y1="166.5" x2="393.9" y2="325.6" stroke="#000000" stroke-width="1" fill="none"/>
<path d="M 393.9 325.6 L 388.5 318.7 L 395.4 316.9 Z" fill="#000000"/>
<circle cx="374.0" cy="246.0" r="10" fill="#d8d8d8" stroke="#000000" stroke-width="1"/>
<text x="374.0" y="246.0" font-family="system-ui, Arial" font-size="10px" fill="#000000" text-anchor="middle" dominant-baseline="middle">1</text>
<line x1="387.3" y1="162.7" x2="367.1" y2="182.9" stroke="#000000" stroke-width="1" fill="none"/>
<path d="M 367.1 182.9 L 370.2 174.7 L 375.3 179.8 Z" fill="#000000"/>
<circle cx="377.2" cy="172.8" r="10" fill="#d8d8d8" stroke="#000000" stroke-width="1"/>
<text x="377.2" y="172.8" font-family="system-ui, Arial" font-size="10px" fill="#000000" text-anchor="middle" dominant-baseline="middle">15</text>
<line x1="392.0" y1="166.1" x2="360.8" y2="228.4" stroke="#000000" stroke-width="1" fill="none"/>
<path d="M 360.8 228.4 L 361.2 219.6 L 367.6 222.8 Z" fill="#000000"/>
<circle cx="376.4" cy="197.2" r="10" fill="#d8d8d8" stroke="#000000" stroke-width="1"/>
<text x="376.4" y="197.2" font-family="system-ui, Arial" font-size="10px" fill="#000000" text-anchor="middle" dominant-baseline="middle">3</text>
<line x1="362.0" y1="238.0" x2="382.2" y2="217.8" stroke="#000000" stroke-width="1" fill="none"/>
<path d="M 382.2 217.8 L 379.1 226.0 L 374.0 220.9 Z" fill="#000000"/>
<circle cx="372.1" cy="227.9" r="10" fill="#d8d8d8" stroke="#000000" stroke-width="1"/>
<text x="372.1" y="227.9" font-family="system-ui, Arial" font-size="10px" fill="#000000" text-anchor="middle" dominant-baseline="middle">1</text>
<line x1="353.3" y1="383.3" x2="395.1" y2="174.7" stroke="#000000" stroke-width="1" fill="none"/>
<path d="M 395.1 174.7 L 397.0 183.3 L 390.0 181.8 Z" fill="#000000"/>
<circle cx="374.2" cy="279.0" r="10" fill="#d8d8d8" stroke="#000000" stroke-width="1"/>
<text x="374.2" y="279.0" font-family="system-ui, Arial" font-size="10px" fill="#000000" text-anchor="middle" dominant-baseline="middle">2</text>
<path d="M 250.0 232.0 Q 280.0 178.1 250.0 124.2" stroke="#999999" stroke-width="1" fill="none"/>
<path d="M 250.0 124.2 L 257.0 129.4 L 250.7 132.9 Z" fill="#999999"/>
<circle cx="265.0" cy="178.1" r="10" fill="#fafafa" stroke="#999999" stroke-width="1"/>
<text x="265.0" y="178.1" font-family="system-ui, Arial" font-size="10px" fill="#666" text-anchor="middle" dominant-baseline="middle">1</text>
<path d="M 250.0 117.0 Q 220.0 170.9 250.0 224.8" stroke="#999999" stroke-width="1" fill="none"/>
<path d="M 250.0 224.8 L 243.0 219.6 L 249.3 216.1 Z" fill="#999999"/>
<circle cx="235.0" cy="170.9" r="10" fill="#fafafa" stroke="#999999" stroke-width="1"/>
<text x="235.0" y="170.9" font-family="system-ui, Arial" font-size="10px" fill="#666" text-anchor="middle" dominant-baseline="middle">1</text>
<line x1="110.8" y1="285.6" x2="235.5" y2="119.4" stroke="#999999" stroke-width="1" fill="none"/>
<path d="M 235.5 119.4 L 233.6 127.9 L 227.8 123.6 Z" fill="#999999"/>
<circle cx="173.1" cy="202.5" r="10" fill="#fafafa" stroke="#999999" stroke-width="1"/>
<text x="173.1" y="202.5" font-family="system-ui, Arial" font-size="10px" fill="#666" text-anchor="middle" dominant-baseline="middle">1</text>
<line x1="267.0" y1="100.0" x2="374.8" y2="100.0" stroke="#cfcfcf" stroke-width="1" fill="none"/>
<path d="M 374.8 100.0 L 366.8 103.6 L 366.8 96.4 Z" fill="#cfcfcf"/>
<circle cx="320.9" cy="100.0" r="10" fill="#fafafa" stroke="#cfcfcf" stroke-width="1"/>
<text x="320.9" y="100.0" font-family="system-ui, Arial" font-size="10px" fill="#666" text-anchor="middle" dominant-baseline="middle">1</text>
<path d="M 250.0 232.0 Q 280.0 203.1 250.0 174.2" stroke="#999999" stroke-width="1" fill="none"/>
<path d="M 250.0 174.2 L 258.3 177.2 L 253.3 182.3 Z" fill="#999999"/>
<circle cx="265.0" cy="203.1" r="10" fill="#fafafa" stroke="#999999" stroke-width="1"/>
<text x="265.0" y="203.1" font-family="system-ui, Arial" font-size="10px" fill="#666" text-anchor="middle" dominant-baseline="middle">1</text>
<path d="M 250.0 167.0 Q 220.0 195.9 250.0 224.8" stroke="#999999" stroke-width="1" fill="none"/>
<path d="M 250.0 224.8 L 241.7 221.8 L 246.7 216.7 Z" fill="#999999"/>
<circle cx="235.0" cy="195.9" r="10" fill="#fafafa" stroke="#999999" stroke-width="1"/>
<text x="235.0" y="195.9" font-family="system-ui, Arial" font-size="10px" fill="#666" text-anchor="middle" dominant-baseline="middle">1</text>
<line x1="387.3" y1="287.3" x2="267.1" y2="167.1" stroke="#999999" stroke-width="1" fill="none"/>
<path d="M 267.1 167.1 L 275.3 170.2 L 270.2 175.3 Z" fill="#999999"/>
<circle cx="327.2" cy="227.2" r="10" fill="#fafafa" stroke="#999999" stroke-width="1"/>
<text x="327.2" y="227.2" font-family="system-ui, Arial" font-size="10px" fill="#666" text-anchor="middle" dominant-baseline="middle">1</text>
<line x1="233.9" y1="144.6" x2="123.9" y2="108.0" stroke="#cfcfcf" stroke-width="1" fill="none"/>
<path d="M 123.9 108.0 L 132.6 107.1 L 130.4 113.9 Z" fill="#cfcfcf"/>
<circle cx="178.9" cy="126.3" r="10" fill="#fafafa" stroke="#cfcfcf" stroke-width="1"/>
<text x="178.9" y="126.3" font-family="system-ui, Arial" font-size="10px" fill="#666" text-anchor="middle" dominant-baseline="middle">1</text>
<line x1="100.0" y1="433.0" x2="100.0" y2="425.2" stroke="#000000" stroke-width="1" fill="none"/>
<path d="M 100.0 425.2 L 103.6 433.2 L 96.4 433.2 Z" fill="#000000"/>
<circle cx="100.0" cy="429.1" r="10" fill="#d8d8d8" stroke="#000000" stroke-width="1"/>
<text x="100.0" y="429.1" font-family="system-ui, Arial" font-size="10px" fill="#000000" text-anchor="middle" dominant-baseline="middle">1</text>
<line x1="400.0" y1="433.0" x2="400.0" y2="425.2" stroke="#000000" stroke-width="1" fill="none"/>
<path d="M 400.0 425.2 L 403.6 433.2 L 396.4 433.2 Z" fill="#000000"/>
<circle cx="400.0" cy="429.1" r="10" fill="#d8d8d8" stroke="#000000" stroke-width="1"/>
<text x="400.0" y="429.1" font-family="system-ui, Arial" font-size="10px" fill="#000000" text-anchor="middle" dominant-baseline="middle">1</text>
<circle cx="350.0" cy="250.0" r="16.0" class="place"/>
<text x="350.0" y="272.0" class="label-text">P2_pos0</text>
<circle cx="500.0" cy="250.0" r="16.0" class="place"/>
<circle cx="500.0" cy="250.0" r="3" class="token-dot"/>
<text x="500.0" y="272.0" class="label-text">P2_pos3</text>
<circle cx="400.0" cy="150.0" r="16.0" class="place"/>
<text x="400.0" y="150.0" class="token-text">50</text>
<text x="400.0" y="172.0" class="label-text">P2_stamina</text>
<circle cx="400.0" cy="400.0" r="16.0" class="place"/>
<text x="400.0" y="422.0" class="label-text">P2_wins</text>
<circle cx="100.0" cy="300.0" r="16.0" class="place"/>
<text x="100.0" y="322.0" class="label-text">P1_last_punch</text>
<circle cx="550.0" cy="250.0" r="16.0" class="place"/>
<text x="550.0" y="272.0" class="label-text">P2_pos4</text>
<circle cx="100.0" cy="150.0" r="16.0" class="place"/>
<text x="100.0" y="150.0" class="token-text">50</text>
<text x="100.0" y="172.0" class="label-text">P1_stamina</text>
<circle cx="400.0" cy="200.0" r="16.0" class="place"/>
<text x="400.0" y="222.0" class="label-text">P2_blocking</text>
<circle cx="400.0" cy="100.0" r="16.0" class="place"/>
<text x="400.0" y="100.0" class="token-text">100</text>
<text x="400.0" y="122.0" class="label-text">P2_health</text>
<circle cx="400.0" cy="250.0" r="16.0" class="place"/>
<text x="400.0" y="272.0" class="label-text">P2_pos1</text>
<circle cx="450.0" cy="250.0" r="16.0" class="place"/>
<text x="450.0" y="272.0" class="label-text">P2_pos2</text>
<circle cx="100.0" cy="100.0" r="16.0" class="place"/>
<text x="100.0" y="100.0" class="token-text">100</text>
<text x="100.0" y="122.0" class="label-text">P1_health</text>
<circle cx="100.0" cy="350.0" r="16.0" class="place"/>
<text x="100.0" y="372.0" class="label-text">P1_last_kick</text>
<circle cx="50.0" cy="250.0" r="16.0" class="place"/>
<text x="50.0" y="272.0" class="label-text">P1_pos0</text>
<circle cx="100.0" cy="250.0" r="16.0" class="place"/>
<circle cx="100.0" cy="250.0" r="3" class="token-dot"/>
<text x="100.0" y="272.0" class="label-text">P1_pos1</text>
<circle cx="200.0" cy="250.0" r="16.0" class="place"/>
<text x="200.0" y="272.0" class="label-text">P1_pos3</text>
<circle cx="250.0" cy="250.0" r="16.0" class="place"/>
<text x="250.0" y="272.0" class="label-text">P1_pos4</text>
<circle cx="400.0" cy="300.0" r="16.0" class="place"/>
<text x="400.0" y="322.0" class="label-text">P2_last_punch</text>
<circle cx="250.0" cy="250.0" r="16.0" class="place"/>
<text x="250.0" y="272.0" class="label-text">in_range</text>
<circle cx="100.0" cy="200.0" r="16.0" class="place"/>
<text x="100.0" y="222.0" class="label-text">P1_blocking</text>
<circle cx="150.0" cy="250.0" r="16.0" class="place"/>
<text x="150.0" y="272.0" class="label-text">P1_pos2</text>
<circle cx="100.0" cy="400.0" r="16.0" class="place"/>
<text x="100.0" y="422.0" class="label-text">P1_wins</text>
<circle cx="400.0" cy="350.0" r="16.0" class="place"/>
<text x="400.0" y="372.0" class="label-text">P2_last_kick</text>
<rect x="335.0" y="85.0" width="30.0" height="30.0" rx="4.0" ry="4.0" class="transition transition-active"/>
<text x="350.0" y="121.0" class="label-text">P2_punch</text>
<rect x="335.0" y="385.0" width="30.0" height="30.0" rx="4.0" ry="4.0" class="transition transition-active"/>
<text x="350.0" y="421.0" class="label-text">P2_recover</text>
<rect x="235.0" y="85.0" width="30.0" height="30.0" rx="4.0" ry="4.0" class="transition"/>
<text x="250.0" y="121.0" class="label-text">P1_hit_P2</text>
<rect x="135.0" y="85.0" width="30.0" height="30.0" rx="4.0" ry="4.0" class="transition transition-active"/>
<text x="150.0" y="121.0" class="label-text">P1_punch</text>
<rect x="85.0" y="435.0" width="30.0" height="30.0" rx="4.0" ry="4.0" class="transition transition-active"/>
<text x="100.0" y="471.0" class="label-text">P1_victory</text>
<rect x="335.0" y="235.0" width="30.0" height="30.0" rx="4.0" ry="4.0" class="transition transition-active"/>
<text x="350.0" y="271.0" class="label-text">P2_block</text>
<rect x="335.0" y="185.0" width="30.0" height="30.0" rx="4.0" ry="4.0" class="transition transition-active"/>
<text x="350.0" y="221.0" class="label-text">P2_special</text>
<rect x="385.0" y="435.0" width="30.0" height="30.0" rx="4.0" ry="4.0" class="transition transition-active"/>
<text x="400.0" y="471.0" class="label-text">P2_victory</text>
<rect x="135.0" y="285.0" width="30.0" height="30.0" rx="4.0" ry="4.0" class="transition transition-active"/>
<text x="150.0" y="321.0" class="label-text">P1_move_left</text>
<rect x="135.0" y="335.0" width="30.0" height="30.0" rx="4.0" ry="4.0" class="transition transition-active"/>
<text x="150.0" y="371.0" class="label-text">P1_move_right</text>
<rect x="135.0" y="385.0" width="30.0" height="30.0" rx="4.0" ry="4.0" class="transition transition-active"/>
<text x="150.0" y="421.0" class="label-text">P1_recover</text>
<rect x="135.0" y="135.0" width="30.0" height="30.0" rx="4.0" ry="4.0" class="transition transition-active"/>
<text x="150.0" y="171.0" class="label-text">P1_kick</text>
<rect x="235.0" y="135.0" width="30.0" height="30.0" rx="4.0" ry="4.0" class="transition"/>
<text x="250.0" y="171.0" class="label-text">P2_hit_P1</text>
<rect x="335.0" y="135.0" width="30.0" height="30.0" rx="4.0" ry="4.0" class="transition transition-active"/>
<text x="350.0" y="171.0" class="label-text">P2_kick</text>
<rect x="335.0" y="335.0" width="30.0" height="30.0" rx="4.0" ry="4.0" class="transition transition-active"/>
<text x="350.0" y="371.0" class="label-text">P2_move_right</text>
<rect x="135.0" y="235.0" width="30.0" height="30.0" rx="4.0" ry="4.0" class="transition transition-active"/>
<text x="150.0" y="271.0" class="label-text">P1_block</text>
<rect x="135.0" y="185.0" width="30.0" height="30.0" rx="4.0" ry="4.0" class="transition transition-active"/>
<text x="150.0" y="221.0" class="label-text">P1_special</text>
<rect x="335.0" y="285.0" width="30.0" height="30.0" rx="4.0" ry="4.0" class="transition transition-active"/>
<text x="350.0" y="321.0" class="label-text">P2_move_left</text>
</svg>
