<svg xmlns="http://www.w3.org/2000/svg" width="800" height="400" id="plot_137974684"><rect width="800" height="400" fill="#f8f9fa" rx="8"/><text x="400.000000" y="25" text-anchor="middle" font-family="Arial, sans-serif" font-size="16" font-weight="bold">Convergence to Optimal (item2 excluded)</text><line x1="60.000000" y1="40.000000" x2="60.000000" y2="350.000000" stroke="#333" stroke-width="2"/><line x1="60.000000" y1="350.000000" x2="770.000000" y2="350.000000" stroke="#333" stroke-width="2"/><text x="415.000000" y="390.000000" text-anchor="middle" font-family="Arial, sans-serif" font-size="12">Time</text><text x="15" y="195.000000" text-anchor="middle" font-family="Arial, sans-serif" font-size="12" transform="rotate(-90, 15, 195.000000)">Tokens</text><line x1="60.000000" y1="350.000000" x2="60.000000" y2="355.000000" stroke="#333" stroke-width="1"/><text x="60.000000" y="370.000000" text-anchor="middle" font-family="Arial, sans-serif" font-size="10">-5.0</text><line x1="60.000000" y1="40.000000" x2="60.000000" y2="350.000000" stroke="#ddd" stroke-width="0.5"/><line x1="202.000000" y1="350.000000" x2="202.000000" y2="355.000000" stroke="#333" stroke-width="1"/><text x="202.000000" y="370.000000" text-anchor="middle" font-family="Arial, sans-serif" font-size="10">17.0</text><line x1="202.000000" y1="40.000000" x2="202.000000" y2="350.000000" stroke="#ddd" stroke-width="0.5"/><line x1="344.000000" y1="350.000000" x2="344.000000" y2="355.000000" stroke="#333" stroke-width="1"/><text x="344.000000" y="370.000000" text-anchor="middle" font-family="Arial, sans-serif" font-size="10">39.0</text><line x1="344.000000" y1="40.000000" x2="344.000000" y2="350.000000" stroke="#ddd" stroke-width="0.5"/><line x1="486.000000" y1="350.000000" x2="486.000000" y2="355.000000" stroke="#333" stroke-width="1"/><text x="486.000000" y="370.000000" text-anchor="middle" font-family="Arial, sans-serif" font-size="10">61.0</text><line x1="486.000000" y1="40.000000" x2="486.000000" y2="350.000000" stroke="#ddd" stroke-width="0.5"/><line x1="628.000000" y1="350.000000" x2="628.000000" y2="355.000000" stroke="#333" stroke-width="1"/><text x="628.000000" y="370.000000" text-anchor="middle" font-family="Arial, sans-serif" font-size="10">83.0</text><line x1="628.000000" y1="40.000000" x2="628.000000" y2="350.000000" stroke="#ddd" stroke-width="0.5"/><line x1="770.000000" y1="350.000000" x2="770.000000" y2="355.000000" stroke="#333" stroke-width="1"/><text x="770.000000" y="370.000000" text-anchor="middle" font-family="Arial, sans-serif" font-size="10">105.0</text><line x1="770.000000" y1="40.000000" x2="770.000000" y2="350.000000" stroke="#ddd" stroke-width="0.5"/><line x1="55.000000" y1="350.000000" x2="60.000000" y2="350.000000" stroke="#333" stroke-width="1"/><text x="50.000000" y="354.000000" text-anchor="end" font-family="Arial, sans-serif" font-size="10">-3.8</text><line x1="60.000000" y1="350.000000" x2="770.000000" y2="350.000000" stroke="#ddd" stroke-width="0.5"/><line x1="55.000000" y1="288.000000" x2="60.000000" y2="288.000000" stroke="#333" stroke-width="1"/><text x="50.000000" y="292.000000" text-anchor="end" font-family="Arial, sans-serif" font-size="10">5.3</text><line x1="60.000000" y1="288.000000" x2="770.000000" y2="288.000000" stroke="#ddd" stroke-width="0.5"/><line x1="55.000000" y1="226.000000" x2="60.000000" y2="226.000000" stroke="#333" stroke-width="1"/><text x="50.000000" y="230.000000" text-anchor="end" font-family="Arial, sans-serif" font-size="10">14.4</text><line x1="60.000000" y1="226.000000" x2="770.000000" y2="226.000000" stroke="#ddd" stroke-width="0.5"/><line x1="55.000000" y1="164.000000" x2="60.000000" y2="164.000000" stroke="#333" stroke-width="1"/><text x="50.000000" y="168.000000" text-anchor="end" font-family="Arial, sans-serif" font-size="10">23.5</text><line x1="60.000000" y1="164.000000" x2="770.000000" y2="164.000000" stroke="#ddd" stroke-width="0.5"/><line x1="55.000000" y1="102.000000" x2="60.000000" y2="102.000000" stroke="#333" stroke-width="1"/><text x="50.000000" y="106.000000" text-anchor="end" font-family="Arial, sans-serif" font-size="10">32.7</text><line x1="60.000000" y1="102.000000" x2="770.000000" y2="102.000000" stroke="#ddd" stroke-width="0.5"/><line x1="55.000000" y1="40.000000" x2="60.000000" y2="40.000000" stroke="#333" stroke-width="1"/><text x="50.000000" y="44.000000" text-anchor="end" font-family="Arial, sans-serif" font-size="10">41.8</text><line x1="60.000000" y1="40.000000" x2="770.000000" y2="40.000000" stroke="#ddd" stroke-width="0.5"/><path d="M92.272727,324.166667 L92.272734,324.162789 L92.272740,324.158912 L92.272747,324.155034 L92.272753,324.151157 L92.272760,324.147280 L92.272766,324.143403 L92.272772,324.139526 L92.272779,324.135650 L92.272785,324.131773 L92.272792,324.127897 L92.272798,324.124020 L92.272805,324.120144 L92.272811,324.116268 L92.272818,324.112392 L92.272824,324.108516 L92.272831,324.104640 L92.272837,324.100765 L92.272843,324.096889 L92.272850,324.093014 L92.272856,324.089138 L92.272863,324.085263 L92.272869,324.081388 L92.272876,324.077513 L92.272882,324.073638 L92.272889,324.069763 L92.272895,324.065889 L92.272902,324.062014 L92.272908,324.058140 L92.272914,324.054266 L92.272921,324.050391 L92.272927,324.046517 L92.272934,324.042644 L92.272940,324.038770 L92.272947,324.034896 L92.272953,324.031022 L92.272960,324.027149 L92.272966,324.023276 L92.272973,324.019402 L92.272979,324.015529 L92.272985,324.011656 L92.272992,324.007783 L92.272998,324.003911 L92.273005,324.000038 L92.273011,323.996166 L92.273018,323.992293 L92.273024,323.988421 L92.273031,323.984549 L92.273037,323.980677 L92.273044,323.976805 L92.273050,323.972933 L92.273056,323.969061 L92.273063,323.965189 L92.273069,323.961318 L92.273076,323.957447 L92.273082,323.953575 L92.273089,323.949704 L92.273095,323.945824 L92.273102,323.941926 L92.273108,323.938001 L92.273115,323.934043 L92.273122,323.930046 L92.273128,323.926005 L92.273135,323.921916 L92.273142,323.917775 L92.273149,323.913578 L92.273156,323.909324 L92.273163,323.905009 L92.273171,323.900631 L92.273178,323.896187 L92.273186,323.891677 L92.273193,323.887097 L92.273201,323.882447 L92.273209,323.877724 L92.273217,323.872927 L92.273225,323.868054 L92.273233,323.863104 L92.273242,323.858075 L92.273250,323.852966 L92.273259,323.847775 L92.273268,323.842501 L92.273276,323.837143 L92.273286,323.831698 L92.273295,323.826165 L92.273304,323.820544 L92.273314,323.814831 L92.273323,323.809027 L92.273333,323.803128 L92.273343,323.797135 L92.273353,323.791045 L92.273364,323.784856 L92.273374,323.778567 L92.273385,323.772177 L92.273396,323.765684 L92.273407,323.759085 L92.273418,323.752380 L92.273429,323.745566 L92.273441,323.738642 L92.273453,323.731606 L92.273465,323.724456 L92.273477,323.717191 L92.273489,323.709808 L92.273502,323.702306 L92.273514,323.694682 L92.273527,323.686935 L92.273540,323.679063 L92.273554,323.671064 L92.273567,323.662935 L92.273581,323.654674 L92.273595,323.646280 L92.273610,323.637751 L92.273624,323.629083 L92.273639,323.620275 L92.273654,323.611325 L92.273669,323.602229 L92.273684,323.592987 L92.273700,323.583595 L92.273716,323.574052 L92.273732,323.564354 L92.273749,323.554499 L92.273765,323.544485 L92.273782,323.534309 L92.273800,323.523968 L92.273817,323.513460 L92.273835,323.502782 L92.273853,323.491931 L92.273872,323.480905 L92.273891,323.469701 L92.273910,323.458315 L92.273929,323.446746 L92.273949,323.434989 L92.273969,323.423042 L92.273989,323.410902 L92.274010,323.398566 L92.274031,323.386030 L92.274052,323.373291 L92.274074,323.360347 L92.274096,323.347193 L92.274118,323.333826 L92.274141,323.320244 L92.274164,323.306441 L92.274187,323.292416 L92.274211,323.278164 L92.274236,323.263681 L92.274260,323.248964 L92.274285,323.234010 L92.274311,323.218813 L92.274337,323.203371 L92.274363,323.187679 L92.274390,323.171734 L92.274417,323.155531 L92.274445,323.139065 L92.274473,323.122334 L92.274501,323.105332 L92.274530,323.088056 L92.274560,323.070500 L92.274590,323.052660 L92.274620,323.034532 L92.274651,323.016111 L92.274682,322.997393 L92.274714,322.978372 L92.274747,322.959043 L92.274780,322.939402 L92.274813,322.919443 L92.274848,322.899162 L92.274882,322.878554 L92.274917,322.857612 L92.274953,322.836332 L92.274990,322.814708 L92.275027,322.792734 L92.275064,322.770406 L92.275102,322.747716 L92.275141,322.724660 L92.275181,322.701232 L92.275221,322.677425 L92.275261,322.653233 L92.275303,322.628651 L92.275345,322.603671 L92.275388,322.578288 L92.275431,322.552495 L92.275475,322.526285 L92.275520,322.499652 L92.275566,322.472588 L92.275612,322.445088 L92.275659,322.417143 L92.275707,322.388747 L92.275756,322.359893 L92.275805,322.330572 L92.275856,322.300778 L92.275907,322.270502 L92.275959,322.239738 L92.276012,322.208477 L92.276065,322.176711 L92.276120,322.144433 L92.276175,322.111633 L92.276232,322.078303 L92.276289,322.044436 L92.276347,322.010022 L92.276407,321.975052 L92.276467,321.939517 L92.276528,321.903409 L92.276590,321.866719 L92.276653,321.829436 L92.276718,321.791551 L92.276783,321.753055 L92.276849,321.713937 L92.276917,321.674189 L92.276985,321.633799 L92.277055,321.592757 L92.277126,321.551053 L92.277198,321.508676 L92.277271,321.465615 L92.277345,321.421860 L92.277421,321.377399 L92.277498,321.332220 L92.277576,321.286313 L92.277655,321.239666 L92.277736,321.192266 L92.277818,321.144102 L92.277902,321.095160 L92.277986,321.045430 L92.278073,320.994898 L92.278160,320.943551 L92.278249,320.891376 L92.278340,320.838360 L92.278432,320.784490 L92.278525,320.729751 L92.278620,320.674130 L92.278717,320.617612 L92.278815,320.560183 L92.278915,320.501829 L92.279017,320.442535 L92.279120,320.382285 L92.279225,320.321065 L92.279332,320.258858 L92.279440,320.195649 L92.279551,320.131422 L92.279663,320.066161 L92.279777,319.999848 L92.279893,319.932467 L92.280011,319.864002 L92.280130,319.794434 L92.280252,319.723746 L92.280376,319.651920 L92.280502,319.578938 L92.280630,319.504781 L92.280760,319.429431 L92.280892,319.352868 L92.281027,319.275073 L92.281164,319.196026 L92.281303,319.115707 L92.281444,319.034097 L92.281588,318.951173 L92.281734,318.866917 L92.281882,318.781305 L92.282033,318.694316 L92.282187,318.605929 L92.282343,318.516120 L92.282502,318.424869 L92.282664,318.332150 L92.282828,318.237941 L92.282995,318.142219 L92.283165,318.044958 L92.283337,317.946135 L92.283513,317.845725 L92.283691,317.743701 L92.283873,317.640040 L92.284057,317.534714 L92.284245,317.427696 L92.284436,317.318961 L92.284630,317.208481 L92.284828,317.096227 L92.285028,316.982172 L92.285232,316.866287 L92.285440,316.748544 L92.285651,316.628911 L92.285866,316.507360 L92.286085,316.383860 L92.286307,316.258381 L92.286533,316.130889 L92.286762,316.001355 L92.286996,315.869745 L92.287234,315.736026 L92.287476,315.600165 L92.287722,315.462128 L92.287972,315.321881 L92.288226,315.179389 L92.288485,315.034615 L92.288748,314.887525 L92.289016,314.738080 L92.289288,314.586245 L92.289566,314.431982 L92.289847,314.275251 L92.290134,314.116014 L92.290426,313.954232 L92.290723,313.789864 L92.291025,313.622870 L92.291332,313.453208 L92.291644,313.280836 L92.291962,313.105711 L92.292286,312.927791 L92.292615,312.747031 L92.292950,312.563387 L92.293290,312.376813 L92.293637,312.187263 L92.293990,311.994691 L92.294349,311.799049 L92.294714,311.600289 L92.295085,311.398362 L92.295464,311.193218 L92.295849,310.984808 L92.296240,310.773080 L92.296639,310.557982 L92.297044,310.339462 L92.297457,310.117466 L92.297877,309.891940 L92.298305,309.662829 L92.298740,309.430077 L92.299183,309.193627 L92.299634,308.953422 L92.300093,308.709403 L92.300561,308.461512 L92.301036,308.209687 L92.301521,307.953869 L92.302014,307.693995 L92.302515,307.430002 L92.303026,307.161826 L92.303546,306.889403 L92.304076,306.612668 L92.304615,306.331553 L92.305164,306.045991 L92.305723,305.755913 L92.306293,305.461251 L92.306872,305.161933 L92.307463,304.857888 L92.308064,304.549043 L92.308676,304.235325 L92.309300,303.916659 L92.309935,303.592969 L92.310582,303.264178 L92.311241,302.930209 L92.311912,302.590983 L92.312596,302.246419 L92.313293,301.896436 L92.314002,301.540952 L92.314725,301.179883 L92.315462,300.813144 L92.316212,300.440650 L92.316977,300.062314 L92.317756,299.678046 L92.318550,299.287758 L92.319359,298.891360 L92.320184,298.488758 L92.321025,298.079860 L92.321881,297.664571 L92.322755,297.242795 L92.323645,296.814437 L92.324552,296.379396 L92.325477,295.937574 L92.326420,295.488869 L92.327382,295.033180 L92.328362,294.570402 L92.329362,294.100431 L92.330381,293.623160 L92.331421,293.138481 L92.332481,292.646286 L92.333563,292.146464 L92.334666,291.638904 L92.335791,291.123490 L92.336939,290.600110 L92.338110,290.068647 L92.339305,289.528983 L92.340525,288.980999 L92.341769,288.424576 L92.343038,287.859590 L92.344334,287.285918 L92.345657,286.703437 L92.347007,286.112018 L92.348385,285.511536 L92.349792,284.901860 L92.351229,284.282859 L92.352696,283.654402 L92.354193,283.016354 L92.355723,282.368582 L92.357286,281.710947 L92.358882,281.043312 L92.360512,280.365537 L92.362178,279.677482 L92.363879,278.979003 L92.365618,278.269958 L92.367396,277.550200 L92.369212,276.819582 L92.371069,276.077957 L92.372967,275.325174 L92.374907,274.561084 L92.376892,273.785532 L92.378921,272.998366 L92.380996,272.199431 L92.383119,271.388569 L92.385290,270.565624 L92.387512,269.730436 L92.389786,268.882845 L92.392112,268.022689 L92.394494,267.149807 L92.396931,266.264033 L92.399427,265.365204 L92.401982,264.453153 L92.404600,263.527714 L92.407280,262.588719 L92.410026,261.635998 L92.412840,260.669383 L92.415723,259.688703 L92.418678,258.693787 L92.421707,257.684462 L92.424812,256.660558 L92.427996,255.621900 L92.431262,254.568316 L92.434612,253.499632 L92.438049,252.415674 L92.441577,251.316268 L92.445197,250.201241 L92.448913,249.070418 L92.452729,247.923626 L92.456648,246.760691 L92.460674,245.581441 L92.464810,244.385704 L92.469061,243.173307 L92.473431,241.944081 L92.477924,240.697855 L92.482544,239.434463 L92.487297,238.153737 L92.492187,236.855512 L92.497220,235.539626 L92.502401,234.205917 L92.507737,232.854227 L92.513233,231.484399 L92.518896,230.096282 L92.524732,228.689724 L92.530749,227.264580 L92.536955,225.820706 L92.543356,224.357965 L92.549963,222.876223 L92.556782,221.375349 L92.563825,219.855221 L92.571100,218.315719 L92.578618,216.756732 L92.586391,215.178154 L92.594430,213.579887 L92.602747,211.961839 L92.611355,210.323928 L92.620269,208.666079 L92.629504,206.988228 L92.639075,205.290320 L92.648999,203.572310 L92.659295,201.834165 L92.669980,200.075866 L92.681076,198.297404 L92.692605,196.498784 L92.704590,194.680029 L92.717056,192.841174 L92.729991,190.987650 L92.743365,189.127285 L92.757150,187.266614 L92.771324,185.411029 L92.785869,183.564942 L92.800768,181.731923 L92.816009,179.914836 L92.831583,178.115952 L92.847482,176.337051 L92.863700,174.579508 L92.880233,172.844364 L92.897078,171.132386 L92.914235,169.444120 L92.931702,167.779930 L92.949480,166.140037 L92.967570,164.524541 L92.985974,162.933447 L93.004694,161.366687 L93.023734,159.824131 L93.043097,158.305601 L93.062786,156.810882 L93.082806,155.339729 L93.103161,153.891874 L93.123854,152.467034 L93.144892,151.064910 L93.166279,149.685195 L93.188021,148.327577 L93.210122,146.991736 L93.232589,145.677355 L93.255426,144.384110 L93.278640,143.111682 L93.302237,141.859751 L93.326222,140.627999 L93.350603,139.416112 L93.375385,138.223777 L93.400575,137.050685 L93.426180,135.896532 L93.452205,134.761015 L93.478659,133.643838 L93.505548,132.544707 L93.532880,131.463333 L93.560660,130.399431 L93.588898,129.352720 L93.617600,128.322923 L93.646774,127.309769 L93.676427,126.312989 L93.706568,125.332319 L93.737205,124.367499 L93.768345,123.418273 L93.799997,122.484391 L93.832170,121.565603 L93.864872,120.661667 L93.898111,119.772342 L93.931896,118.897393 L93.966237,118.036587 L94.001143,117.189695 L94.036623,116.356493 L94.072685,115.536760 L94.109341,114.730278 L94.146600,113.936832 L94.184471,113.156212 L94.222964,112.388211 L94.262091,111.632625 L94.301860,110.889253 L94.342284,110.157898 L94.383372,109.438364 L94.425136,108.730463 L94.467587,108.034004 L94.510735,107.348804 L94.554593,106.674681 L94.599172,106.011454 L94.644484,105.358949 L94.690541,104.716992 L94.737356,104.085411 L94.784940,103.464041 L94.833307,102.852715 L94.882469,102.251271 L94.932439,101.659550 L94.983232,101.077394 L95.034859,100.504648 L95.087336,99.941161 L95.140675,99.386783 L95.194892,98.841367 L95.250000,98.304767 L95.306014,97.776842 L95.362950,97.257450 L95.420822,96.746455 L95.479646,96.243720 L95.539437,95.749111 L95.600212,95.262498 L95.661986,94.783752 L95.724776,94.312744 L95.788599,93.849350 L95.853472,93.393447 L95.919412,92.944914 L95.986436,92.503631 L96.054563,92.069482 L96.123811,91.642351 L96.194197,91.222124 L96.265741,90.808691 L96.338463,90.401941 L96.412380,90.001766 L96.487514,89.608060 L96.563884,89.220718 L96.641510,88.839637 L96.720413,88.464717 L96.800614,88.095858 L96.882134,87.732961 L96.964996,87.375930 L97.049221,87.024671 L97.134832,86.679090 L97.221852,86.339096 L97.310303,86.004597 L97.400210,85.675506 L97.491597,85.351734 L97.584487,85.033197 L97.678905,84.719808 L97.774878,84.411486 L97.872429,84.108147 L97.971587,83.809713 L98.072376,83.516102 L98.174823,83.227238 L98.278957,82.943043 L98.384805,82.663442 L98.492395,82.388361 L98.601756,82.117727 L98.712917,81.851467 L98.825908,81.589512 L98.940758,81.331791 L99.057500,81.078237 L99.176163,80.828781 L99.296779,80.583357 L99.419382,80.341901 L99.544003,80.104349 L99.670675,79.870636 L99.799433,79.640701 L99.930312,79.414483 L100.063345,79.191922 L100.198569,78.972959 L100.336020,78.757535 L100.475734,78.545594 L100.617749,78.337078 L100.762102,78.131934 L100.908834,77.930105 L101.057982,77.731539 L101.209586,77.536184 L101.363688,77.343986 L101.520328,77.154894 L101.679548,76.968860 L101.841391,76.785833 L102.005901,76.605764 L102.173120,76.428607 L102.343095,76.254313 L102.515870,76.082837 L102.691492,75.914132 L102.870008,75.748155 L103.051466,75.584861 L103.235914,75.424206 L103.423402,75.266149 L103.613980,75.110646 L103.807699,74.957657 L104.004610,74.807141 L104.204768,74.659059 L104.408225,74.513370 L104.615036,74.370036 L104.825257,74.229020 L105.038944,74.090282 L105.256154,73.953788 L105.476945,73.819500 L105.701377,73.687383 L105.929511,73.557401 L106.161407,73.429521 L106.397127,73.303708 L106.636735,73.179928 L106.880296,73.058150 L107.127875,72.938340 L107.379537,72.820467 L107.635352,72.704499 L107.895388,72.590406 L108.159714,72.478158 L108.428402,72.367723 L108.701524,72.259074 L108.979154,72.152182 L109.261366,72.047017 L109.548236,71.943552 L109.839842,71.841760 L110.136262,71.741613 L110.437576,71.643086 L110.743865,71.546151 L111.055212,71.450782 L111.371700,71.356956 L111.693415,71.264646 L112.020444,71.173829 L112.352875,71.084479 L112.690798,70.996574 L113.034303,70.910090 L113.383485,70.825004 L113.738436,70.741293 L114.099253,70.658936 L114.466033,70.577910 L114.838876,70.498193 L115.217882,70.419765 L115.603154,70.342606 L115.994796,70.266693 L116.392914,70.192007 L116.797615,70.118529 L117.209011,70.046239 L117.627210,69.975117 L118.052328,69.905145 L118.484480,69.836304 L118.923782,69.768576 L119.370353,69.701943 L119.824316,69.636386 L120.285792,69.571890 L120.754908,69.508436 L121.231791,69.446008 L121.716570,69.384589 L122.209377,69.324163 L122.710346,69.264714 L123.219613,69.206225 L123.737318,69.148683 L124.263600,69.092070 L124.798604,69.036373 L125.342474,68.981576 L125.895360,68.927664 L126.457412,68.874624 L127.028783,68.822442 L127.609630,68.771103 L128.200110,68.720594 L128.800385,68.670902 L129.410620,68.622013 L130.030981,68.573914 L130.661637,68.526592 L131.302762,68.480036 L131.954530,68.434232 L132.617121,68.389169 L133.290716,68.344834 L133.975500,68.301216 L134.671661,68.258302 L135.379389,68.216083 L136.098879,68.174546 L136.830329,68.133681 L137.573940,68.093476 L138.329917,68.053921 L139.098467,68.015005 L139.879803,67.976719 L140.674139,67.939051 L141.481695,67.901993 L142.302694,67.865533 L143.137362,67.829663 L143.985929,67.794372 L144.848631,67.759653 L145.725706,67.725494 L146.617397,67.691888 L147.523951,67.658824 L148.445619,67.626296 L149.382657,67.594293 L150.335325,67.562807 L151.303887,67.531831 L152.288613,67.501355 L153.289777,67.471372 L154.307658,67.441873 L155.342539,67.412852 L156.394708,67.384299 L157.464459,67.356208 L158.552092,67.328571 L159.657909,67.301381 L160.782221,67.274631 L161.925342,67.248313 L163.087593,67.222420 L164.269299,67.196946 L165.470792,67.171884 L166.692410,67.147227 L167.934496,67.122968 L169.197400,67.099102 L170.481477,67.075621 L171.787090,67.052520 L173.114608,67.029792 L174.464405,67.007432 L175.836863,66.985434 L177.232372,66.963790 L178.651325,66.942497 L180.094126,66.921548 L181.561186,66.900938 L183.052920,66.880661 L184.569753,66.860711 L186.112118,66.841084 L187.680455,66.821775 L189.275212,66.802777 L190.896845,66.784087 L192.545817,66.765699 L194.222603,66.747608 L195.927682,66.729809 L197.661545,66.712298 L199.424691,66.695071 L201.217628,66.678122 L203.040873,66.661446 L204.894953,66.645041 L206.780403,66.628900 L208.697771,66.613021 L210.647612,66.597398 L212.630493,66.582028 L214.646990,66.566906 L216.697692,66.552028 L218.783195,66.537392 L220.904110,66.522991 L223.061057,66.508824 L225.254669,66.494886 L227.485589,66.481173 L229.754474,66.467681 L232.061991,66.454408 L234.408822,66.441349 L236.795659,66.428502 L239.223210,66.415862 L241.692194,66.403426 L244.203345,66.391192 L246.757410,66.379155 L249.355150,66.367313 L251.997342,66.355662 L254.684776,66.344200 L257.418257,66.332922 L260.198607,66.321828 L263.026663,66.310912 L265.903278,66.300173 L268.829320,66.289608 L271.805677,66.279214 L274.833251,66.268987 L277.912963,66.258926 L281.045752,66.249027 L284.232575,66.239289 L287.474407,66.229708 L290.772243,66.220282 L294.127096,66.211008 L297.540002,66.201884 L301.012015,66.192908 L304.544210,66.184077 L308.137683,66.175388 L311.793554,66.166840 L315.512962,66.158431 L319.297073,66.150157 L323.147072,66.142017 L327.064170,66.134008 L331.049602,66.126129 L335.104630,66.118378 L339.230537,66.110752 L343.428637,66.103249 L347.700267,66.095867 L352.046794,66.088605 L356.469612,66.081460 L360.970144,66.074431 L365.549841,66.067515 L370.210186,66.060711 L374.952692,66.054017 L379.778903,66.047431 L384.690397,66.040952 L389.688784,66.034578 L394.775706,66.028307 L399.952844,66.022137 L405.221911,66.016066 L410.584659,66.010094 L416.042875,66.004219 L421.598386,65.998439 L427.253057,65.992752 L433.008796,65.987157 L438.867549,65.981652 L444.831307,65.976236 L450.902103,65.970908 L457.082014,65.965667 L463.373165,65.960510 L469.777726,65.955436 L476.232271,65.950494 L482.686817,65.945715 L489.141362,65.941091 L495.595908,65.936615 L502.050453,65.932280 L508.504999,65.928079 L514.959544,65.924007 L521.414090,65.920057 L527.868635,65.916224 L534.323180,65.912502 L540.777726,65.908888 L547.232271,65.905376 L553.686817,65.901962 L560.141362,65.898643 L566.595908,65.895413 L573.050453,65.892270 L579.504999,65.889211 L585.959544,65.886231 L592.414090,65.883328 L598.868635,65.880500 L605.323180,65.877742 L611.777726,65.875053 L618.232271,65.872429 L624.686817,65.869869 L631.141362,65.867371 L637.595908,65.864932 L644.050453,65.862549 L650.504999,65.860222 L656.959544,65.857948 L663.414090,65.855725 L669.868635,65.853552 L676.323180,65.851427 L682.777726,65.849348 L689.232271,65.847314 L695.686817,65.845324 L702.141362,65.843375 L708.595908,65.841468 L715.050453,65.839600 L721.504999,65.837770 L727.959544,65.835978 L734.414090,65.834221 L737.727273,65.833333" stroke="#e41a1c" stroke-width="2" fill="none"/><path d="M92.272727,317.363889 L92.272734,317.363991 L92.272740,317.364093 L92.272747,317.364195 L92.272753,317.364297 L92.272760,317.364399 L92.272766,317.364501 L92.272772,317.364603 L92.272779,317.364705 L92.272785,317.364807 L92.272792,317.364909 L92.272798,317.365011 L92.272805,317.365113 L92.272811,317.365215 L92.272818,317.365317 L92.272824,317.365419 L92.272831,317.365521 L92.272837,317.365623 L92.272843,317.365725 L92.272850,317.365827 L92.272856,317.365929 L92.272863,317.366031 L92.272869,317.366133 L92.272876,317.366235 L92.272882,317.366337 L92.272889,317.366439 L92.272895,317.366541 L92.272902,317.366643 L92.272908,317.366745 L92.272914,317.366847 L92.272921,317.366949 L92.272927,317.367051 L92.272934,317.367153 L92.272940,317.367255 L92.272947,317.367357 L92.272953,317.367458 L92.272960,317.367560 L92.272966,317.367662 L92.272973,317.367764 L92.272979,317.367866 L92.272985,317.367968 L92.272992,317.368070 L92.272998,317.368172 L92.273005,317.368274 L92.273011,317.368376 L92.273018,317.368478 L92.273024,317.368580 L92.273031,317.368681 L92.273037,317.368783 L92.273044,317.368885 L92.273050,317.368987 L92.273056,317.369089 L92.273063,317.369191 L92.273069,317.369293 L92.273076,317.369395 L92.273082,317.369497 L92.273089,317.369598 L92.273095,317.369701 L92.273102,317.369803 L92.273108,317.369906 L92.273115,317.370011 L92.273122,317.370116 L92.273128,317.370222 L92.273135,317.370330 L92.273142,317.370439 L92.273149,317.370549 L92.273156,317.370661 L92.273163,317.370775 L92.273171,317.370890 L92.273178,317.371007 L92.273186,317.371125 L92.273193,317.371246 L92.273201,317.371368 L92.273209,317.371493 L92.273217,317.371619 L92.273225,317.371747 L92.273233,317.371877 L92.273242,317.372010 L92.273250,317.372144 L92.273259,317.372281 L92.273268,317.372420 L92.273276,317.372561 L92.273286,317.372704 L92.273295,317.372849 L92.273304,317.372997 L92.273314,317.373148 L92.273323,317.373300 L92.273333,317.373456 L92.273343,317.373613 L92.273353,317.373774 L92.273364,317.373937 L92.273374,317.374102 L92.273385,317.374270 L92.273396,317.374441 L92.273407,317.374615 L92.273418,317.374791 L92.273429,317.374970 L92.273441,317.375153 L92.273453,317.375338 L92.273465,317.375526 L92.273477,317.375717 L92.273489,317.375911 L92.273502,317.376109 L92.273514,317.376310 L92.273527,317.376513 L92.273540,317.376721 L92.273554,317.376931 L92.273567,317.377145 L92.273581,317.377362 L92.273595,317.377583 L92.273610,317.377808 L92.273624,317.378036 L92.273639,317.378268 L92.273654,317.378503 L92.273669,317.378743 L92.273684,317.378986 L92.273700,317.379233 L92.273716,317.379484 L92.273732,317.379739 L92.273749,317.379999 L92.273765,317.380262 L92.273782,317.380530 L92.273800,317.380802 L92.273817,317.381079 L92.273835,317.381360 L92.273853,317.381645 L92.273872,317.381935 L92.273891,317.382230 L92.273910,317.382530 L92.273929,317.382834 L92.273949,317.383144 L92.273969,317.383458 L92.273989,317.383777 L92.274010,317.384102 L92.274031,317.384432 L92.274052,317.384767 L92.274074,317.385108 L92.274096,317.385454 L92.274118,317.385806 L92.274141,317.386163 L92.274164,317.386526 L92.274187,317.386895 L92.274211,317.387271 L92.274236,317.387652 L92.274260,317.388039 L92.274285,317.388432 L92.274311,317.388832 L92.274337,317.389239 L92.274363,317.389652 L92.274390,317.390071 L92.274417,317.390498 L92.274445,317.390931 L92.274473,317.391371 L92.274501,317.391819 L92.274530,317.392273 L92.274560,317.392735 L92.274590,317.393205 L92.274620,317.393682 L92.274651,317.394167 L92.274682,317.394659 L92.274714,317.395160 L92.274747,317.395668 L92.274780,317.396185 L92.274813,317.396711 L92.274848,317.397244 L92.274882,317.397787 L92.274917,317.398338 L92.274953,317.398898 L92.274990,317.399467 L92.275027,317.400045 L92.275064,317.400633 L92.275102,317.401230 L92.275141,317.401836 L92.275181,317.402453 L92.275221,317.403079 L92.275261,317.403716 L92.275303,317.404363 L92.275345,317.405020 L92.275388,317.405688 L92.275431,317.406367 L92.275475,317.407057 L92.275520,317.407758 L92.275566,317.408470 L92.275612,317.409194 L92.275659,317.409929 L92.275707,317.410676 L92.275756,317.411436 L92.275805,317.412207 L92.275856,317.412991 L92.275907,317.413788 L92.275959,317.414598 L92.276012,317.415420 L92.276065,317.416256 L92.276120,317.417106 L92.276175,317.417969 L92.276232,317.418846 L92.276289,317.419737 L92.276347,317.420643 L92.276407,317.421563 L92.276467,317.422498 L92.276528,317.423448 L92.276590,317.424414 L92.276653,317.425395 L92.276718,317.426392 L92.276783,317.427405 L92.276849,317.428434 L92.276917,317.429480 L92.276985,317.430543 L92.277055,317.431623 L92.277126,317.432721 L92.277198,317.433836 L92.277271,317.434969 L92.277345,317.436121 L92.277421,317.437291 L92.277498,317.438480 L92.277576,317.439688 L92.277655,317.440915 L92.277736,317.442163 L92.277818,317.443430 L92.277902,317.444718 L92.277986,317.446027 L92.278073,317.447356 L92.278160,317.448708 L92.278249,317.450081 L92.278340,317.451476 L92.278432,317.452894 L92.278525,317.454334 L92.278620,317.455798 L92.278717,317.457285 L92.278815,317.458796 L92.278915,317.460332 L92.279017,317.461892 L92.279120,317.463478 L92.279225,317.465089 L92.279332,317.466726 L92.279440,317.468389 L92.279551,317.470080 L92.279663,317.471797 L92.279777,317.473542 L92.279893,317.475315 L92.280011,317.477117 L92.280130,317.478948 L92.280252,317.480808 L92.280376,317.482698 L92.280502,317.484619 L92.280630,317.486570 L92.280760,317.488553 L92.280892,317.490568 L92.281027,317.492615 L92.281164,317.494695 L92.281303,317.496809 L92.281444,317.498957 L92.281588,317.501139 L92.281734,317.503356 L92.281882,317.505609 L92.282033,317.507898 L92.282187,317.510224 L92.282343,317.512587 L92.282502,317.514989 L92.282664,317.517429 L92.282828,317.519908 L92.282995,317.522427 L92.283165,317.524986 L92.283337,317.527587 L92.283513,317.530229 L92.283691,317.532914 L92.283873,317.535642 L92.284057,317.538414 L92.284245,317.541230 L92.284436,317.544092 L92.284630,317.546999 L92.284828,317.549953 L92.285028,317.552955 L92.285232,317.556004 L92.285440,317.559103 L92.285651,317.562251 L92.285866,317.565450 L92.286085,317.568700 L92.286307,317.572002 L92.286533,317.575357 L92.286762,317.578766 L92.286996,317.582229 L92.287234,317.585748 L92.287476,317.589323 L92.287722,317.592956 L92.287972,317.596646 L92.288226,317.600396 L92.288485,317.604206 L92.288748,317.608077 L92.289016,317.612010 L92.289288,317.616005 L92.289566,317.620065 L92.289847,317.624189 L92.290134,317.628380 L92.290426,317.632637 L92.290723,317.636963 L92.291025,317.641357 L92.291332,317.645822 L92.291644,317.650358 L92.291962,317.654967 L92.292286,317.659649 L92.292615,317.664406 L92.292950,317.669238 L92.293290,317.674148 L92.293637,317.679136 L92.293990,317.684204 L92.294349,317.689353 L92.294714,317.694583 L92.295085,317.699897 L92.295464,317.705295 L92.295849,317.710780 L92.296240,317.716352 L92.296639,317.722012 L92.297044,317.727763 L92.297457,317.733605 L92.297877,317.739540 L92.298305,317.745569 L92.298740,317.751694 L92.299183,317.757916 L92.299634,317.764237 L92.300093,317.770659 L92.300561,317.777182 L92.301036,317.783809 L92.301521,317.790541 L92.302014,317.797380 L92.302515,317.804327 L92.303026,317.811385 L92.303546,317.818554 L92.304076,317.825836 L92.304615,317.833234 L92.305164,317.840749 L92.305723,317.848382 L92.306293,317.856137 L92.306872,317.864013 L92.307463,317.872015 L92.308064,317.880142 L92.308676,317.888398 L92.309300,317.896784 L92.309935,317.905302 L92.310582,317.913954 L92.311241,317.922743 L92.311912,317.931670 L92.312596,317.940738 L92.313293,317.949948 L92.314002,317.959302 L92.314725,317.968804 L92.315462,317.978455 L92.316212,317.988258 L92.316977,317.998214 L92.317756,318.008326 L92.318550,318.018597 L92.319359,318.029029 L92.320184,318.039623 L92.321025,318.050384 L92.321881,318.061312 L92.322755,318.072412 L92.323645,318.083684 L92.324552,318.095133 L92.325477,318.106760 L92.326420,318.118568 L92.327382,318.130560 L92.328362,318.142738 L92.329362,318.155106 L92.330381,318.167665 L92.331421,318.180420 L92.332481,318.193373 L92.333563,318.206526 L92.334666,318.219883 L92.335791,318.233446 L92.336939,318.247219 L92.338110,318.261205 L92.339305,318.275407 L92.340525,318.289828 L92.341769,318.304470 L92.343038,318.319338 L92.344334,318.334435 L92.345657,318.349763 L92.347007,318.365327 L92.348385,318.381129 L92.349792,318.397173 L92.351229,318.413463 L92.352696,318.430001 L92.354193,318.446792 L92.355723,318.463838 L92.357286,318.481145 L92.358882,318.498714 L92.360512,318.516550 L92.362178,318.534657 L92.363879,318.553038 L92.365618,318.571697 L92.367396,318.590638 L92.369212,318.609865 L92.371069,318.629381 L92.372967,318.649191 L92.374907,318.669299 L92.376892,318.689708 L92.378921,318.710423 L92.380996,318.731448 L92.383119,318.752786 L92.385290,318.774443 L92.387512,318.796421 L92.389786,318.818726 L92.392112,318.841362 L92.394494,318.864333 L92.396931,318.887642 L92.399427,318.911296 L92.401982,318.935297 L92.404600,318.959651 L92.407280,318.984361 L92.410026,319.009433 L92.412840,319.034870 L92.415723,319.060677 L92.418678,319.086859 L92.421707,319.113421 L92.424812,319.140365 L92.427996,319.167699 L92.431262,319.195424 L92.434612,319.223548 L92.438049,319.252073 L92.441577,319.281005 L92.445197,319.310347 L92.448913,319.340106 L92.452729,319.370285 L92.456648,319.400888 L92.460674,319.431921 L92.464810,319.463388 L92.469061,319.495293 L92.473431,319.527641 L92.477924,319.560437 L92.482544,319.593684 L92.487297,319.627387 L92.492187,319.661551 L92.497220,319.696179 L92.502401,319.731277 L92.507737,319.766848 L92.513233,319.802896 L92.518896,319.839425 L92.524732,319.876440 L92.530749,319.913944 L92.536955,319.951940 L92.543356,319.990434 L92.549963,320.029427 L92.556782,320.068924 L92.563825,320.108927 L92.571100,320.149440 L92.578618,320.190466 L92.586391,320.232008 L92.594430,320.274067 L92.602747,320.316648 L92.611355,320.359750 L92.620269,320.403378 L92.629504,320.447532 L92.639075,320.492214 L92.648999,320.537425 L92.659295,320.583165 L92.669980,320.629436 L92.681076,320.676238 L92.692605,320.723570 L92.704590,320.771432 L92.717056,320.819823 L92.729991,320.868600 L92.743365,320.917557 L92.757150,320.966522 L92.771324,321.015353 L92.785869,321.063934 L92.800768,321.112172 L92.816009,321.159990 L92.831583,321.207329 L92.847482,321.254142 L92.863700,321.300393 L92.880233,321.346055 L92.897078,321.391107 L92.914235,321.435535 L92.931702,321.479329 L92.949480,321.522484 L92.967570,321.564997 L92.985974,321.606868 L93.004694,321.648099 L93.023734,321.688692 L93.043097,321.728654 L93.062786,321.767988 L93.082806,321.806703 L93.103161,321.844804 L93.123854,321.882300 L93.144892,321.919198 L93.166279,321.955507 L93.188021,321.991233 L93.210122,322.026387 L93.232589,322.060976 L93.255426,322.095009 L93.278640,322.128494 L93.302237,322.161439 L93.326222,322.193854 L93.350603,322.225746 L93.375385,322.257123 L93.400575,322.287994 L93.426180,322.318366 L93.452205,322.348248 L93.478659,322.377648 L93.505548,322.406572 L93.532880,322.435029 L93.560660,322.463027 L93.588898,322.490572 L93.617600,322.517672 L93.646774,322.544334 L93.676427,322.570565 L93.706568,322.596372 L93.737205,322.621762 L93.768345,322.646741 L93.799997,322.671317 L93.832170,322.695496 L93.864872,322.719284 L93.898111,322.742687 L93.931896,322.765712 L93.966237,322.788365 L94.001143,322.810651 L94.036623,322.832578 L94.072685,322.854150 L94.109341,322.875373 L94.146600,322.896253 L94.184471,322.916796 L94.222964,322.937006 L94.262091,322.956890 L94.301860,322.976452 L94.342284,322.995699 L94.383372,323.014634 L94.425136,323.033263 L94.467587,323.051591 L94.510735,323.069622 L94.554593,323.087362 L94.599172,323.104816 L94.644484,323.121987 L94.690541,323.138880 L94.737356,323.155501 L94.784940,323.171853 L94.833307,323.187940 L94.882469,323.203768 L94.932439,323.219339 L94.983232,323.234659 L95.034859,323.249731 L95.087336,323.264560 L95.140675,323.279149 L95.194892,323.293502 L95.250000,323.307623 L95.306014,323.321516 L95.362950,323.335184 L95.420822,323.348631 L95.479646,323.361861 L95.539437,323.374877 L95.600212,323.387683 L95.661986,323.400281 L95.724776,323.412676 L95.788599,323.424871 L95.853472,323.436868 L95.919412,323.448672 L95.986436,323.460285 L96.054563,323.471710 L96.123811,323.482950 L96.194197,323.494008 L96.265741,323.504888 L96.338463,323.515592 L96.412380,323.526123 L96.487514,323.536484 L96.563884,323.546677 L96.641510,323.556705 L96.720413,323.566572 L96.800614,323.576279 L96.882134,323.585829 L96.964996,323.595224 L97.049221,323.604468 L97.134832,323.613562 L97.221852,323.622509 L97.310303,323.631312 L97.400210,323.639972 L97.491597,323.648492 L97.584487,323.656875 L97.678905,323.665122 L97.774878,323.673236 L97.872429,323.681218 L97.971587,323.689072 L98.072376,323.696798 L98.174823,323.704400 L98.278957,323.711879 L98.384805,323.719237 L98.492395,323.726476 L98.601756,323.733598 L98.712917,323.740605 L98.825908,323.747498 L98.940758,323.754280 L99.057500,323.760953 L99.176163,323.767517 L99.296779,323.773976 L99.419382,323.780330 L99.544003,323.786581 L99.670675,323.792732 L99.799433,323.798783 L99.930312,323.804736 L100.063345,323.810593 L100.198569,323.816355 L100.336020,323.822024 L100.475734,323.827601 L100.617749,323.833089 L100.762102,323.838487 L100.908834,323.843798 L101.057982,323.849024 L101.209586,323.854165 L101.363688,323.859223 L101.520328,323.864199 L101.679548,323.869094 L101.841391,323.873911 L102.005901,323.878649 L102.173120,323.883312 L102.343095,323.887898 L102.515870,323.892411 L102.691492,323.896850 L102.870008,323.901218 L103.051466,323.905515 L103.235914,323.909743 L103.423402,323.913903 L103.613980,323.917995 L103.807699,323.922021 L104.004610,323.925982 L104.204768,323.929879 L104.408225,323.933712 L104.615036,323.937484 L104.825257,323.941195 L105.038944,323.944846 L105.256154,323.948438 L105.476945,323.951972 L105.701377,323.955449 L105.929511,323.958870 L106.161407,323.962235 L106.397127,323.965546 L106.636735,323.968803 L106.880296,323.972008 L107.127875,323.975161 L107.379537,323.978263 L107.635352,323.981314 L107.895388,323.984317 L108.159714,323.987271 L108.428402,323.990177 L108.701524,323.993036 L108.979154,323.995849 L109.261366,323.998617 L109.548236,324.001339 L109.839842,324.004018 L110.136262,324.006653 L110.437576,324.009246 L110.743865,324.011797 L111.055212,324.014307 L111.371700,324.016776 L111.693415,324.019205 L112.020444,324.021595 L112.352875,324.023946 L112.690798,324.026260 L113.034303,324.028536 L113.383485,324.030775 L113.738436,324.032978 L114.099253,324.035145 L114.466033,324.037277 L114.838876,324.039375 L115.217882,324.041439 L115.603154,324.043469 L115.994796,324.045467 L116.392914,324.047433 L116.797615,324.049366 L117.209011,324.051269 L117.627210,324.053140 L118.052328,324.054982 L118.484480,324.056793 L118.923782,324.058575 L119.370353,324.060329 L119.824316,324.062054 L120.285792,324.063751 L120.754908,324.065421 L121.231791,324.067064 L121.716570,324.068680 L122.209377,324.070271 L122.710346,324.071835 L123.219613,324.073374 L123.737318,324.074888 L124.263600,324.076378 L124.798604,324.077844 L125.342474,324.079286 L125.895360,324.080705 L126.457412,324.082101 L127.028783,324.083474 L127.609630,324.084825 L128.200110,324.086154 L128.800385,324.087462 L129.410620,324.088748 L130.030981,324.090014 L130.661637,324.091259 L131.302762,324.092484 L131.954530,324.093690 L132.617121,324.094876 L133.290716,324.096042 L133.975500,324.097190 L134.671661,324.098320 L135.379389,324.099431 L136.098879,324.100524 L136.830329,324.101599 L137.573940,324.102657 L138.329917,324.103698 L139.098467,324.104722 L139.879803,324.105730 L140.674139,324.106721 L141.481695,324.107696 L142.302694,324.108656 L143.137362,324.109600 L143.985929,324.110528 L144.848631,324.111442 L145.725706,324.112341 L146.617397,324.113225 L147.523951,324.114095 L148.445619,324.114951 L149.382657,324.115793 L150.335325,324.116622 L151.303887,324.117437 L152.288613,324.118239 L153.289777,324.119028 L154.307658,324.119805 L155.342539,324.120568 L156.394708,324.121320 L157.464459,324.122059 L158.552092,324.122786 L159.657909,324.123502 L160.782221,324.124206 L161.925342,324.124898 L163.087593,324.125580 L164.269299,324.126250 L165.470792,324.126909 L166.692410,324.127558 L167.934496,324.128197 L169.197400,324.128825 L170.481477,324.129443 L171.787090,324.130051 L173.114608,324.130649 L174.464405,324.131237 L175.836863,324.131816 L177.232372,324.132386 L178.651325,324.132946 L180.094126,324.133497 L181.561186,324.134040 L183.052920,324.134573 L184.569753,324.135098 L186.112118,324.135615 L187.680455,324.136123 L189.275212,324.136623 L190.896845,324.137115 L192.545817,324.137599 L194.222603,324.138075 L195.927682,324.138543 L197.661545,324.139004 L199.424691,324.139457 L201.217628,324.139903 L203.040873,324.140342 L204.894953,324.140774 L206.780403,324.141199 L208.697771,324.141616 L210.647612,324.142028 L212.630493,324.142432 L214.646990,324.142830 L216.697692,324.143221 L218.783195,324.143607 L220.904110,324.143986 L223.061057,324.144358 L225.254669,324.144725 L227.485589,324.145086 L229.754474,324.145441 L232.061991,324.145790 L234.408822,324.146134 L236.795659,324.146472 L239.223210,324.146805 L241.692194,324.147132 L244.203345,324.147454 L246.757410,324.147771 L249.355150,324.148082 L251.997342,324.148389 L254.684776,324.148691 L257.418257,324.148987 L260.198607,324.149279 L263.026663,324.149567 L265.903278,324.149849 L268.829320,324.150127 L271.805677,324.150401 L274.833251,324.150670 L277.912963,324.150935 L281.045752,324.151195 L284.232575,324.151451 L287.474407,324.151704 L290.772243,324.151952 L294.127096,324.152196 L297.540002,324.152436 L301.012015,324.152672 L304.544210,324.152904 L308.137683,324.153133 L311.793554,324.153358 L315.512962,324.153579 L319.297073,324.153797 L323.147072,324.154011 L327.064170,324.154222 L331.049602,324.154429 L335.104630,324.154633 L339.230537,324.154834 L343.428637,324.155031 L347.700267,324.155226 L352.046794,324.155417 L356.469612,324.155605 L360.970144,324.155790 L365.549841,324.155972 L370.210186,324.156151 L374.952692,324.156327 L379.778903,324.156500 L384.690397,324.156671 L389.688784,324.156839 L394.775706,324.157004 L399.952844,324.157166 L405.221911,324.157326 L410.584659,324.157483 L416.042875,324.157638 L421.598386,324.157790 L427.253057,324.157939 L433.008796,324.158087 L438.867549,324.158231 L444.831307,324.158374 L450.902103,324.158514 L457.082014,324.158652 L463.373165,324.158788 L469.777726,324.158921 L476.232271,324.159051 L482.686817,324.159177 L489.141362,324.159299 L495.595908,324.159417 L502.050453,324.159531 L508.504999,324.159641 L514.959544,324.159748 L521.414090,324.159852 L527.868635,324.159953 L534.323180,324.160051 L540.777726,324.160146 L547.232271,324.160239 L553.686817,324.160328 L560.141362,324.160416 L566.595908,324.160501 L573.050453,324.160584 L579.504999,324.160664 L585.959544,324.160742 L592.414090,324.160819 L598.868635,324.160893 L605.323180,324.160966 L611.777726,324.161037 L618.232271,324.161106 L624.686817,324.161173 L631.141362,324.161239 L637.595908,324.161303 L644.050453,324.161366 L650.504999,324.161427 L656.959544,324.161487 L663.414090,324.161545 L669.868635,324.161602 L676.323180,324.161658 L682.777726,324.161713 L689.232271,324.161767 L695.686817,324.161819 L702.141362,324.161870 L708.595908,324.161920 L715.050453,324.161970 L721.504999,324.162018 L727.959544,324.162065 L734.414090,324.162111 L737.727273,324.162135" stroke="#377eb8" stroke-width="2" fill="none"/><path d="M92.272727,317.363889 L92.272734,317.363991 L92.272740,317.364093 L92.272747,317.364195 L92.272753,317.364297 L92.272760,317.364399 L92.272766,317.364501 L92.272772,317.364603 L92.272779,317.364705 L92.272785,317.364807 L92.272792,317.364909 L92.272798,317.365011 L92.272805,317.365113 L92.272811,317.365215 L92.272818,317.365317 L92.272824,317.365419 L92.272831,317.365521 L92.272837,317.365623 L92.272843,317.365725 L92.272850,317.365827 L92.272856,317.365929 L92.272863,317.366031 L92.272869,317.366133 L92.272876,317.366235 L92.272882,317.366337 L92.272889,317.366439 L92.272895,317.366541 L92.272902,317.366643 L92.272908,317.366745 L92.272914,317.366847 L92.272921,317.366949 L92.272927,317.367051 L92.272934,317.367153 L92.272940,317.367255 L92.272947,317.367357 L92.272953,317.367458 L92.272960,317.367560 L92.272966,317.367662 L92.272973,317.367764 L92.272979,317.367866 L92.272985,317.367968 L92.272992,317.368070 L92.272998,317.368172 L92.273005,317.368274 L92.273011,317.368376 L92.273018,317.368478 L92.273024,317.368580 L92.273031,317.368681 L92.273037,317.368783 L92.273044,317.368885 L92.273050,317.368987 L92.273056,317.369089 L92.273063,317.369191 L92.273069,317.369293 L92.273076,317.369395 L92.273082,317.369497 L92.273089,317.369598 L92.273095,317.369701 L92.273102,317.369803 L92.273108,317.369906 L92.273115,317.370011 L92.273122,317.370116 L92.273128,317.370222 L92.273135,317.370330 L92.273142,317.370439 L92.273149,317.370549 L92.273156,317.370661 L92.273163,317.370775 L92.273171,317.370890 L92.273178,317.371007 L92.273186,317.371125 L92.273193,317.371246 L92.273201,317.371368 L92.273209,317.371493 L92.273217,317.371619 L92.273225,317.371747 L92.273233,317.371877 L92.273242,317.372010 L92.273250,317.372144 L92.273259,317.372281 L92.273268,317.372420 L92.273276,317.372561 L92.273286,317.372704 L92.273295,317.372849 L92.273304,317.372997 L92.273314,317.373148 L92.273323,317.373300 L92.273333,317.373456 L92.273343,317.373613 L92.273353,317.373774 L92.273364,317.373937 L92.273374,317.374102 L92.273385,317.374270 L92.273396,317.374441 L92.273407,317.374615 L92.273418,317.374791 L92.273429,317.374970 L92.273441,317.375153 L92.273453,317.375338 L92.273465,317.375526 L92.273477,317.375717 L92.273489,317.375911 L92.273502,317.376109 L92.273514,317.376310 L92.273527,317.376513 L92.273540,317.376721 L92.273554,317.376931 L92.273567,317.377145 L92.273581,317.377362 L92.273595,317.377583 L92.273610,317.377808 L92.273624,317.378036 L92.273639,317.378268 L92.273654,317.378503 L92.273669,317.378743 L92.273684,317.378986 L92.273700,317.379233 L92.273716,317.379484 L92.273732,317.379739 L92.273749,317.379999 L92.273765,317.380262 L92.273782,317.380530 L92.273800,317.380802 L92.273817,317.381079 L92.273835,317.381360 L92.273853,317.381645 L92.273872,317.381935 L92.273891,317.382230 L92.273910,317.382530 L92.273929,317.382834 L92.273949,317.383144 L92.273969,317.383458 L92.273989,317.383777 L92.274010,317.384102 L92.274031,317.384432 L92.274052,317.384767 L92.274074,317.385108 L92.274096,317.385454 L92.274118,317.385806 L92.274141,317.386163 L92.274164,317.386526 L92.274187,317.386895 L92.274211,317.387271 L92.274236,317.387652 L92.274260,317.388039 L92.274285,317.388432 L92.274311,317.388832 L92.274337,317.389239 L92.274363,317.389652 L92.274390,317.390071 L92.274417,317.390498 L92.274445,317.390931 L92.274473,317.391371 L92.274501,317.391819 L92.274530,317.392273 L92.274560,317.392735 L92.274590,317.393205 L92.274620,317.393682 L92.274651,317.394167 L92.274682,317.394659 L92.274714,317.395160 L92.274747,317.395668 L92.274780,317.396185 L92.274813,317.396711 L92.274848,317.397244 L92.274882,317.397787 L92.274917,317.398338 L92.274953,317.398898 L92.274990,317.399467 L92.275027,317.400045 L92.275064,317.400633 L92.275102,317.401230 L92.275141,317.401836 L92.275181,317.402453 L92.275221,317.403079 L92.275261,317.403716 L92.275303,317.404363 L92.275345,317.405020 L92.275388,317.405688 L92.275431,317.406367 L92.275475,317.407057 L92.275520,317.407758 L92.275566,317.408470 L92.275612,317.409194 L92.275659,317.409929 L92.275707,317.410676 L92.275756,317.411436 L92.275805,317.412207 L92.275856,317.412991 L92.275907,317.413788 L92.275959,317.414598 L92.276012,317.415420 L92.276065,317.416256 L92.276120,317.417106 L92.276175,317.417969 L92.276232,317.418846 L92.276289,317.419737 L92.276347,317.420643 L92.276407,317.421563 L92.276467,317.422498 L92.276528,317.423448 L92.276590,317.424414 L92.276653,317.425395 L92.276718,317.426392 L92.276783,317.427405 L92.276849,317.428434 L92.276917,317.429480 L92.276985,317.430543 L92.277055,317.431623 L92.277126,317.432721 L92.277198,317.433836 L92.277271,317.434969 L92.277345,317.436121 L92.277421,317.437291 L92.277498,317.438480 L92.277576,317.439688 L92.277655,317.440915 L92.277736,317.442163 L92.277818,317.443430 L92.277902,317.444718 L92.277986,317.446027 L92.278073,317.447356 L92.278160,317.448708 L92.278249,317.450081 L92.278340,317.451476 L92.278432,317.452894 L92.278525,317.454334 L92.278620,317.455798 L92.278717,317.457285 L92.278815,317.458796 L92.278915,317.460332 L92.279017,317.461892 L92.279120,317.463478 L92.279225,317.465089 L92.279332,317.466726 L92.279440,317.468389 L92.279551,317.470080 L92.279663,317.471797 L92.279777,317.473542 L92.279893,317.475315 L92.280011,317.477117 L92.280130,317.478948 L92.280252,317.480808 L92.280376,317.482698 L92.280502,317.484619 L92.280630,317.486570 L92.280760,317.488553 L92.280892,317.490568 L92.281027,317.492615 L92.281164,317.494695 L92.281303,317.496809 L92.281444,317.498957 L92.281588,317.501139 L92.281734,317.503356 L92.281882,317.505609 L92.282033,317.507898 L92.282187,317.510224 L92.282343,317.512587 L92.282502,317.514989 L92.282664,317.517429 L92.282828,317.519908 L92.282995,317.522427 L92.283165,317.524986 L92.283337,317.527587 L92.283513,317.530229 L92.283691,317.532914 L92.283873,317.535642 L92.284057,317.538414 L92.284245,317.541230 L92.284436,317.544092 L92.284630,317.546999 L92.284828,317.549953 L92.285028,317.552955 L92.285232,317.556004 L92.285440,317.559103 L92.285651,317.562251 L92.285866,317.565450 L92.286085,317.568700 L92.286307,317.572002 L92.286533,317.575357 L92.286762,317.578766 L92.286996,317.582229 L92.287234,317.585748 L92.287476,317.589323 L92.287722,317.592956 L92.287972,317.596646 L92.288226,317.600396 L92.288485,317.604206 L92.288748,317.608077 L92.289016,317.612010 L92.289288,317.616005 L92.289566,317.620065 L92.289847,317.624189 L92.290134,317.628380 L92.290426,317.632637 L92.290723,317.636963 L92.291025,317.641357 L92.291332,317.645822 L92.291644,317.650358 L92.291962,317.654967 L92.292286,317.659649 L92.292615,317.664406 L92.292950,317.669238 L92.293290,317.674148 L92.293637,317.679136 L92.293990,317.684204 L92.294349,317.689353 L92.294714,317.694583 L92.295085,317.699897 L92.295464,317.705295 L92.295849,317.710780 L92.296240,317.716352 L92.296639,317.722012 L92.297044,317.727763 L92.297457,317.733605 L92.297877,317.739540 L92.298305,317.745569 L92.298740,317.751694 L92.299183,317.757916 L92.299634,317.764237 L92.300093,317.770659 L92.300561,317.777182 L92.301036,317.783809 L92.301521,317.790541 L92.302014,317.797380 L92.302515,317.804327 L92.303026,317.811385 L92.303546,317.818554 L92.304076,317.825836 L92.304615,317.833234 L92.305164,317.840749 L92.305723,317.848382 L92.306293,317.856137 L92.306872,317.864013 L92.307463,317.872015 L92.308064,317.880142 L92.308676,317.888398 L92.309300,317.896784 L92.309935,317.905302 L92.310582,317.913954 L92.311241,317.922743 L92.311912,317.931670 L92.312596,317.940738 L92.313293,317.949948 L92.314002,317.959302 L92.314725,317.968804 L92.315462,317.978455 L92.316212,317.988258 L92.316977,317.998214 L92.317756,318.008326 L92.318550,318.018597 L92.319359,318.029029 L92.320184,318.039623 L92.321025,318.050384 L92.321881,318.061312 L92.322755,318.072412 L92.323645,318.083684 L92.324552,318.095133 L92.325477,318.106760 L92.326420,318.118568 L92.327382,318.130560 L92.328362,318.142738 L92.329362,318.155106 L92.330381,318.167665 L92.331421,318.180420 L92.332481,318.193373 L92.333563,318.206526 L92.334666,318.219883 L92.335791,318.233446 L92.336939,318.247219 L92.338110,318.261205 L92.339305,318.275407 L92.340525,318.289828 L92.341769,318.304470 L92.343038,318.319338 L92.344334,318.334435 L92.345657,318.349763 L92.347007,318.365327 L92.348385,318.381129 L92.349792,318.397173 L92.351229,318.413463 L92.352696,318.430001 L92.354193,318.446792 L92.355723,318.463838 L92.357286,318.481145 L92.358882,318.498714 L92.360512,318.516550 L92.362178,318.534657 L92.363879,318.553038 L92.365618,318.571697 L92.367396,318.590638 L92.369212,318.609865 L92.371069,318.629381 L92.372967,318.649191 L92.374907,318.669299 L92.376892,318.689708 L92.378921,318.710423 L92.380996,318.731448 L92.383119,318.752786 L92.385290,318.774443 L92.387512,318.796421 L92.389786,318.818726 L92.392112,318.841362 L92.394494,318.864333 L92.396931,318.887642 L92.399427,318.911296 L92.401982,318.935297 L92.404600,318.959651 L92.407280,318.984361 L92.410026,319.009433 L92.412840,319.034870 L92.415723,319.060677 L92.418678,319.086859 L92.421707,319.113421 L92.424812,319.140365 L92.427996,319.167699 L92.431262,319.195424 L92.434612,319.223548 L92.438049,319.252073 L92.441577,319.281005 L92.445197,319.310347 L92.448913,319.340106 L92.452729,319.370285 L92.456648,319.400888 L92.460674,319.431921 L92.464810,319.463388 L92.469061,319.495293 L92.473431,319.527641 L92.477924,319.560437 L92.482544,319.593684 L92.487297,319.627387 L92.492187,319.661551 L92.497220,319.696179 L92.502401,319.731277 L92.507737,319.766848 L92.513233,319.802896 L92.518896,319.839425 L92.524732,319.876440 L92.530749,319.913944 L92.536955,319.951940 L92.543356,319.990434 L92.549963,320.029427 L92.556782,320.068924 L92.563825,320.108927 L92.571100,320.149440 L92.578618,320.190466 L92.586391,320.232008 L92.594430,320.274067 L92.602747,320.316648 L92.611355,320.359750 L92.620269,320.403378 L92.629504,320.447532 L92.639075,320.492214 L92.648999,320.537425 L92.659295,320.583165 L92.669980,320.629436 L92.681076,320.676238 L92.692605,320.723570 L92.704590,320.771432 L92.717056,320.819823 L92.729991,320.868600 L92.743365,320.917557 L92.757150,320.966522 L92.771324,321.015353 L92.785869,321.063934 L92.800768,321.112172 L92.816009,321.159990 L92.831583,321.207329 L92.847482,321.254142 L92.863700,321.300393 L92.880233,321.346055 L92.897078,321.391107 L92.914235,321.435535 L92.931702,321.479329 L92.949480,321.522484 L92.967570,321.564997 L92.985974,321.606868 L93.004694,321.648099 L93.023734,321.688692 L93.043097,321.728654 L93.062786,321.767988 L93.082806,321.806703 L93.103161,321.844804 L93.123854,321.882300 L93.144892,321.919198 L93.166279,321.955507 L93.188021,321.991233 L93.210122,322.026387 L93.232589,322.060976 L93.255426,322.095009 L93.278640,322.128494 L93.302237,322.161439 L93.326222,322.193854 L93.350603,322.225746 L93.375385,322.257123 L93.400575,322.287994 L93.426180,322.318366 L93.452205,322.348248 L93.478659,322.377648 L93.505548,322.406572 L93.532880,322.435029 L93.560660,322.463027 L93.588898,322.490572 L93.617600,322.517672 L93.646774,322.544334 L93.676427,322.570565 L93.706568,322.596372 L93.737205,322.621762 L93.768345,322.646741 L93.799997,322.671317 L93.832170,322.695496 L93.864872,322.719284 L93.898111,322.742687 L93.931896,322.765712 L93.966237,322.788365 L94.001143,322.810651 L94.036623,322.832578 L94.072685,322.854150 L94.109341,322.875373 L94.146600,322.896253 L94.184471,322.916796 L94.222964,322.937006 L94.262091,322.956890 L94.301860,322.976452 L94.342284,322.995699 L94.383372,323.014634 L94.425136,323.033263 L94.467587,323.051591 L94.510735,323.069622 L94.554593,323.087362 L94.599172,323.104816 L94.644484,323.121987 L94.690541,323.138880 L94.737356,323.155501 L94.784940,323.171853 L94.833307,323.187940 L94.882469,323.203768 L94.932439,323.219339 L94.983232,323.234659 L95.034859,323.249731 L95.087336,323.264560 L95.140675,323.279149 L95.194892,323.293502 L95.250000,323.307623 L95.306014,323.321516 L95.362950,323.335184 L95.420822,323.348631 L95.479646,323.361861 L95.539437,323.374877 L95.600212,323.387683 L95.661986,323.400281 L95.724776,323.412676 L95.788599,323.424871 L95.853472,323.436868 L95.919412,323.448672 L95.986436,323.460285 L96.054563,323.471710 L96.123811,323.482950 L96.194197,323.494008 L96.265741,323.504888 L96.338463,323.515592 L96.412380,323.526123 L96.487514,323.536484 L96.563884,323.546677 L96.641510,323.556705 L96.720413,323.566572 L96.800614,323.576279 L96.882134,323.585829 L96.964996,323.595224 L97.049221,323.604468 L97.134832,323.613562 L97.221852,323.622509 L97.310303,323.631312 L97.400210,323.639972 L97.491597,323.648492 L97.584487,323.656875 L97.678905,323.665122 L97.774878,323.673236 L97.872429,323.681218 L97.971587,323.689072 L98.072376,323.696798 L98.174823,323.704400 L98.278957,323.711879 L98.384805,323.719237 L98.492395,323.726476 L98.601756,323.733598 L98.712917,323.740605 L98.825908,323.747498 L98.940758,323.754280 L99.057500,323.760953 L99.176163,323.767517 L99.296779,323.773976 L99.419382,323.780330 L99.544003,323.786581 L99.670675,323.792732 L99.799433,323.798783 L99.930312,323.804736 L100.063345,323.810593 L100.198569,323.816355 L100.336020,323.822024 L100.475734,323.827601 L100.617749,323.833089 L100.762102,323.838487 L100.908834,323.843798 L101.057982,323.849024 L101.209586,323.854165 L101.363688,323.859223 L101.520328,323.864199 L101.679548,323.869094 L101.841391,323.873911 L102.005901,323.878649 L102.173120,323.883312 L102.343095,323.887898 L102.515870,323.892411 L102.691492,323.896850 L102.870008,323.901218 L103.051466,323.905515 L103.235914,323.909743 L103.423402,323.913903 L103.613980,323.917995 L103.807699,323.922021 L104.004610,323.925982 L104.204768,323.929879 L104.408225,323.933712 L104.615036,323.937484 L104.825257,323.941195 L105.038944,323.944846 L105.256154,323.948438 L105.476945,323.951972 L105.701377,323.955449 L105.929511,323.958870 L106.161407,323.962235 L106.397127,323.965546 L106.636735,323.968803 L106.880296,323.972008 L107.127875,323.975161 L107.379537,323.978263 L107.635352,323.981314 L107.895388,323.984317 L108.159714,323.987271 L108.428402,323.990177 L108.701524,323.993036 L108.979154,323.995849 L109.261366,323.998617 L109.548236,324.001339 L109.839842,324.004018 L110.136262,324.006653 L110.437576,324.009246 L110.743865,324.011797 L111.055212,324.014307 L111.371700,324.016776 L111.693415,324.019205 L112.020444,324.021595 L112.352875,324.023946 L112.690798,324.026260 L113.034303,324.028536 L113.383485,324.030775 L113.738436,324.032978 L114.099253,324.035145 L114.466033,324.037277 L114.838876,324.039375 L115.217882,324.041439 L115.603154,324.043469 L115.994796,324.045467 L116.392914,324.047433 L116.797615,324.049366 L117.209011,324.051269 L117.627210,324.053140 L118.052328,324.054982 L118.484480,324.056793 L118.923782,324.058575 L119.370353,324.060329 L119.824316,324.062054 L120.285792,324.063751 L120.754908,324.065421 L121.231791,324.067064 L121.716570,324.068680 L122.209377,324.070271 L122.710346,324.071835 L123.219613,324.073374 L123.737318,324.074888 L124.263600,324.076378 L124.798604,324.077844 L125.342474,324.079286 L125.895360,324.080705 L126.457412,324.082101 L127.028783,324.083474 L127.609630,324.084825 L128.200110,324.086154 L128.800385,324.087462 L129.410620,324.088748 L130.030981,324.090014 L130.661637,324.091259 L131.302762,324.092484 L131.954530,324.093690 L132.617121,324.094876 L133.290716,324.096042 L133.975500,324.097190 L134.671661,324.098320 L135.379389,324.099431 L136.098879,324.100524 L136.830329,324.101599 L137.573940,324.102657 L138.329917,324.103698 L139.098467,324.104722 L139.879803,324.105730 L140.674139,324.106721 L141.481695,324.107696 L142.302694,324.108656 L143.137362,324.109600 L143.985929,324.110528 L144.848631,324.111442 L145.725706,324.112341 L146.617397,324.113225 L147.523951,324.114095 L148.445619,324.114951 L149.382657,324.115793 L150.335325,324.116622 L151.303887,324.117437 L152.288613,324.118239 L153.289777,324.119028 L154.307658,324.119805 L155.342539,324.120568 L156.394708,324.121320 L157.464459,324.122059 L158.552092,324.122786 L159.657909,324.123502 L160.782221,324.124206 L161.925342,324.124898 L163.087593,324.125580 L164.269299,324.126250 L165.470792,324.126909 L166.692410,324.127558 L167.934496,324.128197 L169.197400,324.128825 L170.481477,324.129443 L171.787090,324.130051 L173.114608,324.130649 L174.464405,324.131237 L175.836863,324.131816 L177.232372,324.132386 L178.651325,324.132946 L180.094126,324.133497 L181.561186,324.134040 L183.052920,324.134573 L184.569753,324.135098 L186.112118,324.135615 L187.680455,324.136123 L189.275212,324.136623 L190.896845,324.137115 L192.545817,324.137599 L194.222603,324.138075 L195.927682,324.138543 L197.661545,324.139004 L199.424691,324.139457 L201.217628,324.139903 L203.040873,324.140342 L204.894953,324.140774 L206.780403,324.141199 L208.697771,324.141616 L210.647612,324.142028 L212.630493,324.142432 L214.646990,324.142830 L216.697692,324.143221 L218.783195,324.143607 L220.904110,324.143986 L223.061057,324.144358 L225.254669,324.144725 L227.485589,324.145086 L229.754474,324.145441 L232.061991,324.145790 L234.408822,324.146134 L236.795659,324.146472 L239.223210,324.146805 L241.692194,324.147132 L244.203345,324.147454 L246.757410,324.147771 L249.355150,324.148082 L251.997342,324.148389 L254.684776,324.148691 L257.418257,324.148987 L260.198607,324.149279 L263.026663,324.149567 L265.903278,324.149849 L268.829320,324.150127 L271.805677,324.150401 L274.833251,324.150670 L277.912963,324.150935 L281.045752,324.151195 L284.232575,324.151451 L287.474407,324.151704 L290.772243,324.151952 L294.127096,324.152196 L297.540002,324.152436 L301.012015,324.152672 L304.544210,324.152904 L308.137683,324.153133 L311.793554,324.153358 L315.512962,324.153579 L319.297073,324.153797 L323.147072,324.154011 L327.064170,324.154222 L331.049602,324.154429 L335.104630,324.154633 L339.230537,324.154834 L343.428637,324.155031 L347.700267,324.155226 L352.046794,324.155417 L356.469612,324.155605 L360.970144,324.155790 L365.549841,324.155972 L370.210186,324.156151 L374.952692,324.156327 L379.778903,324.156500 L384.690397,324.156671 L389.688784,324.156839 L394.775706,324.157004 L399.952844,324.157166 L405.221911,324.157326 L410.584659,324.157483 L416.042875,324.157638 L421.598386,324.157790 L427.253057,324.157939 L433.008796,324.158087 L438.867549,324.158231 L444.831307,324.158374 L450.902103,324.158514 L457.082014,324.158652 L463.373165,324.158788 L469.777726,324.158921 L476.232271,324.159051 L482.686817,324.159177 L489.141362,324.159299 L495.595908,324.159417 L502.050453,324.159531 L508.504999,324.159641 L514.959544,324.159748 L521.414090,324.159852 L527.868635,324.159953 L534.323180,324.160051 L540.777726,324.160146 L547.232271,324.160239 L553.686817,324.160328 L560.141362,324.160416 L566.595908,324.160501 L573.050453,324.160584 L579.504999,324.160664 L585.959544,324.160742 L592.414090,324.160819 L598.868635,324.160893 L605.323180,324.160966 L611.777726,324.161037 L618.232271,324.161106 L624.686817,324.161173 L631.141362,324.161239 L637.595908,324.161303 L644.050453,324.161366 L650.504999,324.161427 L656.959544,324.161487 L663.414090,324.161545 L669.868635,324.161602 L676.323180,324.161658 L682.777726,324.161713 L689.232271,324.161767 L695.686817,324.161819 L702.141362,324.161870 L708.595908,324.161920 L715.050453,324.161970 L721.504999,324.162018 L727.959544,324.162065 L734.414090,324.162111 L737.727273,324.162135" stroke="#4daf4a" stroke-width="2" fill="none"/><path d="M92.272727,317.363889 L92.272734,317.363991 L92.272740,317.364093 L92.272747,317.364195 L92.272753,317.364297 L92.272760,317.364399 L92.272766,317.364501 L92.272772,317.364603 L92.272779,317.364705 L92.272785,317.364807 L92.272792,317.364909 L92.272798,317.365011 L92.272805,317.365113 L92.272811,317.365215 L92.272818,317.365317 L92.272824,317.365419 L92.272831,317.365521 L92.272837,317.365623 L92.272843,317.365725 L92.272850,317.365827 L92.272856,317.365929 L92.272863,317.366031 L92.272869,317.366133 L92.272876,317.366235 L92.272882,317.366337 L92.272889,317.366439 L92.272895,317.366541 L92.272902,317.366643 L92.272908,317.366745 L92.272914,317.366847 L92.272921,317.366949 L92.272927,317.367051 L92.272934,317.367153 L92.272940,317.367255 L92.272947,317.367357 L92.272953,317.367458 L92.272960,317.367560 L92.272966,317.367662 L92.272973,317.367764 L92.272979,317.367866 L92.272985,317.367968 L92.272992,317.368070 L92.272998,317.368172 L92.273005,317.368274 L92.273011,317.368376 L92.273018,317.368478 L92.273024,317.368580 L92.273031,317.368681 L92.273037,317.368783 L92.273044,317.368885 L92.273050,317.368987 L92.273056,317.369089 L92.273063,317.369191 L92.273069,317.369293 L92.273076,317.369395 L92.273082,317.369497 L92.273089,317.369598 L92.273095,317.369701 L92.273102,317.369803 L92.273108,317.369906 L92.273115,317.370011 L92.273122,317.370116 L92.273128,317.370222 L92.273135,317.370330 L92.273142,317.370439 L92.273149,317.370549 L92.273156,317.370661 L92.273163,317.370775 L92.273171,317.370890 L92.273178,317.371007 L92.273186,317.371125 L92.273193,317.371246 L92.273201,317.371368 L92.273209,317.371493 L92.273217,317.371619 L92.273225,317.371747 L92.273233,317.371877 L92.273242,317.372010 L92.273250,317.372144 L92.273259,317.372281 L92.273268,317.372420 L92.273276,317.372561 L92.273286,317.372704 L92.273295,317.372849 L92.273304,317.372997 L92.273314,317.373148 L92.273323,317.373300 L92.273333,317.373456 L92.273343,317.373613 L92.273353,317.373774 L92.273364,317.373937 L92.273374,317.374102 L92.273385,317.374270 L92.273396,317.374441 L92.273407,317.374615 L92.273418,317.374791 L92.273429,317.374970 L92.273441,317.375153 L92.273453,317.375338 L92.273465,317.375526 L92.273477,317.375717 L92.273489,317.375911 L92.273502,317.376109 L92.273514,317.376310 L92.273527,317.376513 L92.273540,317.376721 L92.273554,317.376931 L92.273567,317.377145 L92.273581,317.377362 L92.273595,317.377583 L92.273610,317.377808 L92.273624,317.378036 L92.273639,317.378268 L92.273654,317.378503 L92.273669,317.378743 L92.273684,317.378986 L92.273700,317.379233 L92.273716,317.379484 L92.273732,317.379739 L92.273749,317.379999 L92.273765,317.380262 L92.273782,317.380530 L92.273800,317.380802 L92.273817,317.381079 L92.273835,317.381360 L92.273853,317.381645 L92.273872,317.381935 L92.273891,317.382230 L92.273910,317.382530 L92.273929,317.382834 L92.273949,317.383144 L92.273969,317.383458 L92.273989,317.383777 L92.274010,317.384102 L92.274031,317.384432 L92.274052,317.384767 L92.274074,317.385108 L92.274096,317.385454 L92.274118,317.385806 L92.274141,317.386163 L92.274164,317.386526 L92.274187,317.386895 L92.274211,317.387271 L92.274236,317.387652 L92.274260,317.388039 L92.274285,317.388432 L92.274311,317.388832 L92.274337,317.389239 L92.274363,317.389652 L92.274390,317.390071 L92.274417,317.390498 L92.274445,317.390931 L92.274473,317.391371 L92.274501,317.391819 L92.274530,317.392273 L92.274560,317.392735 L92.274590,317.393205 L92.274620,317.393682 L92.274651,317.394167 L92.274682,317.394659 L92.274714,317.395160 L92.274747,317.395668 L92.274780,317.396185 L92.274813,317.396711 L92.274848,317.397244 L92.274882,317.397787 L92.274917,317.398338 L92.274953,317.398898 L92.274990,317.399467 L92.275027,317.400045 L92.275064,317.400633 L92.275102,317.401230 L92.275141,317.401836 L92.275181,317.402453 L92.275221,317.403079 L92.275261,317.403716 L92.275303,317.404363 L92.275345,317.405020 L92.275388,317.405688 L92.275431,317.406367 L92.275475,317.407057 L92.275520,317.407758 L92.275566,317.408470 L92.275612,317.409194 L92.275659,317.409929 L92.275707,317.410676 L92.275756,317.411436 L92.275805,317.412207 L92.275856,317.412991 L92.275907,317.413788 L92.275959,317.414598 L92.276012,317.415420 L92.276065,317.416256 L92.276120,317.417106 L92.276175,317.417969 L92.276232,317.418846 L92.276289,317.419737 L92.276347,317.420643 L92.276407,317.421563 L92.276467,317.422498 L92.276528,317.423448 L92.276590,317.424414 L92.276653,317.425395 L92.276718,317.426392 L92.276783,317.427405 L92.276849,317.428434 L92.276917,317.429480 L92.276985,317.430543 L92.277055,317.431623 L92.277126,317.432721 L92.277198,317.433836 L92.277271,317.434969 L92.277345,317.436121 L92.277421,317.437291 L92.277498,317.438480 L92.277576,317.439688 L92.277655,317.440915 L92.277736,317.442163 L92.277818,317.443430 L92.277902,317.444718 L92.277986,317.446027 L92.278073,317.447356 L92.278160,317.448708 L92.278249,317.450081 L92.278340,317.451476 L92.278432,317.452894 L92.278525,317.454334 L92.278620,317.455798 L92.278717,317.457285 L92.278815,317.458796 L92.278915,317.460332 L92.279017,317.461892 L92.279120,317.463478 L92.279225,317.465089 L92.279332,317.466726 L92.279440,317.468389 L92.279551,317.470080 L92.279663,317.471797 L92.279777,317.473542 L92.279893,317.475315 L92.280011,317.477117 L92.280130,317.478948 L92.280252,317.480808 L92.280376,317.482698 L92.280502,317.484619 L92.280630,317.486570 L92.280760,317.488553 L92.280892,317.490568 L92.281027,317.492615 L92.281164,317.494695 L92.281303,317.496809 L92.281444,317.498957 L92.281588,317.501139 L92.281734,317.503356 L92.281882,317.505609 L92.282033,317.507898 L92.282187,317.510224 L92.282343,317.512587 L92.282502,317.514989 L92.282664,317.517429 L92.282828,317.519908 L92.282995,317.522427 L92.283165,317.524986 L92.283337,317.527587 L92.283513,317.530229 L92.283691,317.532914 L92.283873,317.535642 L92.284057,317.538414 L92.284245,317.541230 L92.284436,317.544092 L92.284630,317.546999 L92.284828,317.549953 L92.285028,317.552955 L92.285232,317.556004 L92.285440,317.559103 L92.285651,317.562251 L92.285866,317.565450 L92.286085,317.568700 L92.286307,317.572002 L92.286533,317.575357 L92.286762,317.578766 L92.286996,317.582229 L92.287234,317.585748 L92.287476,317.589323 L92.287722,317.592956 L92.287972,317.596646 L92.288226,317.600396 L92.288485,317.604206 L92.288748,317.608077 L92.289016,317.612010 L92.289288,317.616005 L92.289566,317.620065 L92.289847,317.624189 L92.290134,317.628380 L92.290426,317.632637 L92.290723,317.636963 L92.291025,317.641357 L92.291332,317.645822 L92.291644,317.650358 L92.291962,317.654967 L92.292286,317.659649 L92.292615,317.664406 L92.292950,317.669238 L92.293290,317.674148 L92.293637,317.679136 L92.293990,317.684204 L92.294349,317.689353 L92.294714,317.694583 L92.295085,317.699897 L92.295464,317.705295 L92.295849,317.710780 L92.296240,317.716352 L92.296639,317.722012 L92.297044,317.727763 L92.297457,317.733605 L92.297877,317.739540 L92.298305,317.745569 L92.298740,317.751694 L92.299183,317.757916 L92.299634,317.764237 L92.300093,317.770659 L92.300561,317.777182 L92.301036,317.783809 L92.301521,317.790541 L92.302014,317.797380 L92.302515,317.804327 L92.303026,317.811385 L92.303546,317.818554 L92.304076,317.825836 L92.304615,317.833234 L92.305164,317.840749 L92.305723,317.848382 L92.306293,317.856137 L92.306872,317.864013 L92.307463,317.872015 L92.308064,317.880142 L92.308676,317.888398 L92.309300,317.896784 L92.309935,317.905302 L92.310582,317.913954 L92.311241,317.922743 L92.311912,317.931670 L92.312596,317.940738 L92.313293,317.949948 L92.314002,317.959302 L92.314725,317.968804 L92.315462,317.978455 L92.316212,317.988258 L92.316977,317.998214 L92.317756,318.008326 L92.318550,318.018597 L92.319359,318.029029 L92.320184,318.039623 L92.321025,318.050384 L92.321881,318.061312 L92.322755,318.072412 L92.323645,318.083684 L92.324552,318.095133 L92.325477,318.106760 L92.326420,318.118568 L92.327382,318.130560 L92.328362,318.142738 L92.329362,318.155106 L92.330381,318.167665 L92.331421,318.180420 L92.332481,318.193373 L92.333563,318.206526 L92.334666,318.219883 L92.335791,318.233446 L92.336939,318.247219 L92.338110,318.261205 L92.339305,318.275407 L92.340525,318.289828 L92.341769,318.304470 L92.343038,318.319338 L92.344334,318.334435 L92.345657,318.349763 L92.347007,318.365327 L92.348385,318.381129 L92.349792,318.397173 L92.351229,318.413463 L92.352696,318.430001 L92.354193,318.446792 L92.355723,318.463838 L92.357286,318.481145 L92.358882,318.498714 L92.360512,318.516550 L92.362178,318.534657 L92.363879,318.553038 L92.365618,318.571697 L92.367396,318.590638 L92.369212,318.609865 L92.371069,318.629381 L92.372967,318.649191 L92.374907,318.669299 L92.376892,318.689708 L92.378921,318.710423 L92.380996,318.731448 L92.383119,318.752786 L92.385290,318.774443 L92.387512,318.796421 L92.389786,318.818726 L92.392112,318.841362 L92.394494,318.864333 L92.396931,318.887642 L92.399427,318.911296 L92.401982,318.935297 L92.404600,318.959651 L92.407280,318.984361 L92.410026,319.009433 L92.412840,319.034870 L92.415723,319.060677 L92.418678,319.086859 L92.421707,319.113421 L92.424812,319.140365 L92.427996,319.167699 L92.431262,319.195424 L92.434612,319.223548 L92.438049,319.252073 L92.441577,319.281005 L92.445197,319.310347 L92.448913,319.340106 L92.452729,319.370285 L92.456648,319.400888 L92.460674,319.431921 L92.464810,319.463388 L92.469061,319.495293 L92.473431,319.527641 L92.477924,319.560437 L92.482544,319.593684 L92.487297,319.627387 L92.492187,319.661551 L92.497220,319.696179 L92.502401,319.731277 L92.507737,319.766848 L92.513233,319.802896 L92.518896,319.839425 L92.524732,319.876440 L92.530749,319.913944 L92.536955,319.951940 L92.543356,319.990434 L92.549963,320.029427 L92.556782,320.068924 L92.563825,320.108927 L92.571100,320.149440 L92.578618,320.190466 L92.586391,320.232008 L92.594430,320.274067 L92.602747,320.316648 L92.611355,320.359750 L92.620269,320.403378 L92.629504,320.447532 L92.639075,320.492214 L92.648999,320.537425 L92.659295,320.583165 L92.669980,320.629436 L92.681076,320.676238 L92.692605,320.723570 L92.704590,320.771432 L92.717056,320.819823 L92.729991,320.868600 L92.743365,320.917557 L92.757150,320.966522 L92.771324,321.015353 L92.785869,321.063934 L92.800768,321.112172 L92.816009,321.159990 L92.831583,321.207329 L92.847482,321.254142 L92.863700,321.300393 L92.880233,321.346055 L92.897078,321.391107 L92.914235,321.435535 L92.931702,321.479329 L92.949480,321.522484 L92.967570,321.564997 L92.985974,321.606868 L93.004694,321.648099 L93.023734,321.688692 L93.043097,321.728654 L93.062786,321.767988 L93.082806,321.806703 L93.103161,321.844804 L93.123854,321.882300 L93.144892,321.919198 L93.166279,321.955507 L93.188021,321.991233 L93.210122,322.026387 L93.232589,322.060976 L93.255426,322.095009 L93.278640,322.128494 L93.302237,322.161439 L93.326222,322.193854 L93.350603,322.225746 L93.375385,322.257123 L93.400575,322.287994 L93.426180,322.318366 L93.452205,322.348248 L93.478659,322.377648 L93.505548,322.406572 L93.532880,322.435029 L93.560660,322.463027 L93.588898,322.490572 L93.617600,322.517672 L93.646774,322.544334 L93.676427,322.570565 L93.706568,322.596372 L93.737205,322.621762 L93.768345,322.646741 L93.799997,322.671317 L93.832170,322.695496 L93.864872,322.719284 L93.898111,322.742687 L93.931896,322.765712 L93.966237,322.788365 L94.001143,322.810651 L94.036623,322.832578 L94.072685,322.854150 L94.109341,322.875373 L94.146600,322.896253 L94.184471,322.916796 L94.222964,322.937006 L94.262091,322.956890 L94.301860,322.976452 L94.342284,322.995699 L94.383372,323.014634 L94.425136,323.033263 L94.467587,323.051591 L94.510735,323.069622 L94.554593,323.087362 L94.599172,323.104816 L94.644484,323.121987 L94.690541,323.138880 L94.737356,323.155501 L94.784940,323.171853 L94.833307,323.187940 L94.882469,323.203768 L94.932439,323.219339 L94.983232,323.234659 L95.034859,323.249731 L95.087336,323.264560 L95.140675,323.279149 L95.194892,323.293502 L95.250000,323.307623 L95.306014,323.321516 L95.362950,323.335184 L95.420822,323.348631 L95.479646,323.361861 L95.539437,323.374877 L95.600212,323.387683 L95.661986,323.400281 L95.724776,323.412676 L95.788599,323.424871 L95.853472,323.436868 L95.919412,323.448672 L95.986436,323.460285 L96.054563,323.471710 L96.123811,323.482950 L96.194197,323.494008 L96.265741,323.504888 L96.338463,323.515592 L96.412380,323.526123 L96.487514,323.536484 L96.563884,323.546677 L96.641510,323.556705 L96.720413,323.566572 L96.800614,323.576279 L96.882134,323.585829 L96.964996,323.595224 L97.049221,323.604468 L97.134832,323.613562 L97.221852,323.622509 L97.310303,323.631312 L97.400210,323.639972 L97.491597,323.648492 L97.584487,323.656875 L97.678905,323.665122 L97.774878,323.673236 L97.872429,323.681218 L97.971587,323.689072 L98.072376,323.696798 L98.174823,323.704400 L98.278957,323.711879 L98.384805,323.719237 L98.492395,323.726476 L98.601756,323.733598 L98.712917,323.740605 L98.825908,323.747498 L98.940758,323.754280 L99.057500,323.760953 L99.176163,323.767517 L99.296779,323.773976 L99.419382,323.780330 L99.544003,323.786581 L99.670675,323.792732 L99.799433,323.798783 L99.930312,323.804736 L100.063345,323.810593 L100.198569,323.816355 L100.336020,323.822024 L100.475734,323.827601 L100.617749,323.833089 L100.762102,323.838487 L100.908834,323.843798 L101.057982,323.849024 L101.209586,323.854165 L101.363688,323.859223 L101.520328,323.864199 L101.679548,323.869094 L101.841391,323.873911 L102.005901,323.878649 L102.173120,323.883312 L102.343095,323.887898 L102.515870,323.892411 L102.691492,323.896850 L102.870008,323.901218 L103.051466,323.905515 L103.235914,323.909743 L103.423402,323.913903 L103.613980,323.917995 L103.807699,323.922021 L104.004610,323.925982 L104.204768,323.929879 L104.408225,323.933712 L104.615036,323.937484 L104.825257,323.941195 L105.038944,323.944846 L105.256154,323.948438 L105.476945,323.951972 L105.701377,323.955449 L105.929511,323.958870 L106.161407,323.962235 L106.397127,323.965546 L106.636735,323.968803 L106.880296,323.972008 L107.127875,323.975161 L107.379537,323.978263 L107.635352,323.981314 L107.895388,323.984317 L108.159714,323.987271 L108.428402,323.990177 L108.701524,323.993036 L108.979154,323.995849 L109.261366,323.998617 L109.548236,324.001339 L109.839842,324.004018 L110.136262,324.006653 L110.437576,324.009246 L110.743865,324.011797 L111.055212,324.014307 L111.371700,324.016776 L111.693415,324.019205 L112.020444,324.021595 L112.352875,324.023946 L112.690798,324.026260 L113.034303,324.028536 L113.383485,324.030775 L113.738436,324.032978 L114.099253,324.035145 L114.466033,324.037277 L114.838876,324.039375 L115.217882,324.041439 L115.603154,324.043469 L115.994796,324.045467 L116.392914,324.047433 L116.797615,324.049366 L117.209011,324.051269 L117.627210,324.053140 L118.052328,324.054982 L118.484480,324.056793 L118.923782,324.058575 L119.370353,324.060329 L119.824316,324.062054 L120.285792,324.063751 L120.754908,324.065421 L121.231791,324.067064 L121.716570,324.068680 L122.209377,324.070271 L122.710346,324.071835 L123.219613,324.073374 L123.737318,324.074888 L124.263600,324.076378 L124.798604,324.077844 L125.342474,324.079286 L125.895360,324.080705 L126.457412,324.082101 L127.028783,324.083474 L127.609630,324.084825 L128.200110,324.086154 L128.800385,324.087462 L129.410620,324.088748 L130.030981,324.090014 L130.661637,324.091259 L131.302762,324.092484 L131.954530,324.093690 L132.617121,324.094876 L133.290716,324.096042 L133.975500,324.097190 L134.671661,324.098320 L135.379389,324.099431 L136.098879,324.100524 L136.830329,324.101599 L137.573940,324.102657 L138.329917,324.103698 L139.098467,324.104722 L139.879803,324.105730 L140.674139,324.106721 L141.481695,324.107696 L142.302694,324.108656 L143.137362,324.109600 L143.985929,324.110528 L144.848631,324.111442 L145.725706,324.112341 L146.617397,324.113225 L147.523951,324.114095 L148.445619,324.114951 L149.382657,324.115793 L150.335325,324.116622 L151.303887,324.117437 L152.288613,324.118239 L153.289777,324.119028 L154.307658,324.119805 L155.342539,324.120568 L156.394708,324.121320 L157.464459,324.122059 L158.552092,324.122786 L159.657909,324.123502 L160.782221,324.124206 L161.925342,324.124898 L163.087593,324.125580 L164.269299,324.126250 L165.470792,324.126909 L166.692410,324.127558 L167.934496,324.128197 L169.197400,324.128825 L170.481477,324.129443 L171.787090,324.130051 L173.114608,324.130649 L174.464405,324.131237 L175.836863,324.131816 L177.232372,324.132386 L178.651325,324.132946 L180.094126,324.133497 L181.561186,324.134040 L183.052920,324.134573 L184.569753,324.135098 L186.112118,324.135615 L187.680455,324.136123 L189.275212,324.136623 L190.896845,324.137115 L192.545817,324.137599 L194.222603,324.138075 L195.927682,324.138543 L197.661545,324.139004 L199.424691,324.139457 L201.217628,324.139903 L203.040873,324.140342 L204.894953,324.140774 L206.780403,324.141199 L208.697771,324.141616 L210.647612,324.142028 L212.630493,324.142432 L214.646990,324.142830 L216.697692,324.143221 L218.783195,324.143607 L220.904110,324.143986 L223.061057,324.144358 L225.254669,324.144725 L227.485589,324.145086 L229.754474,324.145441 L232.061991,324.145790 L234.408822,324.146134 L236.795659,324.146472 L239.223210,324.146805 L241.692194,324.147132 L244.203345,324.147454 L246.757410,324.147771 L249.355150,324.148082 L251.997342,324.148389 L254.684776,324.148691 L257.418257,324.148987 L260.198607,324.149279 L263.026663,324.149567 L265.903278,324.149849 L268.829320,324.150127 L271.805677,324.150401 L274.833251,324.150670 L277.912963,324.150935 L281.045752,324.151195 L284.232575,324.151451 L287.474407,324.151704 L290.772243,324.151952 L294.127096,324.152196 L297.540002,324.152436 L301.012015,324.152672 L304.544210,324.152904 L308.137683,324.153133 L311.793554,324.153358 L315.512962,324.153579 L319.297073,324.153797 L323.147072,324.154011 L327.064170,324.154222 L331.049602,324.154429 L335.104630,324.154633 L339.230537,324.154834 L343.428637,324.155031 L347.700267,324.155226 L352.046794,324.155417 L356.469612,324.155605 L360.970144,324.155790 L365.549841,324.155972 L370.210186,324.156151 L374.952692,324.156327 L379.778903,324.156500 L384.690397,324.156671 L389.688784,324.156839 L394.775706,324.157004 L399.952844,324.157166 L405.221911,324.157326 L410.584659,324.157483 L416.042875,324.157638 L421.598386,324.157790 L427.253057,324.157939 L433.008796,324.158087 L438.867549,324.158231 L444.831307,324.158374 L450.902103,324.158514 L457.082014,324.158652 L463.373165,324.158788 L469.777726,324.158921 L476.232271,324.159051 L482.686817,324.159177 L489.141362,324.159299 L495.595908,324.159417 L502.050453,324.159531 L508.504999,324.159641 L514.959544,324.159748 L521.414090,324.159852 L527.868635,324.159953 L534.323180,324.160051 L540.777726,324.160146 L547.232271,324.160239 L553.686817,324.160328 L560.141362,324.160416 L566.595908,324.160501 L573.050453,324.160584 L579.504999,324.160664 L585.959544,324.160742 L592.414090,324.160819 L598.868635,324.160893 L605.323180,324.160966 L611.777726,324.161037 L618.232271,324.161106 L624.686817,324.161173 L631.141362,324.161239 L637.595908,324.161303 L644.050453,324.161366 L650.504999,324.161427 L656.959544,324.161487 L663.414090,324.161545 L669.868635,324.161602 L676.323180,324.161658 L682.777726,324.161713 L689.232271,324.161767 L695.686817,324.161819 L702.141362,324.161870 L708.595908,324.161920 L715.050453,324.161970 L721.504999,324.162018 L727.959544,324.162065 L734.414090,324.162111 L737.727273,324.162135" stroke="#984ea3" stroke-width="2" fill="none"/><line x1="720.000000" y1="50.000000" x2="740.000000" y2="50.000000" stroke="#e41a1c" stroke-width="2"/><text x="745.000000" y="54.000000" font-family="Arial, sans-serif" font-size="10">value</text><line x1="720.000000" y1="70.000000" x2="740.000000" y2="70.000000" stroke="#377eb8" stroke-width="2"/><text x="745.000000" y="74.000000" font-family="Arial, sans-serif" font-size="10">item0</text><line x1="720.000000" y1="90.000000" x2="740.000000" y2="90.000000" stroke="#4daf4a" stroke-width="2"/><text x="745.000000" y="94.000000" font-family="Arial, sans-serif" font-size="10">item1</text><line x1="720.000000" y1="110.000000" x2="740.000000" y2="110.000000" stroke="#984ea3" stroke-width="2"/><text x="745.000000" y="114.000000" font-family="Arial, sans-serif" font-size="10">item3</text><g id="plot_137974684_crosshair" style="display:none;"><line id="plot_137974684_line" x1="0" y1="40.000000" x2="0" y2="350.000000" stroke="#666" stroke-width="1" stroke-dasharray="4,4"/><rect id="tooltip_bg" x="0" y="0" rx="4" ry="4" fill="white" stroke="#666" stroke-width="1" opacity="0.95"/><text id="tooltip_text" x="0" y="0" font-family="Arial, sans-serif" font-size="11" fill="#333"></text></g><rect id="plot_137974684_overlay" x="60.000000" y="40.000000" width="710.000000" height="310.000000" fill="transparent" style="cursor:crosshair;"/></svg>