<svg xmlns="http://www.w3.org/2000/svg" viewBox="50.0 0.0 550.0 250.0" width="550" height="250">
<defs><style>.place { fill: #fff; stroke: #333; stroke-width: 2; }.place-cap-full { fill: #ffebee; }.transition { fill: #ffffff; stroke: #000; stroke-width: 1; }.transition-active { fill: #62fa75; stroke: #000; }.arc { stroke: #cfcfcf; stroke-width: 1; fill: none; }.arc-active { stroke: #2a6fb8; }.arrowhead { fill: #cfcfcf; }.arrowhead-active { fill: #2a6fb8; }.inhibitor { fill: #fff; stroke: #cfcfcf; stroke-width: 1.3; }.inhibitor-active { stroke: #2a6fb8; }.token-dot { fill: #333; }.token-text { font-family: system-ui, Arial; font-size: 12px; fill: #333; text-anchor: middle; dominant-baseline: middle; }.weight-badge { font-family: system-ui, Arial; font-size: 10px; fill: #666; text-anchor: middle; dominant-baseline: middle; }.weight-bg { fill: #fafafa; stroke: #ddd; stroke-width: 1; }.weight-bg-active { fill: #e8f0fb; stroke: #2a6fb8; }.label-text { font-family: system-ui, Arial; font-size: 11px; fill: #333; text-anchor: middle; dominant-baseline: hanging; }</style></defs>
<line x1="100.0" y1="68.0" x2="100.0" y2="100.8" stroke="#000000" stroke-width="1" fill="none"/>
<path d="M 100.0 100.8 L 96.4 92.8 L 103.6 92.8 Z" fill="#000000"/>
<circle cx="100.0" cy="84.4" r="10" fill="#d8d8d8" stroke="#000000" stroke-width="1"/>
<text x="100.0" y="84.4" font-family="system-ui, Arial" font-size="10px" fill="#000000" text-anchor="middle" dominant-baseline="middle">1</text>
<line x1="382.5" y1="195.6" x2="123.5" y2="130.9" stroke="#000000" stroke-width="1" fill="none"/>
<path d="M 123.5 130.9 L 132.1 129.3 L 130.4 136.3 Z" fill="#000000"/>
<circle cx="253.0" cy="163.3" r="10" fill="#d8d8d8" stroke="#000000" stroke-width="1"/>
<text x="253.0" y="163.3" font-family="system-ui, Arial" font-size="10px" fill="#000000" text-anchor="middle" dominant-baseline="middle">2</text>
<line x1="100.0" y1="142.0" x2="100.0" y2="174.8" stroke="#000000" stroke-width="1" fill="none"/>
<path d="M 100.0 174.8 L 96.4 166.8 L 103.6 166.8 Z" fill="#000000"/>
<circle cx="100.0" cy="158.4" r="10" fill="#d8d8d8" stroke="#000000" stroke-width="1"/>
<text x="100.0" y="158.4" font-family="system-ui, Arial" font-size="10px" fill="#000000" text-anchor="middle" dominant-baseline="middle">2</text>
<line x1="115.2" y1="132.6" x2="227.5" y2="188.7" stroke="#000000" stroke-width="1" fill="none"/>
<path d="M 227.5 188.7 L 218.7 188.4 L 221.9 181.9 Z" fill="#000000"/>
<circle cx="171.3" cy="160.7" r="10" fill="#d8d8d8" stroke="#000000" stroke-width="1"/>
<text x="171.3" y="160.7" font-family="system-ui, Arial" font-size="10px" fill="#000000" text-anchor="middle" dominant-baseline="middle">10</text>
<line x1="250.0" y1="68.0" x2="250.0" y2="100.8" stroke="#000000" stroke-width="1" fill="none"/>
<path d="M 250.0 100.8 L 246.4 92.8 L 253.6 92.8 Z" fill="#000000"/>
<circle cx="250.0" cy="84.4" r="10" fill="#d8d8d8" stroke="#000000" stroke-width="1"/>
<text x="250.0" y="84.4" font-family="system-ui, Arial" font-size="10px" fill="#000000" text-anchor="middle" dominant-baseline="middle">1</text>
<line x1="383.9" y1="192.0" x2="271.6" y2="135.8" stroke="#000000" stroke-width="1" fill="none"/>
<path d="M 271.6 135.8 L 280.4 136.2 L 277.2 142.6 Z" fill="#000000"/>
<circle cx="327.8" cy="163.9" r="10" fill="#d8d8d8" stroke="#000000" stroke-width="1"/>
<text x="327.8" y="163.9" font-family="system-ui, Arial" font-size="10px" fill="#000000" text-anchor="middle" dominant-baseline="middle">4</text>
<line x1="234.8" y1="132.6" x2="122.5" y2="188.7" stroke="#000000" stroke-width="1" fill="none"/>
<path d="M 122.5 188.7 L 128.1 181.9 L 131.3 188.4 Z" fill="#000000"/>
<circle cx="178.7" cy="160.7" r="10" fill="#d8d8d8" stroke="#000000" stroke-width="1"/>
<text x="178.7" y="160.7" font-family="system-ui, Arial" font-size="10px" fill="#000000" text-anchor="middle" dominant-baseline="middle">4</text>
<line x1="250.0" y1="142.0" x2="250.0" y2="174.8" stroke="#000000" stroke-width="1" fill="none"/>
<path d="M 250.0 174.8 L 246.4 166.8 L 253.6 166.8 Z" fill="#000000"/>
<circle cx="250.0" cy="158.4" r="10" fill="#d8d8d8" stroke="#000000" stroke-width="1"/>
<text x="250.0" y="158.4" font-family="system-ui, Arial" font-size="10px" fill="#000000" text-anchor="middle" dominant-baseline="middle">10</text>
<line x1="400.0" y1="68.0" x2="400.0" y2="100.8" stroke="#000000" stroke-width="1" fill="none"/>
<path d="M 400.0 100.8 L 396.4 92.8 L 403.6 92.8 Z" fill="#000000"/>
<circle cx="400.0" cy="84.4" r="10" fill="#d8d8d8" stroke="#000000" stroke-width="1"/>
<text x="400.0" y="84.4" font-family="system-ui, Arial" font-size="10px" fill="#000000" text-anchor="middle" dominant-baseline="middle">1</text>
<line x1="400.0" y1="182.0" x2="400.0" y2="149.2" stroke="#000000" stroke-width="1" fill="none"/>
<path d="M 400.0 149.2 L 403.6 157.2 L 396.4 157.2 Z" fill="#000000"/>
<circle cx="400.0" cy="165.6" r="10" fill="#d8d8d8" stroke="#000000" stroke-width="1"/>
<text x="400.0" y="165.6" font-family="system-ui, Arial" font-size="10px" fill="#000000" text-anchor="middle" dominant-baseline="middle">6</text>
<line x1="383.5" y1="129.1" x2="124.4" y2="193.9" stroke="#000000" stroke-width="1" fill="none"/>
<path d="M 124.4 193.9 L 131.3 188.5 L 133.1 195.4 Z" fill="#000000"/>
<circle cx="254.0" cy="161.5" r="10" fill="#d8d8d8" stroke="#000000" stroke-width="1"/>
<text x="254.0" y="161.5" font-family="system-ui, Arial" font-size="10px" fill="#000000" text-anchor="middle" dominant-baseline="middle">6</text>
<line x1="384.8" y1="132.6" x2="272.5" y2="188.7" stroke="#000000" stroke-width="1" fill="none"/>
<path d="M 272.5 188.7 L 278.1 181.9 L 281.3 188.4 Z" fill="#000000"/>
<circle cx="328.7" cy="160.7" r="10" fill="#d8d8d8" stroke="#000000" stroke-width="1"/>
<text x="328.7" y="160.7" font-family="system-ui, Arial" font-size="10px" fill="#000000" text-anchor="middle" dominant-baseline="middle">12</text>
<line x1="550.0" y1="68.0" x2="550.0" y2="100.8" stroke="#000000" stroke-width="1" fill="none"/>
<path d="M 550.0 100.8 L 546.4 92.8 L 553.6 92.8 Z" fill="#000000"/>
<circle cx="550.0" cy="84.4" r="10" fill="#d8d8d8" stroke="#000000" stroke-width="1"/>
<text x="550.0" y="84.4" font-family="system-ui, Arial" font-size="10px" fill="#000000" text-anchor="middle" dominant-baseline="middle">1</text>
<line x1="416.1" y1="192.0" x2="528.4" y2="135.8" stroke="#000000" stroke-width="1" fill="none"/>
<path d="M 528.4 135.8 L 522.8 142.6 L 519.6 136.2 Z" fill="#000000"/>
<circle cx="472.2" cy="163.9" r="10" fill="#d8d8d8" stroke="#000000" stroke-width="1"/>
<text x="472.2" y="163.9" font-family="system-ui, Arial" font-size="10px" fill="#000000" text-anchor="middle" dominant-baseline="middle">9</text>
<line x1="533.2" y1="127.8" x2="124.9" y2="195.9" stroke="#000000" stroke-width="1" fill="none"/>
<path d="M 124.9 195.9 L 132.2 191.0 L 133.3 198.1 Z" fill="#000000"/>
<circle cx="329.0" cy="161.8" r="10" fill="#d8d8d8" stroke="#000000" stroke-width="1"/>
<text x="329.0" y="161.8" font-family="system-ui, Arial" font-size="10px" fill="#000000" text-anchor="middle" dominant-baseline="middle">9</text>
<line x1="533.5" y1="129.1" x2="274.4" y2="193.9" stroke="#000000" stroke-width="1" fill="none"/>
<path d="M 274.4 193.9 L 281.3 188.5 L 283.1 195.4 Z" fill="#000000"/>
<circle cx="404.0" cy="161.5" r="10" fill="#d8d8d8" stroke="#000000" stroke-width="1"/>
<text x="404.0" y="161.5" font-family="system-ui, Arial" font-size="10px" fill="#000000" text-anchor="middle" dominant-baseline="middle">18</text>
<circle cx="100.0" cy="50.0" r="16.0" class="place"/>
<circle cx="100.0" cy="50.0" r="3" class="token-dot"/>
<text x="100.0" y="72.0" class="label-text">item0 (w=2,v=10)</text>
<circle cx="250.0" cy="50.0" r="16.0" class="place"/>
<circle cx="250.0" cy="50.0" r="3" class="token-dot"/>
<text x="250.0" y="72.0" class="label-text">item1 (w=4,v=10)</text>
<circle cx="400.0" cy="50.0" r="16.0" class="place"/>
<circle cx="400.0" cy="50.0" r="3" class="token-dot"/>
<text x="400.0" y="72.0" class="label-text">item2 (w=6,v=12)</text>
<circle cx="550.0" cy="50.0" r="16.0" class="place"/>
<circle cx="550.0" cy="50.0" r="3" class="token-dot"/>
<text x="550.0" y="72.0" class="label-text">item3 (w=9,v=18)</text>
<circle cx="250.0" cy="200.0" r="16.0" class="place"/>
<text x="250.0" y="222.0" class="label-text">Total Value</text>
<circle cx="100.0" cy="200.0" r="16.0" class="place"/>
<text x="100.0" y="222.0" class="label-text">Total Weight</text>
<circle cx="400.0" cy="200.0" r="16.0" class="place"/>
<text x="400.0" y="200.0" class="token-text">15</text>
<text x="400.0" y="222.0" class="label-text">Remaining Capacity</text>
<rect x="85.0" y="110.0" width="30.0" height="30.0" rx="4.0" ry="4.0" class="transition transition-active"/>
<text x="100.0" y="146.0" class="label-text">Take item0</text>
<rect x="235.0" y="110.0" width="30.0" height="30.0" rx="4.0" ry="4.0" class="transition transition-active"/>
<text x="250.0" y="146.0" class="label-text">Take item1</text>
<rect x="385.0" y="110.0" width="30.0" height="30.0" rx="4.0" ry="4.0" class="transition transition-active"/>
<text x="400.0" y="146.0" class="label-text">Take item2</text>
<rect x="535.0" y="110.0" width="30.0" height="30.0" rx="4.0" ry="4.0" class="transition transition-active"/>
<text x="550.0" y="146.0" class="label-text">Take item3</text>
</svg>
