<svg xmlns="http://www.w3.org/2000/svg" viewBox="50.0 50.0 4900.0 200.0" width="4900" height="200">
<rect x="50.0" y="50.0" width="4900.0" height="200.0" fill="#f8f9fa" rx="8"/>
<defs><style>.place { fill: #fff; stroke: #333; stroke-width: 2; }.place-cap-full { fill: #ffebee; }.transition { fill: #ffffff; stroke: #000; stroke-width: 1; }.transition-active { fill: #62fa75; stroke: #000; }.arc { stroke: #cfcfcf; stroke-width: 1; fill: none; }.arc-active { stroke: #2a6fb8; }.arrowhead { fill: #cfcfcf; }.arrowhead-active { fill: #2a6fb8; }.inhibitor { fill: #fff; stroke: #cfcfcf; stroke-width: 1.3; }.inhibitor-active { stroke: #2a6fb8; }.token-dot { fill: #333; }.token-text { font-family: system-ui, Arial; font-size: 12px; fill: #333; text-anchor: middle; dominant-baseline: middle; }.weight-badge { font-family: system-ui, Arial; font-size: 10px; fill: #666; text-anchor: middle; dominant-baseline: middle; }.weight-bg { fill: #fafafa; stroke: #ddd; stroke-width: 1; }.weight-bg-active { fill: #e8f0fb; stroke: #2a6fb8; }.label-text { font-family: system-ui, Arial; font-size: 11px; fill: #333; text-anchor: middle; dominant-baseline: hanging; }</style></defs>
<path d="M 118.0 100.6 Q 1495.8 179.9 2875.8 199.1" stroke="#000000" stroke-width="1" fill="none"/>
<path d="M 2875.8 199.1 L 2867.8 202.6 L 2867.9 195.4 Z" fill="#000000"/>
<circle cx="1496.4" cy="164.9" r="10" fill="#d8d8d8" stroke="#000000" stroke-width="1"/>
<text x="1496.4" y="164.9" font-family="system-ui, Arial" font-size="10px" fill="#000000" text-anchor="middle" dominant-baseline="middle">1</text>
<path d="M 2883.0 199.4 Q 1505.2 120.2 125.2 100.9" stroke="#000000" stroke-width="1" fill="none"/>
<path d="M 125.2 100.9 L 133.2 97.4 L 133.1 104.6 Z" fill="#000000"/>
<circle cx="1504.6" cy="135.2" r="10" fill="#d8d8d8" stroke="#000000" stroke-width="1"/>
<text x="1504.6" y="135.2" font-family="system-ui, Arial" font-size="10px" fill="#000000" text-anchor="middle" dominant-baseline="middle">1</text>
<line x1="118.0" y1="100.6" x2="2975.8" y2="199.2" stroke="#000000" stroke-width="1" fill="none"/>
<path d="M 2975.8 199.2 L 2967.7 202.5 L 2967.9 195.3 Z" fill="#000000"/>
<circle cx="1546.9" cy="149.9" r="10" fill="#d8d8d8" stroke="#000000" stroke-width="1"/>
<text x="1546.9" y="149.9" font-family="system-ui, Arial" font-size="10px" fill="#000000" text-anchor="middle" dominant-baseline="middle">1</text>
<line x1="2983.0" y1="199.4" x2="225.2" y2="100.9" stroke="#000000" stroke-width="1" fill="none"/>
<path d="M 225.2 100.9 L 233.3 97.6 L 233.1 104.8 Z" fill="#000000"/>
<circle cx="1604.1" cy="150.1" r="10" fill="#d8d8d8" stroke="#000000" stroke-width="1"/>
<text x="1604.1" y="150.1" font-family="system-ui, Arial" font-size="10px" fill="#000000" text-anchor="middle" dominant-baseline="middle">1</text>
<line x1="218.0" y1="100.6" x2="3075.8" y2="199.2" stroke="#999999" stroke-width="1" fill="none"/>
<path d="M 3075.8 199.2 L 3067.7 202.5 L 3067.9 195.3 Z" fill="#999999"/>
<circle cx="1646.9" cy="149.9" r="10" fill="#fafafa" stroke="#999999" stroke-width="1"/>
<text x="1646.9" y="149.9" font-family="system-ui, Arial" font-size="10px" fill="#666" text-anchor="middle" dominant-baseline="middle">1</text>
<line x1="3083.0" y1="199.4" x2="325.2" y2="100.9" stroke="#999999" stroke-width="1" fill="none"/>
<path d="M 325.2 100.9 L 333.3 97.6 L 333.1 104.8 Z" fill="#999999"/>
<circle cx="1704.1" cy="150.1" r="10" fill="#fafafa" stroke="#999999" stroke-width="1"/>
<text x="1704.1" y="150.1" font-family="system-ui, Arial" font-size="10px" fill="#666" text-anchor="middle" dominant-baseline="middle">1</text>
<line x1="318.0" y1="100.6" x2="3175.8" y2="199.2" stroke="#999999" stroke-width="1" fill="none"/>
<path d="M 3175.8 199.2 L 3167.7 202.5 L 3167.9 195.3 Z" fill="#999999"/>
<circle cx="1746.9" cy="149.9" r="10" fill="#fafafa" stroke="#999999" stroke-width="1"/>
<text x="1746.9" y="149.9" font-family="system-ui, Arial" font-size="10px" fill="#666" text-anchor="middle" dominant-baseline="middle">1</text>
<line x1="3183.0" y1="199.4" x2="425.2" y2="100.9" stroke="#999999" stroke-width="1" fill="none"/>
<path d="M 425.2 100.9 L 433.3 97.6 L 433.1 104.8 Z" fill="#999999"/>
<circle cx="1804.1" cy="150.1" r="10" fill="#fafafa" stroke="#999999" stroke-width="1"/>
<text x="1804.1" y="150.1" font-family="system-ui, Arial" font-size="10px" fill="#666" text-anchor="middle" dominant-baseline="middle">1</text>
<line x1="418.0" y1="100.6" x2="3275.8" y2="199.2" stroke="#999999" stroke-width="1" fill="none"/>
<path d="M 3275.8 199.2 L 3267.7 202.5 L 3267.9 195.3 Z" fill="#999999"/>
<circle cx="1846.9" cy="149.9" r="10" fill="#fafafa" stroke="#999999" stroke-width="1"/>
<text x="1846.9" y="149.9" font-family="system-ui, Arial" font-size="10px" fill="#666" text-anchor="middle" dominant-baseline="middle">1</text>
<line x1="3283.0" y1="199.4" x2="525.2" y2="100.9" stroke="#999999" stroke-width="1" fill="none"/>
<path d="M 525.2 100.9 L 533.3 97.6 L 533.1 104.8 Z" fill="#999999"/>
<circle cx="1904.1" cy="150.1" r="10" fill="#fafafa" stroke="#999999" stroke-width="1"/>
<text x="1904.1" y="150.1" font-family="system-ui, Arial" font-size="10px" fill="#666" text-anchor="middle" dominant-baseline="middle">1</text>
<line x1="518.0" y1="100.6" x2="3375.8" y2="199.2" stroke="#999999" stroke-width="1" fill="none"/>
<path d="M 3375.8 199.2 L 3367.7 202.5 L 3367.9 195.3 Z" fill="#999999"/>
<circle cx="1946.9" cy="149.9" r="10" fill="#fafafa" stroke="#999999" stroke-width="1"/>
<text x="1946.9" y="149.9" font-family="system-ui, Arial" font-size="10px" fill="#666" text-anchor="middle" dominant-baseline="middle">1</text>
<line x1="3383.0" y1="199.4" x2="625.2" y2="100.9" stroke="#999999" stroke-width="1" fill="none"/>
<path d="M 625.2 100.9 L 633.3 97.6 L 633.1 104.8 Z" fill="#999999"/>
<circle cx="2004.1" cy="150.1" r="10" fill="#fafafa" stroke="#999999" stroke-width="1"/>
<text x="2004.1" y="150.1" font-family="system-ui, Arial" font-size="10px" fill="#666" text-anchor="middle" dominant-baseline="middle">1</text>
<line x1="1018.0" y1="100.7" x2="3475.8" y2="199.0" stroke="#999999" stroke-width="1" fill="none"/>
<path d="M 3475.8 199.0 L 3467.7 202.3 L 3468.0 195.1 Z" fill="#999999"/>
<circle cx="2246.9" cy="149.9" r="10" fill="#fafafa" stroke="#999999" stroke-width="1"/>
<text x="2246.9" y="149.9" font-family="system-ui, Arial" font-size="10px" fill="#666" text-anchor="middle" dominant-baseline="middle">1</text>
<line x1="718.0" y1="100.6" x2="3475.8" y2="199.1" stroke="#999999" stroke-width="1" fill="none"/>
<path d="M 3475.8 199.1 L 3467.7 202.4 L 3467.9 195.3 Z" fill="#999999"/>
<circle cx="2096.9" cy="149.9" r="10" fill="#fafafa" stroke="#999999" stroke-width="1"/>
<text x="2096.9" y="149.9" font-family="system-ui, Arial" font-size="10px" fill="#666" text-anchor="middle" dominant-baseline="middle">1</text>
<line x1="3483.0" y1="199.4" x2="825.2" y2="100.9" stroke="#999999" stroke-width="1" fill="none"/>
<path d="M 825.2 100.9 L 833.3 97.6 L 833.0 104.8 Z" fill="#999999"/>
<circle cx="2154.1" cy="150.2" r="10" fill="#fafafa" stroke="#999999" stroke-width="1"/>
<text x="2154.1" y="150.2" font-family="system-ui, Arial" font-size="10px" fill="#666" text-anchor="middle" dominant-baseline="middle">1</text>
<line x1="3483.0" y1="199.3" x2="925.2" y2="101.0" stroke="#999999" stroke-width="1" fill="none"/>
<path d="M 925.2 101.0 L 933.3 97.7 L 933.0 104.9 Z" fill="#999999"/>
<circle cx="2204.1" cy="150.2" r="10" fill="#fafafa" stroke="#999999" stroke-width="1"/>
<text x="2204.1" y="150.2" font-family="system-ui, Arial" font-size="10px" fill="#666" text-anchor="middle" dominant-baseline="middle">1</text>
<line x1="1018.0" y1="100.7" x2="3575.8" y2="199.1" stroke="#999999" stroke-width="1" fill="none"/>
<path d="M 3575.8 199.1 L 3567.7 202.4 L 3568.0 195.2 Z" fill="#999999"/>
<circle cx="2296.9" cy="149.9" r="10" fill="#fafafa" stroke="#999999" stroke-width="1"/>
<text x="2296.9" y="149.9" font-family="system-ui, Arial" font-size="10px" fill="#666" text-anchor="middle" dominant-baseline="middle">1</text>
<path d="M 718.0 100.6 Q 2145.9 179.9 3575.8 199.2" stroke="#999999" stroke-width="1" fill="none"/>
<path d="M 3575.8 199.2 L 3567.8 202.7 L 3567.9 195.5 Z" fill="#999999"/>
<circle cx="2146.4" cy="164.9" r="10" fill="#fafafa" stroke="#999999" stroke-width="1"/>
<text x="2146.4" y="164.9" font-family="system-ui, Arial" font-size="10px" fill="#666" text-anchor="middle" dominant-baseline="middle">1</text>
<path d="M 3583.0 199.4 Q 2155.1 120.2 725.2 100.9" stroke="#999999" stroke-width="1" fill="none"/>
<path d="M 725.2 100.9 L 733.2 97.4 L 733.1 104.6 Z" fill="#999999"/>
<circle cx="2154.6" cy="135.2" r="10" fill="#fafafa" stroke="#999999" stroke-width="1"/>
<text x="2154.6" y="135.2" font-family="system-ui, Arial" font-size="10px" fill="#666" text-anchor="middle" dominant-baseline="middle">1</text>
<line x1="3583.0" y1="199.4" x2="925.2" y2="100.9" stroke="#999999" stroke-width="1" fill="none"/>
<path d="M 925.2 100.9 L 933.3 97.6 L 933.0 104.8 Z" fill="#999999"/>
<circle cx="2254.1" cy="150.2" r="10" fill="#fafafa" stroke="#999999" stroke-width="1"/>
<text x="2254.1" y="150.2" font-family="system-ui, Arial" font-size="10px" fill="#666" text-anchor="middle" dominant-baseline="middle">1</text>
<line x1="1018.0" y1="100.7" x2="3675.8" y2="199.1" stroke="#999999" stroke-width="1" fill="none"/>
<path d="M 3675.8 199.1 L 3667.7 202.4 L 3668.0 195.2 Z" fill="#999999"/>
<circle cx="2346.9" cy="149.9" r="10" fill="#fafafa" stroke="#999999" stroke-width="1"/>
<text x="2346.9" y="149.9" font-family="system-ui, Arial" font-size="10px" fill="#666" text-anchor="middle" dominant-baseline="middle">1</text>
<path d="M 718.0 100.6 Q 2195.9 179.9 3675.8 199.2" stroke="#999999" stroke-width="1" fill="none"/>
<path d="M 3675.8 199.2 L 3667.8 202.7 L 3667.9 195.5 Z" fill="#999999"/>
<circle cx="2196.4" cy="164.9" r="10" fill="#fafafa" stroke="#999999" stroke-width="1"/>
<text x="2196.4" y="164.9" font-family="system-ui, Arial" font-size="10px" fill="#666" text-anchor="middle" dominant-baseline="middle">1</text>
<path d="M 3683.0 199.4 Q 2205.1 120.2 725.2 100.8" stroke="#999999" stroke-width="1" fill="none"/>
<path d="M 725.2 100.8 L 733.2 97.3 L 733.1 104.5 Z" fill="#999999"/>
<circle cx="2204.6" cy="135.1" r="10" fill="#fafafa" stroke="#999999" stroke-width="1"/>
<text x="2204.6" y="135.1" font-family="system-ui, Arial" font-size="10px" fill="#666" text-anchor="middle" dominant-baseline="middle">1</text>
<line x1="3683.0" y1="199.4" x2="925.2" y2="100.9" stroke="#999999" stroke-width="1" fill="none"/>
<path d="M 925.2 100.9 L 933.3 97.6 L 933.1 104.8 Z" fill="#999999"/>
<circle cx="2304.1" cy="150.1" r="10" fill="#fafafa" stroke="#999999" stroke-width="1"/>
<text x="2304.1" y="150.1" font-family="system-ui, Arial" font-size="10px" fill="#666" text-anchor="middle" dominant-baseline="middle">1</text>
<line x1="1018.0" y1="100.6" x2="3775.8" y2="199.1" stroke="#999999" stroke-width="1" fill="none"/>
<path d="M 3775.8 199.1 L 3767.7 202.4 L 3767.9 195.3 Z" fill="#999999"/>
<circle cx="2396.9" cy="149.9" r="10" fill="#fafafa" stroke="#999999" stroke-width="1"/>
<text x="2396.9" y="149.9" font-family="system-ui, Arial" font-size="10px" fill="#666" text-anchor="middle" dominant-baseline="middle">1</text>
<path d="M 718.0 100.6 Q 2245.9 179.9 3775.8 199.2" stroke="#999999" stroke-width="1" fill="none"/>
<path d="M 3775.8 199.2 L 3767.8 202.7 L 3767.9 195.5 Z" fill="#999999"/>
<circle cx="2246.4" cy="164.9" r="10" fill="#fafafa" stroke="#999999" stroke-width="1"/>
<text x="2246.4" y="164.9" font-family="system-ui, Arial" font-size="10px" fill="#666" text-anchor="middle" dominant-baseline="middle">1</text>
<path d="M 3783.0 199.5 Q 2255.1 120.1 725.2 100.8" stroke="#999999" stroke-width="1" fill="none"/>
<path d="M 725.2 100.8 L 733.2 97.3 L 733.1 104.5 Z" fill="#999999"/>
<circle cx="2254.6" cy="135.1" r="10" fill="#fafafa" stroke="#999999" stroke-width="1"/>
<text x="2254.6" y="135.1" font-family="system-ui, Arial" font-size="10px" fill="#666" text-anchor="middle" dominant-baseline="middle">1</text>
<line x1="3783.0" y1="199.4" x2="925.2" y2="100.9" stroke="#999999" stroke-width="1" fill="none"/>
<path d="M 925.2 100.9 L 933.3 97.5 L 933.1 104.7 Z" fill="#999999"/>
<circle cx="2354.1" cy="150.1" r="10" fill="#fafafa" stroke="#999999" stroke-width="1"/>
<text x="2354.1" y="150.1" font-family="system-ui, Arial" font-size="10px" fill="#666" text-anchor="middle" dominant-baseline="middle">1</text>
<line x1="1018.0" y1="100.6" x2="3875.8" y2="199.2" stroke="#999999" stroke-width="1" fill="none"/>
<path d="M 3875.8 199.2 L 3867.7 202.5 L 3867.9 195.3 Z" fill="#999999"/>
<circle cx="2446.9" cy="149.9" r="10" fill="#fafafa" stroke="#999999" stroke-width="1"/>
<text x="2446.9" y="149.9" font-family="system-ui, Arial" font-size="10px" fill="#666" text-anchor="middle" dominant-baseline="middle">1</text>
<path d="M 718.0 100.6 Q 2296.0 179.9 3875.8 199.2" stroke="#999999" stroke-width="1" fill="none"/>
<path d="M 3875.8 199.2 L 3867.8 202.7 L 3867.9 195.5 Z" fill="#999999"/>
<circle cx="2296.4" cy="164.9" r="10" fill="#fafafa" stroke="#999999" stroke-width="1"/>
<text x="2296.4" y="164.9" font-family="system-ui, Arial" font-size="10px" fill="#666" text-anchor="middle" dominant-baseline="middle">1</text>
<path d="M 3883.0 199.5 Q 2305.0 120.1 725.2 100.8" stroke="#999999" stroke-width="1" fill="none"/>
<path d="M 725.2 100.8 L 733.2 97.3 L 733.1 104.5 Z" fill="#999999"/>
<circle cx="2304.6" cy="135.1" r="10" fill="#fafafa" stroke="#999999" stroke-width="1"/>
<text x="2304.6" y="135.1" font-family="system-ui, Arial" font-size="10px" fill="#666" text-anchor="middle" dominant-baseline="middle">1</text>
<line x1="3883.0" y1="199.4" x2="925.2" y2="100.8" stroke="#999999" stroke-width="1" fill="none"/>
<path d="M 925.2 100.8 L 933.3 97.5 L 933.1 104.7 Z" fill="#999999"/>
<circle cx="2404.1" cy="150.1" r="10" fill="#fafafa" stroke="#999999" stroke-width="1"/>
<text x="2404.1" y="150.1" font-family="system-ui, Arial" font-size="10px" fill="#666" text-anchor="middle" dominant-baseline="middle">1</text>
<line x1="1918.0" y1="100.9" x2="3975.8" y2="198.8" stroke="#999999" stroke-width="1" fill="none"/>
<path d="M 3975.8 198.8 L 3967.7 202.1 L 3968.0 194.9 Z" fill="#999999"/>
<circle cx="2946.9" cy="149.9" r="10" fill="#fafafa" stroke="#999999" stroke-width="1"/>
<text x="2946.9" y="149.9" font-family="system-ui, Arial" font-size="10px" fill="#666" text-anchor="middle" dominant-baseline="middle">1</text>
<line x1="1618.0" y1="100.7" x2="3975.8" y2="199.0" stroke="#999999" stroke-width="1" fill="none"/>
<path d="M 3975.8 199.0 L 3967.7 202.3 L 3968.0 195.1 Z" fill="#999999"/>
<circle cx="2796.9" cy="149.9" r="10" fill="#fafafa" stroke="#999999" stroke-width="1"/>
<text x="2796.9" y="149.9" font-family="system-ui, Arial" font-size="10px" fill="#666" text-anchor="middle" dominant-baseline="middle">1</text>
<line x1="3983.0" y1="199.3" x2="1725.2" y2="101.1" stroke="#999999" stroke-width="1" fill="none"/>
<path d="M 1725.2 101.1 L 1733.3 97.8 L 1733.0 105.0 Z" fill="#999999"/>
<circle cx="2854.1" cy="150.2" r="10" fill="#fafafa" stroke="#999999" stroke-width="1"/>
<text x="2854.1" y="150.2" font-family="system-ui, Arial" font-size="10px" fill="#666" text-anchor="middle" dominant-baseline="middle">1</text>
<line x1="3983.0" y1="199.2" x2="1825.2" y2="101.1" stroke="#999999" stroke-width="1" fill="none"/>
<path d="M 1825.2 101.1 L 1833.3 97.9 L 1833.0 105.1 Z" fill="#999999"/>
<circle cx="2904.1" cy="150.2" r="10" fill="#fafafa" stroke="#999999" stroke-width="1"/>
<text x="2904.1" y="150.2" font-family="system-ui, Arial" font-size="10px" fill="#666" text-anchor="middle" dominant-baseline="middle">1</text>
<line x1="1918.0" y1="100.8" x2="4075.8" y2="198.9" stroke="#999999" stroke-width="1" fill="none"/>
<path d="M 4075.8 198.9 L 4067.7 202.1 L 4068.0 194.9 Z" fill="#999999"/>
<circle cx="2996.9" cy="149.9" r="10" fill="#fafafa" stroke="#999999" stroke-width="1"/>
<text x="2996.9" y="149.9" font-family="system-ui, Arial" font-size="10px" fill="#666" text-anchor="middle" dominant-baseline="middle">1</text>
<path d="M 1618.0 100.7 Q 2845.7 179.9 4075.8 199.0" stroke="#999999" stroke-width="1" fill="none"/>
<path d="M 4075.8 199.0 L 4067.8 202.5 L 4067.9 195.3 Z" fill="#999999"/>
<circle cx="2846.3" cy="164.9" r="10" fill="#fafafa" stroke="#999999" stroke-width="1"/>
<text x="2846.3" y="164.9" font-family="system-ui, Arial" font-size="10px" fill="#666" text-anchor="middle" dominant-baseline="middle">1</text>
<path d="M 4083.0 199.3 Q 2855.3 120.2 1625.2 101.0" stroke="#999999" stroke-width="1" fill="none"/>
<path d="M 1625.2 101.0 L 1633.2 97.5 L 1633.1 104.7 Z" fill="#999999"/>
<circle cx="2854.7" cy="135.2" r="10" fill="#fafafa" stroke="#999999" stroke-width="1"/>
<text x="2854.7" y="135.2" font-family="system-ui, Arial" font-size="10px" fill="#666" text-anchor="middle" dominant-baseline="middle">1</text>
<line x1="4083.0" y1="199.3" x2="1825.2" y2="101.1" stroke="#999999" stroke-width="1" fill="none"/>
<path d="M 1825.2 101.1 L 1833.3 97.8 L 1833.0 105.0 Z" fill="#999999"/>
<circle cx="2954.1" cy="150.2" r="10" fill="#fafafa" stroke="#999999" stroke-width="1"/>
<text x="2954.1" y="150.2" font-family="system-ui, Arial" font-size="10px" fill="#666" text-anchor="middle" dominant-baseline="middle">1</text>
<line x1="1918.0" y1="100.8" x2="4175.8" y2="198.9" stroke="#999999" stroke-width="1" fill="none"/>
<path d="M 4175.8 198.9 L 4167.7 202.2 L 4168.0 195.0 Z" fill="#999999"/>
<circle cx="3046.9" cy="149.9" r="10" fill="#fafafa" stroke="#999999" stroke-width="1"/>
<text x="3046.9" y="149.9" font-family="system-ui, Arial" font-size="10px" fill="#666" text-anchor="middle" dominant-baseline="middle">1</text>
<path d="M 1618.0 100.7 Q 2895.7 179.9 4175.8 199.1" stroke="#999999" stroke-width="1" fill="none"/>
<path d="M 4175.8 199.1 L 4167.8 202.5 L 4167.9 195.4 Z" fill="#999999"/>
<circle cx="2896.3" cy="164.9" r="10" fill="#fafafa" stroke="#999999" stroke-width="1"/>
<text x="2896.3" y="164.9" font-family="system-ui, Arial" font-size="10px" fill="#666" text-anchor="middle" dominant-baseline="middle">1</text>
<path d="M 4183.0 199.3 Q 2905.2 120.2 1625.2 101.0" stroke="#999999" stroke-width="1" fill="none"/>
<path d="M 1625.2 101.0 L 1633.2 97.5 L 1633.1 104.7 Z" fill="#999999"/>
<circle cx="2904.7" cy="135.2" r="10" fill="#fafafa" stroke="#999999" stroke-width="1"/>
<text x="2904.7" y="135.2" font-family="system-ui, Arial" font-size="10px" fill="#666" text-anchor="middle" dominant-baseline="middle">1</text>
<line x1="4183.0" y1="199.3" x2="1825.2" y2="101.0" stroke="#999999" stroke-width="1" fill="none"/>
<path d="M 1825.2 101.0 L 1833.3 97.8 L 1833.0 105.0 Z" fill="#999999"/>
<circle cx="3004.1" cy="150.2" r="10" fill="#fafafa" stroke="#999999" stroke-width="1"/>
<text x="3004.1" y="150.2" font-family="system-ui, Arial" font-size="10px" fill="#666" text-anchor="middle" dominant-baseline="middle">1</text>
<line x1="1918.0" y1="100.7" x2="4275.8" y2="199.0" stroke="#999999" stroke-width="1" fill="none"/>
<path d="M 4275.8 199.0 L 4267.7 202.3 L 4268.0 195.1 Z" fill="#999999"/>
<circle cx="3096.9" cy="149.9" r="10" fill="#fafafa" stroke="#999999" stroke-width="1"/>
<text x="3096.9" y="149.9" font-family="system-ui, Arial" font-size="10px" fill="#666" text-anchor="middle" dominant-baseline="middle">1</text>
<path d="M 1618.0 100.7 Q 2945.8 179.9 4275.8 199.1" stroke="#999999" stroke-width="1" fill="none"/>
<path d="M 4275.8 199.1 L 4267.8 202.6 L 4267.9 195.4 Z" fill="#999999"/>
<circle cx="2946.3" cy="164.9" r="10" fill="#fafafa" stroke="#999999" stroke-width="1"/>
<text x="2946.3" y="164.9" font-family="system-ui, Arial" font-size="10px" fill="#666" text-anchor="middle" dominant-baseline="middle">1</text>
<path d="M 4283.0 199.4 Q 2955.2 120.2 1625.2 100.9" stroke="#999999" stroke-width="1" fill="none"/>
<path d="M 1625.2 100.9 L 1633.2 97.4 L 1633.1 104.6 Z" fill="#999999"/>
<circle cx="2954.7" cy="135.2" r="10" fill="#fafafa" stroke="#999999" stroke-width="1"/>
<text x="2954.7" y="135.2" font-family="system-ui, Arial" font-size="10px" fill="#666" text-anchor="middle" dominant-baseline="middle">1</text>
<line x1="4283.0" y1="199.3" x2="1825.2" y2="101.0" stroke="#999999" stroke-width="1" fill="none"/>
<path d="M 1825.2 101.0 L 1833.3 97.7 L 1833.0 104.9 Z" fill="#999999"/>
<circle cx="3054.1" cy="150.2" r="10" fill="#fafafa" stroke="#999999" stroke-width="1"/>
<text x="3054.1" y="150.2" font-family="system-ui, Arial" font-size="10px" fill="#666" text-anchor="middle" dominant-baseline="middle">1</text>
<line x1="1918.0" y1="100.7" x2="4375.8" y2="199.0" stroke="#999999" stroke-width="1" fill="none"/>
<path d="M 4375.8 199.0 L 4367.7 202.3 L 4368.0 195.1 Z" fill="#999999"/>
<circle cx="3146.9" cy="149.9" r="10" fill="#fafafa" stroke="#999999" stroke-width="1"/>
<text x="3146.9" y="149.9" font-family="system-ui, Arial" font-size="10px" fill="#666" text-anchor="middle" dominant-baseline="middle">1</text>
<path d="M 1618.0 100.6 Q 2995.8 179.9 4375.8 199.1" stroke="#999999" stroke-width="1" fill="none"/>
<path d="M 4375.8 199.1 L 4367.8 202.6 L 4367.9 195.4 Z" fill="#999999"/>
<circle cx="2996.4" cy="164.9" r="10" fill="#fafafa" stroke="#999999" stroke-width="1"/>
<text x="2996.4" y="164.9" font-family="system-ui, Arial" font-size="10px" fill="#666" text-anchor="middle" dominant-baseline="middle">1</text>
<path d="M 4383.0 199.4 Q 3005.2 120.2 1625.2 100.9" stroke="#999999" stroke-width="1" fill="none"/>
<path d="M 1625.2 100.9 L 1633.2 97.4 L 1633.1 104.6 Z" fill="#999999"/>
<circle cx="3004.6" cy="135.2" r="10" fill="#fafafa" stroke="#999999" stroke-width="1"/>
<text x="3004.6" y="135.2" font-family="system-ui, Arial" font-size="10px" fill="#666" text-anchor="middle" dominant-baseline="middle">1</text>
<line x1="4383.0" y1="199.3" x2="1825.2" y2="101.0" stroke="#999999" stroke-width="1" fill="none"/>
<path d="M 1825.2 101.0 L 1833.3 97.7 L 1833.0 104.9 Z" fill="#999999"/>
<circle cx="3104.1" cy="150.2" r="10" fill="#fafafa" stroke="#999999" stroke-width="1"/>
<text x="3104.1" y="150.2" font-family="system-ui, Arial" font-size="10px" fill="#666" text-anchor="middle" dominant-baseline="middle">1</text>
<line x1="918.0" y1="100.5" x2="4575.8" y2="199.3" stroke="#999999" stroke-width="1" fill="none"/>
<path d="M 4575.8 199.3 L 4567.7 202.7 L 4567.9 195.5 Z" fill="#999999"/>
<circle cx="2746.9" cy="149.9" r="10" fill="#fafafa" stroke="#999999" stroke-width="1"/>
<text x="2746.9" y="149.9" font-family="system-ui, Arial" font-size="10px" fill="#666" text-anchor="middle" dominant-baseline="middle">1</text>
<path d="M 1618.0 100.6 Q 3095.9 179.9 4575.8 199.2" stroke="#999999" stroke-width="1" fill="none"/>
<path d="M 4575.8 199.2 L 4567.8 202.7 L 4567.9 195.5 Z" fill="#999999"/>
<circle cx="3096.4" cy="164.9" r="10" fill="#fafafa" stroke="#999999" stroke-width="1"/>
<text x="3096.4" y="164.9" font-family="system-ui, Arial" font-size="10px" fill="#666" text-anchor="middle" dominant-baseline="middle">1</text>
<line x1="4583.0" y1="199.4" x2="1925.2" y2="100.9" stroke="#999999" stroke-width="1" fill="none"/>
<path d="M 1925.2 100.9 L 1933.3 97.6 L 1933.0 104.8 Z" fill="#999999"/>
<circle cx="3254.1" cy="150.2" r="10" fill="#fafafa" stroke="#999999" stroke-width="1"/>
<text x="3254.1" y="150.2" font-family="system-ui, Arial" font-size="10px" fill="#666" text-anchor="middle" dominant-baseline="middle">1</text>
<path d="M 4583.0 199.4 Q 3105.1 120.2 1625.2 100.8" stroke="#999999" stroke-width="1" fill="none"/>
<path d="M 1625.2 100.8 L 1633.2 97.3 L 1633.1 104.5 Z" fill="#999999"/>
<circle cx="3104.6" cy="135.1" r="10" fill="#fafafa" stroke="#999999" stroke-width="1"/>
<text x="3104.6" y="135.1" font-family="system-ui, Arial" font-size="10px" fill="#666" text-anchor="middle" dominant-baseline="middle">1</text>
<line x1="1818.0" y1="100.7" x2="4475.8" y2="199.1" stroke="#999999" stroke-width="1" fill="none"/>
<path d="M 4475.8 199.1 L 4467.7 202.4 L 4468.0 195.2 Z" fill="#999999"/>
<circle cx="3146.9" cy="149.9" r="10" fill="#fafafa" stroke="#999999" stroke-width="1"/>
<text x="3146.9" y="149.9" font-family="system-ui, Arial" font-size="10px" fill="#666" text-anchor="middle" dominant-baseline="middle">1</text>
<path d="M 718.0 100.5 Q 2596.1 179.9 4475.8 199.4" stroke="#999999" stroke-width="1" fill="none"/>
<path d="M 4475.8 199.4 L 4467.8 202.9 L 4467.8 195.7 Z" fill="#999999"/>
<circle cx="2596.5" cy="164.9" r="10" fill="#fafafa" stroke="#999999" stroke-width="1"/>
<text x="2596.5" y="164.9" font-family="system-ui, Arial" font-size="10px" fill="#666" text-anchor="middle" dominant-baseline="middle">1</text>
<line x1="4483.0" y1="199.5" x2="1025.2" y2="100.7" stroke="#999999" stroke-width="1" fill="none"/>
<path d="M 1025.2 100.7 L 1033.3 97.3 L 1033.1 104.5 Z" fill="#999999"/>
<circle cx="2754.1" cy="150.1" r="10" fill="#fafafa" stroke="#999999" stroke-width="1"/>
<text x="2754.1" y="150.1" font-family="system-ui, Arial" font-size="10px" fill="#666" text-anchor="middle" dominant-baseline="middle">1</text>
<path d="M 4483.0 199.6 Q 2604.9 120.1 725.2 100.7" stroke="#999999" stroke-width="1" fill="none"/>
<path d="M 725.2 100.7 L 733.2 97.1 L 733.2 104.3 Z" fill="#999999"/>
<circle cx="2604.5" cy="135.1" r="10" fill="#fafafa" stroke="#999999" stroke-width="1"/>
<text x="2604.5" y="135.1" font-family="system-ui, Arial" font-size="10px" fill="#666" text-anchor="middle" dominant-baseline="middle">1</text>
<line x1="1718.0" y1="100.6" x2="4775.8" y2="199.2" stroke="#999999" stroke-width="1" fill="none"/>
<path d="M 4775.8 199.2 L 4767.7 202.6 L 4767.9 195.4 Z" fill="#999999"/>
<circle cx="3246.9" cy="149.9" r="10" fill="#fafafa" stroke="#999999" stroke-width="1"/>
<text x="3246.9" y="149.9" font-family="system-ui, Arial" font-size="10px" fill="#666" text-anchor="middle" dominant-baseline="middle">1</text>
<line x1="718.0" y1="100.4" x2="4775.8" y2="199.4" stroke="#999999" stroke-width="1" fill="none"/>
<path d="M 4775.8 199.4 L 4767.7 202.8 L 4767.9 195.6 Z" fill="#999999"/>
<circle cx="2746.9" cy="149.9" r="10" fill="#fafafa" stroke="#999999" stroke-width="1"/>
<text x="2746.9" y="149.9" font-family="system-ui, Arial" font-size="10px" fill="#666" text-anchor="middle" dominant-baseline="middle">1</text>
<line x1="2518.0" y1="100.8" x2="4775.8" y2="198.9" stroke="#999999" stroke-width="1" fill="none"/>
<path d="M 4775.8 198.9 L 4767.7 202.2 L 4768.0 195.0 Z" fill="#999999"/>
<circle cx="3646.9" cy="149.9" r="10" fill="#fafafa" stroke="#999999" stroke-width="1"/>
<text x="3646.9" y="149.9" font-family="system-ui, Arial" font-size="10px" fill="#666" text-anchor="middle" dominant-baseline="middle">1</text>
<line x1="4783.0" y1="199.5" x2="1525.2" y2="100.8" stroke="#999999" stroke-width="1" fill="none"/>
<path d="M 1525.2 100.8 L 1533.3 97.4 L 1533.1 104.6 Z" fill="#999999"/>
<circle cx="3154.1" cy="150.1" r="10" fill="#fafafa" stroke="#999999" stroke-width="1"/>
<text x="3154.1" y="150.1" font-family="system-ui, Arial" font-size="10px" fill="#666" text-anchor="middle" dominant-baseline="middle">1</text>
<line x1="818.0" y1="100.4" x2="4875.8" y2="199.4" stroke="#999999" stroke-width="1" fill="none"/>
<path d="M 4875.8 199.4 L 4867.7 202.8 L 4867.9 195.6 Z" fill="#999999"/>
<circle cx="2846.9" cy="149.9" r="10" fill="#fafafa" stroke="#999999" stroke-width="1"/>
<text x="2846.9" y="149.9" font-family="system-ui, Arial" font-size="10px" fill="#666" text-anchor="middle" dominant-baseline="middle">1</text>
<line x1="1618.0" y1="100.5" x2="4875.8" y2="199.3" stroke="#999999" stroke-width="1" fill="none"/>
<path d="M 4875.8 199.3 L 4867.7 202.6 L 4867.9 195.4 Z" fill="#999999"/>
<circle cx="3246.9" cy="149.9" r="10" fill="#fafafa" stroke="#999999" stroke-width="1"/>
<text x="3246.9" y="149.9" font-family="system-ui, Arial" font-size="10px" fill="#666" text-anchor="middle" dominant-baseline="middle">1</text>
<line x1="2518.0" y1="100.7" x2="4875.8" y2="199.0" stroke="#999999" stroke-width="1" fill="none"/>
<path d="M 4875.8 199.0 L 4867.7 202.3 L 4868.0 195.1 Z" fill="#999999"/>
<circle cx="3696.9" cy="149.9" r="10" fill="#fafafa" stroke="#999999" stroke-width="1"/>
<text x="3696.9" y="149.9" font-family="system-ui, Arial" font-size="10px" fill="#666" text-anchor="middle" dominant-baseline="middle">1</text>
<line x1="4883.0" y1="199.3" x2="2425.2" y2="101.0" stroke="#999999" stroke-width="1" fill="none"/>
<path d="M 2425.2 101.0 L 2433.3 97.7 L 2433.0 104.9 Z" fill="#999999"/>
<circle cx="3654.1" cy="150.2" r="10" fill="#fafafa" stroke="#999999" stroke-width="1"/>
<text x="3654.1" y="150.2" font-family="system-ui, Arial" font-size="10px" fill="#666" text-anchor="middle" dominant-baseline="middle">1</text>
<circle cx="700.0" cy="100.0" r="16.0" class="place"/>
<circle cx="700.0" cy="100.0" r="3" class="token-dot"/>
<text x="700.0" y="122.0" class="label-text">p1_active</text>
<circle cx="800.0" cy="100.0" r="16.0" class="place"/>
<text x="800.0" y="122.0" class="label-text">p1_folded</text>
<circle cx="2000.0" cy="100.0" r="16.0" class="place"/>
<text x="2000.0" y="122.0" class="label-text">p2_bet</text>
<circle cx="2400.0" cy="100.0" r="16.0" class="place"/>
<text x="2400.0" y="122.0" class="label-text">p2_wins</text>
<circle cx="100.0" cy="100.0" r="16.0" class="place"/>
<circle cx="100.0" cy="100.0" r="3" class="token-dot"/>
<text x="100.0" y="122.0" class="label-text">phase_preflop</text>
<circle cx="300.0" cy="100.0" r="16.0" class="place"/>
<text x="300.0" y="122.0" class="label-text">phase_turn</text>
<circle cx="1100.0" cy="100.0" r="16.0" class="place"/>
<text x="1100.0" y="122.0" class="label-text">p1_bet</text>
<circle cx="1400.0" cy="100.0" r="16.0" class="place"/>
<text x="1400.0" y="122.0" class="label-text">p1_hand_str</text>
<circle cx="1500.0" cy="100.0" r="16.0" class="place"/>
<text x="1500.0" y="122.0" class="label-text">p1_wins</text>
<circle cx="2100.0" cy="100.0" r="16.0" class="place"/>
<text x="2100.0" y="100.0" class="token-text">1000</text>
<text x="2100.0" y="122.0" class="label-text">p2_chips</text>
<circle cx="2300.0" cy="100.0" r="16.0" class="place"/>
<text x="2300.0" y="122.0" class="label-text">p2_hand_str</text>
<circle cx="400.0" cy="100.0" r="16.0" class="place"/>
<text x="400.0" y="122.0" class="label-text">phase_river</text>
<circle cx="2500.0" cy="100.0" r="16.0" class="place"/>
<text x="2500.0" y="122.0" class="label-text">pot</text>
<circle cx="2700.0" cy="100.0" r="16.0" class="place"/>
<text x="2700.0" y="100.0" class="token-text">2</text>
<text x="2700.0" y="122.0" class="label-text">min_raise</text>
<circle cx="1600.0" cy="100.0" r="16.0" class="place"/>
<circle cx="1600.0" cy="100.0" r="3" class="token-dot"/>
<text x="1600.0" y="122.0" class="label-text">p2_active</text>
<circle cx="1700.0" cy="100.0" r="16.0" class="place"/>
<text x="1700.0" y="122.0" class="label-text">p2_folded</text>
<circle cx="2200.0" cy="100.0" r="16.0" class="place"/>
<text x="2200.0" y="122.0" class="label-text">p2_pot_share</text>
<circle cx="500.0" cy="100.0" r="16.0" class="place"/>
<text x="500.0" y="122.0" class="label-text">phase_showdown</text>
<circle cx="2800.0" cy="100.0" r="16.0" class="place"/>
<text x="2800.0" y="122.0" class="label-text">round_complete</text>
<circle cx="2600.0" cy="100.0" r="16.0" class="place"/>
<text x="2600.0" y="122.0" class="label-text">bet_to_call</text>
<circle cx="1200.0" cy="100.0" r="16.0" class="place"/>
<text x="1200.0" y="100.0" class="token-text">1000</text>
<text x="1200.0" y="122.0" class="label-text">p1_chips</text>
<circle cx="1300.0" cy="100.0" r="16.0" class="place"/>
<text x="1300.0" y="122.0" class="label-text">p1_pot_share</text>
<circle cx="1000.0" cy="100.0" r="16.0" class="place"/>
<text x="1000.0" y="122.0" class="label-text">p1_turn</text>
<circle cx="1800.0" cy="100.0" r="16.0" class="place"/>
<text x="1800.0" y="122.0" class="label-text">p2_acted</text>
<circle cx="1900.0" cy="100.0" r="16.0" class="place"/>
<text x="1900.0" y="122.0" class="label-text">p2_turn</text>
<circle cx="600.0" cy="100.0" r="16.0" class="place"/>
<text x="600.0" y="122.0" class="label-text">phase_complete</text>
<circle cx="200.0" cy="100.0" r="16.0" class="place"/>
<text x="200.0" y="122.0" class="label-text">phase_flop</text>
<circle cx="900.0" cy="100.0" r="16.0" class="place"/>
<text x="900.0" y="122.0" class="label-text">p1_acted</text>
<rect x="2985.0" y="185.0" width="30.0" height="30.0" rx="4.0" ry="4.0" class="transition transition-active"/>
<text x="3000.0" y="221.0" class="label-text">deal_flop</text>
<rect x="3885.0" y="185.0" width="30.0" height="30.0" rx="4.0" ry="4.0" class="transition"/>
<text x="3900.0" y="221.0" class="label-text">p1_all_in</text>
<rect x="3485.0" y="185.0" width="30.0" height="30.0" rx="4.0" ry="4.0" class="transition"/>
<text x="3500.0" y="221.0" class="label-text">p1_fold</text>
<rect x="4785.0" y="185.0" width="30.0" height="30.0" rx="4.0" ry="4.0" class="transition"/>
<text x="4800.0" y="221.0" class="label-text">p1_wins_pot</text>
<rect x="4585.0" y="185.0" width="30.0" height="30.0" rx="4.0" ry="4.0" class="transition"/>
<text x="4600.0" y="221.0" class="label-text">start_p2_turn</text>
<rect x="3285.0" y="185.0" width="30.0" height="30.0" rx="4.0" ry="4.0" class="transition"/>
<text x="3300.0" y="221.0" class="label-text">to_showdown</text>
<rect x="3085.0" y="185.0" width="30.0" height="30.0" rx="4.0" ry="4.0" class="transition"/>
<text x="3100.0" y="221.0" class="label-text">deal_turn</text>
<rect x="3685.0" y="185.0" width="30.0" height="30.0" rx="4.0" ry="4.0" class="transition"/>
<text x="3700.0" y="221.0" class="label-text">p1_call</text>
<rect x="4385.0" y="185.0" width="30.0" height="30.0" rx="4.0" ry="4.0" class="transition"/>
<text x="4400.0" y="221.0" class="label-text">p2_all_in</text>
<rect x="4185.0" y="185.0" width="30.0" height="30.0" rx="4.0" ry="4.0" class="transition"/>
<text x="4200.0" y="221.0" class="label-text">p2_call</text>
<rect x="3985.0" y="185.0" width="30.0" height="30.0" rx="4.0" ry="4.0" class="transition"/>
<text x="4000.0" y="221.0" class="label-text">p2_fold</text>
<rect x="4485.0" y="185.0" width="30.0" height="30.0" rx="4.0" ry="4.0" class="transition"/>
<text x="4500.0" y="221.0" class="label-text">start_p1_turn</text>
<rect x="4685.0" y="185.0" width="30.0" height="30.0" rx="4.0" ry="4.0" class="transition transition-active"/>
<text x="4700.0" y="221.0" class="label-text">complete_round</text>
<rect x="3585.0" y="185.0" width="30.0" height="30.0" rx="4.0" ry="4.0" class="transition"/>
<text x="3600.0" y="221.0" class="label-text">p1_check</text>
<rect x="4085.0" y="185.0" width="30.0" height="30.0" rx="4.0" ry="4.0" class="transition"/>
<text x="4100.0" y="221.0" class="label-text">p2_check</text>
<rect x="4885.0" y="185.0" width="30.0" height="30.0" rx="4.0" ry="4.0" class="transition"/>
<text x="4900.0" y="221.0" class="label-text">p2_wins_pot</text>
<rect x="2885.0" y="185.0" width="30.0" height="30.0" rx="4.0" ry="4.0" class="transition transition-active"/>
<text x="2900.0" y="221.0" class="label-text">deal_hole</text>
<rect x="3185.0" y="185.0" width="30.0" height="30.0" rx="4.0" ry="4.0" class="transition"/>
<text x="3200.0" y="221.0" class="label-text">deal_river</text>
<rect x="3385.0" y="185.0" width="30.0" height="30.0" rx="4.0" ry="4.0" class="transition"/>
<text x="3400.0" y="221.0" class="label-text">end_hand</text>
<rect x="3785.0" y="185.0" width="30.0" height="30.0" rx="4.0" ry="4.0" class="transition"/>
<text x="3800.0" y="221.0" class="label-text">p1_raise</text>
<rect x="4285.0" y="185.0" width="30.0" height="30.0" rx="4.0" ry="4.0" class="transition"/>
<text x="4300.0" y="221.0" class="label-text">p2_raise</text>
</svg>
