<svg xmlns="http://www.w3.org/2000/svg" width="800" height="600" style="background:white;" id="plot_6000000"><text x="400.000000" y="25" text-anchor="middle" font-family="Arial, sans-serif" font-size="16" font-weight="bold">nim_10</text><line x1="60.000000" y1="40.000000" x2="60.000000" y2="550.000000" stroke="#333" stroke-width="2"/><line x1="60.000000" y1="550.000000" x2="770.000000" y2="550.000000" stroke="#333" stroke-width="2"/><text x="415.000000" y="590.000000" text-anchor="middle" font-family="Arial, sans-serif" font-size="12">Time</text><text x="15" y="295.000000" text-anchor="middle" font-family="Arial, sans-serif" font-size="12" transform="rotate(-90, 15, 295.000000)">Value</text><line x1="60.000000" y1="550.000000" x2="60.000000" y2="555.000000" stroke="#333" stroke-width="1"/><text x="60.000000" y="570.000000" text-anchor="middle" font-family="Arial, sans-serif" font-size="10">-0.2</text><line x1="60.000000" y1="40.000000" x2="60.000000" y2="550.000000" stroke="#ddd" stroke-width="0.5"/><line x1="202.000000" y1="550.000000" x2="202.000000" y2="555.000000" stroke="#333" stroke-width="1"/><text x="202.000000" y="570.000000" text-anchor="middle" font-family="Arial, sans-serif" font-size="10">0.9</text><line x1="202.000000" y1="40.000000" x2="202.000000" y2="550.000000" stroke="#ddd" stroke-width="0.5"/><line x1="344.000000" y1="550.000000" x2="344.000000" y2="555.000000" stroke="#333" stroke-width="1"/><text x="344.000000" y="570.000000" text-anchor="middle" font-family="Arial, sans-serif" font-size="10">2.0</text><line x1="344.000000" y1="40.000000" x2="344.000000" y2="550.000000" stroke="#ddd" stroke-width="0.5"/><line x1="486.000000" y1="550.000000" x2="486.000000" y2="555.000000" stroke="#333" stroke-width="1"/><text x="486.000000" y="570.000000" text-anchor="middle" font-family="Arial, sans-serif" font-size="10">3.0</text><line x1="486.000000" y1="40.000000" x2="486.000000" y2="550.000000" stroke="#ddd" stroke-width="0.5"/><line x1="628.000000" y1="550.000000" x2="628.000000" y2="555.000000" stroke="#333" stroke-width="1"/><text x="628.000000" y="570.000000" text-anchor="middle" font-family="Arial, sans-serif" font-size="10">4.2</text><line x1="628.000000" y1="40.000000" x2="628.000000" y2="550.000000" stroke="#ddd" stroke-width="0.5"/><line x1="770.000000" y1="550.000000" x2="770.000000" y2="555.000000" stroke="#333" stroke-width="1"/><text x="770.000000" y="570.000000" text-anchor="middle" font-family="Arial, sans-serif" font-size="10">5.2</text><line x1="770.000000" y1="40.000000" x2="770.000000" y2="550.000000" stroke="#ddd" stroke-width="0.5"/><line x1="55.000000" y1="550.000000" x2="60.000000" y2="550.000000" stroke="#333" stroke-width="1"/><text x="50.000000" y="554.000000" text-anchor="end" font-family="Arial, sans-serif" font-size="10">-0.1</text><line x1="60.000000" y1="550.000000" x2="770.000000" y2="550.000000" stroke="#ddd" stroke-width="0.5"/><line x1="55.000000" y1="448.000000" x2="60.000000" y2="448.000000" stroke="#333" stroke-width="1"/><text x="50.000000" y="452.000000" text-anchor="end" font-family="Arial, sans-serif" font-size="10">0.1</text><line x1="60.000000" y1="448.000000" x2="770.000000" y2="448.000000" stroke="#ddd" stroke-width="0.5"/><line x1="55.000000" y1="346.000000" x2="60.000000" y2="346.000000" stroke="#333" stroke-width="1"/><text x="50.000000" y="350.000000" text-anchor="end" font-family="Arial, sans-serif" font-size="10">0.4</text><line x1="60.000000" y1="346.000000" x2="770.000000" y2="346.000000" stroke="#ddd" stroke-width="0.5"/><line x1="55.000000" y1="244.000000" x2="60.000000" y2="244.000000" stroke="#333" stroke-width="1"/><text x="50.000000" y="248.000000" text-anchor="end" font-family="Arial, sans-serif" font-size="10">0.6</text><line x1="60.000000" y1="244.000000" x2="770.000000" y2="244.000000" stroke="#ddd" stroke-width="0.5"/><line x1="55.000000" y1="142.000000" x2="60.000000" y2="142.000000" stroke="#333" stroke-width="1"/><text x="50.000000" y="146.000000" text-anchor="end" font-family="Arial, sans-serif" font-size="10">0.9</text><line x1="60.000000" y1="142.000000" x2="770.000000" y2="142.000000" stroke="#ddd" stroke-width="0.5"/><line x1="55.000000" y1="40.000000" x2="60.000000" y2="40.000000" stroke="#333" stroke-width="1"/><text x="50.000000" y="44.000000" text-anchor="end" font-family="Arial, sans-serif" font-size="10">1.1</text><line x1="60.000000" y1="40.000000" x2="770.000000" y2="40.000000" stroke="#ddd" stroke-width="0.5"/><path d="M92.272727,507.500000 L92.296623,507.500000 L92.316844,507.500000 L92.338008,507.500000 L92.364850,507.500000 L92.391252,507.500000 L92.420791,507.499999 L92.453864,507.499999 L92.490904,507.499998 L92.532391,507.499997 L92.578866,507.499994 L92.630938,507.499991 L92.698179,507.499985 L92.764652,507.499977 L92.839169,507.499964 L92.922724,507.499946 L93.016438,507.499920 L93.121575,507.499881 L93.239566,507.499825 L93.392241,507.499728 L93.543512,507.499604 L93.713502,507.499424 L93.904628,507.499166 L94.119652,507.498796 L94.361729,507.498266 L94.634476,507.497506 L94.942057,507.496420 L95.342428,507.494594 L95.740580,507.492262 L96.168601,507.489113 L96.611086,507.485087 L97.066518,507.480045 L97.537349,507.473794 L98.026820,507.466086 L98.613280,507.455104 L99.153795,507.443176 L99.723314,507.428608 L100.325256,507.410849 L100.963221,507.389229 L101.641054,507.362934 L102.362917,507.330979 L103.247676,507.285978 L104.079816,507.237518 L104.971982,507.178671 L105.929032,507.107319 L106.954334,507.021103 L108.050944,506.917353 L109.217791,506.793505 L110.435673,506.649107 L111.860841,506.460135 L113.136412,506.272461 L114.444951,506.061587 L115.793718,505.824717 L117.190038,505.558651 L118.641213,505.259793 L120.154637,504.924113 L121.967545,504.490285 L123.622106,504.064844 L125.340875,503.593931 L127.116241,503.077571 L128.937968,502.517373 L130.805253,501.912758 L132.696114,501.270837 L134.599206,500.596465 L136.795344,499.785513 L138.744647,499.038710 L140.728358,498.255048 L142.754085,497.432598 L144.828927,496.569608 L146.959629,495.664547 L149.152721,494.716139 L151.743785,493.577917 L154.092326,492.533743 L156.523722,491.444344 L159.044791,490.310006 L161.662640,489.131567 L164.384741,487.910504 L167.219011,486.649030 L170.173898,485.350207 L173.710274,483.825319 L176.955104,482.461442 L180.351649,481.076762 L183.911666,479.679261 L187.648064,478.278502 L191.575081,476.885804 L195.708501,475.514418 L200.707808,473.993022 L205.345479,472.721958 L210.252435,471.528362 L215.448928,470.436303 L220.837955,469.490797 L226.295948,468.724963 L231.784280,468.144811 L237.293246,467.747315 L243.613187,467.508536 L249.166009,467.479208 L254.743042,467.608110 L260.347664,467.885623 L265.983829,468.301755 L271.656121,468.846347 L277.369861,469.509254 L283.958591,470.398951 L289.783330,471.282189 L295.672724,472.253559 L301.636975,473.304418 L307.688173,474.426747 L313.840721,475.613233 L320.111909,476.857340 L326.522658,478.153385 L334.053165,479.692126 L340.856816,481.084775 L347.903055,482.518003 L355.243817,483.990682 L362.919640,485.498018 L370.807199,487.002890 L378.811296,488.476355 L388.088230,490.108290 L396.327403,491.483961 L404.645755,492.799046 L413.033090,494.048073 L421.503268,495.230367 L430.079735,496.347004 L438.792155,497.399872 L448.961980,498.528089 L458.053681,499.448476 L467.285100,500.301990 L476.665032,501.090245 L486.187992,501.814169 L495.822371,502.473710 L505.580640,503.072687 L515.489107,503.615586 L526.964867,504.169644 L537.133833,504.600113 L547.453033,504.984814 L557.923123,505.327035 L568.519511,505.629403 L579.264047,505.895941 L590.201656,506.130730 L603.015421,506.364938 L614.522180,506.542752 L626.142192,506.695489 L637.813449,506.825534 L649.542183,506.935991 L661.357088,507.029743 L673.297029,507.109289 L685.408816,507.176754 L699.533428,507.241363 L712.216715,507.288654 L725.292187,507.328652 L737.727273,507.359851" stroke="#2563eb" stroke-width="2" fill="none"/><path d="M92.272727,507.500000 L92.296623,507.499993 L92.316844,507.499975 L92.338008,507.499946 L92.364850,507.499892 L92.391252,507.499821 L92.420791,507.499721 L92.453864,507.499582 L92.490904,507.499394 L92.532391,507.499141 L92.578866,507.498807 L92.630938,507.498367 L92.698179,507.497697 L92.764652,507.496922 L92.839169,507.495921 L92.922724,507.494631 L93.016438,507.492974 L93.121575,507.490853 L93.239566,507.488141 L93.392241,507.484113 L93.543512,507.479546 L93.713502,507.473732 L93.904628,507.466336 L94.119652,507.456932 L94.361729,507.444976 L94.634476,507.429779 L94.942057,507.410455 L95.342428,507.381853 L95.740580,507.349569 L96.168601,507.310626 L96.611086,507.265793 L97.066518,507.214837 L97.537349,507.157078 L98.026820,507.091613 L98.613280,507.005990 L99.153795,506.920224 L99.723314,506.822844 L100.325256,506.712212 L100.963221,506.586446 L101.641054,506.443385 L102.362917,506.280543 L103.247676,506.066515 L104.079816,505.851051 L104.971982,505.605199 L105.929032,505.324870 L106.954334,505.006090 L108.050944,504.644752 L109.217791,504.238036 L110.435673,503.790144 L111.860841,503.237198 L113.136412,502.717355 L114.444951,502.161025 L115.793718,501.564633 L117.190038,500.924273 L118.641213,500.235811 L120.154637,499.494891 L121.967545,498.579426 L123.622106,497.720159 L125.340875,496.806423 L127.116241,495.842990 L128.937968,494.836857 L130.805253,493.790443 L132.696114,492.718597 L134.599206,491.630749 L136.795344,490.368313 L138.744647,489.245073 L140.728358,488.102803 L142.754085,486.940428 L144.828927,485.757444 L146.959629,484.553925 L149.152721,483.330527 L151.743785,481.909645 L154.092326,480.648648 L156.523722,479.373824 L159.044791,478.088499 L161.662640,476.796759 L164.384741,475.503512 L167.219011,474.214551 L170.173898,472.936626 L173.710274,471.499683 L176.955104,470.273018 L180.351649,469.085643 L183.911666,467.949042 L187.648064,466.876018 L191.575081,465.880745 L195.708501,464.978802 L200.707808,464.084173 L205.345479,463.441298 L210.252435,462.949890 L215.448928,462.631392 L220.837955,462.507955 L226.295948,462.583028 L231.784280,462.845666 L237.293246,463.281391 L243.613187,463.971828 L249.166009,464.727367 L254.743042,465.608697 L260.347664,466.601502 L265.983829,467.692091 L271.656121,468.867501 L277.369861,470.115573 L283.958591,471.616467 L289.783330,472.983375 L295.672724,474.390536 L301.636975,475.829577 L307.688173,477.293079 L313.840721,478.774579 L320.111909,480.268561 L326.522658,481.770462 L334.053165,483.492028 L340.856816,484.999981 L347.903055,486.507801 L355.243817,488.015049 L362.919640,489.517340 L370.807199,490.979362 L378.811296,492.376510 L388.088230,493.886284 L396.327403,495.129468 L404.645755,496.293380 L413.033090,497.377016 L421.503268,498.383339 L430.079735,499.316431 L438.792155,500.180675 L448.961980,501.089723 L458.053681,501.817923 L467.285100,502.482108 L476.665032,503.085649 L486.187992,503.631210 L495.822371,504.120599 L505.580640,504.558356 L515.489107,504.949267 L526.964867,505.342036 L537.133833,505.642536 L547.453033,505.907335 L557.923123,506.139649 L568.519511,506.342126 L579.264047,506.518223 L590.201656,506.671293 L603.015421,506.821841 L614.522180,506.934529 L626.142192,507.030065 L637.813449,507.110367 L649.542183,507.177718 L661.357088,507.234179 L673.297029,507.281501 L685.408816,507.321153 L699.533428,507.358641 L712.216715,507.385729 L725.292187,507.408362 L737.727273,507.425809" stroke="#dc2626" stroke-width="2" fill="none"/><path d="M92.272727,507.500000 L92.296623,507.499985 L92.316844,507.499950 L92.338008,507.499891 L92.364850,507.499784 L92.391252,507.499642 L92.420791,507.499442 L92.453864,507.499166 L92.490904,507.498790 L92.532391,507.498287 L92.578866,507.497621 L92.630938,507.496746 L92.698179,507.495414 L92.764652,507.493875 L92.839169,507.491889 L92.922724,507.489333 L93.016438,507.486056 L93.121575,507.481864 L93.239566,507.476515 L93.392241,507.468587 L93.543512,507.459619 L93.713502,507.448230 L93.904628,507.433781 L94.119652,507.415464 L94.361729,507.392259 L94.634476,507.362872 L94.942057,507.325667 L95.342428,507.270885 L95.740580,507.209409 L96.168601,507.135696 L96.611086,507.051361 L97.066518,506.956118 L97.537349,506.848862 L98.026820,506.728113 L98.613280,506.571357 L99.153795,506.415549 L99.723314,506.239975 L100.325256,506.042075 L100.963221,505.818958 L101.641054,505.567354 L102.362917,505.283567 L103.247676,504.914434 L104.079816,504.546865 L104.971982,504.131982 L105.929032,503.664323 L106.954334,503.138944 L108.050944,502.551014 L109.217791,501.898117 L110.435673,501.189117 L111.860841,500.327108 L113.136412,499.529064 L114.444951,498.687305 L115.793718,497.798113 L117.190038,496.857588 L118.641213,495.861834 L120.154637,494.807011 L121.967545,493.526335 L123.622106,492.345764 L125.340875,491.111969 L127.116241,489.834046 L128.937968,488.523547 L130.805253,487.185608 L132.696114,485.840651 L134.599206,484.501163 L136.795344,482.978057 L138.744647,481.650552 L140.728358,480.326792 L142.754085,479.006551 L144.828927,477.690473 L146.959629,476.380028 L149.152721,475.077477 L151.743785,473.602433 L154.092326,472.327968 L156.523722,471.073473 L159.044791,469.844382 L161.662640,468.646920 L164.384741,467.488121 L167.219011,466.375845 L170.173898,465.318800 L173.710274,464.190682 L176.955104,463.285286 L180.351649,462.468059 L183.911666,461.751235 L187.648064,461.147843 L191.575081,460.671657 L195.708501,460.337107 L200.707808,460.147429 L205.345479,460.167315 L210.252435,460.376980 L215.448928,460.791389 L220.837955,461.408505 L226.295948,462.205146 L231.784280,463.157603 L237.293246,464.244223 L243.613187,465.624926 L249.166009,466.934037 L254.743042,468.319804 L260.347664,469.766861 L265.983829,471.261214 L271.656121,472.790231 L277.369861,474.342603 L283.958591,476.132539 L289.783330,477.702783 L295.672724,479.268951 L301.636975,480.824689 L307.688173,482.364684 L313.840721,483.884598 L320.111909,485.381012 L326.522658,486.851371 L334.053165,488.497688 L340.856816,489.907372 L347.903055,491.288148 L355.243817,492.640674 L362.919640,493.961938 L370.807199,495.222582 L378.811296,496.404312 L388.088230,497.656121 L396.327403,498.667129 L404.645755,499.597260 L413.033090,500.448672 L421.503268,501.226407 L430.079735,501.936038 L438.792155,502.583030 L448.961980,503.252370 L458.053681,503.779810 L467.285100,504.253675 L476.665032,504.677915 L486.187992,505.055816 L495.822371,505.389945 L505.580640,505.684602 L515.489107,505.944058 L526.964867,506.200919 L537.133833,506.394574 L547.453033,506.562936 L557.923123,506.708685 L568.519511,506.834047 L579.264047,506.941661 L590.201656,507.033996 L603.015421,507.123565 L614.522180,507.189680 L626.142192,507.245014 L637.813449,507.290938 L649.542183,507.328976 L661.357088,507.360473 L673.297029,507.386553 L685.408816,507.408144 L699.533428,507.428295 L712.216715,507.442668 L725.292187,507.454532 L737.727273,507.463571" stroke="#16a34a" stroke-width="2" fill="none"/><path d="M92.272727,507.500000 L92.296623,507.421358 L92.316844,507.354857 L92.338008,507.285298 L92.364850,507.197141 L92.391252,507.110502 L92.420791,507.013653 L92.453864,506.905322 L92.490904,506.784133 L92.532391,506.648556 L92.578866,506.496884 L92.630938,506.327211 L92.698179,506.108511 L92.764652,505.892764 L92.839169,505.651436 L92.922724,505.381504 L93.016438,505.079592 L93.121575,504.741929 L93.239566,504.364304 L93.392241,503.877743 L93.543512,503.397951 L93.713502,502.861506 L93.904628,502.261778 L94.119652,501.591379 L94.361729,500.842080 L94.634476,500.004718 L94.942057,499.069107 L95.342428,497.864953 L95.740580,496.682739 L96.168601,495.428677 L96.611086,494.150431 L97.066518,492.853923 L97.537349,491.533806 L98.026820,490.183015 L98.613280,488.593243 L99.153795,487.155403 L99.723314,485.668496 L100.325256,484.127900 L100.963221,482.529408 L101.641054,480.869178 L102.362917,479.143715 L103.247676,477.087873 L104.079816,475.212562 L104.971982,473.263552 L105.929032,471.242272 L106.954334,469.154979 L108.050944,467.009969 L109.217791,464.824434 L110.435673,462.647084 L111.860841,460.229911 L113.136412,458.182522 L114.444951,456.192655 L115.793718,454.255124 L117.190038,452.366843 L118.641213,450.526937 L120.154637,448.736556 L121.967545,446.757906 L123.622106,445.103621 L125.340875,443.531737 L127.116241,442.058189 L128.937968,440.697570 L130.805253,439.454608 L132.696114,438.344809 L134.599206,437.371490 L136.795344,436.417765 L138.744647,435.714932 L140.728358,435.130508 L142.754085,434.662186 L144.828927,434.309181 L146.959629,434.071900 L149.152721,433.951675 L151.743785,433.960265 L154.092326,434.098484 L156.523722,434.361892 L159.044791,434.753839 L161.662640,435.277846 L164.384741,435.937505 L167.219011,436.736377 L170.173898,437.677893 L173.710274,438.932664 L176.955104,440.190165 L180.351649,441.599057 L183.911666,443.161065 L187.648064,444.877185 L191.575081,446.747543 L195.708501,448.771247 L200.707808,451.269096 L205.345479,453.612659 L210.252435,456.098248 L215.448928,458.716226 L220.837955,461.395651 L226.295948,464.054760 L231.784280,466.658507 L237.293246,469.189551 L243.613187,471.979865 L249.166009,474.324184 L254.743042,476.573026 L260.347664,478.723633 L265.983829,480.774647 L271.656121,482.725875 L277.369861,484.578092 L283.958591,486.575719 L289.783330,488.221886 L295.672724,489.776003 L301.636975,491.241271 L307.688173,492.621194 L313.840721,493.919502 L320.111909,495.140080 L326.522658,496.286916 L334.053165,497.512478 L340.856816,498.514940 L347.903055,499.456406 L355.243817,500.340902 L362.919640,501.169687 L370.807199,501.928415 L378.811296,502.611442 L388.088230,503.305182 L396.327403,503.842917 L404.645755,504.319554 L413.033090,504.740334 L421.503268,505.111381 L430.079735,505.438464 L438.792155,505.726758 L448.961980,506.014579 L458.053681,506.233503 L467.285100,506.423904 L476.665032,506.588996 L486.187992,506.731485 L495.822371,506.853612 L505.580640,506.958064 L515.489107,507.047302 L526.964867,507.132879 L537.133833,507.195392 L547.453033,507.248187 L557.923123,507.292598 L568.519511,507.329728 L579.264047,507.360719 L590.201656,507.386579 L603.015421,507.410932 L614.522180,507.428378 L626.142192,507.442582 L637.813449,507.454053 L649.542183,507.463303 L661.357088,507.470764 L673.297029,507.476782 L685.408816,507.481637 L699.533428,507.486046 L712.216715,507.489104 L725.292187,507.491564 L737.727273,507.493391" stroke="#ea580c" stroke-width="2" fill="none"/><path d="M92.272727,507.500000 L92.296623,507.421366 L92.316844,507.354882 L92.338008,507.285352 L92.364850,507.197249 L92.391252,507.110681 L92.420791,507.013931 L92.453864,506.905739 L92.490904,506.784737 L92.532391,506.649411 L92.578866,506.498071 L92.630938,506.328835 L92.698179,506.110799 L92.764652,505.895819 L92.839169,505.655480 L92.922724,505.386820 L93.016438,505.086538 L93.121575,504.750958 L93.239566,504.375988 L93.392241,503.893359 L93.543512,503.418010 L93.713502,502.887200 L93.904628,502.294611 L94.119652,501.633248 L94.361729,500.895376 L94.634476,500.072457 L94.942057,499.155090 L95.342428,497.977726 L95.740580,496.825484 L96.168601,495.607245 L96.611086,494.369848 L97.066518,493.119314 L97.537349,491.850785 L98.026820,490.557860 L98.613280,489.042900 L99.153795,487.679099 L99.723314,486.275271 L100.325256,484.827899 L100.963221,483.334014 L101.641054,481.791155 L102.362917,480.197371 L103.247676,478.311760 L104.079816,476.604853 L104.971982,474.844677 L105.929032,473.034754 L106.954334,471.183113 L108.050944,469.299680 L109.217791,467.402120 L110.435673,465.534644 L111.860841,463.490407 L113.136412,461.784706 L114.444951,460.151658 L115.793718,458.587179 L117.190038,457.089279 L118.641213,455.658079 L120.154637,454.295602 L121.967545,452.829624 L123.622106,451.641381 L125.340875,450.549896 L127.116241,449.566798 L128.937968,448.701599 L130.805253,447.956531 L132.696114,447.339120 L134.599206,446.847980 L136.795344,446.432374 L138.744647,446.189501 L140.728358,446.055070 L142.754085,446.026593 L144.828927,446.102753 L146.959629,446.283097 L149.152721,446.567802 L151.743785,447.021778 L154.092326,447.532578 L156.523722,448.150523 L159.044791,448.876763 L161.662640,449.712394 L164.384741,450.658370 L167.219011,451.715415 L170.173898,452.883938 L173.710274,454.355882 L176.955104,455.762676 L180.351649,457.279212 L183.911666,458.903666 L187.648064,460.633445 L191.575081,462.465096 L195.708501,464.394212 L200.707808,466.711216 L205.345479,468.829362 L210.252435,471.023888 L215.448928,473.283185 L220.837955,475.544893 L226.295948,477.742479 L231.784280,479.851622 L237.293246,481.863251 L243.613187,484.038412 L249.166009,485.832313 L254.743042,487.524807 L260.347664,489.117609 L265.983829,490.613215 L271.656121,492.014713 L277.369861,493.325634 L283.958591,494.717869 L289.783330,495.847935 L295.672724,496.900141 L301.636975,497.878747 L307.688173,498.788008 L313.840721,499.632132 L320.111909,500.415241 L326.522658,501.141349 L334.053165,501.906363 L340.856816,502.523213 L347.903055,503.094765 L355.243817,503.624418 L362.919640,504.113807 L370.807199,504.555510 L378.811296,504.947536 L388.088230,505.339762 L396.327403,505.639251 L404.645755,505.901058 L413.033090,506.129035 L421.503268,506.327356 L430.079735,506.499840 L438.792155,506.649843 L448.961980,506.797473 L458.053681,506.908155 L467.285100,507.003132 L476.665032,507.084389 L486.187992,507.153590 L495.822371,507.212116 L505.580640,507.261514 L515.489107,507.303161 L526.964867,507.342543 L537.133833,507.370908 L547.453033,507.394553 L557.923123,507.414184 L568.519511,507.430385 L579.264047,507.443732 L590.201656,507.454727 L603.015421,507.464937 L614.522180,507.472149 L626.142192,507.477943 L637.813449,507.482562 L649.542183,507.486239 L661.357088,507.489167 L673.297029,507.491499 L685.408816,507.493356 L699.533428,507.495020 L712.216715,507.496158 L725.292187,507.497062 L737.727273,507.497725" stroke="#7c3aed" stroke-width="2" fill="none"/><path d="M92.272727,507.500000 L92.296623,507.421373 L92.316844,507.354907 L92.338008,507.285406 L92.364850,507.197357 L92.391252,507.110859 L92.420791,507.014210 L92.453864,506.906156 L92.490904,506.785341 L92.532391,506.650265 L92.578866,506.499258 L92.630938,506.330457 L92.698179,506.113084 L92.764652,505.898870 L92.839169,505.659518 L92.922724,505.392127 L93.016438,505.093470 L93.121575,504.759966 L93.239566,504.387643 L93.392241,503.908931 L93.543512,503.438003 L93.713502,502.912798 L93.904628,502.327306 L94.119652,501.674918 L94.361729,500.948386 L94.634476,500.139786 L94.942057,499.240485 L95.342428,498.089613 L95.740580,496.966962 L96.168601,495.784035 L96.611086,494.586834 L97.066518,493.381460 L97.537349,492.163514 L98.026820,490.927218 L98.613280,489.485313 L99.153795,488.193652 L99.723314,486.870592 L100.325256,485.513640 L100.963221,484.120961 L101.641054,482.691356 L102.362917,481.224272 L103.247676,479.501919 L104.079816,477.955952 L104.971982,476.375601 L105.929032,474.766181 L106.954334,473.137169 L108.050944,471.499756 L109.217791,469.871749 L110.435673,468.292845 L111.860841,466.593928 L113.136412,465.202749 L114.444951,463.896273 L115.793718,462.671193 L117.190038,461.526240 L118.641213,460.462126 L120.154637,459.481301 L121.967545,458.468939 L123.622106,457.689548 L125.340875,457.015938 L127.116241,456.455609 L128.937968,456.013381 L130.805253,455.689087 L132.696114,455.483340 L134.599206,455.390794 L136.795344,455.414372 L138.744647,455.541812 L140.728358,455.764754 L142.754085,456.080468 L144.828927,456.487083 L146.959629,456.983312 L149.152721,457.568256 L151.743785,458.344528 L154.092326,459.117407 L156.523722,459.977058 L159.044791,460.922763 L161.662640,461.953612 L164.384741,463.068424 L167.219011,464.265684 L170.173898,465.543475 L173.710274,467.099344 L176.955104,468.541029 L180.351649,470.053958 L183.911666,471.633947 L187.648064,473.276135 L191.575081,474.974942 L195.708501,476.724034 L200.707808,478.775404 L205.345479,480.607252 L210.252435,482.464295 L215.448928,484.334997 L220.837955,486.167639 L226.295948,487.911137 L231.784280,489.550723 L237.293246,491.084067 L243.613187,492.708728 L249.166009,494.022432 L254.743042,495.239913 L260.347664,496.365868 L265.983829,497.405227 L271.656121,498.363031 L277.369861,499.244333 L283.958591,500.164257 L289.783330,500.898285 L295.672724,501.571060 L301.636975,502.187085 L307.688173,502.750653 L313.840721,503.265834 L320.111909,503.736467 L326.522658,504.166161 L334.053165,504.611431 L340.856816,504.964479 L347.903055,505.286445 L355.243817,505.580017 L362.919640,505.846812 L370.807199,506.083584 L378.811296,506.290205 L388.088230,506.493255 L396.327403,506.645535 L404.645755,506.776462 L413.033090,506.888612 L421.503268,506.984595 L430.079735,507.066731 L438.792155,507.137019 L448.961980,507.205012 L458.053681,507.255108 L467.285100,507.297405 L476.665032,507.333011 L486.187992,507.362847 L495.822371,507.387679 L505.580640,507.408304 L515.489107,507.425418 L526.964867,507.441328 L537.133833,507.452593 L547.453033,507.461836 L557.923123,507.469391 L568.519511,507.475527 L579.264047,507.480505 L590.201656,507.484541 L603.015421,507.488227 L614.522180,507.490786 L626.142192,507.492810 L637.813449,507.494398 L649.542183,507.495643 L661.357088,507.496619 L673.297029,507.497385 L685.408816,507.497985 L699.533428,507.498514 L712.216715,507.498870 L725.292187,507.499149 L737.727273,507.499350" stroke="#0891b2" stroke-width="2" fill="none"/><path d="M92.272727,507.500000 L92.296623,507.500000 L92.316844,507.500000 L92.338008,507.500000 L92.364850,507.500000 L92.391252,507.500000 L92.420791,507.500000 L92.453864,507.500000 L92.490904,507.500000 L92.532391,507.500000 L92.578866,507.500000 L92.630938,507.500000 L92.698179,507.500000 L92.764652,507.500000 L92.839169,507.500000 L92.922724,507.500000 L93.016438,507.500000 L93.121575,507.500000 L93.239566,507.499999 L93.392241,507.499999 L93.543512,507.499998 L93.713502,507.499997 L93.904628,507.499996 L94.119652,507.499993 L94.361729,507.499988 L94.634476,507.499981 L94.942057,507.499968 L95.342428,507.499945 L95.740580,507.499911 L96.168601,507.499859 L96.611086,507.499784 L97.066518,507.499679 L97.537349,507.499535 L98.026820,507.499340 L98.613280,507.499032 L99.153795,507.498665 L99.723314,507.498176 L100.325256,507.497526 L100.963221,507.496665 L101.641054,507.495526 L102.362917,507.494023 L103.247676,507.491709 L104.079816,507.488986 L104.971982,507.485393 L105.929032,507.480654 L106.954334,507.474422 L108.050944,507.466256 L109.217791,507.455638 L110.435673,507.442160 L111.860841,507.422878 L113.136412,507.402017 L114.444951,507.376676 L115.793718,507.345946 L117.190038,507.308716 L118.641213,507.263634 L120.154637,507.209047 L121.967545,507.132545 L123.622106,507.051213 L125.340875,506.954103 L127.116241,506.839238 L128.937968,506.704859 L130.805253,506.548537 L132.696114,506.369806 L134.599206,506.167868 L136.795344,505.905687 L138.744647,505.645345 L140.728358,505.352348 L142.754085,505.022578 L144.828927,504.651402 L146.959629,504.233608 L149.152721,503.763342 L151.743785,503.153164 L154.092326,502.547247 L156.523722,501.865302 L159.044791,501.097839 L161.662640,500.234193 L164.384741,499.262391 L167.219011,498.168987 L170.173898,496.938890 L173.710274,495.343866 L176.955104,493.761168 L180.351649,491.981291 L183.911666,489.979965 L187.648064,487.729998 L191.575081,485.200948 L195.708501,482.358746 L200.707808,478.677997 L205.345479,475.030727 L210.252435,470.934917 L215.448928,466.341624 L220.837955,461.312644 L226.295948,455.958544 L231.784280,450.326576 L237.293246,444.441006 L243.613187,437.426320 L249.166009,431.053370 L254.743042,424.476281 L260.347664,417.709149 L265.983829,410.765488 L271.656121,403.658056 L277.369861,396.398656 L283.958591,387.929702 L289.783330,380.378704 L295.672724,372.704240 L301.636975,364.911814 L307.688173,357.004743 L313.840721,348.983809 L320.111909,340.846841 L326.522658,332.588188 L334.053165,322.987925 L340.856816,314.428965 L347.903055,305.698902 L355.243817,296.767331 L362.919640,287.624551 L370.807199,278.455941 L378.811296,269.401683 L388.088230,259.238957 L396.327403,250.523012 L404.645755,242.027256 L413.033090,233.775517 L421.503268,225.765665 L430.079735,217.987154 L438.792155,210.425867 L448.961980,202.029352 L458.053681,194.908439 L467.285100,188.042419 L476.665032,181.432425 L486.187992,175.088334 L495.822371,169.033327 L505.580640,163.259001 L515.489107,157.749852 L526.964867,151.794360 L537.133833,146.879211 L547.453033,142.220751 L557.923123,137.814875 L568.519511,133.666044 L579.264047,129.758854 L590.201656,126.072078 L603.015421,122.100457 L614.522180,118.830722 L626.142192,115.792603 L637.813449,112.988328 L649.542183,110.401094 L661.357088,108.010870 L673.297029,105.798357 L685.408816,103.745795 L699.533428,101.575143 L712.216715,99.812507 L725.292187,98.163220 L737.727273,96.738813" stroke="#2563eb" stroke-width="2" fill="none"/><path d="M92.272727,507.500000 L92.296623,507.500000 L92.316844,507.500000 L92.338008,507.500000 L92.364850,507.500000 L92.391252,507.500000 L92.420791,507.500000 L92.453864,507.499999 L92.490904,507.499999 L92.532391,507.499998 L92.578866,507.499997 L92.630938,507.499995 L92.698179,507.499992 L92.764652,507.499988 L92.839169,507.499982 L92.922724,507.499973 L93.016438,507.499960 L93.121575,507.499940 L93.239566,507.499912 L93.392241,507.499863 L93.543512,507.499800 L93.713502,507.499708 L93.904628,507.499577 L94.119652,507.499388 L94.361729,507.499117 L94.634476,507.498727 L94.942057,507.498167 L95.342428,507.497222 L95.740580,507.496010 L96.168601,507.494365 L96.611086,507.492251 L97.066518,507.489591 L97.537349,507.486274 L98.026820,507.482162 L98.613280,507.476267 L99.153795,507.469823 L99.723314,507.461904 L100.325256,507.452186 L100.963221,507.440272 L101.641054,507.425676 L102.362917,507.407799 L103.247676,507.382398 L104.079816,507.354787 L104.971982,507.320942 L105.929032,507.279490 L106.954334,507.228867 L108.050944,507.167255 L109.217791,507.092819 L110.435673,507.004939 L111.860841,506.888331 L113.136412,506.770899 L114.444951,506.637191 L115.793718,506.484954 L117.190038,506.311564 L118.641213,506.114001 L120.154637,505.888798 L121.967545,505.592914 L123.622106,505.297784 L125.340875,504.965699 L127.116241,504.595362 L128.937968,504.186581 L130.805253,503.737549 L132.696114,503.252231 L134.599206,502.733161 L136.795344,502.096807 L138.744647,501.499321 L140.728358,500.860734 L142.754085,500.177915 L144.828927,499.447660 L146.959629,498.666711 L149.152721,497.831774 L151.743785,496.807209 L154.092326,495.845458 L156.523722,494.819405 L159.044791,493.725915 L161.662640,492.562014 L164.384741,491.324967 L167.219011,490.012362 L170.173898,488.622223 L173.710274,486.936763 L176.955104,485.376621 L180.351649,483.737104 L183.911666,482.019660 L187.648064,480.227105 L191.575081,478.363910 L195.708501,476.436529 L200.707808,474.166633 L205.345479,472.134958 L210.252435,470.076763 L215.448928,468.013347 L220.837955,466.013035 L226.295948,464.143620 L231.784280,462.432018 L237.293246,460.890554 L243.613187,459.345820 L249.166009,458.188250 L254.743042,457.213628 L260.347664,456.422013 L265.983829,455.812099 L271.656121,455.381430 L277.369861,455.126606 L283.958591,455.045360 L289.783330,455.152707 L295.672724,455.421290 L301.636975,455.845902 L307.688173,456.421391 L313.840721,457.142864 L320.111909,458.005887 L326.522658,459.006714 L334.053165,460.315702 L340.856816,461.603960 L347.903055,463.025830 L355.243817,464.583770 L362.919640,466.277078 L370.807199,468.065744 L378.811296,469.912029 L388.088230,472.068077 L396.327403,473.978848 L404.645755,475.888440 L413.033090,477.780873 L421.503268,479.647010 L430.079735,481.480809 L438.792155,483.278118 L448.961980,485.284056 L458.053681,486.987751 L467.285100,488.627430 L476.665032,490.198414 L486.187992,491.694722 L495.822371,493.108101 L505.580640,494.438537 L515.489107,495.688230 L526.964867,497.013064 L537.133833,498.082337 L547.453033,499.072398 L557.923123,499.984969 L568.519511,500.820472 L579.264047,501.583706 L590.201656,502.280592 L603.015421,503.003275 L614.522180,503.574158 L626.142192,504.083194 L637.813449,504.533119 L649.542183,504.929823 L661.357088,505.279371 L673.297029,505.587315 L685.408816,505.858592 L699.533428,506.129280 L712.216715,506.335961 L725.292187,506.517957 L737.727273,506.665711" stroke="#dc2626" stroke-width="2" fill="none"/><path d="M92.272727,507.500000 L92.296623,507.499978 L92.316844,507.499926 L92.338008,507.499837 L92.364850,507.499676 L92.391252,507.499464 L92.420791,507.499164 L92.453864,507.498750 L92.490904,507.498187 L92.532391,507.497434 L92.578866,507.496437 L92.630938,507.495128 L92.698179,507.493136 L92.764652,507.490836 L92.839169,507.487868 L92.922724,507.484053 L93.016438,507.479164 L93.121575,507.472915 L93.239566,507.464947 L93.392241,507.453151 L93.543512,507.439823 L93.713502,507.422918 L93.904628,507.401500 L94.119652,507.374392 L94.361729,507.340110 L94.634476,507.296781 L94.942057,507.242047 L95.342428,507.161675 L95.740580,507.071757 L96.168601,506.964282 L96.611086,506.841728 L97.066518,506.703797 L97.537349,506.549018 L98.026820,506.375403 L98.613280,506.150941 L99.153795,505.928791 L99.723314,505.679511 L100.325256,505.399780 L100.963221,505.085884 L101.641054,504.733674 L102.362917,504.338509 L103.247676,503.827621 L104.079816,503.322185 L104.971982,502.755390 L105.929032,502.120939 L106.954334,501.413491 L108.050944,500.628127 L109.217791,499.763394 L110.435673,498.832770 L111.860841,497.712556 L113.136412,496.686007 L114.444951,495.613786 L115.793718,494.492535 L117.190038,493.318915 L118.641213,492.089868 L120.154637,490.802704 L121.967545,489.259977 L123.622106,487.856994 L125.340875,486.410164 L127.116241,484.932352 L128.937968,483.438759 L130.805253,481.936818 L132.696114,480.450518 L134.599206,478.993997 L136.795344,477.367139 L138.744647,475.975291 L140.728358,474.612311 L142.754085,473.278657 L144.828927,471.975851 L146.959629,470.706387 L149.152721,469.473646 L151.743785,468.115202 L154.092326,466.976322 L156.523722,465.889962 L159.044791,464.862654 L161.662640,463.901612 L164.384741,463.014692 L167.219011,462.210368 L170.173898,461.497688 L173.710274,460.807712 L176.955104,460.324233 L180.351649,459.963944 L183.911666,459.737601 L187.648064,459.656125 L191.575081,459.730466 L195.708501,459.971435 L200.707808,460.464282 L205.345479,461.096864 L210.252435,461.926765 L215.448928,462.960602 L220.837955,464.174240 L226.295948,465.523465 L231.784280,466.976638 L237.293246,468.509160 L243.613187,470.331306 L249.166009,471.967461 L254.743042,473.626260 L260.347664,475.294149 L265.983829,476.959397 L271.656121,478.611958 L277.369861,480.243337 L283.958591,482.072820 L289.783330,483.636641 L295.672724,485.161241 L301.636975,486.643201 L307.688173,488.080027 L313.840721,489.470058 L320.111909,490.812368 L326.522658,492.106689 L334.053165,493.527580 L340.856816,494.720801 L347.903055,495.868729 L355.243817,496.973178 L362.919640,498.032843 L370.807199,499.025886 L378.811296,499.940448 L388.088230,500.891501 L396.327403,501.645784 L404.645755,502.328336 L413.033090,502.943093 L421.503268,503.495829 L430.079735,503.992381 L438.792155,504.438215 L448.961980,504.892034 L458.053681,505.243909 L467.285100,505.555364 L476.665032,505.830118 L486.187992,506.071313 L495.822371,506.281515 L505.580640,506.464259 L515.489107,506.622918 L526.964867,506.777665 L537.133833,506.892614 L547.453033,506.991193 L557.923123,507.075382 L568.519511,507.146829 L579.264047,507.207348 L590.201656,507.258592 L603.015421,507.307603 L614.522180,507.343269 L626.142192,507.372726 L637.813449,507.396856 L649.542183,507.416588 L661.357088,507.432722 L673.297029,507.445913 L685.408816,507.456699 L699.533428,507.466634 L712.216715,507.473625 L725.292187,507.479325 L737.727273,507.483614" stroke="#16a34a" stroke-width="2" fill="none"/><path d="M92.272727,507.500000 L92.296623,507.500000 L92.316844,507.500000 L92.338008,507.500000 L92.364850,507.500000 L92.391252,507.500000 L92.420791,507.500000 L92.453864,507.500000 L92.490904,507.500000 L92.532391,507.499999 L92.578866,507.499999 L92.630938,507.499998 L92.698179,507.499997 L92.764652,507.499996 L92.839169,507.499994 L92.922724,507.499991 L93.016438,507.499986 L93.121575,507.499980 L93.239566,507.499970 L93.392241,507.499953 L93.543512,507.499931 L93.713502,507.499900 L93.904628,507.499854 L94.119652,507.499788 L94.361729,507.499693 L94.634476,507.499555 L94.942057,507.499356 L95.342428,507.499016 L95.740580,507.498576 L96.168601,507.497973 L96.611086,507.497190 L97.066518,507.496194 L97.537349,507.494938 L98.026820,507.493365 L98.613280,507.491081 L99.153795,507.488552 L99.723314,507.485407 L100.325256,507.481499 L100.963221,507.476644 L101.641054,507.470613 L102.362917,507.463121 L103.247676,507.452302 L104.079816,507.440342 L104.971982,507.425436 L105.929032,507.406861 L106.954334,507.383758 L108.050944,507.355099 L109.217791,507.319782 L110.435673,507.277228 L111.860841,507.219504 L113.136412,507.160090 L114.444951,507.091045 L115.793718,507.010804 L117.190038,506.917504 L118.641213,506.808946 L120.154637,506.682533 L121.967545,506.512515 L123.622106,506.338865 L125.340875,506.139017 L127.116241,505.911001 L128.937968,505.653463 L130.805253,505.363964 L132.696114,505.043782 L134.599206,504.693439 L136.795344,504.253422 L138.744647,503.830269 L140.728358,503.367780 L142.754085,502.862033 L144.828927,502.308775 L146.959629,501.703416 L149.152721,501.041002 L151.743785,500.207231 L154.092326,499.404068 L156.523722,498.525693 L159.044791,497.565444 L161.662640,496.516213 L164.384741,495.370445 L167.219011,494.120143 L170.173898,492.756892 L173.710274,491.049277 L176.955104,489.413923 L180.351649,487.636927 L183.911666,485.708729 L187.648064,483.619786 L191.575081,481.360761 L195.708501,478.922787 L200.707808,475.907102 L205.345479,473.060049 L210.252435,470.013431 L215.448928,466.768283 L220.837955,463.404227 L226.295948,460.020814 L231.784280,456.664413 L237.293246,453.362224 L243.613187,449.680968 L249.166009,446.560645 L254.743042,443.550735 L260.347664,440.665227 L265.983829,437.916652 L271.656121,435.316158 L277.369861,432.873602 L283.958591,430.286575 L289.783330,428.210308 L295.672724,426.315872 L301.636975,424.609162 L307.688173,423.095589 L313.840721,421.780320 L320.111909,420.668575 L326.522658,419.765984 L334.053165,418.998937 L340.856816,418.568222 L347.903055,418.372795 L355.243817,418.426485 L362.919640,418.746451 L370.807199,419.336544 L378.811296,420.184513 L388.088230,421.451905 L396.327403,422.806871 L404.645755,424.368216 L413.033090,426.114830 L421.503268,428.030141 L430.079735,430.100719 L438.792155,432.315826 L448.961980,435.014071 L458.053681,437.503354 L467.285100,440.082312 L476.665032,442.734918 L486.187992,445.441460 L495.822371,448.175325 L505.580640,450.923315 L515.489107,453.676957 L526.964867,456.802986 L537.133833,459.503477 L547.453033,462.166822 L557.923123,464.781717 L568.519511,467.332072 L579.264047,469.814478 L590.201656,472.230880 L603.015421,474.917202 L614.522180,477.195853 L626.142192,479.369312 L637.813449,481.425169 L649.542183,483.365634 L661.357088,485.196860 L673.297029,486.925987 L685.408816,488.560323 L699.533428,490.321381 L712.216715,491.776958 L725.292187,493.160352 L737.727273,494.372295" stroke="#ea580c" stroke-width="2" fill="none"/><path d="M92.272727,82.500000 L92.296623,82.735947 L92.316844,82.935503 L92.338008,83.144270 L92.364850,83.408902 L92.391252,83.669031 L92.420791,83.959880 L92.453864,84.285287 L92.490904,84.649421 L92.532391,85.056911 L92.578866,85.512932 L92.630938,86.023273 L92.698179,86.681384 L92.764652,87.330952 L92.839169,88.057947 L92.922724,88.871622 L93.016438,89.782341 L93.121575,90.801715 L93.239566,91.942757 L93.392241,93.414573 L93.543512,94.867715 L93.713502,96.494586 L93.904628,98.316094 L94.119652,100.355700 L94.361729,102.639750 L94.634476,105.197839 L94.942057,108.063240 L95.342428,111.762519 L95.740580,115.407322 L96.168601,119.288128 L96.611086,123.259693 L97.066518,127.305044 L97.537349,131.442397 L98.026820,135.695825 L98.613280,140.728773 L99.153795,145.307065 L99.723314,150.069215 L100.325256,155.034435 L100.963221,160.221520 L101.641054,165.649148 L102.362917,171.336099 L103.247676,178.177491 L104.079816,184.484900 L104.971982,191.113157 L105.929032,198.072336 L106.954334,205.358063 L108.050944,212.960740 L109.217791,220.840406 L110.435673,228.839964 L111.860841,237.918045 L113.136412,245.792131 L114.444951,253.630800 L115.793718,261.464803 L117.190038,269.320427 L118.641213,277.218972 L120.154637,285.177444 L121.967545,294.349534 L123.622106,302.389826 L125.340875,310.421124 L127.116241,318.386844 L128.937968,326.226012 L130.805253,333.924098 L132.696114,341.386310 L134.599206,348.572895 L136.795344,356.480551 L138.744647,363.169194 L140.728358,369.671851 L142.754085,376.009992 L144.828927,382.199771 L146.959629,388.253069 L149.152721,394.178360 L151.743785,400.800626 L154.092326,406.468078 L156.523722,412.018524 L159.044791,417.451895 L161.662640,422.766868 L164.384741,427.961069 L167.219011,433.031236 L170.173898,437.973369 L173.710274,443.458810 L176.955104,448.110441 L180.351649,452.618042 L183.911666,456.975829 L187.648064,461.177858 L191.575081,465.218129 L195.708501,469.090683 L200.707808,473.303647 L205.345479,476.797560 L210.252435,480.106460 L215.448928,483.222654 L220.837955,486.080415 L226.295948,488.632044 L231.784280,490.891422 L237.293246,492.887256 L243.613187,494.883290 L249.166009,496.410733 L254.743042,497.758739 L260.347664,498.948366 L265.983829,499.998215 L271.656121,500.924700 L277.369861,501.742312 L283.958591,502.559741 L289.783330,503.185187 L295.672724,503.737108 L301.636975,504.224135 L307.688173,504.653883 L313.840721,505.033072 L320.111909,505.367628 L326.522658,505.662781 L334.053165,505.957741 L340.856816,506.183292 L347.903055,506.382176 L355.243817,506.557492 L362.919640,506.711476 L370.807199,506.843541 L378.811296,506.954965 L388.088230,507.060666 L396.327403,507.137224 L404.645755,507.200992 L413.033090,507.253945 L421.503268,507.297910 L430.079735,507.334429 L438.792155,507.364777 L448.961980,507.393240 L458.053681,507.413573 L467.285100,507.430260 L476.665032,507.443920 L486.187992,507.455053 L495.822371,507.464070 L505.580640,507.471360 L515.489107,507.477251 L526.964867,507.482576 L537.133833,507.486243 L547.453033,507.489177 L557.923123,507.491514 L568.519511,507.493366 L579.264047,507.494832 L590.201656,507.495992 L603.015421,507.497024 L614.522180,507.497723 L626.142192,507.498262 L637.813449,507.498675 L649.542183,507.498991 L661.357088,507.499233 L673.297029,507.499419 L685.408816,507.499561 L699.533428,507.499684 L712.216715,507.499765 L725.292187,507.499826 L737.727273,507.499870" stroke="#7c3aed" stroke-width="2" fill="none"/><line x1="720.000000" y1="50.000000" x2="740.000000" y2="50.000000" stroke="#2563eb" stroke-width="2"/><text x="745.000000" y="54.000000" font-family="Arial, sans-serif" font-size="10">Stones_3</text><line x1="720.000000" y1="70.000000" x2="740.000000" y2="70.000000" stroke="#dc2626" stroke-width="2"/><text x="745.000000" y="74.000000" font-family="Arial, sans-serif" font-size="10">Stones_4</text><line x1="720.000000" y1="90.000000" x2="740.000000" y2="90.000000" stroke="#16a34a" stroke-width="2"/><text x="745.000000" y="94.000000" font-family="Arial, sans-serif" font-size="10">Stones_5</text><line x1="720.000000" y1="110.000000" x2="740.000000" y2="110.000000" stroke="#ea580c" stroke-width="2"/><text x="745.000000" y="114.000000" font-family="Arial, sans-serif" font-size="10">Stones_7</text><line x1="720.000000" y1="130.000000" x2="740.000000" y2="130.000000" stroke="#7c3aed" stroke-width="2"/><text x="745.000000" y="134.000000" font-family="Arial, sans-serif" font-size="10">Stones_8</text><line x1="720.000000" y1="150.000000" x2="740.000000" y2="150.000000" stroke="#0891b2" stroke-width="2"/><text x="745.000000" y="154.000000" font-family="Arial, sans-serif" font-size="10">Stones_9</text><line x1="720.000000" y1="170.000000" x2="740.000000" y2="170.000000" stroke="#2563eb" stroke-width="2"/><text x="745.000000" y="174.000000" font-family="Arial, sans-serif" font-size="10">Stones_0</text><line x1="720.000000" y1="190.000000" x2="740.000000" y2="190.000000" stroke="#dc2626" stroke-width="2"/><text x="745.000000" y="194.000000" font-family="Arial, sans-serif" font-size="10">Stones_2</text><line x1="720.000000" y1="210.000000" x2="740.000000" y2="210.000000" stroke="#16a34a" stroke-width="2"/><text x="745.000000" y="214.000000" font-family="Arial, sans-serif" font-size="10">Stones_6</text><line x1="720.000000" y1="230.000000" x2="740.000000" y2="230.000000" stroke="#ea580c" stroke-width="2"/><text x="745.000000" y="234.000000" font-family="Arial, sans-serif" font-size="10">Stones_1</text><line x1="720.000000" y1="250.000000" x2="740.000000" y2="250.000000" stroke="#7c3aed" stroke-width="2"/><text x="745.000000" y="254.000000" font-family="Arial, sans-serif" font-size="10">Stones_10</text><g id="plot_6000000_crosshair" style="display:none;"><line id="plot_6000000_line" x1="0" y1="40.000000" x2="0" y2="550.000000" stroke="#666" stroke-width="1" stroke-dasharray="4,4"/><rect id="tooltip_bg" x="0" y="0" rx="4" ry="4" fill="white" stroke="#666" stroke-width="1" opacity="0.95"/><text id="tooltip_text" x="0" y="0" font-family="Arial, sans-serif" font-size="11" fill="#333"></text></g><rect id="plot_6000000_overlay" x="60.000000" y="40.000000" width="710.000000" height="510.000000" fill="transparent" style="cursor:crosshair;"/></svg>