<?xml version="1.0" encoding="UTF-8"?>
<svg xmlns="http://www.w3.org/2000/svg" width="600" height="400">
<rect width="100%" height="100%" fill="white"/>
<text x="300" y="30" font-family="Arial" font-size="16" font-weight="bold" text-anchor="middle">Knapsack Value by Item Exclusion</text>
<rect x="60" y="100.0" width="60" height="240.0" fill="#4CAF50" opacity="0.8"/>
<text x="90" y="95.0" font-family="Arial" font-size="12" text-anchor="middle">4.8</text>
<text x="90" y="360" font-family="Arial" font-size="11" text-anchor="middle">all</text>
<rect x="150" y="100.0" width="60" height="240.0" fill="#2196F3" opacity="0.8"/>
<text x="180" y="95.0" font-family="Arial" font-size="12" text-anchor="middle">4.8</text>
<text x="180" y="360" font-family="Arial" font-size="11" text-anchor="middle">item0</text>
<rect x="240" y="100.0" width="60" height="240.0" fill="#FF9800" opacity="0.8"/>
<text x="270" y="95.0" font-family="Arial" font-size="12" text-anchor="middle">4.8</text>
<text x="270" y="360" font-family="Arial" font-size="11" text-anchor="middle">item1</text>
<rect x="330" y="100.0" width="60" height="240.0" fill="#9C27B0" opacity="0.8"/>
<text x="360" y="95.0" font-family="Arial" font-size="12" text-anchor="middle">4.8</text>
<text x="360" y="360" font-family="Arial" font-size="11" text-anchor="middle">item2</text>
<rect x="420" y="100.0" width="60" height="240.0" fill="#F44336" opacity="0.8"/>
<text x="450" y="95.0" font-family="Arial" font-size="12" text-anchor="middle">4.8</text>
<text x="450" y="360" font-family="Arial" font-size="11" text-anchor="middle">item3</text>
<line x1="50" y1="60" x2="50" y2="340" stroke="black" stroke-width="1"/>
<line x1="50" y1="340" x2="540" y2="340" stroke="black" stroke-width="1"/>
<text x="15" y="200" font-family="Arial" font-size="12" text-anchor="middle" transform="rotate(-90, 15, 200)">Value</text>
<text x="300" y="390" font-family="Arial" font-size="12" text-anchor="middle">Excluded Item</text>
</svg>