<svg xmlns="http://www.w3.org/2000/svg" viewBox="50.0 50.0 1150.0 100.0" width="1150" height="100">
<rect x="50.0" y="50.0" width="1150.0" height="100.0" fill="#f8f9fa" rx="8"/>
<defs><style>.place { fill: #fff; stroke: #333; stroke-width: 2; }.place-cap-full { fill: #ffebee; }.transition { fill: #ffffff; stroke: #000; stroke-width: 1; }.transition-active { fill: #62fa75; stroke: #000; }.arc { stroke: #cfcfcf; stroke-width: 1; fill: none; }.arc-active { stroke: #2a6fb8; }.arrowhead { fill: #cfcfcf; }.arrowhead-active { fill: #2a6fb8; }.inhibitor { fill: #fff; stroke: #cfcfcf; stroke-width: 1.3; }.inhibitor-active { stroke: #2a6fb8; }.token-dot { fill: #333; }.token-text { font-family: system-ui, Arial; font-size: 12px; fill: #333; text-anchor: middle; dominant-baseline: middle; }.weight-badge { font-family: system-ui, Arial; font-size: 10px; fill: #666; text-anchor: middle; dominant-baseline: middle; }.weight-bg { fill: #fafafa; stroke: #ddd; stroke-width: 1; }.weight-bg-active { fill: #e8f0fb; stroke: #2a6fb8; }.label-text { font-family: system-ui, Arial; font-size: 11px; fill: #333; text-anchor: middle; dominant-baseline: hanging; }</style></defs>
<line x1="118.0" y1="100.0" x2="150.8" y2="100.0" stroke="#000000" stroke-width="1" fill="none"/>
<path d="M 150.8 100.0 L 142.8 103.6 L 142.8 96.4 Z" fill="#000000"/>
<circle cx="134.4" cy="100.0" r="10" fill="#d8d8d8" stroke="#000000" stroke-width="1"/>
<text x="134.4" y="100.0" font-family="system-ui, Arial" font-size="10px" fill="#000000" text-anchor="middle" dominant-baseline="middle">1</text>
<line x1="192.0" y1="100.0" x2="224.8" y2="100.0" stroke="#000000" stroke-width="1" fill="none"/>
<path d="M 224.8 100.0 L 216.8 103.6 L 216.8 96.4 Z" fill="#000000"/>
<circle cx="208.4" cy="100.0" r="10" fill="#d8d8d8" stroke="#000000" stroke-width="1"/>
<text x="208.4" y="100.0" font-family="system-ui, Arial" font-size="10px" fill="#000000" text-anchor="middle" dominant-baseline="middle">1</text>
<line x1="268.0" y1="100.0" x2="300.8" y2="100.0" stroke="#999999" stroke-width="1" fill="none"/>
<path d="M 300.8 100.0 L 292.8 103.6 L 292.8 96.4 Z" fill="#999999"/>
<circle cx="284.4" cy="100.0" r="10" fill="#fafafa" stroke="#999999" stroke-width="1"/>
<text x="284.4" y="100.0" font-family="system-ui, Arial" font-size="10px" fill="#666" text-anchor="middle" dominant-baseline="middle">1</text>
<line x1="342.0" y1="100.0" x2="374.8" y2="100.0" stroke="#999999" stroke-width="1" fill="none"/>
<path d="M 374.8 100.0 L 366.8 103.6 L 366.8 96.4 Z" fill="#999999"/>
<circle cx="358.4" cy="100.0" r="10" fill="#fafafa" stroke="#999999" stroke-width="1"/>
<text x="358.4" y="100.0" font-family="system-ui, Arial" font-size="10px" fill="#666" text-anchor="middle" dominant-baseline="middle">1</text>
<line x1="418.0" y1="100.0" x2="450.8" y2="100.0" stroke="#999999" stroke-width="1" fill="none"/>
<path d="M 450.8 100.0 L 442.8 103.6 L 442.8 96.4 Z" fill="#999999"/>
<circle cx="434.4" cy="100.0" r="10" fill="#fafafa" stroke="#999999" stroke-width="1"/>
<text x="434.4" y="100.0" font-family="system-ui, Arial" font-size="10px" fill="#666" text-anchor="middle" dominant-baseline="middle">1</text>
<line x1="492.0" y1="100.0" x2="524.8" y2="100.0" stroke="#999999" stroke-width="1" fill="none"/>
<path d="M 524.8 100.0 L 516.8 103.6 L 516.8 96.4 Z" fill="#999999"/>
<circle cx="508.4" cy="100.0" r="10" fill="#fafafa" stroke="#999999" stroke-width="1"/>
<text x="508.4" y="100.0" font-family="system-ui, Arial" font-size="10px" fill="#666" text-anchor="middle" dominant-baseline="middle">1</text>
<line x1="568.0" y1="100.0" x2="600.8" y2="100.0" stroke="#999999" stroke-width="1" fill="none"/>
<path d="M 600.8 100.0 L 592.8 103.6 L 592.8 96.4 Z" fill="#999999"/>
<circle cx="584.4" cy="100.0" r="10" fill="#fafafa" stroke="#999999" stroke-width="1"/>
<text x="584.4" y="100.0" font-family="system-ui, Arial" font-size="10px" fill="#666" text-anchor="middle" dominant-baseline="middle">1</text>
<line x1="642.0" y1="100.0" x2="674.8" y2="100.0" stroke="#999999" stroke-width="1" fill="none"/>
<path d="M 674.8 100.0 L 666.8 103.6 L 666.8 96.4 Z" fill="#999999"/>
<circle cx="658.4" cy="100.0" r="10" fill="#fafafa" stroke="#999999" stroke-width="1"/>
<text x="658.4" y="100.0" font-family="system-ui, Arial" font-size="10px" fill="#666" text-anchor="middle" dominant-baseline="middle">1</text>
<line x1="718.0" y1="100.0" x2="750.8" y2="100.0" stroke="#999999" stroke-width="1" fill="none"/>
<path d="M 750.8 100.0 L 742.8 103.6 L 742.8 96.4 Z" fill="#999999"/>
<circle cx="734.4" cy="100.0" r="10" fill="#fafafa" stroke="#999999" stroke-width="1"/>
<text x="734.4" y="100.0" font-family="system-ui, Arial" font-size="10px" fill="#666" text-anchor="middle" dominant-baseline="middle">1</text>
<line x1="792.0" y1="100.0" x2="824.8" y2="100.0" stroke="#999999" stroke-width="1" fill="none"/>
<path d="M 824.8 100.0 L 816.8 103.6 L 816.8 96.4 Z" fill="#999999"/>
<circle cx="808.4" cy="100.0" r="10" fill="#fafafa" stroke="#999999" stroke-width="1"/>
<text x="808.4" y="100.0" font-family="system-ui, Arial" font-size="10px" fill="#666" text-anchor="middle" dominant-baseline="middle">1</text>
<line x1="868.0" y1="100.0" x2="900.8" y2="100.0" stroke="#999999" stroke-width="1" fill="none"/>
<path d="M 900.8 100.0 L 892.8 103.6 L 892.8 96.4 Z" fill="#999999"/>
<circle cx="884.4" cy="100.0" r="10" fill="#fafafa" stroke="#999999" stroke-width="1"/>
<text x="884.4" y="100.0" font-family="system-ui, Arial" font-size="10px" fill="#666" text-anchor="middle" dominant-baseline="middle">1</text>
<line x1="942.0" y1="100.0" x2="974.8" y2="100.0" stroke="#999999" stroke-width="1" fill="none"/>
<path d="M 974.8 100.0 L 966.8 103.6 L 966.8 96.4 Z" fill="#999999"/>
<circle cx="958.4" cy="100.0" r="10" fill="#fafafa" stroke="#999999" stroke-width="1"/>
<text x="958.4" y="100.0" font-family="system-ui, Arial" font-size="10px" fill="#666" text-anchor="middle" dominant-baseline="middle">1</text>
<line x1="1018.0" y1="100.0" x2="1050.8" y2="100.0" stroke="#999999" stroke-width="1" fill="none"/>
<path d="M 1050.8 100.0 L 1042.8 103.6 L 1042.8 96.4 Z" fill="#999999"/>
<circle cx="1034.4" cy="100.0" r="10" fill="#fafafa" stroke="#999999" stroke-width="1"/>
<text x="1034.4" y="100.0" font-family="system-ui, Arial" font-size="10px" fill="#666" text-anchor="middle" dominant-baseline="middle">1</text>
<line x1="1092.0" y1="100.0" x2="1124.8" y2="100.0" stroke="#999999" stroke-width="1" fill="none"/>
<path d="M 1124.8 100.0 L 1116.8 103.6 L 1116.8 96.4 Z" fill="#999999"/>
<circle cx="1108.4" cy="100.0" r="10" fill="#fafafa" stroke="#999999" stroke-width="1"/>
<text x="1108.4" y="100.0" font-family="system-ui, Arial" font-size="10px" fill="#666" text-anchor="middle" dominant-baseline="middle">1</text>
<circle cx="250.0" cy="100.0" r="16.0" class="place"/>
<text x="250.0" y="122.0" class="label-text">After Ticket_Created</text>
<circle cx="400.0" cy="100.0" r="16.0" class="place"/>
<text x="400.0" y="122.0" class="label-text">After Triage</text>
<circle cx="550.0" cy="100.0" r="16.0" class="place"/>
<text x="550.0" y="122.0" class="label-text">After Investigation</text>
<circle cx="700.0" cy="100.0" r="16.0" class="place"/>
<text x="700.0" y="122.0" class="label-text">After Develop_Fix</text>
<circle cx="850.0" cy="100.0" r="16.0" class="place"/>
<text x="850.0" y="122.0" class="label-text">After Code_Review</text>
<circle cx="1000.0" cy="100.0" r="16.0" class="place"/>
<text x="1000.0" y="122.0" class="label-text">After Testing</text>
<circle cx="100.0" cy="100.0" r="16.0" class="place"/>
<circle cx="100.0" cy="100.0" r="3" class="token-dot"/>
<text x="100.0" y="122.0" class="label-text">Start</text>
<circle cx="1150.0" cy="100.0" r="16.0" class="place"/>
<text x="1150.0" y="122.0" class="label-text">End</text>
<rect x="460.0" y="85.0" width="30.0" height="30.0" rx="4.0" ry="4.0" class="transition"/>
<text x="475.0" y="121.0" class="label-text">Investigation</text>
<rect x="1060.0" y="85.0" width="30.0" height="30.0" rx="4.0" ry="4.0" class="transition"/>
<text x="1075.0" y="121.0" class="label-text">Resolve_and_Close</text>
<rect x="910.0" y="85.0" width="30.0" height="30.0" rx="4.0" ry="4.0" class="transition"/>
<text x="925.0" y="121.0" class="label-text">Testing</text>
<rect x="160.0" y="85.0" width="30.0" height="30.0" rx="4.0" ry="4.0" class="transition transition-active"/>
<text x="175.0" y="121.0" class="label-text">Ticket_Created</text>
<rect x="310.0" y="85.0" width="30.0" height="30.0" rx="4.0" ry="4.0" class="transition"/>
<text x="325.0" y="121.0" class="label-text">Triage</text>
<rect x="760.0" y="85.0" width="30.0" height="30.0" rx="4.0" ry="4.0" class="transition"/>
<text x="775.0" y="121.0" class="label-text">Code_Review</text>
<rect x="610.0" y="85.0" width="30.0" height="30.0" rx="4.0" ry="4.0" class="transition"/>
<text x="625.0" y="121.0" class="label-text">Develop_Fix</text>
</svg>
