<svg xmlns="http://www.w3.org/2000/svg" viewBox="50.0 50.0 300.0 150.0" width="300" height="150">
<rect x="50.0" y="50.0" width="300.0" height="150.0" fill="#f8f9fa" rx="8"/>
<defs><style>.place { fill: #fff; stroke: #333; stroke-width: 2; }.place-cap-full { fill: #ffebee; }.transition { fill: #ffffff; stroke: #000; stroke-width: 1; }.transition-active { fill: #62fa75; stroke: #000; }.arc { stroke: #cfcfcf; stroke-width: 1; fill: none; }.arc-active { stroke: #2a6fb8; }.arrowhead { fill: #cfcfcf; }.arrowhead-active { fill: #2a6fb8; }.inhibitor { fill: #fff; stroke: #cfcfcf; stroke-width: 1.3; }.inhibitor-active { stroke: #2a6fb8; }.token-dot { fill: #333; }.token-text { font-family: system-ui, Arial; font-size: 12px; fill: #333; text-anchor: middle; dominant-baseline: middle; }.weight-badge { font-family: system-ui, Arial; font-size: 10px; fill: #666; text-anchor: middle; dominant-baseline: middle; }.weight-bg { fill: #fafafa; stroke: #ddd; stroke-width: 1; }.weight-bg-active { fill: #e8f0fb; stroke: #2a6fb8; }.label-text { font-family: system-ui, Arial; font-size: 11px; fill: #333; text-anchor: middle; dominant-baseline: hanging; }</style></defs>
<line x1="112.7" y1="112.7" x2="132.9" y2="132.9" stroke="#000000" stroke-width="1" fill="none"/>
<path d="M 132.9 132.9 L 124.7 129.8 L 129.8 124.7 Z" fill="#000000"/>
<circle cx="122.8" cy="122.8" r="10" fill="#d8d8d8" stroke="#000000" stroke-width="1"/>
<text x="122.8" y="122.8" font-family="system-ui, Arial" font-size="10px" fill="#000000" text-anchor="middle" dominant-baseline="middle">1</text>
<path d="M 187.3 112.7 Q 156.0 101.6 167.1 132.9" stroke="#000000" stroke-width="1" fill="none"/>
<path d="M 167.1 132.9 L 161.0 126.6 L 167.8 124.1 Z" fill="#000000"/>
<circle cx="166.6" cy="112.2" r="10" fill="#d8d8d8" stroke="#000000" stroke-width="1"/>
<text x="166.6" y="112.2" font-family="system-ui, Arial" font-size="10px" fill="#000000" text-anchor="middle" dominant-baseline="middle">1</text>
<path d="M 162.0 138.0 Q 193.3 149.1 182.2 117.8" stroke="#000000" stroke-width="1" fill="none"/>
<path d="M 182.2 117.8 L 188.3 124.1 L 181.5 126.6 Z" fill="#000000"/>
<circle cx="182.7" cy="138.5" r="10" fill="#d8d8d8" stroke="#000000" stroke-width="1"/>
<text x="182.7" y="138.5" font-family="system-ui, Arial" font-size="10px" fill="#000000" text-anchor="middle" dominant-baseline="middle">2</text>
<line x1="212.7" y1="112.7" x2="232.9" y2="132.9" stroke="#000000" stroke-width="1" fill="none"/>
<path d="M 232.9 132.9 L 224.7 129.8 L 229.8 124.7 Z" fill="#000000"/>
<circle cx="222.8" cy="122.8" r="10" fill="#d8d8d8" stroke="#000000" stroke-width="1"/>
<text x="222.8" y="122.8" font-family="system-ui, Arial" font-size="10px" fill="#000000" text-anchor="middle" dominant-baseline="middle">1</text>
<line x1="262.0" y1="138.0" x2="282.2" y2="117.8" stroke="#000000" stroke-width="1" fill="none"/>
<path d="M 282.2 117.8 L 279.1 126.0 L 274.0 120.9 Z" fill="#000000"/>
<circle cx="272.1" cy="127.9" r="10" fill="#d8d8d8" stroke="#000000" stroke-width="1"/>
<text x="272.1" y="127.9" font-family="system-ui, Arial" font-size="10px" fill="#000000" text-anchor="middle" dominant-baseline="middle">1</text>
<circle cx="200.0" cy="100.0" r="16.0" class="place"/>
<circle cx="200.0" cy="100.0" r="3" class="token-dot"/>
<text x="200.0" y="122.0" class="label-text">I</text>
<circle cx="300.0" cy="100.0" r="16.0" class="place"/>
<text x="300.0" y="122.0" class="label-text">R</text>
<circle cx="100.0" cy="100.0" r="16.0" class="place"/>
<text x="100.0" y="100.0" class="token-text">999</text>
<text x="100.0" y="122.0" class="label-text">S</text>
<rect x="135.0" y="135.0" width="30.0" height="30.0" rx="4.0" ry="4.0" class="transition transition-active"/>
<text x="150.0" y="171.0" class="label-text">infect</text>
<rect x="235.0" y="135.0" width="30.0" height="30.0" rx="4.0" ry="4.0" class="transition transition-active"/>
<text x="250.0" y="171.0" class="label-text">recover</text>
</svg>
