<svg xmlns="http://www.w3.org/2000/svg" viewBox="-110.0 -80.0 220.0 510.0" width="220" height="510">
<defs><style>.state { stroke-width: 2; rx: 8; }.state-initial { stroke-width: 3; }.state-composite { stroke-dasharray: 5,3; }.transition { stroke: #666; stroke-width: 1.5; fill: none; }.transition-self { stroke: #999; }.arrowhead { fill: #666; }.initial-marker { fill: #333; }.state-label { font-family: system-ui, Arial; font-size: 11px; fill: #333; text-anchor: middle; dominant-baseline: middle; }.event-label { font-family: system-ui, Arial; font-size: 9px; fill: #666; text-anchor: middle; }.region-label { font-family: system-ui, Arial; font-size: 10px; fill: #999; font-style: italic; }.region-box { fill: none; stroke: #ddd; stroke-width: 1; stroke-dasharray: 3,3; }.chart-title { font-family: system-ui, Arial; font-size: 14px; font-weight: bold; fill: #333; }</style><marker id="sm-arrowhead" markerWidth="10" markerHeight="7" refX="9" refY="3.5" orient="auto"><polygon points="0 0, 10 3.5, 0 7" class="arrowhead"/></marker></defs>
<text x="-100.0" y="-60.0" class="chart-title">Order Status</text>
<rect x="-60.0" y="-30.0" width="120.0" height="410.0" class="region-box"/>
<text x="-55.0" y="-35.0" class="region-label">order</text>
<path d="M 50.0 0.0 C 4.1 0.0 4.1 64.3 -41.8 64.3" class="transition" marker-end="url(#sm-arrowhead)"/>
<text x="4.1" y="22.1" class="event-label">confirm</text>
<path d="M 50.0 70.0 C 2.1 70.0 2.1 271.0 -45.7 271.0" class="transition" marker-end="url(#sm-arrowhead)"/>
<text x="2.1" y="160.5" class="event-label">process</text>
<path d="M 50.0 280.0 C 4.1 280.0 4.1 344.3 -41.8 344.3" class="transition" marker-end="url(#sm-arrowhead)"/>
<text x="4.1" y="302.1" class="event-label">ship</text>
<path d="M 50.0 350.0 C 2.1 350.0 2.1 149.0 -45.7 149.0" class="transition" marker-end="url(#sm-arrowhead)"/>
<text x="2.1" y="239.5" class="event-label">deliver</text>
<path d="M 50.0 0.0 C 2.1 0.0 2.1 201.0 -45.7 201.0" class="transition" marker-end="url(#sm-arrowhead)"/>
<text x="2.1" y="90.5" class="event-label">cancel</text>
<path d="M 50.0 70.0 C 2.9 70.0 2.9 201.9 -44.2 201.9" class="transition" marker-end="url(#sm-arrowhead)"/>
<text x="2.9" y="125.9" class="event-label">cancel</text>
<rect x="-50.0" y="120.0" width="100.0" height="40.0" rx="8" fill="#e3f2fd" stroke="#1976d2" class="state"/>
<text x="0.0" y="140.0" class="state-label">delivered</text>
<rect x="-50.0" y="190.0" width="100.0" height="40.0" rx="8" fill="#e3f2fd" stroke="#1976d2" class="state"/>
<text x="0.0" y="210.0" class="state-label">cancelled</text>
<rect x="-50.0" y="-20.0" width="100.0" height="40.0" rx="8" fill="#e3f2fd" stroke="#1976d2" class="state state-initial"/>
<text x="0.0" y="0.0" class="state-label">pending</text>
<rect x="-50.0" y="50.0" width="100.0" height="40.0" rx="8" fill="#e3f2fd" stroke="#1976d2" class="state"/>
<text x="0.0" y="70.0" class="state-label">confirmed</text>
<rect x="-50.0" y="260.0" width="100.0" height="40.0" rx="8" fill="#e3f2fd" stroke="#1976d2" class="state"/>
<text x="0.0" y="280.0" class="state-label">processing</text>
<rect x="-50.0" y="330.0" width="100.0" height="40.0" rx="8" fill="#e3f2fd" stroke="#1976d2" class="state"/>
<text x="0.0" y="350.0" class="state-label">shipped</text>
<circle cx="-70.0" cy="0.0" r="6" class="initial-marker"/>
<line x1="-62.0" y1="0.0" x2="-52.0" y2="0.0" stroke="#333" stroke-width="1.5" marker-end="url(#sm-arrowhead)"/>
</svg>
