<svg xmlns="http://www.w3.org/2000/svg" viewBox="-110.0 -80.0 220.0 440.0" width="220" height="440">
<defs><style>.state { stroke-width: 2; rx: 8; }.state-initial { stroke-width: 3; }.state-composite { stroke-dasharray: 5,3; }.transition { stroke: #666; stroke-width: 1.5; fill: none; }.transition-self { stroke: #999; }.arrowhead { fill: #666; }.initial-marker { fill: #333; }.state-label { font-family: system-ui, Arial; font-size: 11px; fill: #333; text-anchor: middle; dominant-baseline: middle; }.event-label { font-family: system-ui, Arial; font-size: 9px; fill: #666; text-anchor: middle; }.region-label { font-family: system-ui, Arial; font-size: 10px; fill: #999; font-style: italic; }.region-box { fill: none; stroke: #ddd; stroke-width: 1; stroke-dasharray: 3,3; }.chart-title { font-family: system-ui, Arial; font-size: 14px; font-weight: bold; fill: #333; }</style><marker id="sm-arrowhead" markerWidth="10" markerHeight="7" refX="9" refY="3.5" orient="auto"><polygon points="0 0, 10 3.5, 0 7" class="arrowhead"/></marker></defs>
<text x="-100.0" y="-60.0" class="chart-title">Document Lifecycle</text>
<rect x="-60.0" y="-30.0" width="120.0" height="340.0" class="region-box"/>
<text x="-55.0" y="-35.0" class="region-label">document</text>
<path d="M 50.0 0.0 C 1.7 0.0 1.7 270.6 -46.6 270.6" class="transition" marker-end="url(#sm-arrowhead)"/>
<text x="1.7" y="125.3" class="event-label">submit</text>
<path d="M 50.0 280.0 C 1.7 280.0 1.7 9.4 -46.6 9.4" class="transition" marker-end="url(#sm-arrowhead)"/>
<text x="1.7" y="134.7" class="event-label">reject</text>
<path d="M 50.0 280.0 C 2.9 280.0 2.9 148.1 -44.2 148.1" class="transition" marker-end="url(#sm-arrowhead)"/>
<text x="2.9" y="204.1" class="event-label">approve</text>
<path d="M 50.0 140.0 C 4.1 140.0 4.1 204.3 -41.8 204.3" class="transition" marker-end="url(#sm-arrowhead)"/>
<text x="4.1" y="162.1" class="event-label">publish</text>
<path d="M 50.0 210.0 C 2.9 210.0 2.9 78.1 -44.2 78.1" class="transition" marker-end="url(#sm-arrowhead)"/>
<text x="2.9" y="134.1" class="event-label">archive</text>
<path d="M -20.0 -20.0 C -20.0 -45.0 20.0 -45.0 15.0 -20.0" class="transition transition-self" marker-end="url(#sm-arrowhead)"/>
<text x="0.0" y="-50.0" class="event-label">edit</text>
<rect x="-50.0" y="260.0" width="100.0" height="40.0" rx="8" fill="#e3f2fd" stroke="#1976d2" class="state"/>
<text x="0.0" y="280.0" class="state-label">review</text>
<rect x="-50.0" y="120.0" width="100.0" height="40.0" rx="8" fill="#e3f2fd" stroke="#1976d2" class="state"/>
<text x="0.0" y="140.0" class="state-label">approved</text>
<rect x="-50.0" y="190.0" width="100.0" height="40.0" rx="8" fill="#e3f2fd" stroke="#1976d2" class="state"/>
<text x="0.0" y="210.0" class="state-label">published</text>
<rect x="-50.0" y="50.0" width="100.0" height="40.0" rx="8" fill="#e3f2fd" stroke="#1976d2" class="state"/>
<text x="0.0" y="70.0" class="state-label">archived</text>
<rect x="-50.0" y="-20.0" width="100.0" height="40.0" rx="8" fill="#e3f2fd" stroke="#1976d2" class="state state-initial"/>
<text x="0.0" y="0.0" class="state-label">draft</text>
<circle cx="-70.0" cy="0.0" r="6" class="initial-marker"/>
<line x1="-62.0" y1="0.0" x2="-52.0" y2="0.0" stroke="#333" stroke-width="1.5" marker-end="url(#sm-arrowhead)"/>
</svg>
