<svg xmlns="http://www.w3.org/2000/svg" viewBox="-110.0 -80.0 220.0 300.0" width="220" height="300">
<defs><style>.state { stroke-width: 2; rx: 8; }.state-initial { stroke-width: 3; }.state-composite { stroke-dasharray: 5,3; }.transition { stroke: #666; stroke-width: 1.5; fill: none; }.transition-self { stroke: #999; }.arrowhead { fill: #666; }.initial-marker { fill: #333; }.state-label { font-family: system-ui, Arial; font-size: 11px; fill: #333; text-anchor: middle; dominant-baseline: middle; }.event-label { font-family: system-ui, Arial; font-size: 9px; fill: #666; text-anchor: middle; }.region-label { font-family: system-ui, Arial; font-size: 10px; fill: #999; font-style: italic; }.region-box { fill: none; stroke: #ddd; stroke-width: 1; stroke-dasharray: 3,3; }.chart-title { font-family: system-ui, Arial; font-size: 14px; font-weight: bold; fill: #333; }</style><marker id="sm-arrowhead" markerWidth="10" markerHeight="7" refX="9" refY="3.5" orient="auto"><polygon points="0 0, 10 3.5, 0 7" class="arrowhead"/></marker></defs>
<text x="-100.0" y="-60.0" class="chart-title">Traffic Light</text>
<rect x="-60.0" y="-30.0" width="120.0" height="200.0" class="region-box"/>
<text x="-55.0" y="-35.0" class="region-label">light</text>
<path d="M 50.0 0.0 C 4.1 0.0 4.1 64.3 -41.8 64.3" class="transition" marker-end="url(#sm-arrowhead)"/>
<text x="4.1" y="22.1" class="event-label">timer</text>
<path d="M 50.0 70.0 C 4.1 70.0 4.1 134.3 -41.8 134.3" class="transition" marker-end="url(#sm-arrowhead)"/>
<text x="4.1" y="92.1" class="event-label">timer</text>
<path d="M 50.0 140.0 C 2.9 140.0 2.9 8.1 -44.2 8.1" class="transition" marker-end="url(#sm-arrowhead)"/>
<text x="2.9" y="64.1" class="event-label">timer</text>
<rect x="-50.0" y="120.0" width="100.0" height="40.0" rx="8" fill="#e3f2fd" stroke="#1976d2" class="state"/>
<text x="0.0" y="140.0" class="state-label">yellow</text>
<rect x="-50.0" y="50.0" width="100.0" height="40.0" rx="8" fill="#e3f2fd" stroke="#1976d2" class="state"/>
<text x="0.0" y="70.0" class="state-label">green</text>
<rect x="-50.0" y="-20.0" width="100.0" height="40.0" rx="8" fill="#e3f2fd" stroke="#1976d2" class="state state-initial"/>
<text x="0.0" y="0.0" class="state-label">red</text>
<circle cx="-70.0" cy="0.0" r="6" class="initial-marker"/>
<line x1="-62.0" y1="0.0" x2="-52.0" y2="0.0" stroke="#333" stroke-width="1.5" marker-end="url(#sm-arrowhead)"/>
</svg>
