<svg xmlns="http://www.w3.org/2000/svg" viewBox="-110.0 -80.0 220.0 570.0" width="220" height="570">
<defs><style>.state { stroke-width: 2; rx: 8; }.state-initial { stroke-width: 3; }.state-composite { stroke-dasharray: 5,3; }.transition { stroke: #666; stroke-width: 1.5; fill: none; }.transition-self { stroke: #999; }.arrowhead { fill: #666; }.initial-marker { fill: #333; }.state-label { font-family: system-ui, Arial; font-size: 11px; fill: #333; text-anchor: middle; dominant-baseline: middle; }.event-label { font-family: system-ui, Arial; font-size: 9px; fill: #666; text-anchor: middle; }.region-label { font-family: system-ui, Arial; font-size: 10px; fill: #999; font-style: italic; }.region-box { fill: none; stroke: #ddd; stroke-width: 1; stroke-dasharray: 3,3; }.chart-title { font-family: system-ui, Arial; font-size: 14px; font-weight: bold; fill: #333; }</style><marker id="sm-arrowhead" markerWidth="10" markerHeight="7" refX="9" refY="3.5" orient="auto"><polygon points="0 0, 10 3.5, 0 7" class="arrowhead"/></marker></defs>
<text x="-100.0" y="-60.0" class="chart-title">Media Player</text>
<rect x="-60.0" y="-30.0" width="120.0" height="200.0" class="region-box"/>
<text x="-55.0" y="-35.0" class="region-label">playback</text>
<rect x="-60.0" y="310.0" width="120.0" height="130.0" class="region-box"/>
<text x="-55.0" y="305.0" class="region-label">volume</text>
<path d="M 50.0 0.0 C 4.1 0.0 4.1 64.3 -41.8 64.3" class="transition" marker-end="url(#sm-arrowhead)"/>
<text x="4.1" y="22.1" class="event-label">play</text>
<path d="M 50.0 70.0 C 4.1 70.0 4.1 134.3 -41.8 134.3" class="transition" marker-end="url(#sm-arrowhead)"/>
<text x="4.1" y="92.1" class="event-label">pause</text>
<path d="M 50.0 140.0 C 4.1 140.0 4.1 75.7 -41.8 75.7" class="transition" marker-end="url(#sm-arrowhead)"/>
<text x="4.1" y="97.9" class="event-label">resume</text>
<path d="M 50.0 70.0 C 4.1 70.0 4.1 5.7 -41.8 5.7" class="transition" marker-end="url(#sm-arrowhead)"/>
<text x="4.1" y="27.9" class="event-label">stop</text>
<path d="M 50.0 140.0 C 2.9 140.0 2.9 8.1 -44.2 8.1" class="transition" marker-end="url(#sm-arrowhead)"/>
<text x="2.9" y="64.1" class="event-label">stop</text>
<path d="M 50.0 340.0 C 4.1 340.0 4.1 404.3 -41.8 404.3" class="transition" marker-end="url(#sm-arrowhead)"/>
<text x="4.1" y="362.1" class="event-label">mute</text>
<path d="M 50.0 410.0 C 4.1 410.0 4.1 345.7 -41.8 345.7" class="transition" marker-end="url(#sm-arrowhead)"/>
<text x="4.1" y="367.9" class="event-label">unmute</text>
<rect x="-50.0" y="50.0" width="100.0" height="40.0" rx="8" fill="#e3f2fd" stroke="#1976d2" class="state"/>
<text x="0.0" y="70.0" class="state-label">playing</text>
<rect x="-50.0" y="120.0" width="100.0" height="40.0" rx="8" fill="#e3f2fd" stroke="#1976d2" class="state"/>
<text x="0.0" y="140.0" class="state-label">paused</text>
<rect x="-50.0" y="-20.0" width="100.0" height="40.0" rx="8" fill="#e3f2fd" stroke="#1976d2" class="state state-initial"/>
<text x="0.0" y="0.0" class="state-label">stopped</text>
<rect x="-50.0" y="390.0" width="100.0" height="40.0" rx="8" fill="#f3e5f5" stroke="#7b1fa2" class="state"/>
<text x="0.0" y="410.0" class="state-label">muted</text>
<rect x="-50.0" y="320.0" width="100.0" height="40.0" rx="8" fill="#f3e5f5" stroke="#7b1fa2" class="state state-initial"/>
<text x="0.0" y="340.0" class="state-label">normal</text>
<circle cx="-70.0" cy="0.0" r="6" class="initial-marker"/>
<line x1="-62.0" y1="0.0" x2="-52.0" y2="0.0" stroke="#333" stroke-width="1.5" marker-end="url(#sm-arrowhead)"/>
<circle cx="-70.0" cy="340.0" r="6" class="initial-marker"/>
<line x1="-62.0" y1="340.0" x2="-52.0" y2="340.0" stroke="#333" stroke-width="1.5" marker-end="url(#sm-arrowhead)"/>
</svg>
