<svg xmlns="http://www.w3.org/2000/svg" viewBox="50.0 0.0 350.0 250.0" width="350" height="250">
<defs><style>.place { fill: #fff; stroke: #333; stroke-width: 2; }.place-cap-full { fill: #ffebee; }.transition { fill: #ffffff; stroke: #000; stroke-width: 1; }.transition-active { fill: #62fa75; stroke: #000; }.arc { stroke: #cfcfcf; stroke-width: 1; fill: none; }.arc-active { stroke: #2a6fb8; }.arrowhead { fill: #cfcfcf; }.arrowhead-active { fill: #2a6fb8; }.inhibitor { fill: #fff; stroke: #cfcfcf; stroke-width: 1.3; }.inhibitor-active { stroke: #2a6fb8; }.token-dot { fill: #333; }.token-text { font-family: system-ui, Arial; font-size: 12px; fill: #333; text-anchor: middle; dominant-baseline: middle; }.weight-badge { font-family: system-ui, Arial; font-size: 10px; fill: #666; text-anchor: middle; dominant-baseline: middle; }.weight-bg { fill: #fafafa; stroke: #ddd; stroke-width: 1; }.weight-bg-active { fill: #e8f0fb; stroke: #2a6fb8; }.label-text { font-family: system-ui, Arial; font-size: 11px; fill: #333; text-anchor: middle; dominant-baseline: hanging; }</style></defs>
<line x1="118.0" y1="100.0" x2="125.8" y2="100.0" stroke="#000000" stroke-width="1" fill="none"/>
<path d="M 125.8 100.0 L 117.8 103.6 L 117.8 96.4 Z" fill="#000000"/>
<circle cx="121.9" cy="100.0" r="10" fill="#d8d8d8" stroke="#000000" stroke-width="1"/>
<text x="121.9" y="100.0" font-family="system-ui, Arial" font-size="10px" fill="#000000" text-anchor="middle" dominant-baseline="middle">1</text>
<line x1="162.0" y1="88.0" x2="182.2" y2="67.8" stroke="#000000" stroke-width="1" fill="none"/>
<path d="M 182.2 67.8 L 179.1 76.0 L 174.0 70.9 Z" fill="#000000"/>
<circle cx="172.1" cy="77.9" r="10" fill="#d8d8d8" stroke="#000000" stroke-width="1"/>
<text x="172.1" y="77.9" font-family="system-ui, Arial" font-size="10px" fill="#000000" text-anchor="middle" dominant-baseline="middle">1</text>
<line x1="218.0" y1="50.0" x2="225.8" y2="50.0" stroke="#999999" stroke-width="1" fill="none"/>
<path d="M 225.8 50.0 L 217.8 53.6 L 217.8 46.4 Z" fill="#999999"/>
<circle cx="221.9" cy="50.0" r="10" fill="#fafafa" stroke="#999999" stroke-width="1"/>
<text x="221.9" y="50.0" font-family="system-ui, Arial" font-size="10px" fill="#666" text-anchor="middle" dominant-baseline="middle">1</text>
<line x1="250.0" y1="67.0" x2="250.0" y2="174.8" stroke="#999999" stroke-width="1" fill="none"/>
<path d="M 250.0 174.8 L 246.4 166.8 L 253.6 166.8 Z" fill="#999999"/>
<circle cx="250.0" cy="120.9" r="10" fill="#fafafa" stroke="#999999" stroke-width="1"/>
<text x="250.0" y="120.9" font-family="system-ui, Arial" font-size="10px" fill="#666" text-anchor="middle" dominant-baseline="middle">1</text>
<line x1="218.0" y1="50.0" x2="275.8" y2="50.0" stroke="#999999" stroke-width="1" fill="none"/>
<path d="M 275.8 50.0 L 267.8 53.6 L 267.8 46.4 Z" fill="#999999"/>
<circle cx="246.9" cy="50.0" r="10" fill="#fafafa" stroke="#999999" stroke-width="1"/>
<text x="246.9" y="50.0" font-family="system-ui, Arial" font-size="10px" fill="#666" text-anchor="middle" dominant-baseline="middle">1</text>
<line x1="317.0" y1="50.0" x2="324.8" y2="50.0" stroke="#999999" stroke-width="1" fill="none"/>
<path d="M 324.8 50.0 L 316.8 53.6 L 316.8 46.4 Z" fill="#999999"/>
<circle cx="320.9" cy="50.0" r="10" fill="#fafafa" stroke="#999999" stroke-width="1"/>
<text x="320.9" y="50.0" font-family="system-ui, Arial" font-size="10px" fill="#666" text-anchor="middle" dominant-baseline="middle">1</text>
<line x1="212.7" y1="62.7" x2="232.9" y2="82.9" stroke="#999999" stroke-width="1" fill="none"/>
<path d="M 232.9 82.9 L 224.7 79.8 L 229.8 74.7 Z" fill="#999999"/>
<circle cx="222.8" cy="72.8" r="10" fill="#fafafa" stroke="#999999" stroke-width="1"/>
<text x="222.8" y="72.8" font-family="system-ui, Arial" font-size="10px" fill="#666" text-anchor="middle" dominant-baseline="middle">1</text>
<line x1="238.0" y1="112.0" x2="217.8" y2="132.2" stroke="#999999" stroke-width="1" fill="none"/>
<path d="M 217.8 132.2 L 220.9 124.0 L 226.0 129.1 Z" fill="#999999"/>
<circle cx="227.9" cy="122.1" r="10" fill="#fafafa" stroke="#999999" stroke-width="1"/>
<text x="227.9" y="122.1" font-family="system-ui, Arial" font-size="10px" fill="#666" text-anchor="middle" dominant-baseline="middle">1</text>
<line x1="218.0" y1="150.0" x2="225.8" y2="150.0" stroke="#999999" stroke-width="1" fill="none"/>
<path d="M 225.8 150.0 L 217.8 153.6 L 217.8 146.4 Z" fill="#999999"/>
<circle cx="221.9" cy="150.0" r="10" fill="#fafafa" stroke="#999999" stroke-width="1"/>
<text x="221.9" y="150.0" font-family="system-ui, Arial" font-size="10px" fill="#666" text-anchor="middle" dominant-baseline="middle">1</text>
<line x1="250.0" y1="167.0" x2="250.0" y2="174.8" stroke="#999999" stroke-width="1" fill="none"/>
<path d="M 250.0 174.8 L 246.4 166.8 L 253.6 166.8 Z" fill="#999999"/>
<circle cx="250.0" cy="170.9" r="10" fill="#fafafa" stroke="#999999" stroke-width="1"/>
<text x="250.0" y="170.9" font-family="system-ui, Arial" font-size="10px" fill="#666" text-anchor="middle" dominant-baseline="middle">1</text>
<line x1="218.0" y1="150.0" x2="275.8" y2="150.0" stroke="#999999" stroke-width="1" fill="none"/>
<path d="M 275.8 150.0 L 267.8 153.6 L 267.8 146.4 Z" fill="#999999"/>
<circle cx="246.9" cy="150.0" r="10" fill="#fafafa" stroke="#999999" stroke-width="1"/>
<text x="246.9" y="150.0" font-family="system-ui, Arial" font-size="10px" fill="#666" text-anchor="middle" dominant-baseline="middle">1</text>
<line x1="317.0" y1="150.0" x2="324.8" y2="150.0" stroke="#999999" stroke-width="1" fill="none"/>
<path d="M 324.8 150.0 L 316.8 153.6 L 316.8 146.4 Z" fill="#999999"/>
<circle cx="320.9" cy="150.0" r="10" fill="#fafafa" stroke="#999999" stroke-width="1"/>
<text x="320.9" y="150.0" font-family="system-ui, Arial" font-size="10px" fill="#666" text-anchor="middle" dominant-baseline="middle">1</text>
<line x1="212.7" y1="137.3" x2="232.9" y2="117.1" stroke="#999999" stroke-width="1" fill="none"/>
<path d="M 232.9 117.1 L 229.8 125.3 L 224.7 120.2 Z" fill="#999999"/>
<circle cx="222.8" cy="127.2" r="10" fill="#fafafa" stroke="#999999" stroke-width="1"/>
<text x="222.8" y="127.2" font-family="system-ui, Arial" font-size="10px" fill="#666" text-anchor="middle" dominant-baseline="middle">1</text>
<line x1="238.0" y1="88.0" x2="217.8" y2="67.8" stroke="#999999" stroke-width="1" fill="none"/>
<path d="M 217.8 67.8 L 226.0 70.9 L 220.9 76.0 Z" fill="#999999"/>
<circle cx="227.9" cy="77.9" r="10" fill="#fafafa" stroke="#999999" stroke-width="1"/>
<text x="227.9" y="77.9" font-family="system-ui, Arial" font-size="10px" fill="#666" text-anchor="middle" dominant-baseline="middle">1</text>
<line x1="216.1" y1="58.0" x2="278.4" y2="89.2" stroke="#999999" stroke-width="1" fill="none"/>
<path d="M 278.4 89.2 L 269.6 88.8 L 272.8 82.4 Z" fill="#999999"/>
<circle cx="247.2" cy="73.6" r="10" fill="#fafafa" stroke="#999999" stroke-width="1"/>
<text x="247.2" y="73.6" font-family="system-ui, Arial" font-size="10px" fill="#666" text-anchor="middle" dominant-baseline="middle">1</text>
<line x1="216.1" y1="142.0" x2="278.4" y2="110.8" stroke="#999999" stroke-width="1" fill="none"/>
<path d="M 278.4 110.8 L 272.8 117.6 L 269.6 111.2 Z" fill="#999999"/>
<circle cx="247.2" cy="126.4" r="10" fill="#fafafa" stroke="#999999" stroke-width="1"/>
<text x="247.2" y="126.4" font-family="system-ui, Arial" font-size="10px" fill="#666" text-anchor="middle" dominant-baseline="middle">1</text>
<line x1="317.0" y1="100.0" x2="324.8" y2="100.0" stroke="#999999" stroke-width="1" fill="none"/>
<path d="M 324.8 100.0 L 316.8 103.6 L 316.8 96.4 Z" fill="#999999"/>
<circle cx="320.9" cy="100.0" r="10" fill="#fafafa" stroke="#999999" stroke-width="1"/>
<text x="320.9" y="100.0" font-family="system-ui, Arial" font-size="10px" fill="#666" text-anchor="middle" dominant-baseline="middle">1</text>
<circle cx="350.0" cy="100.0" r="16.0" class="place"/>
<text x="350.0" y="122.0" class="label-text">Draw</text>
<circle cx="250.0" cy="200.0" r="16.0" class="place"/>
<text x="250.0" y="222.0" class="label-text">Moves Made</text>
<circle cx="200.0" cy="150.0" r="16.0" class="place"/>
<text x="200.0" y="172.0" class="label-text">O&apos;s Turn</text>
<circle cx="350.0" cy="150.0" r="16.0" class="place"/>
<text x="350.0" y="172.0" class="label-text">O Wins</text>
<circle cx="100.0" cy="100.0" r="16.0" class="place"/>
<circle cx="100.0" cy="100.0" r="3" class="token-dot"/>
<text x="100.0" y="122.0" class="label-text">Game Start</text>
<circle cx="200.0" cy="50.0" r="16.0" class="place"/>
<text x="200.0" y="72.0" class="label-text">X&apos;s Turn</text>
<circle cx="350.0" cy="50.0" r="16.0" class="place"/>
<text x="350.0" y="72.0" class="label-text">X Wins</text>
<rect x="135.0" y="85.0" width="30.0" height="30.0" rx="4.0" ry="4.0" class="transition transition-active"/>
<text x="150.0" y="121.0" class="label-text">Initialize</text>
<rect x="235.0" y="35.0" width="30.0" height="30.0" rx="4.0" ry="4.0" class="transition"/>
<text x="250.0" y="71.0" class="label-text">X Places Mark</text>
<rect x="235.0" y="85.0" width="30.0" height="30.0" rx="4.0" ry="4.0" class="transition"/>
<text x="250.0" y="121.0" class="label-text">X No Win</text>
<rect x="285.0" y="35.0" width="30.0" height="30.0" rx="4.0" ry="4.0" class="transition"/>
<text x="300.0" y="71.0" class="label-text">X Gets 3</text>
<rect x="285.0" y="85.0" width="30.0" height="30.0" rx="4.0" ry="4.0" class="transition"/>
<text x="300.0" y="121.0" class="label-text">Board Full</text>
<rect x="235.0" y="135.0" width="30.0" height="30.0" rx="4.0" ry="4.0" class="transition"/>
<text x="250.0" y="171.0" class="label-text">O Places Mark</text>
<rect x="235.0" y="85.0" width="30.0" height="30.0" rx="4.0" ry="4.0" class="transition"/>
<text x="250.0" y="121.0" class="label-text">O No Win</text>
<rect x="285.0" y="135.0" width="30.0" height="30.0" rx="4.0" ry="4.0" class="transition"/>
<text x="300.0" y="171.0" class="label-text">O Gets 3</text>
</svg>
