<svg xmlns="http://www.w3.org/2000/svg" viewBox="50.0 0.0 400.0 150.0" width="400" height="150">
<defs><style>.place { fill: #fff; stroke: #333; stroke-width: 2; }.place-cap-full { fill: #ffebee; }.transition { fill: #ffffff; stroke: #000; stroke-width: 1; }.transition-active { fill: #62fa75; stroke: #000; }.arc { stroke: #cfcfcf; stroke-width: 1; fill: none; }.arc-active { stroke: #2a6fb8; }.arrowhead { fill: #cfcfcf; }.arrowhead-active { fill: #2a6fb8; }.inhibitor { fill: #fff; stroke: #cfcfcf; stroke-width: 1.3; }.inhibitor-active { stroke: #2a6fb8; }.token-dot { fill: #333; }.token-text { font-family: system-ui, Arial; font-size: 12px; fill: #333; text-anchor: middle; dominant-baseline: middle; }.weight-badge { font-family: system-ui, Arial; font-size: 10px; fill: #666; text-anchor: middle; dominant-baseline: middle; }.weight-bg { fill: #fafafa; stroke: #ddd; stroke-width: 1; }.weight-bg-active { fill: #e8f0fb; stroke: #2a6fb8; }.label-text { font-family: system-ui, Arial; font-size: 11px; fill: #333; text-anchor: middle; dominant-baseline: hanging; }</style></defs>
<path d="M 112.7 62.7 Q 101.6 94.0 132.9 82.9" stroke="#000000" stroke-width="1" fill="none"/>
<path d="M 132.9 82.9 L 126.6 89.0 L 124.1 82.2 Z" fill="#000000"/>
<circle cx="112.2" cy="83.4" r="10" fill="#d8d8d8" stroke="#000000" stroke-width="1"/>
<text x="112.2" y="83.4" font-family="system-ui, Arial" font-size="10px" fill="#000000" text-anchor="middle" dominant-baseline="middle">1</text>
<line x1="167.0" y1="100.0" x2="174.8" y2="100.0" stroke="#000000" stroke-width="1" fill="none"/>
<path d="M 174.8 100.0 L 166.8 103.6 L 166.8 96.4 Z" fill="#000000"/>
<circle cx="170.9" cy="100.0" r="10" fill="#d8d8d8" stroke="#000000" stroke-width="1"/>
<text x="170.9" y="100.0" font-family="system-ui, Arial" font-size="10px" fill="#000000" text-anchor="middle" dominant-baseline="middle">1</text>
<path d="M 138.0 88.0 Q 149.1 56.7 117.8 67.8" stroke="#000000" stroke-width="1" fill="none"/>
<path d="M 117.8 67.8 L 124.1 61.7 L 126.6 68.5 Z" fill="#000000"/>
<circle cx="138.5" cy="67.3" r="10" fill="#d8d8d8" stroke="#000000" stroke-width="1"/>
<text x="138.5" y="67.3" font-family="system-ui, Arial" font-size="10px" fill="#000000" text-anchor="middle" dominant-baseline="middle">1</text>
<line x1="218.0" y1="100.0" x2="225.8" y2="100.0" stroke="#999999" stroke-width="1" fill="none"/>
<path d="M 225.8 100.0 L 217.8 103.6 L 217.8 96.4 Z" fill="#999999"/>
<circle cx="221.9" cy="100.0" r="10" fill="#fafafa" stroke="#999999" stroke-width="1"/>
<text x="221.9" y="100.0" font-family="system-ui, Arial" font-size="10px" fill="#666" text-anchor="middle" dominant-baseline="middle">1</text>
<path d="M 287.3 62.7 Q 256.0 51.6 267.1 82.9" stroke="#999999" stroke-width="1" fill="none"/>
<path d="M 267.1 82.9 L 261.0 76.6 L 267.8 74.1 Z" fill="#999999"/>
<circle cx="266.6" cy="62.2" r="10" fill="#fafafa" stroke="#999999" stroke-width="1"/>
<text x="266.6" y="62.2" font-family="system-ui, Arial" font-size="10px" fill="#666" text-anchor="middle" dominant-baseline="middle">1</text>
<line x1="267.0" y1="100.0" x2="374.8" y2="100.0" stroke="#999999" stroke-width="1" fill="none"/>
<path d="M 374.8 100.0 L 366.8 103.6 L 366.8 96.4 Z" fill="#999999"/>
<circle cx="320.9" cy="100.0" r="10" fill="#fafafa" stroke="#999999" stroke-width="1"/>
<text x="320.9" y="100.0" font-family="system-ui, Arial" font-size="10px" fill="#666" text-anchor="middle" dominant-baseline="middle">1</text>
<path d="M 262.0 88.0 Q 293.3 99.1 282.2 67.8" stroke="#999999" stroke-width="1" fill="none"/>
<path d="M 282.2 67.8 L 288.3 74.1 L 281.5 76.6 Z" fill="#999999"/>
<circle cx="282.7" cy="88.5" r="10" fill="#fafafa" stroke="#999999" stroke-width="1"/>
<text x="282.7" y="88.5" font-family="system-ui, Arial" font-size="10px" fill="#666" text-anchor="middle" dominant-baseline="middle">1</text>
<circle cx="400.0" cy="100.0" r="16.0" class="place"/>
<text x="400.0" y="122.0" class="label-text">Consumed Items</text>
<circle cx="300.0" cy="50.0" r="16.0" class="place"/>
<circle cx="300.0" cy="50.0" r="3" class="token-dot"/>
<text x="300.0" y="72.0" class="label-text">Consumers Ready</text>
<circle cx="100.0" cy="50.0" r="16.0" class="place"/>
<circle cx="100.0" cy="50.0" r="3" class="token-dot"/>
<text x="100.0" y="72.0" class="label-text">Producers Ready</text>
<circle cx="200.0" cy="100.0" r="16.0" class="place"/>
<text x="200.0" y="122.0" class="label-text">Buffer</text>
<rect x="135.0" y="85.0" width="30.0" height="30.0" rx="4.0" ry="4.0" class="transition transition-active"/>
<text x="150.0" y="121.0" class="label-text">Produce</text>
<rect x="235.0" y="85.0" width="30.0" height="30.0" rx="4.0" ry="4.0" class="transition"/>
<text x="250.0" y="121.0" class="label-text">Consume</text>
</svg>
