<svg xmlns="http://www.w3.org/2000/svg" width="800" height="600" style="background:white;" id="plot_1090000000"><text x="400.000000" y="25" text-anchor="middle" font-family="Arial, sans-serif" font-size="16" font-weight="bold">sir_model</text><line x1="60.000000" y1="40.000000" x2="60.000000" y2="550.000000" stroke="#333" stroke-width="2"/><line x1="60.000000" y1="550.000000" x2="770.000000" y2="550.000000" stroke="#333" stroke-width="2"/><text x="415.000000" y="590.000000" text-anchor="middle" font-family="Arial, sans-serif" font-size="12">Time</text><text x="15" y="295.000000" text-anchor="middle" font-family="Arial, sans-serif" font-size="12" transform="rotate(-90, 15, 295.000000)">Value</text><line x1="60.000000" y1="550.000000" x2="60.000000" y2="555.000000" stroke="#333" stroke-width="1"/><text x="60.000000" y="570.000000" text-anchor="middle" font-family="Arial, sans-serif" font-size="10">-5.0</text><line x1="60.000000" y1="40.000000" x2="60.000000" y2="550.000000" stroke="#ddd" stroke-width="0.5"/><line x1="202.000000" y1="550.000000" x2="202.000000" y2="555.000000" stroke="#333" stroke-width="1"/><text x="202.000000" y="570.000000" text-anchor="middle" font-family="Arial, sans-serif" font-size="10">17.0</text><line x1="202.000000" y1="40.000000" x2="202.000000" y2="550.000000" stroke="#ddd" stroke-width="0.5"/><line x1="344.000000" y1="550.000000" x2="344.000000" y2="555.000000" stroke="#333" stroke-width="1"/><text x="344.000000" y="570.000000" text-anchor="middle" font-family="Arial, sans-serif" font-size="10">39.0</text><line x1="344.000000" y1="40.000000" x2="344.000000" y2="550.000000" stroke="#ddd" stroke-width="0.5"/><line x1="486.000000" y1="550.000000" x2="486.000000" y2="555.000000" stroke="#333" stroke-width="1"/><text x="486.000000" y="570.000000" text-anchor="middle" font-family="Arial, sans-serif" font-size="10">61.0</text><line x1="486.000000" y1="40.000000" x2="486.000000" y2="550.000000" stroke="#ddd" stroke-width="0.5"/><line x1="628.000000" y1="550.000000" x2="628.000000" y2="555.000000" stroke="#333" stroke-width="1"/><text x="628.000000" y="570.000000" text-anchor="middle" font-family="Arial, sans-serif" font-size="10">83.0</text><line x1="628.000000" y1="40.000000" x2="628.000000" y2="550.000000" stroke="#ddd" stroke-width="0.5"/><line x1="770.000000" y1="550.000000" x2="770.000000" y2="555.000000" stroke="#333" stroke-width="1"/><text x="770.000000" y="570.000000" text-anchor="middle" font-family="Arial, sans-serif" font-size="10">105.0</text><line x1="770.000000" y1="40.000000" x2="770.000000" y2="550.000000" stroke="#ddd" stroke-width="0.5"/><line x1="55.000000" y1="550.000000" x2="60.000000" y2="550.000000" stroke="#333" stroke-width="1"/><text x="50.000000" y="554.000000" text-anchor="end" font-family="Arial, sans-serif" font-size="10">-99.0</text><line x1="60.000000" y1="550.000000" x2="770.000000" y2="550.000000" stroke="#ddd" stroke-width="0.5"/><line x1="55.000000" y1="448.000000" x2="60.000000" y2="448.000000" stroke="#333" stroke-width="1"/><text x="50.000000" y="452.000000" text-anchor="end" font-family="Arial, sans-serif" font-size="10">138.6</text><line x1="60.000000" y1="448.000000" x2="770.000000" y2="448.000000" stroke="#ddd" stroke-width="0.5"/><line x1="55.000000" y1="346.000000" x2="60.000000" y2="346.000000" stroke="#333" stroke-width="1"/><text x="50.000000" y="350.000000" text-anchor="end" font-family="Arial, sans-serif" font-size="10">376.2</text><line x1="60.000000" y1="346.000000" x2="770.000000" y2="346.000000" stroke="#ddd" stroke-width="0.5"/><line x1="55.000000" y1="244.000000" x2="60.000000" y2="244.000000" stroke="#333" stroke-width="1"/><text x="50.000000" y="248.000000" text-anchor="end" font-family="Arial, sans-serif" font-size="10">613.8</text><line x1="60.000000" y1="244.000000" x2="770.000000" y2="244.000000" stroke="#ddd" stroke-width="0.5"/><line x1="55.000000" y1="142.000000" x2="60.000000" y2="142.000000" stroke="#333" stroke-width="1"/><text x="50.000000" y="146.000000" text-anchor="end" font-family="Arial, sans-serif" font-size="10">851.4</text><line x1="60.000000" y1="142.000000" x2="770.000000" y2="142.000000" stroke="#ddd" stroke-width="0.5"/><line x1="55.000000" y1="40.000000" x2="60.000000" y2="40.000000" stroke="#333" stroke-width="1"/><text x="50.000000" y="44.000000" text-anchor="end" font-family="Arial, sans-serif" font-size="10">1089.0</text><line x1="60.000000" y1="40.000000" x2="770.000000" y2="40.000000" stroke="#ddd" stroke-width="0.5"/><path d="M92.272727,503.207071 L92.274355,503.206857 L92.275987,503.206644 L92.277688,503.206421 L92.279677,503.206160 L92.282266,503.205821 L92.285051,503.205456 L92.288321,503.205027 L92.292159,503.204524 L92.297158,503.203869 L92.302534,503.203164 L92.308846,503.202336 L92.317064,503.201258 L92.325903,503.200098 L92.336279,503.198736 L92.349787,503.196962 L92.364313,503.195054 L92.381363,503.192814 L92.403554,503.189896 L92.427413,503.186756 L92.455409,503.183070 L92.488254,503.178740 L92.530985,503.173102 L92.576902,503.167035 L92.630745,503.159910 L92.700752,503.150629 L92.775923,503.140643 L92.863997,503.128913 L92.978394,503.113631 L93.101082,503.097184 L93.244640,503.077863 L93.430793,503.052686 L93.630053,503.025581 L93.862706,502.993730 L94.134096,502.956296 L94.484675,502.907489 L94.858286,502.854913 L95.292382,502.793088 L95.850443,502.712428 L96.441878,502.625475 L97.124884,502.523145 L97.996505,502.389516 L98.912571,502.245313 L99.960952,502.075428 L101.284574,501.853314 L102.659161,501.613322 L104.212491,501.330234 L106.145075,500.959626 L108.120375,500.558678 L110.316281,500.085201 L112.742985,499.525943 L115.688179,498.792947 L118.621766,497.999366 L121.801396,497.062067 L125.582041,495.834384 L129.272390,494.507024 L133.198017,492.942559 L137.778952,490.899977 L142.173111,488.701169 L146.777102,486.123727 L152.074394,482.783324 L157.094874,479.220479 L162.306107,475.089654 L167.707083,470.325582 L173.870846,464.280363 L179.685242,457.997518 L185.714897,450.931925 L192.621768,442.256658 L199.074253,433.748991 L205.528799,425.055374 L212.628799,415.570868 L219.083344,407.309561 L225.537890,399.669737 L232.637890,392.276960 L239.092435,386.693739 L245.546981,382.339978 L252.001526,379.289962 L259.101526,377.450634 L265.556072,377.102438 L272.010617,377.916493 L279.110617,380.002101 L285.565162,382.822649 L292.019708,386.367740 L299.119708,390.928122 L305.574253,395.525172 L312.028799,400.423721 L319.128799,406.031256 L325.583344,411.228254 L332.037890,416.440558 L338.492435,421.605853 L345.592435,427.174312 L352.046981,432.091959 L358.501526,436.842292 L365.601526,441.850091 L372.056072,446.189992 L378.510617,450.318885 L385.610617,454.612528 L392.065162,458.290019 L398.519708,461.755034 L405.619708,465.326682 L412.074253,468.362297 L418.528799,471.204206 L424.983344,473.860513 L432.083344,476.578340 L438.537890,478.873162 L444.992435,481.009695 L452.092435,483.187701 L458.546981,485.020692 L465.001526,486.722493 L472.101526,488.452782 L478.556072,489.905545 L485.010617,491.251609 L492.110617,492.617598 L498.565162,493.762513 L505.019708,494.821767 L512.119708,495.895188 L518.574253,496.793737 L525.028799,497.624141 L531.483344,498.391345 L538.583344,499.167779 L545.037890,499.816936 L551.492435,500.416235 L558.592435,501.022306 L565.046981,501.528694 L571.501526,501.995922 L578.601526,502.468173 L585.056072,502.862553 L591.510617,503.226277 L598.610617,503.593758 L605.065162,503.900527 L611.519708,504.183357 L617.974253,504.444091 L625.074253,504.707413 L631.528799,504.927149 L637.983344,505.129672 L645.083344,505.334158 L651.537890,505.504763 L657.992435,505.661975 L665.092435,505.820684 L671.546981,505.953075 L678.001526,506.075056 L685.101526,506.198182 L691.556072,506.300879 L698.010617,506.395490 L704.465162,506.482651 L711.565162,506.570618 L718.019708,506.643981 L724.474253,506.711561 L731.574253,506.779761 L737.727273,506.834080" stroke="#2563eb" stroke-width="2" fill="none"/><path d="M92.272727,507.500000 L92.274355,507.499892 L92.275987,507.499783 L92.277688,507.499670 L92.279677,507.499538 L92.282266,507.499365 L92.285051,507.499180 L92.288321,507.498963 L92.292159,507.498707 L92.297158,507.498375 L92.302534,507.498017 L92.308846,507.497596 L92.317064,507.497049 L92.325903,507.496460 L92.336279,507.495769 L92.349787,507.494869 L92.364313,507.493900 L92.381363,507.492763 L92.403554,507.491281 L92.427413,507.489687 L92.455409,507.487816 L92.488254,507.485618 L92.530985,507.482755 L92.576902,507.479675 L92.630745,507.476058 L92.700752,507.471345 L92.775923,507.466274 L92.863997,507.460318 L92.978394,507.452557 L93.101082,507.444204 L93.244640,507.434390 L93.430793,507.421600 L93.630053,507.407829 L93.862706,507.391643 L94.134096,507.372618 L94.484675,507.347806 L94.858286,507.321071 L95.292382,507.289623 L95.850443,507.248580 L96.441878,507.204314 L97.124884,507.152193 L97.996505,507.084087 L98.912571,507.010537 L99.960952,506.923816 L101.284574,506.810312 L102.659161,506.687520 L104.212491,506.542472 L106.145075,506.352244 L108.120375,506.146011 L110.316281,505.901891 L112.742985,505.612727 L115.688179,505.232383 L118.621766,504.818863 L121.801396,504.328099 L125.582041,503.681384 L129.272390,502.977098 L133.198017,502.140126 L137.778952,501.035910 L142.173111,499.832349 L146.777102,498.401244 L152.074394,496.512648 L157.094874,494.454155 L162.306107,492.007216 L167.707083,489.099358 L173.870846,485.265887 L179.685242,481.093693 L185.714897,476.143387 L192.621768,469.630870 L199.074253,462.685810 L205.528799,454.876596 L212.628799,445.283785 L219.083344,435.673730 L225.537890,425.266438 L232.637890,412.987530 L239.092435,401.176305 L245.546981,388.867334 L252.001526,376.187831 L259.101526,361.969183 L265.556072,348.936692 L272.010617,335.928446 L279.110617,321.778347 L285.565162,309.162917 L292.019708,296.867025 L299.119708,283.787767 L305.574253,272.357425 L312.028799,261.402834 L319.128799,249.931315 L325.583344,240.043867 L332.037890,230.677460 L338.492435,221.830398 L345.592435,212.689637 L352.046981,204.904240 L358.501526,197.602443 L365.601526,190.107705 L372.056072,183.761441 L378.510617,177.838665 L385.610617,171.787283 L392.065162,166.684195 L398.519708,161.938202 L405.619708,157.104967 L412.074253,153.041062 L418.528799,149.270969 L424.983344,145.775716 L432.083344,142.226763 L438.537890,139.250694 L444.992435,136.496119 L452.092435,133.703578 L458.546981,131.365127 L465.001526,129.203344 L472.101526,127.014299 L478.556072,125.183135 L485.010617,123.491852 L492.110617,121.780720 L498.565162,120.350465 L505.019708,119.030367 L512.119708,117.695648 L518.574253,116.580683 L525.028799,115.552124 L531.483344,114.603405 L538.583344,113.644780 L545.037890,112.844448 L551.492435,112.106506 L558.592435,111.361116 L565.046981,110.739005 L571.501526,110.165549 L578.601526,109.586459 L585.056072,109.103261 L591.510617,108.657948 L598.610617,108.208350 L605.065162,107.833272 L611.519708,107.487658 L617.974253,107.169207 L625.074253,106.847756 L631.528799,106.579633 L637.983344,106.332612 L645.083344,106.083291 L651.537890,105.875353 L657.992435,105.683798 L665.092435,105.490475 L671.546981,105.329253 L678.001526,105.180743 L685.101526,105.030873 L691.556072,104.905896 L698.010617,104.790779 L704.465162,104.684746 L711.565162,104.577748 L718.019708,104.488528 L724.474253,104.406352 L731.574253,104.323431 L737.727273,104.257394" stroke="#dc2626" stroke-width="2" fill="none"/><path d="M92.272727,82.500000 L92.274355,82.500322 L92.275987,82.500644 L92.277688,82.500980 L92.279677,82.501373 L92.282266,82.501885 L92.285051,82.502435 L92.288321,82.503081 L92.292159,82.503840 L92.297158,82.504828 L92.302534,82.505891 L92.308846,82.507139 L92.317064,82.508764 L92.325903,82.510513 L92.336279,82.512566 L92.349787,82.515240 L92.364313,82.518116 L92.381363,82.521494 L92.403554,82.525894 L92.427413,82.530627 L92.455409,82.536185 L92.488254,82.542712 L92.530985,82.551213 L92.576902,82.560361 L92.630745,82.571103 L92.700752,82.585096 L92.775923,82.600154 L92.863997,82.617840 L92.978394,82.640882 L93.101082,82.665682 L93.244640,82.694817 L93.430793,82.732785 L93.630053,82.773661 L93.862706,82.821698 L94.134096,82.878158 L94.484675,82.951776 L94.858286,83.031087 L95.292382,83.124359 L95.850443,83.246063 L96.441878,83.377282 L97.124884,83.531733 L97.996505,83.733468 L98.912571,83.951220 L99.960952,84.207827 L101.284574,84.543445 L102.659161,84.906229 L104.212491,85.334364 L106.145075,85.895200 L108.120375,86.502382 L110.316281,87.219979 L112.742985,88.068401 L115.688179,89.181741 L118.621766,90.388842 L121.801396,91.816905 L125.582041,93.691302 L129.272390,95.722949 L133.198017,98.124386 L137.778952,101.271183 L142.173111,104.673553 L146.777102,108.682099 L152.074394,113.911099 L157.094874,119.532436 L162.306107,126.110201 L167.707083,133.782131 L173.870846,143.660821 L179.685242,154.115860 L185.714897,166.131759 L192.621768,181.319543 L199.074253,196.772270 L205.528799,213.275100 L212.628799,232.352418 L219.083344,250.223779 L225.537890,268.270896 L232.637890,287.942580 L239.092435,305.337027 L245.546981,321.999758 L252.001526,337.729277 L259.101526,353.787254 L265.556072,367.167941 L272.010617,379.362132 L279.110617,391.426622 L285.565162,401.221504 L292.019708,409.972306 L299.119708,418.491182 L305.574253,425.324473 L312.028799,431.380516 L319.128799,437.244500 L325.583344,441.934950 L332.037890,446.089052 L338.492435,449.770819 L345.592435,453.343122 L352.046981,456.210872 L358.501526,458.762336 L365.601526,461.249276 L372.056072,463.255638 L378.510617,465.049521 L385.610617,466.807259 L392.065162,468.232856 L398.519708,469.513835 L405.619708,470.775422 L412.074253,471.803712 L418.528799,472.731896 L424.983344,473.570842 L432.083344,474.401967 L438.537890,475.083214 L444.992435,475.701257 L452.092435,476.315792 L458.546981,476.821252 L465.001526,477.281234 L472.101526,477.739989 L478.556072,478.118390 L485.010617,478.463610 L492.110617,478.808753 L498.565162,479.094093 L505.019708,479.354937 L512.119708,479.616235 L518.574253,479.832650 L525.028799,480.030805 L531.483344,480.212320 L538.583344,480.394512 L545.037890,480.545687 L551.492435,480.684331 L558.592435,480.823649 L565.046981,480.939372 L571.501526,481.045599 L578.601526,481.152439 L585.056072,481.241257 L591.510617,481.322846 L598.610617,481.404962 L605.065162,481.473271 L611.519708,481.536056 L617.974253,481.593772 L625.074253,481.651902 L631.528799,481.700288 L637.983344,481.744787 L645.083344,481.789621 L651.537890,481.826954 L657.992435,481.861298 L665.092435,481.895912 L671.546981,481.924743 L678.001526,481.951272 L685.101526,481.978016 L691.556072,482.000296 L698.010617,482.020801 L704.465162,482.039674 L711.565162,482.058704 L718.019708,482.074562 L724.474253,482.089159 L731.574253,482.103879 L737.727273,482.115596" stroke="#16a34a" stroke-width="2" fill="none"/><line x1="720.000000" y1="50.000000" x2="740.000000" y2="50.000000" stroke="#2563eb" stroke-width="2"/><text x="745.000000" y="54.000000" font-family="Arial, sans-serif" font-size="10">I</text><line x1="720.000000" y1="70.000000" x2="740.000000" y2="70.000000" stroke="#dc2626" stroke-width="2"/><text x="745.000000" y="74.000000" font-family="Arial, sans-serif" font-size="10">R</text><line x1="720.000000" y1="90.000000" x2="740.000000" y2="90.000000" stroke="#16a34a" stroke-width="2"/><text x="745.000000" y="94.000000" font-family="Arial, sans-serif" font-size="10">S</text><g id="plot_1090000000_crosshair" style="display:none;"><line id="plot_1090000000_line" x1="0" y1="40.000000" x2="0" y2="550.000000" stroke="#666" stroke-width="1" stroke-dasharray="4,4"/><rect id="tooltip_bg" x="0" y="0" rx="4" ry="4" fill="white" stroke="#666" stroke-width="1" opacity="0.95"/><text id="tooltip_text" x="0" y="0" font-family="Arial, sans-serif" font-size="11" fill="#333"></text></g><rect id="plot_1090000000_overlay" x="60.000000" y="40.000000" width="710.000000" height="510.000000" fill="transparent" style="cursor:crosshair;"/></svg>