<svg xmlns="http://www.w3.org/2000/svg" viewBox="50.0 50.0 300.0 100.0" width="300" height="100">
<rect x="50.0" y="50.0" width="300.0" height="100.0" fill="#f8f9fa" rx="8"/>
<defs><style>.place { fill: #fff; stroke: #333; stroke-width: 2; }.place-cap-full { fill: #ffebee; }.transition { fill: #ffffff; stroke: #000; stroke-width: 1; }.transition-active { fill: #62fa75; stroke: #000; }.arc { stroke: #cfcfcf; stroke-width: 1; fill: none; }.arc-active { stroke: #2a6fb8; }.arrowhead { fill: #cfcfcf; }.arrowhead-active { fill: #2a6fb8; }.inhibitor { fill: #fff; stroke: #cfcfcf; stroke-width: 1.3; }.inhibitor-active { stroke: #2a6fb8; }.token-dot { fill: #333; }.token-text { font-family: system-ui, Arial; font-size: 12px; fill: #333; text-anchor: middle; dominant-baseline: middle; }.weight-badge { font-family: system-ui, Arial; font-size: 10px; fill: #666; text-anchor: middle; dominant-baseline: middle; }.weight-bg { fill: #fafafa; stroke: #ddd; stroke-width: 1; }.weight-bg-active { fill: #e8f0fb; stroke: #2a6fb8; }.label-text { font-family: system-ui, Arial; font-size: 11px; fill: #333; text-anchor: middle; dominant-baseline: hanging; }</style></defs>
<line x1="118.0" y1="100.0" x2="125.8" y2="100.0" stroke="#000000" stroke-width="1" fill="none"/>
<path d="M 125.8 100.0 L 117.8 103.6 L 117.8 96.4 Z" fill="#000000"/>
<circle cx="121.9" cy="100.0" r="10" fill="#d8d8d8" stroke="#000000" stroke-width="1"/>
<text x="121.9" y="100.0" font-family="system-ui, Arial" font-size="10px" fill="#000000" text-anchor="middle" dominant-baseline="middle">1</text>
<path d="M 182.0 100.0 Q 178.1 70.0 174.2 100.0" stroke="#000000" stroke-width="1" fill="none"/>
<path d="M 174.2 100.0 L 171.7 91.6 L 178.8 92.5 Z" fill="#000000"/>
<circle cx="178.1" cy="85.0" r="10" fill="#d8d8d8" stroke="#000000" stroke-width="1"/>
<text x="178.1" y="85.0" font-family="system-ui, Arial" font-size="10px" fill="#000000" text-anchor="middle" dominant-baseline="middle">1</text>
<path d="M 167.0 100.0 Q 170.9 130.0 174.8 100.0" stroke="#000000" stroke-width="1" fill="none"/>
<path d="M 174.8 100.0 L 177.3 108.4 L 170.2 107.5 Z" fill="#000000"/>
<circle cx="170.9" cy="115.0" r="10" fill="#d8d8d8" stroke="#000000" stroke-width="1"/>
<text x="170.9" y="115.0" font-family="system-ui, Arial" font-size="10px" fill="#000000" text-anchor="middle" dominant-baseline="middle">2</text>
<line x1="218.0" y1="100.0" x2="225.8" y2="100.0" stroke="#000000" stroke-width="1" fill="none"/>
<path d="M 225.8 100.0 L 217.8 103.6 L 217.8 96.4 Z" fill="#000000"/>
<circle cx="221.9" cy="100.0" r="10" fill="#d8d8d8" stroke="#000000" stroke-width="1"/>
<text x="221.9" y="100.0" font-family="system-ui, Arial" font-size="10px" fill="#000000" text-anchor="middle" dominant-baseline="middle">1</text>
<line x1="267.0" y1="100.0" x2="274.8" y2="100.0" stroke="#000000" stroke-width="1" fill="none"/>
<path d="M 274.8 100.0 L 266.8 103.6 L 266.8 96.4 Z" fill="#000000"/>
<circle cx="270.9" cy="100.0" r="10" fill="#d8d8d8" stroke="#000000" stroke-width="1"/>
<text x="270.9" y="100.0" font-family="system-ui, Arial" font-size="10px" fill="#000000" text-anchor="middle" dominant-baseline="middle">1</text>
<circle cx="200.0" cy="100.0" r="16.0" class="place"/>
<text x="200.0" y="100.0" class="token-text">10</text>
<text x="200.0" y="122.0" class="label-text">I</text>
<circle cx="300.0" cy="100.0" r="16.0" class="place"/>
<text x="300.0" y="122.0" class="label-text">R</text>
<circle cx="100.0" cy="100.0" r="16.0" class="place"/>
<text x="100.0" y="100.0" class="token-text">990</text>
<text x="100.0" y="122.0" class="label-text">S</text>
<rect x="135.0" y="85.0" width="30.0" height="30.0" rx="4.0" ry="4.0" class="transition transition-active"/>
<text x="150.0" y="121.0" class="label-text">infection</text>
<rect x="235.0" y="85.0" width="30.0" height="30.0" rx="4.0" ry="4.0" class="transition transition-active"/>
<text x="250.0" y="121.0" class="label-text">recovery</text>
</svg>
