<svg xmlns="http://www.w3.org/2000/svg" viewBox="50.0 50.0 400.0 100.0" width="400" height="100">
<defs><style>.place { fill: #fff; stroke: #333; stroke-width: 2; }.place-cap-full { fill: #ffebee; }.transition { fill: #ffffff; stroke: #000; stroke-width: 1; }.transition-active { fill: #62fa75; stroke: #000; }.arc { stroke: #cfcfcf; stroke-width: 1; fill: none; }.arc-active { stroke: #2a6fb8; }.arrowhead { fill: #cfcfcf; }.arrowhead-active { fill: #2a6fb8; }.inhibitor { fill: #fff; stroke: #cfcfcf; stroke-width: 1.3; }.inhibitor-active { stroke: #2a6fb8; }.token-dot { fill: #333; }.token-text { font-family: system-ui, Arial; font-size: 12px; fill: #333; text-anchor: middle; dominant-baseline: middle; }.weight-badge { font-family: system-ui, Arial; font-size: 10px; fill: #666; text-anchor: middle; dominant-baseline: middle; }.weight-bg { fill: #fafafa; stroke: #ddd; stroke-width: 1; }.weight-bg-active { fill: #e8f0fb; stroke: #2a6fb8; }.label-text { font-family: system-ui, Arial; font-size: 11px; fill: #333; text-anchor: middle; dominant-baseline: hanging; }</style></defs>
<line x1="118.0" y1="100.0" x2="125.8" y2="100.0" stroke="#000000" stroke-width="1" fill="none"/>
<path d="M 125.8 100.0 L 117.8 103.6 L 117.8 96.4 Z" fill="#000000"/>
<circle cx="121.9" cy="100.0" r="10" fill="#d8d8d8" stroke="#000000" stroke-width="1"/>
<text x="121.9" y="100.0" font-family="system-ui, Arial" font-size="10px" fill="#000000" text-anchor="middle" dominant-baseline="middle">1</text>
<line x1="167.0" y1="100.0" x2="174.8" y2="100.0" stroke="#000000" stroke-width="1" fill="none"/>
<path d="M 174.8 100.0 L 166.8 103.6 L 166.8 96.4 Z" fill="#000000"/>
<circle cx="170.9" cy="100.0" r="10" fill="#d8d8d8" stroke="#000000" stroke-width="1"/>
<text x="170.9" y="100.0" font-family="system-ui, Arial" font-size="10px" fill="#000000" text-anchor="middle" dominant-baseline="middle">1</text>
<line x1="218.0" y1="100.0" x2="225.8" y2="100.0" stroke="#999999" stroke-width="1" fill="none"/>
<path d="M 225.8 100.0 L 217.8 103.6 L 217.8 96.4 Z" fill="#999999"/>
<circle cx="221.9" cy="100.0" r="10" fill="#fafafa" stroke="#999999" stroke-width="1"/>
<text x="221.9" y="100.0" font-family="system-ui, Arial" font-size="10px" fill="#666" text-anchor="middle" dominant-baseline="middle">1</text>
<line x1="267.0" y1="100.0" x2="274.8" y2="100.0" stroke="#999999" stroke-width="1" fill="none"/>
<path d="M 274.8 100.0 L 266.8 103.6 L 266.8 96.4 Z" fill="#999999"/>
<circle cx="270.9" cy="100.0" r="10" fill="#fafafa" stroke="#999999" stroke-width="1"/>
<text x="270.9" y="100.0" font-family="system-ui, Arial" font-size="10px" fill="#666" text-anchor="middle" dominant-baseline="middle">1</text>
<line x1="318.0" y1="100.0" x2="325.8" y2="100.0" stroke="#999999" stroke-width="1" fill="none"/>
<path d="M 325.8 100.0 L 317.8 103.6 L 317.8 96.4 Z" fill="#999999"/>
<circle cx="321.9" cy="100.0" r="10" fill="#fafafa" stroke="#999999" stroke-width="1"/>
<text x="321.9" y="100.0" font-family="system-ui, Arial" font-size="10px" fill="#666" text-anchor="middle" dominant-baseline="middle">1</text>
<line x1="367.0" y1="100.0" x2="374.8" y2="100.0" stroke="#999999" stroke-width="1" fill="none"/>
<path d="M 374.8 100.0 L 366.8 103.6 L 366.8 96.4 Z" fill="#999999"/>
<circle cx="370.9" cy="100.0" r="10" fill="#fafafa" stroke="#999999" stroke-width="1"/>
<text x="370.9" y="100.0" font-family="system-ui, Arial" font-size="10px" fill="#666" text-anchor="middle" dominant-baseline="middle">1</text>
<circle cx="100.0" cy="100.0" r="16.0" class="place"/>
<text x="100.0" y="100.0" class="token-text">10</text>
<text x="100.0" y="122.0" class="label-text">Start</text>
<circle cx="200.0" cy="100.0" r="16.0" class="place"/>
<text x="200.0" y="122.0" class="label-text">Stage 1</text>
<circle cx="300.0" cy="100.0" r="16.0" class="place"/>
<text x="300.0" y="122.0" class="label-text">Stage 2</text>
<circle cx="400.0" cy="100.0" r="16.0" class="place"/>
<text x="400.0" y="122.0" class="label-text">Complete</text>
<rect x="135.0" y="85.0" width="30.0" height="30.0" rx="4.0" ry="4.0" class="transition transition-active"/>
<text x="150.0" y="121.0" class="label-text">Process Step 1</text>
<rect x="235.0" y="85.0" width="30.0" height="30.0" rx="4.0" ry="4.0" class="transition"/>
<text x="250.0" y="121.0" class="label-text">Process Step 2</text>
<rect x="335.0" y="85.0" width="30.0" height="30.0" rx="4.0" ry="4.0" class="transition"/>
<text x="350.0" y="121.0" class="label-text">Process Step 3</text>
</svg>
