<svg xmlns="http://www.w3.org/2000/svg" width="1000" height="600" style="background:white;" id="plot_130000000"><text x="500.000000" y="25" text-anchor="middle" font-family="Arial, sans-serif" font-size="16" font-weight="bold">A → B Conversion - True vs Fitted</text><line x1="60.000000" y1="40.000000" x2="60.000000" y2="550.000000" stroke="#333" stroke-width="2"/><line x1="60.000000" y1="550.000000" x2="970.000000" y2="550.000000" stroke="#333" stroke-width="2"/><text x="515.000000" y="590.000000" text-anchor="middle" font-family="Arial, sans-serif" font-size="12">Time</text><text x="15" y="295.000000" text-anchor="middle" font-family="Arial, sans-serif" font-size="12" transform="rotate(-90, 15, 295.000000)">Population</text><line x1="60.000000" y1="550.000000" x2="60.000000" y2="555.000000" stroke="#333" stroke-width="1"/><text x="60.000000" y="570.000000" text-anchor="middle" font-family="Arial, sans-serif" font-size="10">-1.5</text><line x1="60.000000" y1="40.000000" x2="60.000000" y2="550.000000" stroke="#ddd" stroke-width="0.5"/><line x1="242.000000" y1="550.000000" x2="242.000000" y2="555.000000" stroke="#333" stroke-width="1"/><text x="242.000000" y="570.000000" text-anchor="middle" font-family="Arial, sans-serif" font-size="10">5.1</text><line x1="242.000000" y1="40.000000" x2="242.000000" y2="550.000000" stroke="#ddd" stroke-width="0.5"/><line x1="424.000000" y1="550.000000" x2="424.000000" y2="555.000000" stroke="#333" stroke-width="1"/><text x="424.000000" y="570.000000" text-anchor="middle" font-family="Arial, sans-serif" font-size="10">11.7</text><line x1="424.000000" y1="40.000000" x2="424.000000" y2="550.000000" stroke="#ddd" stroke-width="0.5"/><line x1="606.000000" y1="550.000000" x2="606.000000" y2="555.000000" stroke="#333" stroke-width="1"/><text x="606.000000" y="570.000000" text-anchor="middle" font-family="Arial, sans-serif" font-size="10">18.3</text><line x1="606.000000" y1="40.000000" x2="606.000000" y2="550.000000" stroke="#ddd" stroke-width="0.5"/><line x1="788.000000" y1="550.000000" x2="788.000000" y2="555.000000" stroke="#333" stroke-width="1"/><text x="788.000000" y="570.000000" text-anchor="middle" font-family="Arial, sans-serif" font-size="10">24.9</text><line x1="788.000000" y1="40.000000" x2="788.000000" y2="550.000000" stroke="#ddd" stroke-width="0.5"/><line x1="970.000000" y1="550.000000" x2="970.000000" y2="555.000000" stroke="#333" stroke-width="1"/><text x="970.000000" y="570.000000" text-anchor="middle" font-family="Arial, sans-serif" font-size="10">31.5</text><line x1="970.000000" y1="40.000000" x2="970.000000" y2="550.000000" stroke="#ddd" stroke-width="0.5"/><line x1="55.000000" y1="550.000000" x2="60.000000" y2="550.000000" stroke="#333" stroke-width="1"/><text x="50.000000" y="554.000000" text-anchor="end" font-family="Arial, sans-serif" font-size="10">-10.0</text><line x1="60.000000" y1="550.000000" x2="970.000000" y2="550.000000" stroke="#ddd" stroke-width="0.5"/><line x1="55.000000" y1="448.000000" x2="60.000000" y2="448.000000" stroke="#333" stroke-width="1"/><text x="50.000000" y="452.000000" text-anchor="end" font-family="Arial, sans-serif" font-size="10">14.0</text><line x1="60.000000" y1="448.000000" x2="970.000000" y2="448.000000" stroke="#ddd" stroke-width="0.5"/><line x1="55.000000" y1="346.000000" x2="60.000000" y2="346.000000" stroke="#333" stroke-width="1"/><text x="50.000000" y="350.000000" text-anchor="end" font-family="Arial, sans-serif" font-size="10">38.0</text><line x1="60.000000" y1="346.000000" x2="970.000000" y2="346.000000" stroke="#ddd" stroke-width="0.5"/><line x1="55.000000" y1="244.000000" x2="60.000000" y2="244.000000" stroke="#333" stroke-width="1"/><text x="50.000000" y="248.000000" text-anchor="end" font-family="Arial, sans-serif" font-size="10">62.0</text><line x1="60.000000" y1="244.000000" x2="970.000000" y2="244.000000" stroke="#ddd" stroke-width="0.5"/><line x1="55.000000" y1="142.000000" x2="60.000000" y2="142.000000" stroke="#333" stroke-width="1"/><text x="50.000000" y="146.000000" text-anchor="end" font-family="Arial, sans-serif" font-size="10">86.0</text><line x1="60.000000" y1="142.000000" x2="970.000000" y2="142.000000" stroke="#ddd" stroke-width="0.5"/><line x1="55.000000" y1="40.000000" x2="60.000000" y2="40.000000" stroke="#333" stroke-width="1"/><text x="50.000000" y="44.000000" text-anchor="end" font-family="Arial, sans-serif" font-size="10">110.0</text><line x1="60.000000" y1="40.000000" x2="970.000000" y2="40.000000" stroke="#ddd" stroke-width="0.5"/><path d="M101.363636,82.500000 L101.363696,82.500137 L101.363749,82.500261 L101.363799,82.500377 L101.363846,82.500485 L101.363891,82.500589 L101.363935,82.500690 L101.363977,82.500788 L101.364019,82.500884 L101.364060,82.500980 L101.364101,82.501074 L101.364142,82.501169 L101.364183,82.501264 L101.364224,82.501358 L101.364265,82.501454 L101.364307,82.501550 L101.364349,82.501647 L101.364391,82.501745 L101.364434,82.501845 L101.364478,82.501945 L101.364522,82.502047 L101.364566,82.502150 L101.364612,82.502255 L101.364658,82.502361 L101.364704,82.502469 L101.364752,82.502578 L101.364800,82.502689 L101.364848,82.502802 L101.364898,82.502916 L101.364948,82.503033 L101.364999,82.503151 L101.365051,82.503271 L101.365104,82.503393 L101.365157,82.503517 L101.365212,82.503642 L101.365267,82.503770 L101.365323,82.503900 L101.365380,82.504032 L101.365438,82.504166 L101.365497,82.504302 L101.365557,82.504441 L101.365618,82.504582 L101.365680,82.504725 L101.365743,82.504870 L101.365807,82.505017 L101.365872,82.505167 L101.365938,82.505320 L101.366005,82.505475 L101.366073,82.505632 L101.366142,82.505792 L101.366212,82.505955 L101.366284,82.506120 L101.366356,82.506288 L101.366430,82.506458 L101.366505,82.506631 L101.366581,82.506808 L101.366659,82.506987 L101.366737,82.507168 L101.366817,82.507353 L101.366898,82.507541 L101.366981,82.507732 L101.367065,82.507926 L101.367150,82.508123 L101.367237,82.508323 L101.367325,82.508527 L101.367414,82.508733 L101.367505,82.508944 L101.367597,82.509157 L101.367691,82.509374 L101.367787,82.509595 L101.367884,82.509819 L101.367982,82.510046 L101.368082,82.510278 L101.368184,82.510513 L101.368287,82.510752 L101.368392,82.510995 L101.368499,82.511241 L101.368607,82.511492 L101.368718,82.511747 L101.368830,82.512006 L101.368943,82.512269 L101.369059,82.512536 L101.369177,82.512808 L101.369296,82.513084 L101.369417,82.513364 L101.369541,82.513650 L101.369666,82.513939 L101.369793,82.514234 L101.369923,82.514533 L101.370054,82.514837 L101.370188,82.515146 L101.370324,82.515460 L101.370462,82.515779 L101.370602,82.516103 L101.370744,82.516432 L101.370889,82.516767 L101.371036,82.517107 L101.371186,82.517453 L101.371338,82.517804 L101.371492,82.518161 L101.371649,82.518524 L101.371809,82.518892 L101.371971,82.519267 L101.372135,82.519647 L101.372303,82.520034 L101.372473,82.520427 L101.372645,82.520826 L101.372821,82.521232 L101.372999,82.521645 L101.373181,82.522064 L101.373365,82.522490 L101.373552,82.522923 L101.373742,82.523362 L101.373936,82.523809 L101.374132,82.524263 L101.374332,82.524725 L101.374535,82.525194 L101.374741,82.525670 L101.374950,82.526155 L101.375163,82.526647 L101.375379,82.527147 L101.375599,82.527655 L101.375823,82.528171 L101.376050,82.528696 L101.376280,82.529229 L101.376515,82.529771 L101.376753,82.530322 L101.376995,82.530881 L101.377241,82.531450 L101.377491,82.532027 L101.377745,82.532615 L101.378003,82.533211 L101.378265,82.533818 L101.378532,82.534434 L101.378802,82.535060 L101.379078,82.535696 L101.379357,82.536342 L101.379642,82.536999 L101.379930,82.537667 L101.380224,82.538345 L101.380522,82.539035 L101.380825,82.539735 L101.381133,82.540447 L101.381446,82.541171 L101.381764,82.541906 L101.382087,82.542653 L101.382416,82.543412 L101.382749,82.544183 L101.383088,82.544967 L101.383433,82.545764 L101.383783,82.546573 L101.384139,82.547396 L101.384501,82.548232 L101.384868,82.549081 L101.385242,82.549944 L101.385621,82.550821 L101.386007,82.551713 L101.386398,82.552618 L101.386797,82.553539 L101.387201,82.554474 L101.387612,82.555424 L101.388030,82.556390 L101.388455,82.557372 L101.388886,82.558369 L101.389325,82.559382 L101.389770,82.560412 L101.390223,82.561459 L101.390683,82.562522 L101.391151,82.563603 L101.391626,82.564701 L101.392108,82.565817 L101.392599,82.566951 L101.393098,82.568103 L101.393604,82.569274 L101.394119,82.570464 L101.394642,82.571674 L101.395174,82.572902 L101.395714,82.574151 L101.396263,82.575420 L101.396821,82.576709 L101.397388,82.578020 L101.397964,82.579351 L101.398549,82.580704 L101.399144,82.582079 L101.399749,82.583476 L101.400363,82.584896 L101.400987,82.586339 L101.401621,82.587805 L101.402266,82.589295 L101.402921,82.590809 L101.403587,82.592347 L101.404263,82.593911 L101.404950,82.595499 L101.405649,82.597114 L101.406359,82.598754 L101.407080,82.600421 L101.407813,82.602115 L101.408558,82.603837 L101.409315,82.605586 L101.410084,82.607364 L101.410865,82.609170 L101.411659,82.611006 L101.412467,82.612871 L101.413287,82.614767 L101.414120,82.616693 L101.414967,82.618650 L101.415828,82.620639 L101.416702,82.622661 L101.417591,82.624715 L101.418494,82.626802 L101.419412,82.628923 L101.420344,82.631078 L101.421292,82.633268 L101.422255,82.635494 L101.423234,82.637756 L101.424228,82.640054 L101.425239,82.642389 L101.426266,82.644763 L101.427309,82.647174 L101.428370,82.649625 L101.429447,82.652115 L101.430542,82.654646 L101.431655,82.657218 L101.432786,82.659831 L101.433935,82.662486 L101.435103,82.665185 L101.436289,82.667927 L101.437495,82.670714 L101.438721,82.673545 L101.439966,82.676423 L101.441231,82.679347 L101.442517,82.682318 L101.443824,82.685338 L101.445152,82.688406 L101.446501,82.691524 L101.447872,82.694692 L101.449265,82.697912 L101.450681,82.701184 L101.452120,82.704509 L101.453582,82.707887 L101.455068,82.711321 L101.456578,82.714809 L101.458112,82.718355 L101.459672,82.721957 L101.461256,82.725618 L101.462866,82.729339 L101.464502,82.733119 L101.466165,82.736961 L101.467854,82.740864 L101.469571,82.744831 L101.471316,82.748862 L101.473089,82.752959 L101.474891,82.757121 L101.476722,82.761351 L101.478582,82.765650 L101.480473,82.770018 L101.482394,82.774457 L101.484346,82.778967 L101.486330,82.783551 L101.488346,82.788209 L101.490395,82.792942 L101.492477,82.797751 L101.494593,82.802639 L101.496743,82.807606 L101.498927,82.812653 L101.501148,82.817781 L101.503404,82.822993 L101.505696,82.828289 L101.508026,82.833671 L101.510393,82.839140 L101.512799,82.844697 L101.515244,82.850344 L101.517728,82.856083 L101.520253,82.861914 L101.522819,82.867840 L101.525426,82.873862 L101.528075,82.879981 L101.530767,82.886200 L101.533503,82.892518 L101.536283,82.898940 L101.539108,82.905465 L101.541979,82.912095 L101.544897,82.918833 L101.547861,82.925680 L101.550874,82.932638 L101.553935,82.939708 L101.557047,82.946893 L101.560208,82.954194 L101.563421,82.961613 L101.566685,82.969152 L101.570003,82.976814 L101.573375,82.984599 L101.576801,82.992510 L101.580282,83.000549 L101.583820,83.008719 L101.587415,83.017020 L101.591069,83.025456 L101.594781,83.034028 L101.598554,83.042739 L101.602388,83.051591 L101.606284,83.060587 L101.610244,83.069727 L101.614267,83.079016 L101.618355,83.088455 L101.622510,83.098047 L101.626732,83.107794 L101.631023,83.117699 L101.635383,83.127764 L101.639814,83.137991 L101.644316,83.148385 L101.648892,83.158946 L101.653542,83.169678 L101.658267,83.180585 L101.663068,83.191667 L101.667948,83.202929 L101.672906,83.214373 L101.677945,83.226002 L101.683066,83.237819 L101.688269,83.249828 L101.693557,83.262031 L101.698931,83.274431 L101.704391,83.287032 L101.709941,83.299837 L101.715580,83.312849 L101.721310,83.326072 L101.727134,83.339508 L101.733052,83.353162 L101.739066,83.367037 L101.745177,83.381137 L101.751388,83.395464 L101.757699,83.410023 L101.764112,83.424818 L101.770630,83.439852 L101.777253,83.455130 L101.783984,83.470654 L101.790823,83.486430 L101.797774,83.502461 L101.804838,83.518752 L101.812015,83.535306 L101.819310,83.552127 L101.826722,83.569221 L101.834255,83.586592 L101.841910,83.604243 L101.849690,83.622180 L101.857595,83.640408 L101.865629,83.658930 L101.873793,83.677752 L101.882089,83.696878 L101.890520,83.716314 L101.899088,83.736064 L101.907795,83.756134 L101.916643,83.776528 L101.925635,83.797252 L101.934773,83.818312 L101.944059,83.839712 L101.953495,83.861458 L101.963085,83.883557 L101.972831,83.906012 L101.982734,83.928831 L101.992799,83.952019 L102.003026,83.975582 L102.013420,83.999527 L102.023982,84.023858 L102.034716,84.048584 L102.045625,84.073709 L102.056710,84.099240 L102.067975,84.125185 L102.079424,84.151549 L102.091058,84.178340 L102.102881,84.205564 L102.114896,84.233228 L102.127106,84.261340 L102.139515,84.289907 L102.152125,84.318935 L102.164940,84.348433 L102.177963,84.378408 L102.191198,84.408868 L102.204648,84.439821 L102.218316,84.471274 L102.232207,84.503236 L102.246323,84.535715 L102.260668,84.568719 L102.275247,84.602257 L102.290063,84.636338 L102.305119,84.670969 L102.320421,84.706161 L102.335971,84.741921 L102.351774,84.778260 L102.367833,84.815187 L102.384154,84.852711 L102.400741,84.890841 L102.417597,84.929588 L102.434727,84.968962 L102.452136,85.008972 L102.469828,85.049630 L102.487808,85.090945 L102.506080,85.132928 L102.524650,85.175589 L102.543522,85.218941 L102.562701,85.262993 L102.582192,85.307758 L102.602001,85.353247 L102.622132,85.399470 L102.642590,85.446442 L102.663382,85.494173 L102.684512,85.542675 L102.705987,85.591961 L102.727811,85.642045 L102.749991,85.692938 L102.772532,85.744654 L102.795440,85.797205 L102.818721,85.850607 L102.842382,85.904871 L102.866428,85.960013 L102.890867,86.016046 L102.915703,86.072985 L102.940945,86.130844 L102.966598,86.189638 L102.992669,86.249383 L103.019166,86.310093 L103.046094,86.371785 L103.073462,86.434473 L103.101277,86.498175 L103.129545,86.562906 L103.158275,86.628684 L103.187473,86.695524 L103.217148,86.763445 L103.247308,86.832463 L103.277960,86.902596 L103.309112,86.973863 L103.340774,87.046281 L103.372952,87.119870 L103.405656,87.194647 L103.438895,87.270633 L103.472677,87.347846 L103.507011,87.426307 L103.541906,87.506036 L103.577371,87.587052 L103.613417,87.669377 L103.650052,87.753033 L103.687287,87.838039 L103.725130,87.924419 L103.763593,88.012194 L103.802686,88.101387 L103.842418,88.192020 L103.882801,88.284117 L103.923845,88.377702 L103.965562,88.472798 L104.007962,88.569430 L104.051056,88.667622 L104.094857,88.767400 L104.139376,88.868790 L104.184625,88.971816 L104.230615,89.076506 L104.277361,89.182886 L104.324873,89.290984 L104.373164,89.400827 L104.422249,89.512444 L104.472139,89.625862 L104.522848,89.741111 L104.574391,89.858221 L104.626780,89.977221 L104.680029,90.098141 L104.734155,90.221013 L104.789170,90.345869 L104.845089,90.472739 L104.901929,90.601656 L104.959704,90.732654 L105.018430,90.865766 L105.078122,91.001025 L105.138797,91.138467 L105.200472,91.278127 L105.263163,91.420039 L105.326888,91.564241 L105.391663,91.710768 L105.457506,91.859660 L105.524435,92.010953 L105.592469,92.164685 L105.661625,92.320898 L105.731924,92.479629 L105.803383,92.640920 L105.876024,92.804812 L105.949865,92.971346 L106.024927,93.140565 L106.101230,93.312512 L106.178796,93.487231 L106.257646,93.664767 L106.337801,93.845164 L106.419284,94.028468 L106.502118,94.214726 L106.586324,94.403986 L106.671927,94.596296 L106.758949,94.791704 L106.847416,94.990261 L106.937352,95.192016 L107.028782,95.397021 L107.121731,95.605329 L107.216225,95.816991 L107.312291,96.032062 L107.409955,96.250597 L107.509246,96.472650 L107.610189,96.698279 L107.712815,96.927540 L107.817151,97.160492 L107.923228,97.397193 L108.031074,97.637704 L108.140721,97.882086 L108.252199,98.130401 L108.365541,98.382710 L108.480777,98.639079 L108.597942,98.899573 L108.717067,99.164256 L108.838188,99.433197 L108.961338,99.706462 L109.086553,99.984122 L109.213869,100.266246 L109.343322,100.552906 L109.474949,100.844174 L109.608789,101.140123 L109.744879,101.440829 L109.883260,101.746367 L110.023971,102.056813 L110.167052,102.372247 L110.312546,102.692748 L110.460495,103.018397 L110.610942,103.349275 L110.763931,103.685466 L110.919506,104.027054 L111.077714,104.374126 L111.238601,104.726768 L111.402213,105.085069 L111.568600,105.449119 L111.737811,105.819010 L111.909896,106.194834 L112.084906,106.576685 L112.262893,106.964659 L112.443910,107.358854 L112.628012,107.759368 L112.815253,108.166301 L113.005691,108.579755 L113.199382,108.999833 L113.396385,109.426641 L113.596759,109.860284 L113.800566,110.300872 L114.007868,110.748514 L114.218728,111.203321 L114.433210,111.665407 L114.651381,112.134886 L114.873308,112.611877 L115.099059,113.096496 L115.328704,113.588865 L115.562315,114.089106 L115.799965,114.597343 L116.041727,115.113702 L116.287678,115.638310 L116.537894,116.171299 L116.792456,116.712799 L117.051444,117.262944 L117.314940,117.821871 L117.583028,118.389717 L117.855794,118.966622 L118.133325,119.552728 L118.415712,120.148181 L118.703045,120.753125 L118.995417,121.367710 L119.292925,121.992087 L119.595665,122.626409 L119.903737,123.270830 L120.217243,123.925510 L120.536285,124.590608 L120.860972,125.266287 L121.191410,125.952711 L121.527710,126.650048 L121.869987,127.358468 L122.218355,128.078142 L122.572933,128.809247 L122.933842,129.551959 L123.301207,130.306458 L123.675152,131.072927 L124.055808,131.851552 L124.443308,132.642520 L124.837786,133.446022 L125.239381,134.262252 L125.648236,135.091406 L126.064494,135.933683 L126.488305,136.789285 L126.919821,137.658418 L127.359197,138.541288 L127.806593,139.438107 L128.262171,140.349089 L128.726099,141.274450 L129.198548,142.214411 L129.679693,143.169193 L130.169715,144.139024 L130.668796,145.124132 L131.177126,146.124750 L131.694897,147.141113 L132.222309,148.173461 L132.759564,149.222035 L133.306870,150.287081 L133.864442,151.368847 L134.432499,152.467586 L135.011265,153.583553 L135.600971,154.717008 L136.201855,155.868211 L136.814159,157.037430 L137.438132,158.224934 L138.074032,159.430994 L138.722121,160.655889 L139.382670,161.899896 L140.055957,163.163301 L140.742266,164.446390 L141.441892,165.749454 L142.155136,167.072787 L142.882309,168.416686 L143.623729,169.781455 L144.379724,171.167397 L145.150632,172.574821 L145.936801,174.004042 L146.738588,175.455373 L147.556361,176.929136 L148.390501,178.425655 L149.241396,179.945255 L150.109451,181.488269 L150.995079,183.055031 L151.898710,184.645879 L152.820783,186.261155 L153.761753,187.901204 L154.722090,189.566375 L155.702279,191.257022 L156.702819,192.973498 L157.724227,194.716165 L158.767036,196.485385 L159.831798,198.281523 L160.919081,200.104950 L162.029476,201.956038 L163.163590,203.835162 L164.322055,205.742701 L165.505522,207.679037 L166.714667,209.644555 L167.950190,211.639640 L169.212815,213.664684 L170.503293,215.720077 L171.822403,217.806216 L173.170953,219.923495 L174.549782,222.072315 L175.959760,224.253074 L177.401790,226.466175 L178.876812,228.712021 L180.385804,230.991015 L181.929779,233.303564 L183.509795,235.650073 L185.126952,238.030947 L186.782395,240.446591 L188.477318,242.897412 L190.212966,245.383812 L191.990638,247.906196 L193.811688,250.464963 L195.677532,253.060513 L197.589649,255.693242 L199.549585,258.363543 L201.558958,261.071803 L203.619463,263.818408 L205.732872,266.603736 L207.901048,269.428159 L210.125940,272.292043 L212.409597,275.195746 L214.754172,278.139616 L217.161927,281.123992 L219.635242,284.149202 L222.176625,287.215561 L224.788718,290.323372 L227.474308,293.472921 L230.231884,296.659369 L232.989460,299.798377 L235.747036,302.890651 L238.504611,305.936887 L241.262187,308.937771 L244.019763,311.893978 L246.777339,314.806172 L249.534914,317.675009 L252.292490,320.501135 L255.050066,323.285186 L257.807642,326.027787 L260.565218,328.729556 L263.322793,331.391101 L266.080369,334.013021 L268.837945,336.595906 L271.595521,339.140336 L274.353096,341.646885 L277.110672,344.116116 L279.868248,346.548585 L282.625824,348.944840 L285.383399,351.305419 L288.140975,353.630853 L290.898551,355.921666 L293.656127,358.178374 L296.413702,360.401483 L299.171278,362.591495 L301.928854,364.748901 L304.686430,366.874188 L307.444005,368.967834 L310.201581,371.030309 L312.959157,373.062078 L315.716733,375.063598 L318.474308,377.035319 L321.231884,378.977685 L323.989460,380.891133 L326.747036,382.776094 L329.504611,384.632991 L332.262187,386.462242 L335.019763,388.264259 L337.777339,390.039448 L340.534914,391.788208 L343.292490,393.510932 L346.050066,395.208008 L348.807642,396.879818 L351.565218,398.526738 L354.322793,400.149139 L357.080369,401.747385 L359.837945,403.321836 L362.595521,404.872847 L365.353096,406.400766 L368.110672,407.905938 L370.868248,409.388700 L373.625824,410.849387 L376.383399,412.288327 L379.140975,413.705844 L381.898551,415.102258 L384.656127,416.477881 L387.413702,417.833024 L390.171278,419.167991 L392.928854,420.483083 L395.686430,421.778596 L398.444005,423.054822 L401.201581,424.312047 L403.959157,425.550554 L406.716733,426.770622 L409.474308,427.972526 L412.231884,429.156536 L414.989460,430.322918 L417.747036,431.471935 L420.504611,432.603846 L423.262187,433.718904 L426.019763,434.817361 L428.777339,435.899465 L431.534914,436.965458 L434.292490,438.015581 L437.050066,439.050069 L439.807642,440.069156 L442.565218,441.073070 L445.322793,442.062038 L448.080369,443.036282 L450.837945,443.996022 L453.595521,444.941473 L456.353096,445.872848 L459.110672,446.790357 L461.868248,447.694206 L464.625824,448.584598 L467.383399,449.461734 L470.140975,450.325812 L472.898551,451.177024 L475.656127,452.015564 L478.413702,452.841620 L481.171278,453.655377 L483.928854,454.457019 L486.686430,455.246726 L489.444005,456.024676 L492.201581,456.791044 L494.959157,457.546002 L497.716733,458.289720 L500.474308,459.022366 L503.231884,459.744103 L505.989460,460.455096 L508.747036,461.155504 L511.504611,461.845483 L514.262187,462.525190 L517.019763,463.194778 L519.777339,463.854397 L522.534914,464.504195 L525.292490,465.144319 L528.050066,465.774913 L530.807642,466.396119 L533.565218,467.008076 L536.322793,467.610922 L539.080369,468.204793 L541.837945,468.789823 L544.595521,469.366142 L547.353096,469.933881 L550.110672,470.493168 L552.868248,471.044128 L555.625824,471.586885 L558.383399,472.121562 L561.140975,472.648278 L563.898551,473.167153 L566.656127,473.678302 L569.413702,474.181842 L572.171278,474.677884 L574.928854,475.166542 L577.686430,475.647924 L580.444005,476.122140 L583.201581,476.589296 L585.959157,477.049496 L588.716733,477.502845 L591.474308,477.949444 L594.231884,478.389395 L596.989460,478.822795 L599.747036,479.249743 L602.504611,479.670335 L605.262187,480.084665 L608.019763,480.492826 L610.777339,480.894910 L613.534914,481.291008 L616.292490,481.681209 L619.050066,482.065601 L621.807642,482.444270 L624.565218,482.817301 L627.322793,483.184779 L630.080369,483.546785 L632.837945,483.903402 L635.595521,484.254710 L638.353096,484.600787 L641.110672,484.941712 L643.868248,485.277561 L646.625824,485.608410 L649.383399,485.934333 L652.140975,486.255404 L654.898551,486.571695 L657.656127,486.883277 L660.413702,487.190220 L663.171278,487.492593 L665.928854,487.790465 L668.686430,488.083901 L671.444005,488.372969 L674.201581,488.657734 L676.959157,488.938259 L679.716733,489.214607 L682.474308,489.486841 L685.231884,489.755022 L687.989460,490.019210 L690.747036,490.279465 L693.504611,490.535846 L696.262187,490.788409 L699.019763,491.037212 L701.777339,491.282311 L704.534914,491.523761 L707.292490,491.761616 L710.050066,491.995930 L712.807642,492.226756 L715.565218,492.454145 L718.322793,492.678148 L721.080369,492.898817 L723.837945,493.116200 L726.595521,493.330347 L729.353096,493.541306 L732.110672,493.749124 L734.868248,493.953848 L737.625824,494.155524 L740.383399,494.354197 L743.140975,494.549912 L745.898551,494.742714 L748.656127,494.932645 L751.413702,495.119749 L754.171278,495.304067 L756.928854,495.485641 L759.686430,495.664511 L762.444005,495.840719 L765.201581,496.014303 L767.959157,496.185302 L770.716733,496.353756 L773.474308,496.519702 L776.231884,496.683178 L778.989460,496.844219 L781.747036,497.002863 L784.504611,497.159145 L787.262187,497.313100 L790.019763,497.464764 L792.777339,497.614169 L795.534914,497.761350 L798.292490,497.906339 L801.050066,498.049170 L803.807642,498.189875 L806.565218,498.328484 L809.322793,498.465031 L812.080369,498.599544 L814.837945,498.732054 L817.595521,498.862592 L820.353096,498.991186 L823.110672,499.117866 L825.868248,499.242660 L828.625824,499.365595 L831.383399,499.486701 L834.140975,499.606003 L836.898551,499.723530 L839.656127,499.839306 L842.413702,499.953359 L845.171278,500.065714 L847.928854,500.176396 L850.686430,500.285430 L853.444005,500.392841 L856.201581,500.498653 L858.959157,500.602890 L861.716733,500.705574 L864.474308,500.806730 L867.231884,500.906380 L869.989460,501.004546 L872.747036,501.101251 L875.504611,501.196516 L878.262187,501.290362 L881.019763,501.382812 L883.777339,501.473885 L886.534914,501.563602 L889.292490,501.651983 L892.050066,501.739049 L894.807642,501.824818 L897.565218,501.909311 L900.322793,501.992545 L903.080369,502.074541 L905.837945,502.155315 L908.595521,502.234887 L911.353096,502.313275 L914.110672,502.390495 L916.868248,502.466566 L919.625824,502.541504 L922.383399,502.615326 L925.140975,502.688049 L927.898551,502.759690 L928.636364,502.778676" stroke="#1f77b4" stroke-width="2" fill="none"/><path d="M101.363636,507.500000 L101.363696,507.499863 L101.363749,507.499739 L101.363799,507.499623 L101.363846,507.499515 L101.363891,507.499411 L101.363935,507.499310 L101.363977,507.499212 L101.364019,507.499116 L101.364060,507.499020 L101.364101,507.498926 L101.364142,507.498831 L101.364183,507.498736 L101.364224,507.498642 L101.364265,507.498546 L101.364307,507.498450 L101.364349,507.498353 L101.364391,507.498255 L101.364434,507.498155 L101.364478,507.498055 L101.364522,507.497953 L101.364566,507.497850 L101.364612,507.497745 L101.364658,507.497639 L101.364704,507.497531 L101.364752,507.497422 L101.364800,507.497311 L101.364848,507.497198 L101.364898,507.497084 L101.364948,507.496967 L101.364999,507.496849 L101.365051,507.496729 L101.365104,507.496607 L101.365157,507.496483 L101.365212,507.496358 L101.365267,507.496230 L101.365323,507.496100 L101.365380,507.495968 L101.365438,507.495834 L101.365497,507.495698 L101.365557,507.495559 L101.365618,507.495418 L101.365680,507.495275 L101.365743,507.495130 L101.365807,507.494983 L101.365872,507.494833 L101.365938,507.494680 L101.366005,507.494525 L101.366073,507.494368 L101.366142,507.494208 L101.366212,507.494045 L101.366284,507.493880 L101.366356,507.493712 L101.366430,507.493542 L101.366505,507.493369 L101.366581,507.493192 L101.366659,507.493013 L101.366737,507.492832 L101.366817,507.492647 L101.366898,507.492459 L101.366981,507.492268 L101.367065,507.492074 L101.367150,507.491877 L101.367237,507.491677 L101.367325,507.491473 L101.367414,507.491267 L101.367505,507.491056 L101.367597,507.490843 L101.367691,507.490626 L101.367787,507.490405 L101.367884,507.490181 L101.367982,507.489954 L101.368082,507.489722 L101.368184,507.489487 L101.368287,507.489248 L101.368392,507.489005 L101.368499,507.488759 L101.368607,507.488508 L101.368718,507.488253 L101.368830,507.487994 L101.368943,507.487731 L101.369059,507.487464 L101.369177,507.487192 L101.369296,507.486916 L101.369417,507.486636 L101.369541,507.486350 L101.369666,507.486061 L101.369793,507.485766 L101.369923,507.485467 L101.370054,507.485163 L101.370188,507.484854 L101.370324,507.484540 L101.370462,507.484221 L101.370602,507.483897 L101.370744,507.483568 L101.370889,507.483233 L101.371036,507.482893 L101.371186,507.482547 L101.371338,507.482196 L101.371492,507.481839 L101.371649,507.481476 L101.371809,507.481108 L101.371971,507.480733 L101.372135,507.480353 L101.372303,507.479966 L101.372473,507.479573 L101.372645,507.479174 L101.372821,507.478768 L101.372999,507.478355 L101.373181,507.477936 L101.373365,507.477510 L101.373552,507.477077 L101.373742,507.476638 L101.373936,507.476191 L101.374132,507.475737 L101.374332,507.475275 L101.374535,507.474806 L101.374741,507.474330 L101.374950,507.473845 L101.375163,507.473353 L101.375379,507.472853 L101.375599,507.472345 L101.375823,507.471829 L101.376050,507.471304 L101.376280,507.470771 L101.376515,507.470229 L101.376753,507.469678 L101.376995,507.469119 L101.377241,507.468550 L101.377491,507.467973 L101.377745,507.467385 L101.378003,507.466789 L101.378265,507.466182 L101.378532,507.465566 L101.378802,507.464940 L101.379078,507.464304 L101.379357,507.463658 L101.379642,507.463001 L101.379930,507.462333 L101.380224,507.461655 L101.380522,507.460965 L101.380825,507.460265 L101.381133,507.459553 L101.381446,507.458829 L101.381764,507.458094 L101.382087,507.457347 L101.382416,507.456588 L101.382749,507.455817 L101.383088,507.455033 L101.383433,507.454236 L101.383783,507.453427 L101.384139,507.452604 L101.384501,507.451768 L101.384868,507.450919 L101.385242,507.450056 L101.385621,507.449179 L101.386007,507.448287 L101.386398,507.447382 L101.386797,507.446461 L101.387201,507.445526 L101.387612,507.444576 L101.388030,507.443610 L101.388455,507.442628 L101.388886,507.441631 L101.389325,507.440618 L101.389770,507.439588 L101.390223,507.438541 L101.390683,507.437478 L101.391151,507.436397 L101.391626,507.435299 L101.392108,507.434183 L101.392599,507.433049 L101.393098,507.431897 L101.393604,507.430726 L101.394119,507.429536 L101.394642,507.428326 L101.395174,507.427098 L101.395714,507.425849 L101.396263,507.424580 L101.396821,507.423291 L101.397388,507.421980 L101.397964,507.420649 L101.398549,507.419296 L101.399144,507.417921 L101.399749,507.416524 L101.400363,507.415104 L101.400987,507.413661 L101.401621,507.412195 L101.402266,507.410705 L101.402921,507.409191 L101.403587,507.407653 L101.404263,507.406089 L101.404950,507.404501 L101.405649,507.402886 L101.406359,507.401246 L101.407080,507.399579 L101.407813,507.397885 L101.408558,507.396163 L101.409315,507.394414 L101.410084,507.392636 L101.410865,507.390830 L101.411659,507.388994 L101.412467,507.387129 L101.413287,507.385233 L101.414120,507.383307 L101.414967,507.381350 L101.415828,507.379361 L101.416702,507.377339 L101.417591,507.375285 L101.418494,507.373198 L101.419412,507.371077 L101.420344,507.368922 L101.421292,507.366732 L101.422255,507.364506 L101.423234,507.362244 L101.424228,507.359946 L101.425239,507.357611 L101.426266,507.355237 L101.427309,507.352826 L101.428370,507.350375 L101.429447,507.347885 L101.430542,507.345354 L101.431655,507.342782 L101.432786,507.340169 L101.433935,507.337514 L101.435103,507.334815 L101.436289,507.332073 L101.437495,507.329286 L101.438721,507.326455 L101.439966,507.323577 L101.441231,507.320653 L101.442517,507.317682 L101.443824,507.314662 L101.445152,507.311594 L101.446501,507.308476 L101.447872,507.305308 L101.449265,507.302088 L101.450681,507.298816 L101.452120,507.295491 L101.453582,507.292113 L101.455068,507.288679 L101.456578,507.285191 L101.458112,507.281645 L101.459672,507.278043 L101.461256,507.274382 L101.462866,507.270661 L101.464502,507.266881 L101.466165,507.263039 L101.467854,507.259136 L101.469571,507.255169 L101.471316,507.251138 L101.473089,507.247041 L101.474891,507.242879 L101.476722,507.238649 L101.478582,507.234350 L101.480473,507.229982 L101.482394,507.225543 L101.484346,507.221033 L101.486330,507.216449 L101.488346,507.211791 L101.490395,507.207058 L101.492477,507.202249 L101.494593,507.197361 L101.496743,507.192394 L101.498927,507.187347 L101.501148,507.182219 L101.503404,507.177007 L101.505696,507.171711 L101.508026,507.166329 L101.510393,507.160860 L101.512799,507.155303 L101.515244,507.149656 L101.517728,507.143917 L101.520253,507.138086 L101.522819,507.132160 L101.525426,507.126138 L101.528075,507.120019 L101.530767,507.113800 L101.533503,507.107482 L101.536283,507.101060 L101.539108,507.094535 L101.541979,507.087905 L101.544897,507.081167 L101.547861,507.074320 L101.550874,507.067362 L101.553935,507.060292 L101.557047,507.053107 L101.560208,507.045806 L101.563421,507.038387 L101.566685,507.030848 L101.570003,507.023186 L101.573375,507.015401 L101.576801,507.007490 L101.580282,506.999451 L101.583820,506.991281 L101.587415,506.982980 L101.591069,506.974544 L101.594781,506.965972 L101.598554,506.957261 L101.602388,506.948409 L101.606284,506.939413 L101.610244,506.930273 L101.614267,506.920984 L101.618355,506.911545 L101.622510,506.901953 L101.626732,506.892206 L101.631023,506.882301 L101.635383,506.872236 L101.639814,506.862009 L101.644316,506.851615 L101.648892,506.841054 L101.653542,506.830322 L101.658267,506.819415 L101.663068,506.808333 L101.667948,506.797071 L101.672906,506.785627 L101.677945,506.773998 L101.683066,506.762181 L101.688269,506.750172 L101.693557,506.737969 L101.698931,506.725569 L101.704391,506.712968 L101.709941,506.700163 L101.715580,506.687151 L101.721310,506.673928 L101.727134,506.660492 L101.733052,506.646838 L101.739066,506.632963 L101.745177,506.618863 L101.751388,506.604536 L101.757699,506.589977 L101.764112,506.575182 L101.770630,506.560148 L101.777253,506.544870 L101.783984,506.529346 L101.790823,506.513570 L101.797774,506.497539 L101.804838,506.481248 L101.812015,506.464694 L101.819310,506.447873 L101.826722,506.430779 L101.834255,506.413408 L101.841910,506.395757 L101.849690,506.377820 L101.857595,506.359592 L101.865629,506.341070 L101.873793,506.322248 L101.882089,506.303122 L101.890520,506.283686 L101.899088,506.263936 L101.907795,506.243866 L101.916643,506.223472 L101.925635,506.202748 L101.934773,506.181688 L101.944059,506.160288 L101.953495,506.138542 L101.963085,506.116443 L101.972831,506.093988 L101.982734,506.071169 L101.992799,506.047981 L102.003026,506.024418 L102.013420,506.000473 L102.023982,505.976142 L102.034716,505.951416 L102.045625,505.926291 L102.056710,505.900760 L102.067975,505.874815 L102.079424,505.848451 L102.091058,505.821660 L102.102881,505.794436 L102.114896,505.766772 L102.127106,505.738660 L102.139515,505.710093 L102.152125,505.681065 L102.164940,505.651567 L102.177963,505.621592 L102.191198,505.591132 L102.204648,505.560179 L102.218316,505.528726 L102.232207,505.496764 L102.246323,505.464285 L102.260668,505.431281 L102.275247,505.397743 L102.290063,505.363662 L102.305119,505.329031 L102.320421,505.293839 L102.335971,505.258079 L102.351774,505.221740 L102.367833,505.184813 L102.384154,505.147289 L102.400741,505.109159 L102.417597,505.070412 L102.434727,505.031038 L102.452136,504.991028 L102.469828,504.950370 L102.487808,504.909055 L102.506080,504.867072 L102.524650,504.824411 L102.543522,504.781059 L102.562701,504.737007 L102.582192,504.692242 L102.602001,504.646753 L102.622132,504.600530 L102.642590,504.553558 L102.663382,504.505827 L102.684512,504.457325 L102.705987,504.408039 L102.727811,504.357955 L102.749991,504.307062 L102.772532,504.255346 L102.795440,504.202795 L102.818721,504.149393 L102.842382,504.095129 L102.866428,504.039987 L102.890867,503.983954 L102.915703,503.927015 L102.940945,503.869156 L102.966598,503.810362 L102.992669,503.750617 L103.019166,503.689907 L103.046094,503.628215 L103.073462,503.565527 L103.101277,503.501825 L103.129545,503.437094 L103.158275,503.371316 L103.187473,503.304476 L103.217148,503.236555 L103.247308,503.167537 L103.277960,503.097404 L103.309112,503.026137 L103.340774,502.953719 L103.372952,502.880130 L103.405656,502.805353 L103.438895,502.729367 L103.472677,502.652154 L103.507011,502.573693 L103.541906,502.493964 L103.577371,502.412948 L103.613417,502.330623 L103.650052,502.246967 L103.687287,502.161961 L103.725130,502.075581 L103.763593,501.987806 L103.802686,501.898613 L103.842418,501.807980 L103.882801,501.715883 L103.923845,501.622298 L103.965562,501.527202 L104.007962,501.430570 L104.051056,501.332378 L104.094857,501.232600 L104.139376,501.131210 L104.184625,501.028184 L104.230615,500.923494 L104.277361,500.817114 L104.324873,500.709016 L104.373164,500.599173 L104.422249,500.487556 L104.472139,500.374138 L104.522848,500.258889 L104.574391,500.141779 L104.626780,500.022779 L104.680029,499.901859 L104.734155,499.778987 L104.789170,499.654131 L104.845089,499.527261 L104.901929,499.398344 L104.959704,499.267346 L105.018430,499.134234 L105.078122,498.998975 L105.138797,498.861533 L105.200472,498.721873 L105.263163,498.579961 L105.326888,498.435759 L105.391663,498.289232 L105.457506,498.140340 L105.524435,497.989047 L105.592469,497.835315 L105.661625,497.679102 L105.731924,497.520371 L105.803383,497.359080 L105.876024,497.195188 L105.949865,497.028654 L106.024927,496.859435 L106.101230,496.687488 L106.178796,496.512769 L106.257646,496.335233 L106.337801,496.154836 L106.419284,495.971532 L106.502118,495.785274 L106.586324,495.596014 L106.671927,495.403704 L106.758949,495.208296 L106.847416,495.009739 L106.937352,494.807984 L107.028782,494.602979 L107.121731,494.394671 L107.216225,494.183009 L107.312291,493.967938 L107.409955,493.749403 L107.509246,493.527350 L107.610189,493.301721 L107.712815,493.072460 L107.817151,492.839508 L107.923228,492.602807 L108.031074,492.362296 L108.140721,492.117914 L108.252199,491.869599 L108.365541,491.617290 L108.480777,491.360921 L108.597942,491.100427 L108.717067,490.835744 L108.838188,490.566803 L108.961338,490.293538 L109.086553,490.015878 L109.213869,489.733754 L109.343322,489.447094 L109.474949,489.155826 L109.608789,488.859877 L109.744879,488.559171 L109.883260,488.253633 L110.023971,487.943187 L110.167052,487.627753 L110.312546,487.307252 L110.460495,486.981603 L110.610942,486.650725 L110.763931,486.314534 L110.919506,485.972946 L111.077714,485.625874 L111.238601,485.273232 L111.402213,484.914931 L111.568600,484.550881 L111.737811,484.180990 L111.909896,483.805166 L112.084906,483.423315 L112.262893,483.035341 L112.443910,482.641146 L112.628012,482.240632 L112.815253,481.833699 L113.005691,481.420245 L113.199382,481.000167 L113.396385,480.573359 L113.596759,480.139716 L113.800566,479.699128 L114.007868,479.251486 L114.218728,478.796679 L114.433210,478.334593 L114.651381,477.865114 L114.873308,477.388123 L115.099059,476.903504 L115.328704,476.411135 L115.562315,475.910894 L115.799965,475.402657 L116.041727,474.886298 L116.287678,474.361690 L116.537894,473.828701 L116.792456,473.287201 L117.051444,472.737056 L117.314940,472.178129 L117.583028,471.610283 L117.855794,471.033378 L118.133325,470.447272 L118.415712,469.851819 L118.703045,469.246875 L118.995417,468.632290 L119.292925,468.007913 L119.595665,467.373591 L119.903737,466.729170 L120.217243,466.074490 L120.536285,465.409392 L120.860972,464.733713 L121.191410,464.047289 L121.527710,463.349952 L121.869987,462.641532 L122.218355,461.921858 L122.572933,461.190753 L122.933842,460.448041 L123.301207,459.693542 L123.675152,458.927073 L124.055808,458.148448 L124.443308,457.357480 L124.837786,456.553978 L125.239381,455.737748 L125.648236,454.908594 L126.064494,454.066317 L126.488305,453.210715 L126.919821,452.341582 L127.359197,451.458712 L127.806593,450.561893 L128.262171,449.650911 L128.726099,448.725550 L129.198548,447.785589 L129.679693,446.830807 L130.169715,445.860976 L130.668796,444.875868 L131.177126,443.875250 L131.694897,442.858887 L132.222309,441.826539 L132.759564,440.777965 L133.306870,439.712919 L133.864442,438.631153 L134.432499,437.532414 L135.011265,436.416447 L135.600971,435.282992 L136.201855,434.131789 L136.814159,432.962570 L137.438132,431.775066 L138.074032,430.569006 L138.722121,429.344111 L139.382670,428.100104 L140.055957,426.836699 L140.742266,425.553610 L141.441892,424.250546 L142.155136,422.927213 L142.882309,421.583314 L143.623729,420.218545 L144.379724,418.832603 L145.150632,417.425179 L145.936801,415.995958 L146.738588,414.544627 L147.556361,413.070864 L148.390501,411.574345 L149.241396,410.054745 L150.109451,408.511731 L150.995079,406.944969 L151.898710,405.354121 L152.820783,403.738845 L153.761753,402.098796 L154.722090,400.433625 L155.702279,398.742978 L156.702819,397.026502 L157.724227,395.283835 L158.767036,393.514615 L159.831798,391.718477 L160.919081,389.895050 L162.029476,388.043962 L163.163590,386.164838 L164.322055,384.257299 L165.505522,382.320963 L166.714667,380.355445 L167.950190,378.360360 L169.212815,376.335316 L170.503293,374.279923 L171.822403,372.193784 L173.170953,370.076505 L174.549782,367.927685 L175.959760,365.746926 L177.401790,363.533825 L178.876812,361.287979 L180.385804,359.008985 L181.929779,356.696436 L183.509795,354.349927 L185.126952,351.969053 L186.782395,349.553409 L188.477318,347.102588 L190.212966,344.616188 L191.990638,342.093804 L193.811688,339.535037 L195.677532,336.939487 L197.589649,334.306758 L199.549585,331.636457 L201.558958,328.928197 L203.619463,326.181592 L205.732872,323.396264 L207.901048,320.571841 L210.125940,317.707957 L212.409597,314.804254 L214.754172,311.860384 L217.161927,308.876008 L219.635242,305.850798 L222.176625,302.784439 L224.788718,299.676628 L227.474308,296.527079 L230.231884,293.340631 L232.989460,290.201623 L235.747036,287.109349 L238.504611,284.063113 L241.262187,281.062229 L244.019763,278.106022 L246.777339,275.193828 L249.534914,272.324991 L252.292490,269.498865 L255.050066,266.714814 L257.807642,263.972213 L260.565218,261.270444 L263.322793,258.608899 L266.080369,255.986979 L268.837945,253.404094 L271.595521,250.859664 L274.353096,248.353115 L277.110672,245.883884 L279.868248,243.451415 L282.625824,241.055160 L285.383399,238.694581 L288.140975,236.369147 L290.898551,234.078334 L293.656127,231.821626 L296.413702,229.598517 L299.171278,227.408505 L301.928854,225.251099 L304.686430,223.125812 L307.444005,221.032166 L310.201581,218.969691 L312.959157,216.937922 L315.716733,214.936402 L318.474308,212.964681 L321.231884,211.022315 L323.989460,209.108867 L326.747036,207.223906 L329.504611,205.367009 L332.262187,203.537758 L335.019763,201.735741 L337.777339,199.960552 L340.534914,198.211792 L343.292490,196.489068 L346.050066,194.791992 L348.807642,193.120182 L351.565218,191.473262 L354.322793,189.850861 L357.080369,188.252615 L359.837945,186.678164 L362.595521,185.127153 L365.353096,183.599234 L368.110672,182.094062 L370.868248,180.611300 L373.625824,179.150613 L376.383399,177.711673 L379.140975,176.294156 L381.898551,174.897742 L384.656127,173.522119 L387.413702,172.166976 L390.171278,170.832009 L392.928854,169.516917 L395.686430,168.221404 L398.444005,166.945178 L401.201581,165.687953 L403.959157,164.449446 L406.716733,163.229378 L409.474308,162.027474 L412.231884,160.843464 L414.989460,159.677082 L417.747036,158.528065 L420.504611,157.396154 L423.262187,156.281096 L426.019763,155.182639 L428.777339,154.100535 L431.534914,153.034542 L434.292490,151.984419 L437.050066,150.949931 L439.807642,149.930844 L442.565218,148.926930 L445.322793,147.937962 L448.080369,146.963718 L450.837945,146.003978 L453.595521,145.058527 L456.353096,144.127152 L459.110672,143.209643 L461.868248,142.305794 L464.625824,141.415402 L467.383399,140.538266 L470.140975,139.674188 L472.898551,138.822976 L475.656127,137.984436 L478.413702,137.158380 L481.171278,136.344623 L483.928854,135.542981 L486.686430,134.753274 L489.444005,133.975324 L492.201581,133.208956 L494.959157,132.453998 L497.716733,131.710280 L500.474308,130.977634 L503.231884,130.255897 L505.989460,129.544904 L508.747036,128.844496 L511.504611,128.154517 L514.262187,127.474810 L517.019763,126.805222 L519.777339,126.145603 L522.534914,125.495805 L525.292490,124.855681 L528.050066,124.225087 L530.807642,123.603881 L533.565218,122.991924 L536.322793,122.389078 L539.080369,121.795207 L541.837945,121.210177 L544.595521,120.633858 L547.353096,120.066119 L550.110672,119.506832 L552.868248,118.955872 L555.625824,118.413115 L558.383399,117.878438 L561.140975,117.351722 L563.898551,116.832847 L566.656127,116.321698 L569.413702,115.818158 L572.171278,115.322116 L574.928854,114.833458 L577.686430,114.352076 L580.444005,113.877860 L583.201581,113.410704 L585.959157,112.950504 L588.716733,112.497155 L591.474308,112.050556 L594.231884,111.610605 L596.989460,111.177205 L599.747036,110.750257 L602.504611,110.329665 L605.262187,109.915335 L608.019763,109.507174 L610.777339,109.105090 L613.534914,108.708992 L616.292490,108.318791 L619.050066,107.934399 L621.807642,107.555730 L624.565218,107.182699 L627.322793,106.815221 L630.080369,106.453215 L632.837945,106.096598 L635.595521,105.745290 L638.353096,105.399213 L641.110672,105.058288 L643.868248,104.722439 L646.625824,104.391590 L649.383399,104.065667 L652.140975,103.744596 L654.898551,103.428305 L657.656127,103.116723 L660.413702,102.809780 L663.171278,102.507407 L665.928854,102.209535 L668.686430,101.916099 L671.444005,101.627031 L674.201581,101.342266 L676.959157,101.061741 L679.716733,100.785393 L682.474308,100.513159 L685.231884,100.244978 L687.989460,99.980790 L690.747036,99.720535 L693.504611,99.464154 L696.262187,99.211591 L699.019763,98.962788 L701.777339,98.717689 L704.534914,98.476239 L707.292490,98.238384 L710.050066,98.004070 L712.807642,97.773244 L715.565218,97.545855 L718.322793,97.321852 L721.080369,97.101183 L723.837945,96.883800 L726.595521,96.669653 L729.353096,96.458694 L732.110672,96.250876 L734.868248,96.046152 L737.625824,95.844476 L740.383399,95.645803 L743.140975,95.450088 L745.898551,95.257286 L748.656127,95.067355 L751.413702,94.880251 L754.171278,94.695933 L756.928854,94.514359 L759.686430,94.335489 L762.444005,94.159281 L765.201581,93.985697 L767.959157,93.814698 L770.716733,93.646244 L773.474308,93.480298 L776.231884,93.316822 L778.989460,93.155781 L781.747036,92.997137 L784.504611,92.840855 L787.262187,92.686900 L790.019763,92.535236 L792.777339,92.385831 L795.534914,92.238650 L798.292490,92.093661 L801.050066,91.950830 L803.807642,91.810125 L806.565218,91.671516 L809.322793,91.534969 L812.080369,91.400456 L814.837945,91.267946 L817.595521,91.137408 L820.353096,91.008814 L823.110672,90.882134 L825.868248,90.757340 L828.625824,90.634405 L831.383399,90.513299 L834.140975,90.393997 L836.898551,90.276470 L839.656127,90.160694 L842.413702,90.046641 L845.171278,89.934286 L847.928854,89.823604 L850.686430,89.714570 L853.444005,89.607159 L856.201581,89.501347 L858.959157,89.397110 L861.716733,89.294426 L864.474308,89.193270 L867.231884,89.093620 L869.989460,88.995454 L872.747036,88.898749 L875.504611,88.803484 L878.262187,88.709638 L881.019763,88.617188 L883.777339,88.526115 L886.534914,88.436398 L889.292490,88.348017 L892.050066,88.260951 L894.807642,88.175182 L897.565218,88.090689 L900.322793,88.007455 L903.080369,87.925459 L905.837945,87.844685 L908.595521,87.765113 L911.353096,87.686725 L914.110672,87.609505 L916.868248,87.533434 L919.625824,87.458496 L922.383399,87.384674 L925.140975,87.311951 L927.898551,87.240310 L928.636364,87.221324" stroke="#ff7f0e" stroke-width="2" fill="none"/><path d="M101.363636,82.500000 L101.363696,82.500137 L101.363749,82.500261 L101.363799,82.500377 L101.363846,82.500485 L101.363891,82.500589 L101.363935,82.500690 L101.363977,82.500788 L101.364019,82.500884 L101.364060,82.500980 L101.364101,82.501074 L101.364142,82.501169 L101.364183,82.501263 L101.364224,82.501358 L101.364265,82.501454 L101.364307,82.501550 L101.364349,82.501647 L101.364391,82.501745 L101.364434,82.501845 L101.364478,82.501945 L101.364522,82.502047 L101.364567,82.502150 L101.364612,82.502255 L101.364658,82.502361 L101.364704,82.502469 L101.364752,82.502578 L101.364800,82.502689 L101.364849,82.502802 L101.364898,82.502916 L101.364948,82.503033 L101.364999,82.503151 L101.365051,82.503271 L101.365104,82.503393 L101.365158,82.503516 L101.365212,82.503642 L101.365267,82.503770 L101.365324,82.503900 L101.365381,82.504032 L101.365439,82.504166 L101.365498,82.504302 L101.365558,82.504441 L101.365618,82.504582 L101.365680,82.504724 L101.365743,82.504870 L101.365807,82.505017 L101.365872,82.505167 L101.365938,82.505320 L101.366005,82.505475 L101.366073,82.505632 L101.366142,82.505792 L101.366213,82.505955 L101.366284,82.506120 L101.366357,82.506288 L101.366430,82.506458 L101.366505,82.506631 L101.366582,82.506808 L101.366659,82.506987 L101.366738,82.507168 L101.366818,82.507353 L101.366899,82.507541 L101.366981,82.507732 L101.367065,82.507926 L101.367151,82.508123 L101.367237,82.508323 L101.367325,82.508527 L101.367415,82.508733 L101.367506,82.508943 L101.367598,82.509157 L101.367692,82.509374 L101.367787,82.509595 L101.367884,82.509819 L101.367983,82.510046 L101.368083,82.510278 L101.368185,82.510513 L101.368288,82.510752 L101.368393,82.510995 L101.368500,82.511241 L101.368608,82.511492 L101.368718,82.511747 L101.368830,82.512006 L101.368944,82.512269 L101.369060,82.512536 L101.369177,82.512808 L101.369297,82.513084 L101.369418,82.513364 L101.369542,82.513649 L101.369667,82.513939 L101.369794,82.514234 L101.369924,82.514533 L101.370055,82.514837 L101.370189,82.515146 L101.370325,82.515460 L101.370463,82.515778 L101.370603,82.516103 L101.370746,82.516432 L101.370890,82.516767 L101.371038,82.517107 L101.371187,82.517453 L101.371339,82.517804 L101.371493,82.518161 L101.371650,82.518523 L101.371810,82.518892 L101.371972,82.519267 L101.372137,82.519647 L101.372304,82.520034 L101.372474,82.520427 L101.372647,82.520826 L101.372822,82.521232 L101.373001,82.521645 L101.373182,82.522064 L101.373366,82.522490 L101.373554,82.522922 L101.373744,82.523362 L101.373937,82.523809 L101.374134,82.524263 L101.374333,82.524725 L101.374536,82.525194 L101.374742,82.525670 L101.374952,82.526154 L101.375165,82.526647 L101.375381,82.527147 L101.375601,82.527655 L101.375824,82.528171 L101.376051,82.528696 L101.376282,82.529229 L101.376517,82.529771 L101.376755,82.530321 L101.376997,82.530881 L101.377243,82.531450 L101.377493,82.532027 L101.377747,82.532615 L101.378005,82.533211 L101.378267,82.533817 L101.378534,82.534434 L101.378805,82.535060 L101.379080,82.535696 L101.379360,82.536342 L101.379644,82.536999 L101.379933,82.537667 L101.380227,82.538345 L101.380525,82.539035 L101.380828,82.539735 L101.381136,82.540447 L101.381449,82.541171 L101.381767,82.541906 L101.382090,82.542653 L101.382419,82.543412 L101.382752,82.544183 L101.383092,82.544967 L101.383436,82.545764 L101.383786,82.546573 L101.384142,82.547396 L101.384504,82.548231 L101.384872,82.549081 L101.385245,82.549944 L101.385624,82.550821 L101.386010,82.551712 L101.386402,82.552618 L101.386800,82.553539 L101.387205,82.554474 L101.387616,82.555424 L101.388034,82.556390 L101.388459,82.557371 L101.388890,82.558369 L101.389329,82.559382 L101.389774,82.560412 L101.390227,82.561459 L101.390687,82.562522 L101.391155,82.563603 L101.391630,82.564701 L101.392113,82.565817 L101.392604,82.566951 L101.393102,82.568103 L101.393609,82.569274 L101.394124,82.570464 L101.394647,82.571673 L101.395179,82.572902 L101.395719,82.574151 L101.396268,82.575420 L101.396826,82.576709 L101.397393,82.578019 L101.397969,82.579351 L101.398555,82.580704 L101.399150,82.582079 L101.399754,82.583476 L101.400369,82.584896 L101.400993,82.586339 L101.401627,82.587805 L101.402272,82.589295 L101.402927,82.590809 L101.403593,82.592347 L101.404269,82.593910 L101.404957,82.595499 L101.405656,82.597114 L101.406365,82.598754 L101.407087,82.600421 L101.407820,82.602115 L101.408565,82.603837 L101.409322,82.605586 L101.410091,82.607364 L101.410873,82.609170 L101.411667,82.611006 L101.412474,82.612871 L101.413295,82.614766 L101.414128,82.616693 L101.414975,82.618650 L101.415836,82.620639 L101.416711,82.622660 L101.417600,82.624714 L101.418503,82.626802 L101.419421,82.628922 L101.420353,82.631078 L101.421301,82.633268 L101.422264,82.635494 L101.423243,82.637755 L101.424238,82.640054 L101.425249,82.642389 L101.426276,82.644762 L101.427319,82.647174 L101.428380,82.649625 L101.429458,82.652115 L101.430553,82.654646 L101.431666,82.657217 L101.432797,82.659830 L101.433946,82.662486 L101.435114,82.665184 L101.436301,82.667927 L101.437507,82.670713 L101.438733,82.673545 L101.439978,82.676422 L101.441244,82.679346 L101.442530,82.682318 L101.443837,82.685337 L101.445165,82.688405 L101.446514,82.691523 L101.447885,82.694692 L101.449279,82.697912 L101.450695,82.701183 L101.452134,82.704508 L101.453597,82.707887 L101.455083,82.711320 L101.456593,82.714809 L101.458127,82.718354 L101.459687,82.721957 L101.461272,82.725618 L101.462882,82.729338 L101.464518,82.733118 L101.466181,82.736960 L101.467871,82.740864 L101.469588,82.744830 L101.471333,82.748862 L101.473106,82.752958 L101.474908,82.757121 L101.476740,82.761351 L101.478600,82.765649 L101.480491,82.770017 L101.482413,82.774456 L101.484366,82.778966 L101.486350,82.783550 L101.488366,82.788208 L101.490415,82.792941 L101.492498,82.797750 L101.494614,82.802638 L101.496764,82.807605 L101.498949,82.812652 L101.501169,82.817780 L101.503426,82.822992 L101.505719,82.828288 L101.508049,82.833670 L101.510417,82.839139 L101.512823,82.844696 L101.515268,82.850343 L101.517753,82.856082 L101.520278,82.861913 L101.522844,82.867839 L101.525451,82.873861 L101.528101,82.879980 L101.530794,82.886198 L101.533530,82.892517 L101.536311,82.898938 L101.539136,82.905463 L101.542008,82.912094 L101.544925,82.918832 L101.547891,82.925679 L101.550904,82.932636 L101.553966,82.939707 L101.557077,82.946892 L101.560239,82.954193 L101.563453,82.961612 L101.566718,82.969151 L101.570036,82.976812 L101.573408,82.984597 L101.576835,82.992509 L101.580317,83.000548 L101.583855,83.008717 L101.587451,83.017018 L101.591105,83.025454 L101.594818,83.034027 L101.598592,83.042738 L101.602426,83.051590 L101.606323,83.060585 L101.610283,83.069726 L101.614307,83.079014 L101.618396,83.088453 L101.622552,83.098045 L101.626774,83.107792 L101.631066,83.117697 L101.635426,83.127761 L101.639858,83.137989 L101.644361,83.148383 L101.648937,83.158944 L101.653588,83.169676 L101.658314,83.180582 L101.663116,83.191665 L101.667996,83.202927 L101.672955,83.214371 L101.677995,83.226000 L101.683117,83.237817 L101.688321,83.249826 L101.693610,83.262029 L101.698984,83.274429 L101.704446,83.287030 L101.709996,83.299835 L101.715636,83.312847 L101.721368,83.326069 L101.727192,83.339506 L101.733111,83.353160 L101.739126,83.367034 L101.745238,83.381134 L101.751450,83.395461 L101.757762,83.410020 L101.764176,83.424815 L101.770695,83.439849 L101.777319,83.455127 L101.784051,83.470651 L101.790892,83.486427 L101.797843,83.502458 L101.804908,83.518748 L101.812087,83.535302 L101.819383,83.552124 L101.826796,83.569218 L101.834330,83.586588 L101.841987,83.604240 L101.849767,83.622177 L101.857674,83.640404 L101.865709,83.658926 L101.873874,83.677748 L101.882172,83.696874 L101.890605,83.716310 L101.899174,83.736060 L101.907882,83.756130 L101.916732,83.776524 L101.925725,83.797248 L101.934864,83.818308 L101.944151,83.839708 L101.953589,83.861454 L101.963181,83.883552 L101.972928,83.906008 L101.982833,83.928827 L101.992899,83.952015 L102.003128,83.975578 L102.013524,83.999522 L102.024088,84.023853 L102.034824,84.048579 L102.045734,84.073704 L102.056821,84.099235 L102.068088,84.125180 L102.079538,84.151544 L102.091174,84.178334 L102.102999,84.205558 L102.115016,84.233223 L102.127228,84.261334 L102.139639,84.289901 L102.152251,84.318929 L102.165068,84.348427 L102.178093,84.378402 L102.191330,84.408862 L102.204782,84.439815 L102.218453,84.471268 L102.232345,84.503230 L102.246464,84.535709 L102.260812,84.568713 L102.275393,84.602250 L102.290211,84.636331 L102.305270,84.670962 L102.320573,84.706153 L102.336126,84.741914 L102.351931,84.778253 L102.367994,84.815179 L102.384317,84.852703 L102.400906,84.890833 L102.417765,84.929581 L102.434898,84.968954 L102.452310,85.008964 L102.470004,85.049622 L102.487987,85.090936 L102.506263,85.132919 L102.524835,85.175581 L102.543710,85.218932 L102.562892,85.262984 L102.582387,85.307749 L102.602198,85.353237 L102.622333,85.399461 L102.642794,85.446432 L102.663590,85.494163 L102.684723,85.542665 L102.706201,85.591951 L102.728029,85.642035 L102.750212,85.692928 L102.772756,85.744643 L102.795668,85.797195 L102.818953,85.850596 L102.842618,85.904860 L102.866668,85.960002 L102.891110,86.016035 L102.915951,86.072973 L102.941196,86.130832 L102.966854,86.189626 L102.992929,86.249371 L103.019430,86.310081 L103.046363,86.371772 L103.073735,86.434461 L103.101554,86.498162 L103.129827,86.562893 L103.158561,86.628671 L103.187764,86.695511 L103.217444,86.763431 L103.247608,86.832449 L103.278265,86.902582 L103.309423,86.973849 L103.341089,87.046267 L103.373273,87.119855 L103.405982,87.194632 L103.439226,87.270618 L103.473013,87.347831 L103.507353,87.426291 L103.542253,87.506019 L103.577725,87.587036 L103.613776,87.669361 L103.650417,87.753016 L103.687657,87.838022 L103.725507,87.924401 L103.763976,88.012176 L103.803075,88.101369 L103.842814,88.192002 L103.883203,88.284099 L103.924254,88.377683 L103.965977,88.472779 L104.008383,88.569411 L104.051485,88.667603 L104.095293,88.767380 L104.139819,88.868769 L104.185075,88.971795 L104.231073,89.076485 L104.277826,89.182865 L104.325345,89.290963 L104.373645,89.400805 L104.422737,89.512421 L104.472635,89.625839 L104.523352,89.741088 L104.574903,89.858197 L104.627300,89.977197 L104.680559,90.098117 L104.734692,90.220988 L104.789716,90.345843 L104.845645,90.472713 L104.902494,90.601630 L104.960278,90.732628 L105.019013,90.865739 L105.078715,91.000998 L105.139400,91.138440 L105.201084,91.278098 L105.263786,91.420010 L105.327520,91.564211 L105.392305,91.710739 L105.458159,91.859630 L105.525099,92.010922 L105.593143,92.164654 L105.662311,92.320866 L105.732621,92.479597 L105.804092,92.640887 L105.876744,92.804779 L105.950597,92.971312 L106.025671,93.140531 L106.101986,93.312478 L106.179564,93.487196 L106.258427,93.664731 L106.338595,93.845127 L106.420091,94.028431 L106.502937,94.214689 L106.587157,94.403948 L106.672773,94.596257 L106.759810,94.791665 L106.848291,94.990221 L106.938242,95.191975 L107.029686,95.396980 L107.122650,95.605287 L107.217159,95.816948 L107.313240,96.032019 L107.410920,96.250553 L107.510226,96.472606 L107.611186,96.698234 L107.713828,96.927494 L107.818181,97.160445 L107.924274,97.397146 L108.032138,97.637656 L108.141802,97.882037 L108.253298,98.130350 L108.366658,98.382659 L108.481913,98.639028 L108.599096,98.899520 L108.718240,99.164203 L108.839380,99.433142 L108.962550,99.706407 L109.087785,99.984066 L109.215121,100.266189 L109.344595,100.552848 L109.476243,100.844115 L109.610104,101.140064 L109.746216,101.440768 L109.884619,101.746305 L110.025352,102.056751 L110.168457,102.372184 L110.313974,102.692684 L110.461946,103.018331 L110.612417,103.349208 L110.765430,103.685398 L110.921030,104.026985 L111.079263,104.374056 L111.240176,104.726697 L111.403814,105.084997 L111.570228,105.449046 L111.739466,105.818935 L111.911578,106.194758 L112.086616,106.576608 L112.264631,106.964581 L112.445677,107.358775 L112.629808,107.759287 L112.817080,108.166219 L113.007548,108.579671 L113.201269,108.999748 L113.398304,109.426555 L113.598710,109.860197 L113.802550,110.300783 L114.009885,110.748423 L114.220778,111.203229 L114.435295,111.665313 L114.653500,112.134792 L114.875463,112.611780 L115.101249,113.096398 L115.330931,113.588766 L115.564579,114.089005 L115.802267,114.597240 L116.044067,115.113598 L116.290057,115.638205 L116.540314,116.171191 L116.794917,116.712690 L117.053946,117.262833 L117.317483,117.821758 L117.585614,118.389602 L117.858423,118.966506 L118.135999,119.552610 L118.418431,120.148061 L118.705809,120.753003 L118.998229,121.367586 L119.295784,121.991961 L119.598572,122.626281 L119.906693,123.270700 L120.220248,123.925378 L120.539342,124.590474 L120.864080,125.266151 L121.194571,125.952573 L121.530925,126.649907 L121.873256,127.358325 L122.221679,128.077997 L122.576314,128.809099 L122.937281,129.551809 L123.304703,130.306306 L123.678709,131.072772 L124.059425,131.851395 L124.446987,132.642360 L124.841528,133.445860 L125.243187,134.262087 L125.652106,135.091238 L126.068431,135.933513 L126.492310,136.789113 L126.923894,137.658242 L127.363340,138.541110 L127.810807,139.437927 L128.266458,140.348905 L128.730460,141.274264 L129.202984,142.214221 L129.684206,143.169000 L130.174305,144.138828 L130.673465,145.123933 L131.181876,146.124548 L131.699730,147.140908 L132.227226,148.173253 L132.764566,149.221823 L133.311960,150.286866 L133.869620,151.368629 L134.437767,152.467365 L135.016626,153.583328 L135.606426,154.716779 L136.207405,155.867979 L136.819806,157.037194 L137.443879,158.224694 L138.079880,159.430751 L138.728072,160.655642 L139.388726,161.899646 L140.062119,163.163046 L140.748538,164.446131 L141.448275,165.749191 L142.161633,167.072520 L142.888921,168.416415 L143.630458,169.781179 L144.386573,171.167117 L145.157604,172.574538 L145.943898,174.003753 L146.745812,175.455080 L147.563716,176.928839 L148.397987,178.425353 L149.249018,179.944949 L150.117211,181.487958 L151.002980,183.054715 L151.906753,184.645558 L152.828973,186.260829 L153.770092,187.900873 L154.730582,189.566040 L155.710927,191.256681 L156.711625,192.973152 L157.733195,194.715814 L158.776170,196.485028 L159.841100,198.281161 L160.928556,200.104583 L162.039127,201.955665 L163.173421,203.834783 L164.332069,205.742317 L165.515724,207.678647 L166.725061,209.644158 L167.960779,211.639238 L169.223604,213.664275 L170.514287,215.719663 L171.833606,217.805795 L173.182370,219.923068 L174.561417,222.071881 L175.971617,224.252634 L177.413876,226.465728 L178.889132,228.711568 L180.398362,230.990556 L181.942581,233.303098 L183.522847,235.649600 L185.140260,238.030467 L186.795964,240.446104 L188.491156,242.896918 L190.227078,245.383311 L192.005030,247.905687 L193.826368,250.464447 L195.692507,253.059990 L197.604925,255.692712 L199.565171,258.363004 L201.574861,261.071257 L203.635691,263.817855 L205.749434,266.603175 L207.917951,269.427590 L210.143194,272.291466 L212.427211,275.195161 L214.772155,278.139022 L217.180289,281.123390 L219.653993,284.148592 L222.195776,287.214943 L224.808280,290.322746 L227.494292,293.472286 L230.251868,296.658229 L233.009444,299.796747 L235.767020,302.888546 L238.524595,305.934321 L241.282171,308.934759 L244.039747,311.890532 L246.797323,314.802307 L249.554898,317.670739 L252.312474,320.496472 L255.070050,323.280142 L257.827626,326.022375 L260.585202,328.723789 L263.342777,331.384990 L266.100353,334.006577 L268.857929,336.589140 L271.615505,339.133260 L274.373080,341.639510 L277.130656,344.108452 L279.888232,346.540642 L282.645808,348.936628 L285.403383,351.296947 L288.160959,353.622132 L290.918535,355.912705 L293.676111,358.169181 L296.433686,360.392068 L299.191262,362.581866 L301.948838,364.739068 L304.706414,366.864158 L307.463989,368.957614 L310.221565,371.019909 L312.979141,373.051504 L315.736717,375.052858 L318.494292,377.024421 L321.251868,378.966635 L324.009444,380.879939 L326.767020,382.764761 L329.524595,384.621527 L332.282171,386.450654 L335.039747,388.252552 L337.797323,390.027629 L340.554898,391.776282 L343.312474,393.498905 L346.070050,395.195886 L348.827626,396.867607 L351.585202,398.514442 L354.342777,400.136764 L357.100353,401.734936 L359.857929,403.309318 L362.615505,404.860265 L365.373080,406.388125 L368.130656,407.893241 L370.888232,409.375953 L373.645808,410.836594 L376.403383,412.275492 L379.160959,413.692971 L381.918535,415.089350 L384.676111,416.464943 L387.433686,417.820060 L390.191262,419.155004 L392.948838,420.470078 L395.706414,421.765575 L398.463989,423.041788 L401.221565,424.299004 L403.979141,425.537505 L406.736717,426.757571 L409.494292,427.959475 L412.251868,429.143488 L415.009444,430.309876 L417.767020,431.458901 L420.524595,432.590823 L423.282171,433.705895 L426.039747,434.804369 L428.797323,435.886491 L431.554898,436.952505 L434.312474,438.002650 L437.070050,439.037164 L439.827626,440.056278 L442.585202,441.060222 L445.342777,442.049222 L448.100353,443.023500 L450.857929,443.983274 L453.615505,444.928763 L456.373080,445.860176 L459.130656,446.777726 L461.888232,447.681616 L464.645808,448.572052 L467.403383,449.449233 L470.160959,450.313357 L472.918535,451.164618 L475.676111,452.003207 L478.433686,452.829313 L481.191262,453.643122 L483.948838,454.444817 L486.706414,455.234578 L489.463989,456.012583 L492.221565,456.779007 L494.979141,457.534022 L497.736717,458.277799 L500.494292,459.010503 L503.251868,459.732301 L506.009444,460.443355 L508.767020,461.143824 L511.524595,461.833866 L514.282171,462.513636 L517.039747,463.183288 L519.797323,463.842971 L522.554898,464.492834 L525.312474,465.133024 L528.070050,465.763685 L530.827626,466.384957 L533.585202,466.996981 L536.342777,467.599895 L539.100353,468.193834 L541.857929,468.778933 L544.615505,469.355321 L547.373080,469.923130 L550.130656,470.482486 L552.888232,471.033516 L555.645808,471.576343 L558.403383,472.111091 L561.160959,472.637878 L563.918535,473.156823 L566.676111,473.668044 L569.433686,474.171655 L572.191262,474.667769 L574.948838,475.156498 L577.706414,475.637952 L580.463989,476.112240 L583.221565,476.579467 L585.979141,477.039740 L588.736717,477.493161 L591.494292,477.939832 L594.251868,478.379855 L597.009444,478.813327 L599.767020,479.240347 L602.524595,479.661010 L605.282171,480.075412 L608.039747,480.483645 L610.797323,480.885801 L613.554898,481.281971 L616.312474,481.672243 L619.070050,482.056707 L621.827626,482.435447 L624.585202,482.808549 L627.342777,483.176097 L630.100353,483.538175 L632.857929,483.894862 L635.615505,484.246240 L638.373080,484.592387 L641.130656,484.933382 L643.888232,485.269301 L646.645808,485.600220 L649.403383,485.926212 L652.160959,486.247352 L654.918535,486.563712 L657.676111,486.875362 L660.433686,487.182373 L663.191262,487.484815 L665.948838,487.782754 L668.706414,488.076258 L671.463989,488.365393 L674.221565,488.650224 L676.979141,488.930815 L679.736717,489.207230 L682.494292,489.479530 L685.251868,489.747776 L688.009444,490.012030 L690.767020,490.272350 L693.524595,490.528795 L696.282171,490.781422 L699.039747,491.030289 L701.797323,491.275452 L704.554898,491.516965 L707.312474,491.754883 L710.070050,491.989259 L712.827626,492.220146 L715.585202,492.447597 L718.342777,492.671662 L721.100353,492.892392 L723.857929,493.109835 L726.615505,493.324042 L729.373080,493.535061 L732.130656,493.742938 L734.888232,493.947721 L737.645808,494.149455 L740.403383,494.348187 L743.160959,494.543960 L745.918535,494.736820 L748.676111,494.926808 L751.433686,495.113968 L754.191262,495.298342 L756.948838,495.479972 L759.706414,495.658898 L762.463989,495.835161 L765.221565,496.008799 L767.979141,496.179853 L770.736717,496.348361 L773.494292,496.514361 L776.251868,496.677889 L779.009444,496.838983 L781.767020,496.997679 L784.524595,497.154013 L787.282171,497.308020 L790.039747,497.459735 L792.797323,497.609190 L795.554898,497.756422 L798.312474,497.901461 L801.070050,498.044342 L803.827626,498.185095 L806.585202,498.323754 L809.342777,498.460348 L812.100353,498.594909 L814.857929,498.727468 L817.615505,498.858052 L820.373080,498.986693 L823.130656,499.113420 L825.888232,499.238259 L828.645808,499.361241 L831.403383,499.482392 L834.160959,499.601739 L836.918535,499.719310 L839.676111,499.835130 L842.433686,499.949227 L845.191262,500.061625 L847.948838,500.172350 L850.706414,500.281427 L853.463989,500.388880 L856.221565,500.494734 L858.979141,500.599012 L861.736717,500.701738 L864.494292,500.802934 L867.251868,500.902625 L870.009444,501.000831 L872.767020,501.097575 L875.524595,501.192879 L878.282171,501.286765 L881.039747,501.379253 L883.797323,501.470364 L886.554898,501.560120 L889.312474,501.648539 L892.070050,501.735641 L894.827626,501.821448 L897.585202,501.905977 L900.342777,501.989247 L903.100353,502.071278 L905.857929,502.152089 L908.615505,502.231696 L911.373080,502.310118 L914.130656,502.387373 L916.888232,502.463478 L919.645808,502.538449 L922.403383,502.612305 L925.160959,502.685062 L927.918535,502.756735 L928.636364,502.775217" stroke="#0d4a70" stroke-width="2" fill="none"/><path d="M101.363636,507.500000 L101.363696,507.499863 L101.363749,507.499739 L101.363799,507.499623 L101.363846,507.499515 L101.363891,507.499411 L101.363935,507.499310 L101.363977,507.499212 L101.364019,507.499116 L101.364060,507.499020 L101.364101,507.498926 L101.364142,507.498831 L101.364183,507.498737 L101.364224,507.498642 L101.364265,507.498546 L101.364307,507.498450 L101.364349,507.498353 L101.364391,507.498255 L101.364434,507.498155 L101.364478,507.498055 L101.364522,507.497953 L101.364567,507.497850 L101.364612,507.497745 L101.364658,507.497639 L101.364704,507.497531 L101.364752,507.497422 L101.364800,507.497311 L101.364849,507.497198 L101.364898,507.497084 L101.364948,507.496967 L101.364999,507.496849 L101.365051,507.496729 L101.365104,507.496607 L101.365158,507.496484 L101.365212,507.496358 L101.365267,507.496230 L101.365324,507.496100 L101.365381,507.495968 L101.365439,507.495834 L101.365498,507.495698 L101.365558,507.495559 L101.365618,507.495418 L101.365680,507.495276 L101.365743,507.495130 L101.365807,507.494983 L101.365872,507.494833 L101.365938,507.494680 L101.366005,507.494525 L101.366073,507.494368 L101.366142,507.494208 L101.366213,507.494045 L101.366284,507.493880 L101.366357,507.493712 L101.366430,507.493542 L101.366505,507.493369 L101.366582,507.493192 L101.366659,507.493013 L101.366738,507.492832 L101.366818,507.492647 L101.366899,507.492459 L101.366981,507.492268 L101.367065,507.492074 L101.367151,507.491877 L101.367237,507.491677 L101.367325,507.491473 L101.367415,507.491267 L101.367506,507.491057 L101.367598,507.490843 L101.367692,507.490626 L101.367787,507.490405 L101.367884,507.490181 L101.367983,507.489954 L101.368083,507.489722 L101.368185,507.489487 L101.368288,507.489248 L101.368393,507.489005 L101.368500,507.488759 L101.368608,507.488508 L101.368718,507.488253 L101.368830,507.487994 L101.368944,507.487731 L101.369060,507.487464 L101.369177,507.487192 L101.369297,507.486916 L101.369418,507.486636 L101.369542,507.486351 L101.369667,507.486061 L101.369794,507.485766 L101.369924,507.485467 L101.370055,507.485163 L101.370189,507.484854 L101.370325,507.484540 L101.370463,507.484222 L101.370603,507.483897 L101.370746,507.483568 L101.370890,507.483233 L101.371038,507.482893 L101.371187,507.482547 L101.371339,507.482196 L101.371493,507.481839 L101.371650,507.481477 L101.371810,507.481108 L101.371972,507.480733 L101.372137,507.480353 L101.372304,507.479966 L101.372474,507.479573 L101.372647,507.479174 L101.372822,507.478768 L101.373001,507.478355 L101.373182,507.477936 L101.373366,507.477510 L101.373554,507.477078 L101.373744,507.476638 L101.373937,507.476191 L101.374134,507.475737 L101.374333,507.475275 L101.374536,507.474806 L101.374742,507.474330 L101.374952,507.473846 L101.375165,507.473353 L101.375381,507.472853 L101.375601,507.472345 L101.375824,507.471829 L101.376051,507.471304 L101.376282,507.470771 L101.376517,507.470229 L101.376755,507.469679 L101.376997,507.469119 L101.377243,507.468550 L101.377493,507.467973 L101.377747,507.467385 L101.378005,507.466789 L101.378267,507.466183 L101.378534,507.465566 L101.378805,507.464940 L101.379080,507.464304 L101.379360,507.463658 L101.379644,507.463001 L101.379933,507.462333 L101.380227,507.461655 L101.380525,507.460965 L101.380828,507.460265 L101.381136,507.459553 L101.381449,507.458829 L101.381767,507.458094 L101.382090,507.457347 L101.382419,507.456588 L101.382752,507.455817 L101.383092,507.455033 L101.383436,507.454236 L101.383786,507.453427 L101.384142,507.452604 L101.384504,507.451769 L101.384872,507.450919 L101.385245,507.450056 L101.385624,507.449179 L101.386010,507.448288 L101.386402,507.447382 L101.386800,507.446461 L101.387205,507.445526 L101.387616,507.444576 L101.388034,507.443610 L101.388459,507.442629 L101.388890,507.441631 L101.389329,507.440618 L101.389774,507.439588 L101.390227,507.438541 L101.390687,507.437478 L101.391155,507.436397 L101.391630,507.435299 L101.392113,507.434183 L101.392604,507.433049 L101.393102,507.431897 L101.393609,507.430726 L101.394124,507.429536 L101.394647,507.428327 L101.395179,507.427098 L101.395719,507.425849 L101.396268,507.424580 L101.396826,507.423291 L101.397393,507.421981 L101.397969,507.420649 L101.398555,507.419296 L101.399150,507.417921 L101.399754,507.416524 L101.400369,507.415104 L101.400993,507.413661 L101.401627,507.412195 L101.402272,507.410705 L101.402927,507.409191 L101.403593,507.407653 L101.404269,507.406090 L101.404957,507.404501 L101.405656,507.402886 L101.406365,507.401246 L101.407087,507.399579 L101.407820,507.397885 L101.408565,507.396163 L101.409322,507.394414 L101.410091,507.392636 L101.410873,507.390830 L101.411667,507.388994 L101.412474,507.387129 L101.413295,507.385234 L101.414128,507.383307 L101.414975,507.381350 L101.415836,507.379361 L101.416711,507.377340 L101.417600,507.375286 L101.418503,507.373198 L101.419421,507.371078 L101.420353,507.368922 L101.421301,507.366732 L101.422264,507.364506 L101.423243,507.362245 L101.424238,507.359946 L101.425249,507.357611 L101.426276,507.355238 L101.427319,507.352826 L101.428380,507.350375 L101.429458,507.347885 L101.430553,507.345354 L101.431666,507.342783 L101.432797,507.340170 L101.433946,507.337514 L101.435114,507.334816 L101.436301,507.332073 L101.437507,507.329287 L101.438733,507.326455 L101.439978,507.323578 L101.441244,507.320654 L101.442530,507.317682 L101.443837,507.314663 L101.445165,507.311595 L101.446514,507.308477 L101.447885,507.305308 L101.449279,507.302088 L101.450695,507.298817 L101.452134,507.295492 L101.453597,507.292113 L101.455083,507.288680 L101.456593,507.285191 L101.458127,507.281646 L101.459687,507.278043 L101.461272,507.274382 L101.462882,507.270662 L101.464518,507.266882 L101.466181,507.263040 L101.467871,507.259136 L101.469588,507.255170 L101.471333,507.251138 L101.473106,507.247042 L101.474908,507.242879 L101.476740,507.238649 L101.478600,507.234351 L101.480491,507.229983 L101.482413,507.225544 L101.484366,507.221034 L101.486350,507.216450 L101.488366,507.211792 L101.490415,507.207059 L101.492498,507.202250 L101.494614,507.197362 L101.496764,507.192395 L101.498949,507.187348 L101.501169,507.182220 L101.503426,507.177008 L101.505719,507.171712 L101.508049,507.166330 L101.510417,507.160861 L101.512823,507.155304 L101.515268,507.149657 L101.517753,507.143918 L101.520278,507.138087 L101.522844,507.132161 L101.525451,507.126139 L101.528101,507.120020 L101.530794,507.113802 L101.533530,507.107483 L101.536311,507.101062 L101.539136,507.094537 L101.542008,507.087906 L101.544925,507.081168 L101.547891,507.074321 L101.550904,507.067364 L101.553966,507.060293 L101.557077,507.053108 L101.560239,507.045807 L101.563453,507.038388 L101.566718,507.030849 L101.570036,507.023188 L101.573408,507.015403 L101.576835,507.007491 L101.580317,506.999452 L101.583855,506.991283 L101.587451,506.982982 L101.591105,506.974546 L101.594818,506.965973 L101.598592,506.957262 L101.602426,506.948410 L101.606323,506.939415 L101.610283,506.930274 L101.614307,506.920986 L101.618396,506.911547 L101.622552,506.901955 L101.626774,506.892208 L101.631066,506.882303 L101.635426,506.872239 L101.639858,506.862011 L101.644361,506.851617 L101.648937,506.841056 L101.653588,506.830324 L101.658314,506.819418 L101.663116,506.808335 L101.667996,506.797073 L101.672955,506.785629 L101.677995,506.774000 L101.683117,506.762183 L101.688321,506.750174 L101.693610,506.737971 L101.698984,506.725571 L101.704446,506.712970 L101.709996,506.700165 L101.715636,506.687153 L101.721368,506.673931 L101.727192,506.660494 L101.733111,506.646840 L101.739126,506.632966 L101.745238,506.618866 L101.751450,506.604539 L101.757762,506.589980 L101.764176,506.575185 L101.770695,506.560151 L101.777319,506.544873 L101.784051,506.529349 L101.790892,506.513573 L101.797843,506.497542 L101.804908,506.481252 L101.812087,506.464698 L101.819383,506.447876 L101.826796,506.430782 L101.834330,506.413412 L101.841987,506.395760 L101.849767,506.377823 L101.857674,506.359596 L101.865709,506.341074 L101.873874,506.322252 L101.882172,506.303126 L101.890605,506.283690 L101.899174,506.263940 L101.907882,506.243870 L101.916732,506.223476 L101.925725,506.202752 L101.934864,506.181692 L101.944151,506.160292 L101.953589,506.138546 L101.963181,506.116448 L101.972928,506.093992 L101.982833,506.071173 L101.992899,506.047985 L102.003128,506.024422 L102.013524,506.000478 L102.024088,505.976147 L102.034824,505.951421 L102.045734,505.926296 L102.056821,505.900765 L102.068088,505.874820 L102.079538,505.848456 L102.091174,505.821666 L102.102999,505.794442 L102.115016,505.766777 L102.127228,505.738666 L102.139639,505.710099 L102.152251,505.681071 L102.165068,505.651573 L102.178093,505.621598 L102.191330,505.591138 L102.204782,505.560185 L102.218453,505.528732 L102.232345,505.496770 L102.246464,505.464291 L102.260812,505.431287 L102.275393,505.397750 L102.290211,505.363669 L102.305270,505.329038 L102.320573,505.293847 L102.336126,505.258086 L102.351931,505.221747 L102.367994,505.184821 L102.384317,505.147297 L102.400906,505.109167 L102.417765,505.070419 L102.434898,505.031046 L102.452310,504.991036 L102.470004,504.950378 L102.487987,504.909064 L102.506263,504.867081 L102.524835,504.824419 L102.543710,504.781068 L102.562892,504.737016 L102.582387,504.692251 L102.602198,504.646763 L102.622333,504.600539 L102.642794,504.553568 L102.663590,504.505837 L102.684723,504.457335 L102.706201,504.408049 L102.728029,504.357965 L102.750212,504.307072 L102.772756,504.255357 L102.795668,504.202805 L102.818953,504.149404 L102.842618,504.095140 L102.866668,504.039998 L102.891110,503.983965 L102.915951,503.927027 L102.941196,503.869168 L102.966854,503.810374 L102.992929,503.750629 L103.019430,503.689919 L103.046363,503.628228 L103.073735,503.565539 L103.101554,503.501838 L103.129827,503.437107 L103.158561,503.371329 L103.187764,503.304489 L103.217444,503.236569 L103.247608,503.167551 L103.278265,503.097418 L103.309423,503.026151 L103.341089,502.953733 L103.373273,502.880145 L103.405982,502.805368 L103.439226,502.729382 L103.473013,502.652169 L103.507353,502.573709 L103.542253,502.493981 L103.577725,502.412964 L103.613776,502.330639 L103.650417,502.246984 L103.687657,502.161978 L103.725507,502.075599 L103.763976,501.987824 L103.803075,501.898631 L103.842814,501.807998 L103.883203,501.715901 L103.924254,501.622317 L103.965977,501.527221 L104.008383,501.430589 L104.051485,501.332397 L104.095293,501.232620 L104.139819,501.131231 L104.185075,501.028205 L104.231073,500.923515 L104.277826,500.817135 L104.325345,500.709037 L104.373645,500.599195 L104.422737,500.487579 L104.472635,500.374161 L104.523352,500.258912 L104.574903,500.141803 L104.627300,500.022803 L104.680559,499.901883 L104.734692,499.779012 L104.789716,499.654157 L104.845645,499.527287 L104.902494,499.398370 L104.960278,499.267372 L105.019013,499.134261 L105.078715,498.999002 L105.139400,498.861560 L105.201084,498.721902 L105.263786,498.579990 L105.327520,498.435789 L105.392305,498.289261 L105.458159,498.140370 L105.525099,497.989078 L105.593143,497.835346 L105.662311,497.679134 L105.732621,497.520403 L105.804092,497.359113 L105.876744,497.195221 L105.950597,497.028688 L106.025671,496.859469 L106.101986,496.687522 L106.179564,496.512804 L106.258427,496.335269 L106.338595,496.154873 L106.420091,495.971569 L106.502937,495.785311 L106.587157,495.596052 L106.672773,495.403743 L106.759810,495.208335 L106.848291,495.009779 L106.938242,494.808025 L107.029686,494.603020 L107.122650,494.394713 L107.217159,494.183052 L107.313240,493.967981 L107.410920,493.749447 L107.510226,493.527394 L107.611186,493.301766 L107.713828,493.072506 L107.818181,492.839555 L107.924274,492.602854 L108.032138,492.362344 L108.141802,492.117963 L108.253298,491.869650 L108.366658,491.617341 L108.481913,491.360972 L108.599096,491.100480 L108.718240,490.835797 L108.839380,490.566858 L108.962550,490.293593 L109.087785,490.015934 L109.215121,489.733811 L109.344595,489.447152 L109.476243,489.155885 L109.610104,488.859936 L109.746216,488.559232 L109.884619,488.253695 L110.025352,487.943249 L110.168457,487.627816 L110.313974,487.307316 L110.461946,486.981669 L110.612417,486.650792 L110.765430,486.314602 L110.921030,485.973015 L111.079263,485.625944 L111.240176,485.273303 L111.403814,484.915003 L111.570228,484.550954 L111.739466,484.181065 L111.911578,483.805242 L112.086616,483.423392 L112.264631,483.035419 L112.445677,482.641225 L112.629808,482.240713 L112.817080,481.833781 L113.007548,481.420329 L113.201269,481.000252 L113.398304,480.573445 L113.598710,480.139803 L113.802550,479.699217 L114.009885,479.251577 L114.220778,478.796771 L114.435295,478.334687 L114.653500,477.865208 L114.875463,477.388220 L115.101249,476.903602 L115.330931,476.411234 L115.564579,475.910995 L115.802267,475.402760 L116.044067,474.886402 L116.290057,474.361795 L116.540314,473.828809 L116.794917,473.287310 L117.053946,472.737167 L117.317483,472.178242 L117.585614,471.610398 L117.858423,471.033494 L118.135999,470.447390 L118.418431,469.851939 L118.705809,469.246997 L118.998229,468.632414 L119.295784,468.008039 L119.598572,467.373719 L119.906693,466.729300 L120.220248,466.074622 L120.539342,465.409526 L120.864080,464.733849 L121.194571,464.047427 L121.530925,463.350093 L121.873256,462.641675 L122.221679,461.922003 L122.576314,461.190901 L122.937281,460.448191 L123.304703,459.693694 L123.678709,458.927228 L124.059425,458.148605 L124.446987,457.357640 L124.841528,456.554140 L125.243187,455.737913 L125.652106,454.908762 L126.068431,454.066487 L126.492310,453.210887 L126.923894,452.341758 L127.363340,451.458890 L127.810807,450.562073 L128.266458,449.651095 L128.730460,448.725736 L129.202984,447.785779 L129.684206,446.831000 L130.174305,445.861172 L130.673465,444.876067 L131.181876,443.875452 L131.699730,442.859092 L132.227226,441.826747 L132.764566,440.778177 L133.311960,439.713134 L133.869620,438.631371 L134.437767,437.532635 L135.016626,436.416672 L135.606426,435.283221 L136.207405,434.132021 L136.819806,432.962806 L137.443879,431.775306 L138.079880,430.569249 L138.728072,429.344358 L139.388726,428.100354 L140.062119,426.836954 L140.748538,425.553869 L141.448275,424.250809 L142.161633,422.927480 L142.888921,421.583585 L143.630458,420.218821 L144.386573,418.832883 L145.157604,417.425462 L145.943898,415.996247 L146.745812,414.544920 L147.563716,413.071161 L148.397987,411.574647 L149.249018,410.055051 L150.117211,408.512042 L151.002980,406.945285 L151.906753,405.354442 L152.828973,403.739171 L153.770092,402.099127 L154.730582,400.433960 L155.710927,398.743319 L156.711625,397.026848 L157.733195,395.284186 L158.776170,393.514972 L159.841100,391.718839 L160.928556,389.895417 L162.039127,388.044335 L163.173421,386.165217 L164.332069,384.257683 L165.515724,382.321353 L166.725061,380.355842 L167.960779,378.360762 L169.223604,376.335725 L170.514287,374.280337 L171.833606,372.194205 L173.182370,370.076932 L174.561417,367.928119 L175.971617,365.747366 L177.413876,363.534272 L178.889132,361.288432 L180.398362,359.009444 L181.942581,356.696902 L183.522847,354.350400 L185.140260,351.969533 L186.795964,349.553896 L188.491156,347.103082 L190.227078,344.616689 L192.005030,342.094313 L193.826368,339.535553 L195.692507,336.940010 L197.604925,334.307288 L199.565171,331.636996 L201.574861,328.928743 L203.635691,326.182145 L205.749434,323.396825 L207.917951,320.572410 L210.143194,317.708534 L212.427211,314.804839 L214.772155,311.860978 L217.180289,308.876610 L219.653993,305.851408 L222.195776,302.785057 L224.808280,299.677254 L227.494292,296.527714 L230.251868,293.341771 L233.009444,290.203253 L235.767020,287.111454 L238.524595,284.065679 L241.282171,281.065241 L244.039747,278.109468 L246.797323,275.197693 L249.554898,272.329261 L252.312474,269.503528 L255.070050,266.719858 L257.827626,263.977625 L260.585202,261.276211 L263.342777,258.615010 L266.100353,255.993423 L268.857929,253.410860 L271.615505,250.866740 L274.373080,248.360490 L277.130656,245.891548 L279.888232,243.459358 L282.645808,241.063372 L285.403383,238.703053 L288.160959,236.377868 L290.918535,234.087295 L293.676111,231.830819 L296.433686,229.607932 L299.191262,227.418134 L301.948838,225.260932 L304.706414,223.135842 L307.463989,221.042386 L310.221565,218.980091 L312.979141,216.948496 L315.736717,214.947142 L318.494292,212.975579 L321.251868,211.033365 L324.009444,209.120061 L326.767020,207.235239 L329.524595,205.378473 L332.282171,203.549346 L335.039747,201.747448 L337.797323,199.972371 L340.554898,198.223718 L343.312474,196.501095 L346.070050,194.804114 L348.827626,193.132393 L351.585202,191.485558 L354.342777,189.863236 L357.100353,188.265064 L359.857929,186.690682 L362.615505,185.139735 L365.373080,183.611875 L368.130656,182.106759 L370.888232,180.624047 L373.645808,179.163406 L376.403383,177.724508 L379.160959,176.307029 L381.918535,174.910650 L384.676111,173.535057 L387.433686,172.179940 L390.191262,170.844996 L392.948838,169.529922 L395.706414,168.234425 L398.463989,166.958212 L401.221565,165.700996 L403.979141,164.462495 L406.736717,163.242429 L409.494292,162.040525 L412.251868,160.856512 L415.009444,159.690124 L417.767020,158.541099 L420.524595,157.409177 L423.282171,156.294105 L426.039747,155.195631 L428.797323,154.113509 L431.554898,153.047495 L434.312474,151.997350 L437.070050,150.962836 L439.827626,149.943722 L442.585202,148.939778 L445.342777,147.950778 L448.100353,146.976500 L450.857929,146.016726 L453.615505,145.071237 L456.373080,144.139824 L459.130656,143.222274 L461.888232,142.318384 L464.645808,141.427948 L467.403383,140.550767 L470.160959,139.686643 L472.918535,138.835382 L475.676111,137.996793 L478.433686,137.170687 L481.191262,136.356878 L483.948838,135.555183 L486.706414,134.765422 L489.463989,133.987417 L492.221565,133.220993 L494.979141,132.465978 L497.736717,131.722201 L500.494292,130.989497 L503.251868,130.267699 L506.009444,129.556645 L508.767020,128.856176 L511.524595,128.166134 L514.282171,127.486364 L517.039747,126.816712 L519.797323,126.157029 L522.554898,125.507166 L525.312474,124.866976 L528.070050,124.236315 L530.827626,123.615043 L533.585202,123.003019 L536.342777,122.400105 L539.100353,121.806166 L541.857929,121.221067 L544.615505,120.644679 L547.373080,120.076870 L550.130656,119.517514 L552.888232,118.966484 L555.645808,118.423657 L558.403383,117.888909 L561.160959,117.362122 L563.918535,116.843177 L566.676111,116.331956 L569.433686,115.828345 L572.191262,115.332231 L574.948838,114.843502 L577.706414,114.362048 L580.463989,113.887760 L583.221565,113.420533 L585.979141,112.960260 L588.736717,112.506839 L591.494292,112.060168 L594.251868,111.620145 L597.009444,111.186673 L599.767020,110.759653 L602.524595,110.338990 L605.282171,109.924588 L608.039747,109.516355 L610.797323,109.114199 L613.554898,108.718029 L616.312474,108.327757 L619.070050,107.943293 L621.827626,107.564553 L624.585202,107.191451 L627.342777,106.823903 L630.100353,106.461825 L632.857929,106.105138 L635.615505,105.753760 L638.373080,105.407613 L641.130656,105.066618 L643.888232,104.730699 L646.645808,104.399780 L649.403383,104.073788 L652.160959,103.752648 L654.918535,103.436288 L657.676111,103.124638 L660.433686,102.817627 L663.191262,102.515185 L665.948838,102.217246 L668.706414,101.923742 L671.463989,101.634607 L674.221565,101.349776 L676.979141,101.069185 L679.736717,100.792770 L682.494292,100.520470 L685.251868,100.252224 L688.009444,99.987970 L690.767020,99.727650 L693.524595,99.471205 L696.282171,99.218578 L699.039747,98.969711 L701.797323,98.724548 L704.554898,98.483035 L707.312474,98.245117 L710.070050,98.010741 L712.827626,97.779854 L715.585202,97.552403 L718.342777,97.328338 L721.100353,97.107608 L723.857929,96.890165 L726.615505,96.675958 L729.373080,96.464939 L732.130656,96.257062 L734.888232,96.052279 L737.645808,95.850545 L740.403383,95.651813 L743.160959,95.456040 L745.918535,95.263180 L748.676111,95.073192 L751.433686,94.886032 L754.191262,94.701658 L756.948838,94.520028 L759.706414,94.341102 L762.463989,94.164839 L765.221565,93.991201 L767.979141,93.820147 L770.736717,93.651639 L773.494292,93.485639 L776.251868,93.322111 L779.009444,93.161017 L781.767020,93.002321 L784.524595,92.845987 L787.282171,92.691980 L790.039747,92.540265 L792.797323,92.390810 L795.554898,92.243578 L798.312474,92.098539 L801.070050,91.955658 L803.827626,91.814905 L806.585202,91.676246 L809.342777,91.539652 L812.100353,91.405091 L814.857929,91.272532 L817.615505,91.141948 L820.373080,91.013307 L823.130656,90.886580 L825.888232,90.761741 L828.645808,90.638759 L831.403383,90.517608 L834.160959,90.398261 L836.918535,90.280690 L839.676111,90.164870 L842.433686,90.050773 L845.191262,89.938375 L847.948838,89.827650 L850.706414,89.718573 L853.463989,89.611120 L856.221565,89.505266 L858.979141,89.400988 L861.736717,89.298262 L864.494292,89.197066 L867.251868,89.097375 L870.009444,88.999169 L872.767020,88.902425 L875.524595,88.807121 L878.282171,88.713235 L881.039747,88.620747 L883.797323,88.529636 L886.554898,88.439880 L889.312474,88.351461 L892.070050,88.264359 L894.827626,88.178552 L897.585202,88.094023 L900.342777,88.010753 L903.100353,87.928722 L905.857929,87.847911 L908.615505,87.768304 L911.373080,87.689882 L914.130656,87.612627 L916.888232,87.536522 L919.645808,87.461551 L922.403383,87.387695 L925.160959,87.314938 L927.918535,87.243265 L928.636364,87.224783" stroke="#cc6600" stroke-width="2" fill="none"/><line x1="920.000000" y1="50.000000" x2="940.000000" y2="50.000000" stroke="#1f77b4" stroke-width="2"/><text x="945.000000" y="54.000000" font-family="Arial, sans-serif" font-size="10">True A</text><line x1="920.000000" y1="70.000000" x2="940.000000" y2="70.000000" stroke="#ff7f0e" stroke-width="2"/><text x="945.000000" y="74.000000" font-family="Arial, sans-serif" font-size="10">True B</text><line x1="920.000000" y1="90.000000" x2="940.000000" y2="90.000000" stroke="#0d4a70" stroke-width="2"/><text x="945.000000" y="94.000000" font-family="Arial, sans-serif" font-size="10">Fit A</text><line x1="920.000000" y1="110.000000" x2="940.000000" y2="110.000000" stroke="#cc6600" stroke-width="2"/><text x="945.000000" y="114.000000" font-family="Arial, sans-serif" font-size="10">Fit B</text><g id="plot_130000000_crosshair" style="display:none;"><line id="plot_130000000_line" x1="0" y1="40.000000" x2="0" y2="550.000000" stroke="#666" stroke-width="1" stroke-dasharray="4,4"/><rect id="tooltip_bg" x="0" y="0" rx="4" ry="4" fill="white" stroke="#666" stroke-width="1" opacity="0.95"/><text id="tooltip_text" x="0" y="0" font-family="Arial, sans-serif" font-size="11" fill="#333"></text></g><rect id="plot_130000000_overlay" x="60.000000" y="40.000000" width="910.000000" height="510.000000" fill="transparent" style="cursor:crosshair;"/></svg>